M48
; DRILL file {KiCad 7.0.5} date Wed Jul 26 15:19:42 2023
; FORMAT={-:-/ absolute / metric / decimal}
; #@! TF.CreationDate,2023-07-26T15:19:42-04:00
; #@! TF.GenerationSoftware,Kicad,Pcbnew,7.0.5
; #@! TF.FileFunction,MixedPlating,1,2
FMAT,2
METRIC
; #@! TA.AperFunction,Plated,PTH,ViaDrill
T1C0.300
; #@! TA.AperFunction,Plated,PTH,ViaDrill
T2C0.500
; #@! TA.AperFunction,Plated,PTH,ComponentDrill
T3C0.650
; #@! TA.AperFunction,Plated,PTH,ViaDrill
T4C0.700
; #@! TA.AperFunction,Plated,PTH,ComponentDrill
T5C0.800
; #@! TA.AperFunction,Plated,PTH,ComponentDrill
T6C0.900
; #@! TA.AperFunction,Plated,PTH,ComponentDrill
T7C2.700
; #@! TA.AperFunction,NonPlated,NPTH,ComponentDrill
T8C0.600
; #@! TA.AperFunction,NonPlated,NPTH,ComponentDrill
T9C0.630
%
G90
G05
T1
X49.64Y-57.83
X51.6Y-59.26
X51.72Y-56.51
X51.73Y-57.18
X52.43Y-71.43
X55.82Y-50.29
X59.372Y-47.992
X60.79Y-50.34
X61.2Y-47.73
X61.39Y-64.31
X61.585Y-73.445
X62.22Y-47.73
X62.375Y-75.645
X62.41Y-67.685
X63.475Y-72.645
X64.195Y-74.115
X64.33Y-41.88
X64.33Y-44.39
X64.33Y-45.39
X64.765Y-68.535
X65.04Y-52.49
X65.19Y-57.52
X66.015Y-67.615
X66.25Y-52.58
X66.29Y-44.4
X66.82Y-45.41
X67.06Y-68.56
X67.29Y-50.27
X67.43Y-48.92
X67.76Y-45.42
X67.77Y-68.63
X67.79Y-40.98
X67.81Y-42.87
X68.01Y-52.27
X68.21Y-52.81
X68.29Y-43.89
X68.32Y-45.36
X68.34Y-61.43
X68.78Y-44.39
X68.82Y-45.37
X68.85Y-46.99
X68.9Y-72.95
X69.0Y-62.92
X69.26Y-42.86
X69.27Y-43.42
X69.29Y-41.04
X69.29Y-44.89
X69.78Y-46.97
X69.82Y-42.87
X69.9Y-47.83
X70.13Y-72.76
X70.2Y-56.54
X70.59Y-47.07
X71.25Y-42.39
X71.27Y-43.89
X71.29Y-45.74
X71.29Y-58.67
X71.31Y-44.89
X71.68Y-43.4
X71.94Y-42.88
X72.39Y-51.86
X73.2Y-57.03
X73.22Y-59.69
X73.97Y-70.17
X75.06Y-73.41
T2
X43.1Y-48.31
X43.14Y-56.09
X43.15Y-43.66
X43.75Y-59.52
X43.98Y-54.57
X44.89Y-48.96
X45.66Y-46.61
X45.89Y-52.18
X45.97Y-48.98
X46.57Y-43.0
X46.59Y-47.03
X47.03Y-45.18
X47.34Y-56.15
X51.34Y-53.19
X51.39Y-54.89
X51.42Y-44.89
X52.0Y-70.02
X52.51Y-74.66
X53.27Y-45.28
X53.74Y-59.96
X53.77Y-65.27
X54.77Y-67.22
X55.34Y-68.53
X55.75Y-69.86
X56.85Y-45.75
X57.17Y-71.1
X57.32Y-69.17
X57.41Y-59.38
X57.99Y-58.74
X58.192Y-72.922
X58.34Y-61.15
X59.2Y-52.94
X59.6Y-59.59
X60.23Y-49.13
X60.35Y-58.74
X60.845Y-71.915
X60.97Y-61.32
X61.25Y-74.22
X61.6Y-52.92
X61.79Y-42.72
X62.3Y-66.45
X62.79Y-44.9
X62.8Y-46.33
X63.25Y-48.3
X63.27Y-49.37
X64.05Y-43.27
X64.18Y-51.66
X64.755Y-67.615
X66.04Y-46.97
X66.72Y-51.71
X68.61Y-50.45
X70.07Y-74.22
X71.15Y-51.02
X71.78Y-53.85
X73.54Y-44.8
T4
X49.91Y-67.01
X49.91Y-74.63
X55.87Y-53.59
X55.88Y-56.41
X55.89Y-59.2
X55.89Y-62.08
X56.82Y-43.05
X59.35Y-43.06
X59.9Y-68.37
X59.91Y-76.0
X63.49Y-53.59
X63.5Y-56.41
X63.51Y-59.19
X63.51Y-62.07
X69.53Y-61.6
X69.53Y-69.23
X72.37Y-69.24
X72.38Y-61.62
T5
X49.91Y-67.01
X49.91Y-74.63
X55.87Y-53.59
X55.88Y-56.41
X55.89Y-59.2
X55.89Y-62.08
X59.907Y-68.375
X59.907Y-75.995
X63.49Y-53.59
X63.5Y-56.41
X63.51Y-59.2
X63.51Y-62.08
X69.53Y-61.61
X69.53Y-69.23
X72.374Y-61.62
X72.374Y-69.24
T6
X56.817Y-43.052
X59.357Y-43.052
T7
X37.01Y-74.66
X37.03Y-40.94
X78.36Y-74.66
X78.37Y-40.94
T8
X73.16Y-72.5
T9
X67.16Y-72.5
X73.16Y-72.5
T3
G00X65.84Y-71.275
M15
G01X65.84Y-72.275
M16
G05
G00X65.84Y-74.95
M15
G01X65.84Y-76.25
M16
G05
G00X74.48Y-71.275
M15
G01X74.48Y-72.275
M16
G05
G00X74.48Y-74.95
M15
G01X74.48Y-76.25
M16
G05
T0
M30
