M48
; DRILL file {KiCad 7.0.5} date Mon Jul 24 14:20:09 2023
; FORMAT={-:-/ absolute / metric / decimal}
; #@! TF.CreationDate,2023-07-24T14:20:09-04:00
; #@! TF.GenerationSoftware,Kicad,Pcbnew,7.0.5
; #@! TF.FileFunction,Plated,1,2,PTH
FMAT,2
METRIC
; #@! TA.AperFunction,Plated,PTH,ViaDrill
T1C0.060
; #@! TA.AperFunction,Plated,PTH,ViaDrill
T2C0.100
; #@! TA.AperFunction,Plated,PTH,ViaDrill
T3C0.115
; #@! TA.AperFunction,Plated,PTH,ViaDrill
T4C0.200
; #@! TA.AperFunction,Plated,PTH,ViaDrill
T5C0.250
; #@! TA.AperFunction,Plated,PTH,ComponentDrill
T6C0.650
; #@! TA.AperFunction,Plated,PTH,ComponentDrill
T7C0.800
; #@! TA.AperFunction,Plated,PTH,ComponentDrill
T8C0.900
%
G90
G05
T1
X96.31Y-65.08
X96.79Y-55.69
X97.53Y-65.42
X97.62Y-71.58
X98.06Y-70.12
X98.83Y-71.69
X98.95Y-62.45
X99.57Y-69.32
X99.675Y-56.255
X100.38Y-52.83
X100.48Y-55.91
X101.74Y-57.0
X102.1Y-55.68
X103.01Y-72.55
X103.71Y-55.1
X104.56Y-60.5
X104.65Y-64.52
X104.77Y-54.25
X104.88Y-64.3
X105.26Y-56.53
X105.27Y-58.54
X105.75Y-57.53
X105.99Y-66.4
X106.44Y-63.76
X106.99Y-64.87
X107.08Y-65.3
X107.49Y-65.37
X107.49Y-66.87
X107.49Y-67.37
X107.66Y-54.91
X107.673Y-55.93
X107.725Y-70.25
X107.97Y-66.41
X107.99Y-69.39
X108.0Y-54.33
X108.04Y-53.22
X108.14Y-61.09
X108.5Y-58.5
X108.56Y-65.95
X108.73Y-55.27
X108.84Y-54.43
X108.99Y-63.74
X108.99Y-69.37
X109.0Y-65.36
X109.38Y-59.37
X109.46Y-66.91
X109.49Y-65.92
X109.49Y-66.38
X109.49Y-67.87
X109.49Y-69.38
X109.5Y-74.68
X109.76Y-63.62
X109.93Y-56.76
X110.07Y-68.44
X110.39Y-67.53
X110.4Y-68.11
X110.49Y-66.86
X110.75Y-65.83
X110.83Y-53.6
X111.1Y-67.78
X111.11Y-52.49
X111.14Y-67.17
X111.15Y-54.63
X111.18Y-55.63
X111.91Y-54.04
X112.11Y-71.01
X112.26Y-68.23
X112.38Y-53.91
X112.799Y-63.081
X112.86Y-56.98
X113.48Y-64.16
X113.48Y-69.78
X113.897Y-60.458
X114.46Y-72.17
X114.72Y-55.14
X114.9Y-57.07
X115.03Y-68.072
X116.75Y-76.43
X116.86Y-57.43
X117.39Y-69.27
X117.41Y-68.06
T2
X85.45Y-63.74
X85.78Y-66.88
X94.49Y-73.77
X94.53Y-57.84
X95.35Y-58.77
X95.95Y-69.81
X96.04Y-70.92
X96.37Y-54.29
X96.47Y-52.86
X96.53Y-62.32
X97.38Y-68.61
X97.4Y-67.06
X97.56Y-74.73
X97.766Y-69.836
X98.083Y-56.637
X98.86Y-69.799
X99.21Y-68.29
X99.42Y-71.66
X99.74Y-65.44
X100.201Y-73.03
X100.39Y-65.35
X100.59Y-74.74
X100.65Y-64.93
X101.02Y-58.46
X101.71Y-56.3
X101.711Y-65.675
X101.85Y-68.31
X102.091Y-69.44
X102.57Y-55.62
X102.75Y-69.01
X103.08Y-63.54
X103.54Y-57.88
X103.59Y-72.59
X103.6Y-66.89
X103.71Y-69.4
X103.74Y-71.66
X103.87Y-64.22
X103.87Y-56.92
X104.024Y-63.389
X104.27Y-71.6
X104.951Y-57.467
X105.0Y-62.28
X105.008Y-63.008
X105.187Y-60.49
X105.27Y-72.93
X105.36Y-66.431
X105.463Y-59.816
X105.66Y-58.85
X105.784Y-64.822
X105.84Y-58.144
X106.01Y-74.64
X106.1Y-56.78
X106.59Y-63.13
X106.98Y-74.64
X107.427Y-77.863
X107.69Y-76.95
X108.06Y-62.27
X108.51Y-76.17
X108.935Y-62.25
X109.054Y-56.426
X109.321Y-56.757
X109.35Y-57.558
X109.56Y-57.908
X109.91Y-61.31
X110.04Y-74.65
X110.551Y-63.03
X110.568Y-57.922
X110.84Y-65.0
X111.06Y-57.61
X111.091Y-64.051
X111.55Y-57.3
X111.92Y-63.246
X112.34Y-74.48
X112.63Y-71.81
X113.122Y-63.933
X113.19Y-58.36
X113.23Y-59.38
X113.34Y-76.88
X113.6Y-68.19
X113.67Y-56.95
X114.01Y-62.54
X114.533Y-53.62
X114.56Y-54.63
X114.572Y-60.842
X114.77Y-59.86
X114.8Y-63.43
X115.48Y-69.63
X115.64Y-63.27
X115.844Y-59.929
X116.334Y-54.31
X116.34Y-67.67
X116.66Y-66.45
X117.51Y-62.19
X117.78Y-56.43
X117.89Y-60.79
X119.16Y-61.9
X119.22Y-63.87
X119.25Y-66.88
X119.6Y-65.59
X120.25Y-56.07
X120.77Y-61.9
X122.09Y-76.16
X123.38Y-76.63
T3
X78.96Y-64.41
X82.07Y-69.24
X85.23Y-72.16
X85.6Y-70.85
X86.37Y-63.94
X87.43Y-73.15
X87.79Y-68.325
X88.039Y-64.313
X88.75Y-69.04
X88.76Y-69.98
X89.84Y-62.64
X89.87Y-70.56
X89.9Y-65.76
X90.076Y-64.289
X91.39Y-63.87
X91.54Y-54.61
X91.555Y-57.36
X91.555Y-56.716
X91.88Y-57.68
X92.35Y-69.17
X92.4Y-56.225
X92.85Y-64.52
X93.11Y-72.695
X93.2Y-62.63
X93.57Y-53.98
X93.585Y-59.46
X93.585Y-63.02
X93.62Y-55.21
X93.63Y-56.22
X93.63Y-70.38
X93.93Y-67.06
X94.038Y-60.8
X95.155Y-60.425
X95.26Y-64.04
X95.39Y-54.82
X95.52Y-70.16
X95.765Y-56.892
X95.93Y-75.64
X95.968Y-68.363
X96.3Y-69.38
X101.796Y-60.584
X102.37Y-60.52
X102.555Y-58.756
X103.938Y-60.037
X103.95Y-61.57
X105.49Y-71.62
X108.15Y-59.795
X111.86Y-68.21
X115.03Y-72.69
X118.31Y-77.17
X118.98Y-70.02
X121.24Y-75.06
X121.42Y-76.77
X122.705Y-77.795
T4
X116.15Y-53.56
T5
X81.18Y-59.67
X81.6Y-55.875
X81.631Y-71.569
X85.75Y-62.0
X86.336Y-65.617
X87.28Y-58.42
X88.32Y-61.69
X90.1Y-60.35
X93.13Y-70.67
X93.3Y-66.225
X113.92Y-74.33
X116.16Y-76.73
T7
X80.65Y-62.19
X80.65Y-69.81
X83.55Y-62.19
X83.55Y-69.81
X111.13Y-78.72
X115.45Y-58.19
X115.45Y-65.81
X118.3Y-58.19
X118.3Y-65.81
X118.75Y-78.72
X119.0Y-68.29
X119.0Y-75.91
X121.5Y-56.19
X121.5Y-63.81
X122.1Y-66.14
X122.1Y-73.76
T8
X98.547Y-63.754
X101.087Y-63.754
T6
G00X98.1Y-54.115
M15
G01X98.1Y-55.115
M16
G05
G00X98.1Y-57.79
M15
G01X98.1Y-59.09
M16
G05
G00X106.74Y-54.115
M15
G01X106.74Y-55.115
M16
G05
G00X106.74Y-57.79
M15
G01X106.74Y-59.09
M16
G05
T0
M30
