%TF.GenerationSoftware,KiCad,Pcbnew,7.0.5*%
%TF.CreationDate,2023-07-26T15:19:29-04:00*%
%TF.ProjectId,GPSPCB,47505350-4342-42e6-9b69-6361645f7063,00*%
%TF.SameCoordinates,Original*%
%TF.FileFunction,Soldermask,Top*%
%TF.FilePolarity,Negative*%
%FSLAX46Y46*%
G04 Gerber Fmt 4.6, Leading zero omitted, Abs format (unit mm)*
G04 Created by KiCad (PCBNEW 7.0.5) date 2023-07-26 15:19:29*
%MOMM*%
%LPD*%
G01*
G04 APERTURE LIST*
G04 Aperture macros list*
%AMRoundRect*
0 Rectangle with rounded corners*
0 $1 Rounding radius*
0 $2 $3 $4 $5 $6 $7 $8 $9 X,Y pos of 4 corners*
0 Add a 4 corners polygon primitive as box body*
4,1,4,$2,$3,$4,$5,$6,$7,$8,$9,$2,$3,0*
0 Add four circle primitives for the rounded corners*
1,1,$1+$1,$2,$3*
1,1,$1+$1,$4,$5*
1,1,$1+$1,$6,$7*
1,1,$1+$1,$8,$9*
0 Add four rect primitives between the rounded corners*
20,1,$1+$1,$2,$3,$4,$5,0*
20,1,$1+$1,$4,$5,$6,$7,0*
20,1,$1+$1,$6,$7,$8,$9,0*
20,1,$1+$1,$8,$9,$2,$3,0*%
%AMFreePoly0*
4,1,14,0.100000,0.600000,0.350000,0.600000,0.350000,-0.600000,0.100000,-0.600000,0.100000,-0.650000,-0.100000,-0.650000,-0.100000,-0.600000,-0.350000,-0.600000,-0.350000,0.450000,-0.200000,0.600000,-0.100000,0.600000,-0.100000,0.650000,0.100000,0.650000,0.100000,0.600000,0.100000,0.600000,$1*%
G04 Aperture macros list end*
%ADD10RoundRect,0.250000X-0.287500X-0.275000X0.287500X-0.275000X0.287500X0.275000X-0.287500X0.275000X0*%
%ADD11RoundRect,0.100000X-0.100000X0.130000X-0.100000X-0.130000X0.100000X-0.130000X0.100000X0.130000X0*%
%ADD12C,1.600000*%
%ADD13O,1.600000X1.600000*%
%ADD14RoundRect,0.250000X0.275000X-0.287500X0.275000X0.287500X-0.275000X0.287500X-0.275000X-0.287500X0*%
%ADD15RoundRect,0.250000X-0.275000X0.287500X-0.275000X-0.287500X0.275000X-0.287500X0.275000X0.287500X0*%
%ADD16R,1.800000X1.800000*%
%ADD17C,1.800000*%
%ADD18RoundRect,0.100000X-0.130000X-0.100000X0.130000X-0.100000X0.130000X0.100000X-0.130000X0.100000X0*%
%ADD19C,5.400000*%
%ADD20C,3.100000*%
%ADD21RoundRect,0.250000X0.287500X0.275000X-0.287500X0.275000X-0.287500X-0.275000X0.287500X-0.275000X0*%
%ADD22O,1.200000X2.400000*%
%ADD23O,1.158000X2.316000*%
%ADD24R,1.000000X2.000000*%
%ADD25R,0.520000X1.000000*%
%ADD26R,0.270000X1.000000*%
%ADD27C,0.630000*%
%ADD28C,0.600000*%
%ADD29R,1.200000X0.600000*%
%ADD30O,1.699999X0.299999*%
%ADD31R,1.569999X1.879999*%
%ADD32R,1.050000X0.400000*%
%ADD33R,2.000000X2.000000*%
%ADD34R,1.400000X0.700000*%
%ADD35R,2.000000X1.000000*%
%ADD36RoundRect,0.100000X0.100000X-0.130000X0.100000X0.130000X-0.100000X0.130000X-0.100000X-0.130000X0*%
%ADD37R,1.500000X1.500000*%
%ADD38R,2.500000X1.000000*%
%ADD39FreePoly0,90.000000*%
%ADD40RoundRect,0.062500X0.062500X-0.112500X0.062500X0.112500X-0.062500X0.112500X-0.062500X-0.112500X0*%
%ADD41R,2.000000X1.500000*%
%ADD42R,2.000000X3.800000*%
%ADD43R,0.300000X1.000000*%
%ADD44R,0.250000X0.950000*%
%ADD45R,0.300000X0.950000*%
%ADD46R,0.300000X0.850000*%
%ADD47R,0.850000X0.300000*%
%ADD48R,2.650000X2.650000*%
%ADD49C,0.290000*%
%ADD50RoundRect,0.100000X0.130000X0.100000X-0.130000X0.100000X-0.130000X-0.100000X0.130000X-0.100000X0*%
G04 APERTURE END LIST*
D10*
%TO.C,C14*%
X71797500Y-59660000D03*
X73222500Y-59660000D03*
%TD*%
%TO.C,C9*%
X63645000Y-68895000D03*
X62220000Y-68895000D03*
%TD*%
D11*
%TO.C,R5*%
X52017500Y-48697500D03*
X52017500Y-49337500D03*
%TD*%
D12*
%TO.C,L3*%
X69530000Y-69230000D03*
D13*
X69530000Y-61610000D03*
%TD*%
D14*
%TO.C,C18*%
X67280000Y-62782500D03*
X67280000Y-61357500D03*
%TD*%
D15*
%TO.C,C15*%
X62810000Y-44895000D03*
X62810000Y-46320000D03*
%TD*%
D16*
%TO.C,D2*%
X59357500Y-43052500D03*
D17*
X56817500Y-43052500D03*
%TD*%
D18*
%TO.C,R14*%
X52210000Y-76670000D03*
X52850000Y-76670000D03*
%TD*%
D19*
%TO.C,H4*%
X37010000Y-74660000D03*
D20*
X37010000Y-74660000D03*
%TD*%
D14*
%TO.C,C19*%
X53750000Y-56765000D03*
X53750000Y-55340000D03*
%TD*%
D21*
%TO.C,C4*%
X65975000Y-50090000D03*
X64550000Y-50090000D03*
%TD*%
D22*
%TO.C,J1*%
X74480000Y-75600000D03*
X65840000Y-75600000D03*
D23*
X74480000Y-71775000D03*
X65840000Y-71775000D03*
D24*
X71560000Y-75600000D03*
X68760000Y-75600000D03*
D25*
X73260000Y-71400000D03*
X72510000Y-71400000D03*
D26*
X71910000Y-71400000D03*
X71410000Y-71400000D03*
X70910000Y-71400000D03*
X70410000Y-71400000D03*
X69910000Y-71400000D03*
X69410000Y-71400000D03*
X68910000Y-71400000D03*
X68410000Y-71400000D03*
D25*
X67810000Y-71400000D03*
X67060000Y-71400000D03*
D27*
X73160000Y-72500000D03*
D28*
X73160000Y-72500000D03*
D27*
X67160000Y-72500000D03*
%TD*%
D15*
%TO.C,C16*%
X65510000Y-61415000D03*
X65510000Y-62840000D03*
%TD*%
D12*
%TO.C,L2*%
X55890000Y-62080000D03*
D13*
X63510000Y-62080000D03*
%TD*%
D11*
%TO.C,R9*%
X61380000Y-64355000D03*
X61380000Y-64995000D03*
%TD*%
%TO.C,R4*%
X52017500Y-47232500D03*
X52017500Y-47872500D03*
%TD*%
D29*
%TO.C,IC2*%
X60120000Y-64280000D03*
X60120000Y-66180000D03*
X57620000Y-66180000D03*
X57620000Y-65230000D03*
X57620000Y-64280000D03*
%TD*%
D30*
%TO.C,U4*%
X53577502Y-46992499D03*
X53577502Y-47492498D03*
X53577502Y-47992500D03*
X53577502Y-48492499D03*
X53577502Y-48992501D03*
X57677501Y-48992501D03*
X57677501Y-48492499D03*
X57677501Y-47992500D03*
X57677501Y-47492498D03*
X57677501Y-46992499D03*
D31*
X55627500Y-47992500D03*
%TD*%
D18*
%TO.C,R7*%
X57667500Y-45752500D03*
X58307500Y-45752500D03*
%TD*%
D29*
%TO.C,IC5*%
X55020000Y-74650000D03*
X55020000Y-73700000D03*
X55020000Y-72750000D03*
X52520000Y-72750000D03*
X52520000Y-74650000D03*
%TD*%
D32*
%TO.C,IC4*%
X51740000Y-57820000D03*
X51740000Y-57170000D03*
X51740000Y-56520000D03*
X49640000Y-56520000D03*
X49640000Y-57170000D03*
X49640000Y-57820000D03*
%TD*%
D11*
%TO.C,R6*%
X59970000Y-47670000D03*
X59970000Y-48310000D03*
%TD*%
D33*
%TO.C,TP2*%
X47540000Y-39710000D03*
%TD*%
D14*
%TO.C,C12*%
X71770000Y-55280000D03*
X71770000Y-53855000D03*
%TD*%
D21*
%TO.C,C23*%
X51385000Y-54890000D03*
X49960000Y-54890000D03*
%TD*%
D15*
%TO.C,C5*%
X71160000Y-49570000D03*
X71160000Y-50995000D03*
%TD*%
D20*
%TO.C,H2*%
X78370000Y-40940000D03*
D19*
X78370000Y-40940000D03*
%TD*%
D12*
%TO.C,Le*%
X63510000Y-59200000D03*
D13*
X55890000Y-59200000D03*
%TD*%
D12*
%TO.C,L7*%
X55870000Y-53590000D03*
D13*
X63490000Y-53590000D03*
%TD*%
D34*
%TO.C,Y2*%
X68610000Y-48950000D03*
X68610000Y-50450000D03*
%TD*%
D35*
%TO.C,ANT1*%
X57307500Y-67915000D03*
X57307500Y-74915000D03*
%TD*%
D12*
%TO.C,L4*%
X72374315Y-69240000D03*
D13*
X72374315Y-61620000D03*
%TD*%
D14*
%TO.C,C21*%
X53780000Y-53600000D03*
X53780000Y-52175000D03*
%TD*%
D21*
%TO.C,C22*%
X51340000Y-53200000D03*
X49915000Y-53200000D03*
%TD*%
D13*
%TO.C,L1*%
X59907500Y-75995000D03*
D12*
X59907500Y-68375000D03*
%TD*%
D15*
%TO.C,C6*%
X40980000Y-43920000D03*
X40980000Y-45345000D03*
%TD*%
D18*
%TO.C,R16*%
X54710000Y-71440000D03*
X54070000Y-71440000D03*
%TD*%
D36*
%TO.C,R10*%
X56280000Y-65560000D03*
X56280000Y-66200000D03*
%TD*%
D37*
%TO.C,ANT2*%
X47340000Y-51220000D03*
X41120000Y-51220000D03*
X47340000Y-63980000D03*
X41120000Y-63980000D03*
D38*
X44230000Y-76730000D03*
%TD*%
D36*
%TO.C,R2*%
X66440000Y-69260000D03*
X66440000Y-69900000D03*
%TD*%
D39*
%TO.C,U2*%
X62867500Y-74165000D03*
D40*
X62367500Y-73440000D03*
X62867500Y-73440000D03*
X63367500Y-73440000D03*
X63367500Y-74890000D03*
X62867500Y-74890000D03*
X62367500Y-74890000D03*
%TD*%
D10*
%TO.C,C8*%
X63642500Y-70515000D03*
X62217500Y-70515000D03*
%TD*%
D41*
%TO.C,U3*%
X43150000Y-43650000D03*
X43150000Y-45950000D03*
D42*
X49450000Y-45950000D03*
D41*
X43150000Y-48250000D03*
%TD*%
D43*
%TO.C,IC6*%
X54140000Y-67875000D03*
D44*
X53640000Y-67850000D03*
X53140000Y-67850000D03*
D45*
X52640000Y-67850000D03*
X52640000Y-69100000D03*
D44*
X53140000Y-69100000D03*
X53640000Y-69100000D03*
D45*
X54140000Y-69100000D03*
%TD*%
D21*
%TO.C,C10*%
X61060000Y-46320000D03*
X59635000Y-46320000D03*
%TD*%
D46*
%TO.C,IC3*%
X67000000Y-59820000D03*
X67500000Y-59820000D03*
X68000000Y-59820000D03*
X68500000Y-59820000D03*
X69000000Y-59820000D03*
X69500000Y-59820000D03*
D47*
X70200000Y-59120000D03*
X70200000Y-58620000D03*
X70200000Y-58120000D03*
X70200000Y-57620000D03*
X70200000Y-57120000D03*
X70200000Y-56620000D03*
D46*
X69500000Y-55920000D03*
X69000000Y-55920000D03*
X68500000Y-55920000D03*
X68000000Y-55920000D03*
X67500000Y-55920000D03*
X67000000Y-55920000D03*
D47*
X66300000Y-56620000D03*
X66300000Y-57120000D03*
X66300000Y-57620000D03*
X66300000Y-58120000D03*
X66300000Y-58620000D03*
X66300000Y-59120000D03*
D48*
X68250000Y-57870000D03*
%TD*%
D20*
%TO.C,H3*%
X78360000Y-74660000D03*
D19*
X78360000Y-74660000D03*
%TD*%
D12*
%TO.C,L8*%
X49910000Y-74630000D03*
D13*
X49910000Y-67010000D03*
%TD*%
D14*
%TO.C,C7*%
X40980000Y-48425000D03*
X40980000Y-47000000D03*
%TD*%
D21*
%TO.C,C11*%
X54710000Y-45292500D03*
X53285000Y-45292500D03*
%TD*%
%TO.C,C25*%
X50775000Y-64810000D03*
X49350000Y-64810000D03*
%TD*%
D20*
%TO.C,H1*%
X37030000Y-40940000D03*
D19*
X37030000Y-40940000D03*
%TD*%
D49*
%TO.C,IC1*%
X70290000Y-41890000D03*
X70290000Y-42390000D03*
X70290000Y-42890000D03*
X70290000Y-43390000D03*
X70290000Y-43890000D03*
X70290000Y-44390000D03*
X70290000Y-44890000D03*
X70290000Y-45390000D03*
X70290000Y-45890000D03*
X69790000Y-41890000D03*
X69790000Y-42390000D03*
X69790000Y-42890000D03*
X69790000Y-43390000D03*
X69790000Y-43890000D03*
X69790000Y-44390000D03*
X69790000Y-44890000D03*
X69790000Y-45390000D03*
X69790000Y-45890000D03*
X69290000Y-41890000D03*
X69290000Y-42390000D03*
X69290000Y-42890000D03*
X69290000Y-43390000D03*
X69290000Y-43890000D03*
X69290000Y-44390000D03*
X69290000Y-44890000D03*
X69290000Y-45390000D03*
X69290000Y-45890000D03*
X68790000Y-41890000D03*
X68790000Y-42390000D03*
X68790000Y-42890000D03*
X68790000Y-43390000D03*
X68790000Y-43890000D03*
X68790000Y-44390000D03*
X68790000Y-44890000D03*
X68790000Y-45390000D03*
X68790000Y-45890000D03*
X68290000Y-41890000D03*
X68290000Y-42390000D03*
X68290000Y-42890000D03*
X68290000Y-43390000D03*
X68290000Y-43890000D03*
X68290000Y-44390000D03*
X68290000Y-44890000D03*
X68290000Y-45390000D03*
X68290000Y-45890000D03*
X67790000Y-41890000D03*
X67790000Y-42390000D03*
X67790000Y-42890000D03*
X67790000Y-43390000D03*
X67790000Y-43890000D03*
X67790000Y-44390000D03*
X67790000Y-44890000D03*
X67790000Y-45390000D03*
X67790000Y-45890000D03*
X67290000Y-41890000D03*
X67290000Y-42390000D03*
X67290000Y-42890000D03*
X67290000Y-43390000D03*
X67290000Y-43890000D03*
X67290000Y-44390000D03*
X67290000Y-44890000D03*
X67290000Y-45390000D03*
X67290000Y-45890000D03*
X66790000Y-41890000D03*
X66790000Y-42390000D03*
X66790000Y-42890000D03*
X66790000Y-43390000D03*
X66790000Y-43890000D03*
X66790000Y-44390000D03*
X66790000Y-44890000D03*
X66790000Y-45390000D03*
X66790000Y-45890000D03*
X66290000Y-41890000D03*
X66290000Y-42390000D03*
X66290000Y-42890000D03*
X66290000Y-43390000D03*
X66290000Y-43890000D03*
X66290000Y-44390000D03*
X66290000Y-44890000D03*
X66290000Y-45390000D03*
X66290000Y-45890000D03*
X65790000Y-41890000D03*
X65790000Y-42390000D03*
X65790000Y-42890000D03*
X65790000Y-43390000D03*
X65790000Y-43890000D03*
X65790000Y-44390000D03*
X65790000Y-44890000D03*
X65790000Y-45390000D03*
X65790000Y-45890000D03*
X65290000Y-41890000D03*
X65290000Y-42390000D03*
X65290000Y-42890000D03*
X65290000Y-43390000D03*
X65290000Y-43890000D03*
X65290000Y-44390000D03*
X65290000Y-44890000D03*
X65290000Y-45390000D03*
X65290000Y-45890000D03*
%TD*%
D21*
%TO.C,C24*%
X50770000Y-62420000D03*
X49345000Y-62420000D03*
%TD*%
D18*
%TO.C,R3*%
X63890000Y-67695000D03*
X63250000Y-67695000D03*
%TD*%
%TO.C,R15*%
X53070000Y-71440000D03*
X52430000Y-71440000D03*
%TD*%
D15*
%TO.C,C13*%
X53730000Y-61730000D03*
X53730000Y-63155000D03*
%TD*%
D21*
%TO.C,Ce*%
X65965000Y-48370000D03*
X64540000Y-48370000D03*
%TD*%
%TO.C,C27*%
X50770000Y-60660000D03*
X49345000Y-60660000D03*
%TD*%
D36*
%TO.C,R11*%
X61380000Y-65835000D03*
X61380000Y-66475000D03*
%TD*%
D10*
%TO.C,C26*%
X49347500Y-76620000D03*
X50772500Y-76620000D03*
%TD*%
D18*
%TO.C,R12*%
X50835000Y-59270000D03*
X51475000Y-59270000D03*
%TD*%
D33*
%TO.C,TP1*%
X43130000Y-39700000D03*
%TD*%
D50*
%TO.C,R1*%
X61770000Y-67685000D03*
X62410000Y-67685000D03*
%TD*%
D15*
%TO.C,C20*%
X53750000Y-58572500D03*
X53750000Y-59997500D03*
%TD*%
D12*
%TO.C,L5*%
X55880000Y-56410000D03*
D13*
X63500000Y-56410000D03*
%TD*%
D21*
%TO.C,C17*%
X73200000Y-57040000D03*
X71775000Y-57040000D03*
%TD*%
D11*
%TO.C,R8*%
X67770000Y-69265000D03*
X67770000Y-69905000D03*
%TD*%
M02*
