%TF.GenerationSoftware,KiCad,Pcbnew,7.0.5*%
%TF.CreationDate,2023-07-26T15:19:29-04:00*%
%TF.ProjectId,GPSPCB,47505350-4342-42e6-9b69-6361645f7063,00*%
%TF.SameCoordinates,Original*%
%TF.FileFunction,Profile,NP*%
%FSLAX46Y46*%
G04 Gerber Fmt 4.6, Leading zero omitted, Abs format (unit mm)*
G04 Created by KiCad (PCBNEW 7.0.5) date 2023-07-26 15:19:29*
%MOMM*%
%LPD*%
G01*
G04 APERTURE LIST*
%TA.AperFunction,Profile*%
%ADD10C,0.050000*%
%TD*%
%TA.AperFunction,Profile*%
%ADD11C,0.010000*%
%TD*%
G04 APERTURE END LIST*
D10*
X65530000Y-74960000D02*
X65530000Y-76250000D01*
X66150000Y-74960000D02*
X66150000Y-76250000D01*
X65530000Y-71280000D02*
X65530000Y-72270000D01*
X66150000Y-72270000D02*
X66150000Y-71280000D01*
X74790000Y-71280000D02*
X74790000Y-72270000D01*
X74170000Y-71280000D02*
X74170000Y-72270000D01*
X74170000Y-74950000D02*
X74170000Y-76250000D01*
X74790000Y-74950000D02*
X74790000Y-76250000D01*
X74170000Y-76250000D02*
G75*
G03*
X74790000Y-76250000I310000J0D01*
G01*
X74790000Y-74950000D02*
G75*
G03*
X74170000Y-74950000I-310000J0D01*
G01*
X74170000Y-72270000D02*
G75*
G03*
X74790000Y-72270000I310000J0D01*
G01*
X74790000Y-71280000D02*
G75*
G03*
X74170000Y-71280000I-310000J0D01*
G01*
X65530000Y-76250000D02*
G75*
G03*
X66150000Y-76250000I310000J0D01*
G01*
X66150000Y-74960000D02*
G75*
G03*
X65530000Y-74960000I-310000J0D01*
G01*
X65530000Y-72270000D02*
G75*
G03*
X66150000Y-72270000I310000J0D01*
G01*
X66150000Y-71280000D02*
G75*
G03*
X65530000Y-71280000I-310000J0D01*
G01*
X38350001Y-40940000D02*
G75*
G03*
X38350001Y-40940000I-1323065J0D01*
G01*
X38340001Y-74670000D02*
G75*
G03*
X38340001Y-74670000I-1323065J0D01*
G01*
X79680001Y-74660000D02*
G75*
G03*
X79680001Y-74660000I-1323065J0D01*
G01*
X79693065Y-40940000D02*
G75*
G03*
X79693065Y-40940000I-1323065J0D01*
G01*
X81400000Y-40940000D02*
X81390000Y-74660000D01*
X33980000Y-74660000D02*
X34000000Y-40940000D01*
X78360000Y-77690000D02*
X37010000Y-77690000D01*
X33980000Y-74660000D02*
G75*
G03*
X37010000Y-77690000I3030000J0D01*
G01*
X78360000Y-77690000D02*
G75*
G03*
X81390000Y-74660000I0J3030000D01*
G01*
X37030000Y-37910000D02*
X78370000Y-37910000D01*
X81400000Y-40940000D02*
G75*
G03*
X78370000Y-37910000I-3030000J0D01*
G01*
X37030000Y-37910000D02*
G75*
G03*
X34000000Y-40940000I0J-3030000D01*
G01*
D11*
%TO.C,J1*%
X73285000Y-72815000D02*
G75*
G03*
X73600000Y-72500000I0J315000D01*
G01*
X73600000Y-72500000D02*
G75*
G03*
X73285000Y-72185000I-315000J0D01*
G01*
X72720000Y-72500000D02*
G75*
G03*
X73035000Y-72815000I315000J0D01*
G01*
X73035000Y-72185000D02*
G75*
G03*
X72720000Y-72500000I0J-315000D01*
G01*
X73285000Y-72815000D02*
X73035000Y-72815000D01*
X73035000Y-72185000D02*
X73285000Y-72185000D01*
%TD*%
M02*
