%TF.GenerationSoftware,KiCad,Pcbnew,7.0.5*%
%TF.CreationDate,2023-07-26T15:19:29-04:00*%
%TF.ProjectId,GPSPCB,47505350-4342-42e6-9b69-6361645f7063,00*%
%TF.SameCoordinates,Original*%
%TF.FileFunction,Legend,Bot*%
%TF.FilePolarity,Positive*%
%FSLAX46Y46*%
G04 Gerber Fmt 4.6, Leading zero omitted, Abs format (unit mm)*
G04 Created by KiCad (PCBNEW 7.0.5) date 2023-07-26 15:19:29*
%MOMM*%
%LPD*%
G01*
G04 APERTURE LIST*
%ADD10C,0.400000*%
G04 APERTURE END LIST*
D10*
G36*
X61385901Y-69597013D02*
G01*
X61410659Y-69597288D01*
X61434581Y-69597746D01*
X61457668Y-69598387D01*
X61479919Y-69599212D01*
X61501334Y-69600219D01*
X61521913Y-69601410D01*
X61551215Y-69603539D01*
X61578637Y-69606081D01*
X61604178Y-69609035D01*
X61627838Y-69612401D01*
X61649618Y-69616179D01*
X61669518Y-69620369D01*
X61694347Y-69626910D01*
X61718275Y-69634810D01*
X61741302Y-69644068D01*
X61763429Y-69654685D01*
X61784656Y-69666661D01*
X61804981Y-69679995D01*
X61824406Y-69694688D01*
X61842930Y-69710739D01*
X61860577Y-69728347D01*
X61877124Y-69747955D01*
X61888814Y-69763974D01*
X61899885Y-69781117D01*
X61910338Y-69799385D01*
X61920172Y-69818778D01*
X61929389Y-69839296D01*
X61937987Y-69860939D01*
X61945967Y-69883706D01*
X61953328Y-69907599D01*
X61960050Y-69932915D01*
X61966111Y-69960138D01*
X61969784Y-69979345D01*
X61973163Y-69999400D01*
X61976249Y-70020301D01*
X61979040Y-70042051D01*
X61981538Y-70064647D01*
X61983742Y-70088090D01*
X61985652Y-70112381D01*
X61987268Y-70137519D01*
X61988591Y-70163504D01*
X61989619Y-70190336D01*
X61990354Y-70218016D01*
X61990795Y-70246543D01*
X61990942Y-70275917D01*
X61990942Y-70874312D01*
X59740000Y-70874312D01*
X59740000Y-70264682D01*
X60646629Y-70264682D01*
X60646629Y-70237815D01*
X61053049Y-70237815D01*
X61053072Y-70244944D01*
X61053538Y-70264682D01*
X61584521Y-70264682D01*
X61584056Y-70242906D01*
X61582659Y-70223008D01*
X61579604Y-70200775D01*
X61574017Y-70177969D01*
X61566334Y-70159388D01*
X61554724Y-70143049D01*
X61550759Y-70139263D01*
X61532132Y-70127936D01*
X61510288Y-70120609D01*
X61487939Y-70116182D01*
X61467346Y-70113740D01*
X61444341Y-70112274D01*
X61418925Y-70111786D01*
X61237697Y-70111786D01*
X61216449Y-70112022D01*
X61196670Y-70112730D01*
X61172581Y-70114409D01*
X61151103Y-70116928D01*
X61127926Y-70121257D01*
X61105498Y-70128184D01*
X61086755Y-70138652D01*
X61072008Y-70154925D01*
X61062562Y-70173822D01*
X61057032Y-70193480D01*
X61053872Y-70216332D01*
X61053049Y-70237815D01*
X60646629Y-70237815D01*
X60646629Y-70124975D01*
X60646681Y-70112985D01*
X60647097Y-70089423D01*
X60647929Y-70066419D01*
X60649177Y-70043971D01*
X60650841Y-70022081D01*
X60652921Y-70000748D01*
X60655416Y-69979972D01*
X60658328Y-69959753D01*
X60661656Y-69940092D01*
X60667428Y-69911644D01*
X60674135Y-69884450D01*
X60681779Y-69858510D01*
X60690358Y-69833823D01*
X60699874Y-69810390D01*
X60706774Y-69795482D01*
X60717810Y-69774228D01*
X60729672Y-69754306D01*
X60742357Y-69735714D01*
X60755867Y-69718454D01*
X60770201Y-69702524D01*
X60785359Y-69687925D01*
X60801342Y-69674657D01*
X60818148Y-69662720D01*
X60835780Y-69652114D01*
X60854235Y-69642839D01*
X60860635Y-69640014D01*
X60881163Y-69632077D01*
X60903683Y-69624948D01*
X60928195Y-69618625D01*
X60954699Y-69613110D01*
X60983196Y-69608401D01*
X61003300Y-69605711D01*
X61024289Y-69603379D01*
X61046164Y-69601406D01*
X61068925Y-69599792D01*
X61092571Y-69598536D01*
X61117102Y-69597639D01*
X61142518Y-69597101D01*
X61168820Y-69596922D01*
X61360307Y-69596922D01*
X61385901Y-69597013D01*
G37*
G36*
X61584521Y-68897899D02*
G01*
X61307550Y-68936978D01*
X61342933Y-68922668D01*
X61376175Y-68907218D01*
X61407276Y-68890627D01*
X61436236Y-68872894D01*
X61463055Y-68854021D01*
X61487733Y-68834006D01*
X61510270Y-68812851D01*
X61530666Y-68790554D01*
X61548921Y-68767116D01*
X61565035Y-68742537D01*
X61579009Y-68716817D01*
X61590841Y-68689957D01*
X61600533Y-68661954D01*
X61608083Y-68632811D01*
X61613493Y-68602527D01*
X61616762Y-68571102D01*
X60927997Y-68571102D01*
X60927850Y-68591239D01*
X60927078Y-68620020D01*
X60925646Y-68647092D01*
X60923552Y-68672455D01*
X60920797Y-68696110D01*
X60917381Y-68718056D01*
X60913304Y-68738294D01*
X60906839Y-68762619D01*
X60899199Y-68783906D01*
X60890383Y-68802156D01*
X60877890Y-68821676D01*
X60863917Y-68838716D01*
X60848466Y-68853275D01*
X60831536Y-68865353D01*
X60813127Y-68874951D01*
X60793240Y-68882069D01*
X60784870Y-68884221D01*
X60765049Y-68887770D01*
X60739289Y-68890846D01*
X60716072Y-68892843D01*
X60689515Y-68894573D01*
X60669954Y-68895578D01*
X60648909Y-68896466D01*
X60626380Y-68897235D01*
X60602366Y-68897885D01*
X60576867Y-68898418D01*
X60549884Y-68898832D01*
X60521416Y-68899128D01*
X60491464Y-68899305D01*
X60460027Y-68899364D01*
X59740000Y-68899364D01*
X59740000Y-69485547D01*
X61584521Y-69485547D01*
X61584521Y-68897899D01*
G37*
G36*
X60943930Y-67196530D02*
G01*
X60967412Y-67196748D01*
X60990134Y-67197183D01*
X61012097Y-67197835D01*
X61033300Y-67198706D01*
X61053744Y-67199793D01*
X61082986Y-67201833D01*
X61110519Y-67204361D01*
X61136343Y-67207380D01*
X61160459Y-67210887D01*
X61182866Y-67214884D01*
X61203564Y-67219371D01*
X61222554Y-67224347D01*
X61240729Y-67229897D01*
X61264802Y-67238605D01*
X61288692Y-67248810D01*
X61306489Y-67257445D01*
X61324183Y-67266922D01*
X61341775Y-67277241D01*
X61359263Y-67288400D01*
X61376648Y-67300402D01*
X61393930Y-67313244D01*
X61411109Y-67326929D01*
X61422449Y-67336515D01*
X61438937Y-67351811D01*
X61454798Y-67368206D01*
X61470032Y-67385700D01*
X61484640Y-67404293D01*
X61498620Y-67423985D01*
X61511974Y-67444776D01*
X61524701Y-67466666D01*
X61536801Y-67489656D01*
X61548274Y-67513744D01*
X61559120Y-67538932D01*
X61565982Y-67556296D01*
X61575444Y-67583115D01*
X61583911Y-67610861D01*
X61589002Y-67629874D01*
X61593650Y-67649299D01*
X61597856Y-67669136D01*
X61601618Y-67689385D01*
X61604939Y-67710047D01*
X61607816Y-67731120D01*
X61610251Y-67752606D01*
X61612243Y-67774504D01*
X61613792Y-67796814D01*
X61614899Y-67819536D01*
X61615563Y-67842670D01*
X61615785Y-67866217D01*
X61615439Y-67894238D01*
X61614403Y-67921637D01*
X61612676Y-67948414D01*
X61610259Y-67974569D01*
X61607150Y-68000102D01*
X61603351Y-68025013D01*
X61598861Y-68049302D01*
X61593681Y-68072969D01*
X61587809Y-68096013D01*
X61581247Y-68118436D01*
X61573994Y-68140236D01*
X61566051Y-68161415D01*
X61557416Y-68181971D01*
X61548091Y-68201906D01*
X61538075Y-68221218D01*
X61527369Y-68239909D01*
X61516092Y-68257935D01*
X61504364Y-68275255D01*
X61492186Y-68291869D01*
X61479558Y-68307778D01*
X61466480Y-68322980D01*
X61452951Y-68337476D01*
X61438972Y-68351266D01*
X61417159Y-68370628D01*
X61394333Y-68388401D01*
X61370493Y-68404585D01*
X61345641Y-68419181D01*
X61319775Y-68432188D01*
X61292896Y-68443607D01*
X61274272Y-68450410D01*
X61254794Y-68456773D01*
X61234460Y-68462698D01*
X61213272Y-68468184D01*
X61191229Y-68473231D01*
X61168332Y-68477839D01*
X61144579Y-68482009D01*
X61119972Y-68485739D01*
X61094509Y-68489031D01*
X61068192Y-68491883D01*
X61041020Y-68494297D01*
X61012993Y-68496272D01*
X60984112Y-68497808D01*
X60954375Y-68498905D01*
X60923784Y-68499563D01*
X60892337Y-68499783D01*
X60428276Y-68499783D01*
X60399657Y-68499663D01*
X60371932Y-68499302D01*
X60345100Y-68498701D01*
X60319160Y-68497860D01*
X60294114Y-68496778D01*
X60269961Y-68495455D01*
X60246700Y-68493892D01*
X60224333Y-68492089D01*
X60202859Y-68490046D01*
X60182278Y-68487762D01*
X60153080Y-68483885D01*
X60125892Y-68479467D01*
X60100713Y-68474508D01*
X60077543Y-68469008D01*
X60062957Y-68464936D01*
X60041565Y-68458213D01*
X60020757Y-68450751D01*
X60000532Y-68442551D01*
X59980892Y-68433612D01*
X59961835Y-68423935D01*
X59943362Y-68413519D01*
X59925473Y-68402365D01*
X59908168Y-68390473D01*
X59891447Y-68377842D01*
X59875310Y-68364472D01*
X59864974Y-68355088D01*
X59850091Y-68340167D01*
X59835956Y-68324233D01*
X59822568Y-68307286D01*
X59809927Y-68289326D01*
X59798033Y-68270352D01*
X59786886Y-68250365D01*
X59776487Y-68229365D01*
X59766834Y-68207352D01*
X59757928Y-68184325D01*
X59749769Y-68160285D01*
X59744800Y-68143704D01*
X59737948Y-68118015D01*
X59731817Y-68091348D01*
X59726408Y-68063702D01*
X59721719Y-68035077D01*
X59718995Y-68015449D01*
X59716590Y-67995387D01*
X59714507Y-67974890D01*
X59712744Y-67953957D01*
X59711301Y-67932590D01*
X59710179Y-67910787D01*
X59709378Y-67888550D01*
X59708897Y-67865877D01*
X59708773Y-67848143D01*
X60052630Y-67848143D01*
X60052662Y-67850471D01*
X60056498Y-67871232D01*
X60068100Y-67888779D01*
X60085359Y-67899922D01*
X60095129Y-67903128D01*
X60115279Y-67907135D01*
X60137108Y-67909740D01*
X60157868Y-67911343D01*
X60181560Y-67912518D01*
X60201252Y-67913119D01*
X60222593Y-67913480D01*
X60245582Y-67913600D01*
X61073565Y-67913600D01*
X61090306Y-67913547D01*
X61113849Y-67913266D01*
X61135512Y-67912745D01*
X61155294Y-67911984D01*
X61178745Y-67910595D01*
X61198853Y-67908778D01*
X61219287Y-67905906D01*
X61241116Y-67899922D01*
X61243009Y-67899013D01*
X61259869Y-67885795D01*
X61269456Y-67866689D01*
X61271891Y-67846678D01*
X61271861Y-67844261D01*
X61268933Y-67824877D01*
X61258847Y-67806957D01*
X61241605Y-67795387D01*
X61232354Y-67792410D01*
X61212181Y-67788689D01*
X61189598Y-67786270D01*
X61167754Y-67784782D01*
X61142551Y-67783691D01*
X61121445Y-67783132D01*
X61098450Y-67782798D01*
X61073565Y-67782686D01*
X60227508Y-67782686D01*
X60213432Y-67782737D01*
X60193569Y-67783008D01*
X60169424Y-67783729D01*
X60147949Y-67784863D01*
X60124863Y-67786859D01*
X60102670Y-67790105D01*
X60082428Y-67795875D01*
X60080595Y-67796725D01*
X60064270Y-67809408D01*
X60054987Y-67828209D01*
X60052630Y-67848143D01*
X59708773Y-67848143D01*
X59708736Y-67842770D01*
X59708784Y-67832304D01*
X59709161Y-67811597D01*
X59709917Y-67791188D01*
X59711051Y-67771076D01*
X59712562Y-67751262D01*
X59714451Y-67731745D01*
X59717993Y-67703028D01*
X59722385Y-67674981D01*
X59727627Y-67647604D01*
X59733719Y-67620897D01*
X59740662Y-67594859D01*
X59748454Y-67569491D01*
X59757096Y-67544793D01*
X59763351Y-67528673D01*
X59773521Y-67505180D01*
X59784635Y-67482511D01*
X59796693Y-67460667D01*
X59809696Y-67439647D01*
X59823644Y-67419451D01*
X59838536Y-67400079D01*
X59854373Y-67381532D01*
X59871154Y-67363809D01*
X59888880Y-67346911D01*
X59907550Y-67330837D01*
X59920367Y-67320565D01*
X59939800Y-67306024D01*
X59959482Y-67292521D01*
X59979413Y-67280058D01*
X59999593Y-67268633D01*
X60020022Y-67258247D01*
X60040701Y-67248901D01*
X60061628Y-67240593D01*
X60082804Y-67233325D01*
X60104229Y-67227095D01*
X60125903Y-67221904D01*
X60133326Y-67220342D01*
X60157105Y-67215951D01*
X60183151Y-67212007D01*
X60211465Y-67208509D01*
X60231599Y-67206425D01*
X60252742Y-67204540D01*
X60274891Y-67202853D01*
X60298049Y-67201365D01*
X60322213Y-67200075D01*
X60347386Y-67198984D01*
X60373565Y-67198091D01*
X60400753Y-67197396D01*
X60428948Y-67196900D01*
X60458150Y-67196602D01*
X60488360Y-67196503D01*
X60931905Y-67196503D01*
X60943930Y-67196530D01*
G37*
G36*
X61834626Y-66436419D02*
G01*
X61553258Y-66436419D01*
X61553258Y-66286943D01*
X61240628Y-66286943D01*
X61240628Y-66436419D01*
X60262191Y-66436419D01*
X60240655Y-66436364D01*
X60220379Y-66436198D01*
X60192327Y-66435741D01*
X60167108Y-66435036D01*
X60144722Y-66434081D01*
X60125170Y-66432878D01*
X60103509Y-66430886D01*
X60083517Y-66427773D01*
X60068750Y-66422253D01*
X60060958Y-66403968D01*
X60057180Y-66380315D01*
X60055291Y-66359451D01*
X60053905Y-66334511D01*
X60053197Y-66313132D01*
X60052772Y-66289460D01*
X60052630Y-66263495D01*
X59740000Y-66263495D01*
X59740000Y-66502853D01*
X59740062Y-66526310D01*
X59740251Y-66548931D01*
X59740566Y-66570717D01*
X59741007Y-66591666D01*
X59741574Y-66611780D01*
X59742660Y-66640384D01*
X59744030Y-66667107D01*
X59745682Y-66691949D01*
X59747619Y-66714912D01*
X59749838Y-66735993D01*
X59753239Y-66761177D01*
X59756120Y-66777871D01*
X59760959Y-66798586D01*
X59767172Y-66818720D01*
X59774758Y-66838275D01*
X59783719Y-66857250D01*
X59794053Y-66875644D01*
X59805762Y-66893459D01*
X59818844Y-66910693D01*
X59833300Y-66927347D01*
X59848817Y-66942826D01*
X59864838Y-66956779D01*
X59881363Y-66969205D01*
X59898391Y-66980104D01*
X59915923Y-66989477D01*
X59933959Y-66997323D01*
X59952498Y-67003643D01*
X59971542Y-67008436D01*
X59993936Y-67012100D01*
X60014798Y-67014527D01*
X60039147Y-67016679D01*
X60066982Y-67018557D01*
X60087476Y-67019656D01*
X60109519Y-67020633D01*
X60133111Y-67021488D01*
X60158253Y-67022221D01*
X60184944Y-67022831D01*
X60213185Y-67023320D01*
X60242975Y-67023686D01*
X60274314Y-67023930D01*
X60307203Y-67024052D01*
X60324228Y-67024068D01*
X61240628Y-67024068D01*
X61240628Y-67143747D01*
X61553258Y-67143747D01*
X61553258Y-67024068D01*
X61834626Y-67024068D01*
X61834626Y-66436419D01*
G37*
G36*
X60521577Y-65470195D02*
G01*
X60266587Y-65470195D01*
X60242656Y-65470358D01*
X60220322Y-65470847D01*
X60199585Y-65471663D01*
X60174421Y-65473258D01*
X60152095Y-65475433D01*
X60132609Y-65478189D01*
X60112245Y-65482449D01*
X60093663Y-65488757D01*
X60091139Y-65489951D01*
X60073828Y-65501942D01*
X60061646Y-65518268D01*
X60054594Y-65538929D01*
X60052630Y-65560564D01*
X60052892Y-65568031D01*
X60056821Y-65587698D01*
X60066714Y-65604748D01*
X60082428Y-65616740D01*
X60100002Y-65622450D01*
X60121950Y-65626229D01*
X60145093Y-65628590D01*
X60166785Y-65629964D01*
X60191301Y-65630880D01*
X60211541Y-65631266D01*
X60233370Y-65631395D01*
X60615366Y-65631395D01*
X60615366Y-65500481D01*
X60927997Y-65500481D01*
X60927997Y-65631395D01*
X61052561Y-65631395D01*
X61081111Y-65631296D01*
X61107412Y-65631000D01*
X61131463Y-65630506D01*
X61153265Y-65629815D01*
X61178834Y-65628586D01*
X61200404Y-65627006D01*
X61221742Y-65624538D01*
X61241116Y-65620160D01*
X61248329Y-65616794D01*
X61263205Y-65601791D01*
X61269967Y-65583249D01*
X61271891Y-65562030D01*
X61271748Y-65557662D01*
X61266739Y-65538514D01*
X61252964Y-65522630D01*
X61235254Y-65513670D01*
X61213990Y-65508531D01*
X61192390Y-65505633D01*
X61171263Y-65503778D01*
X61146716Y-65502335D01*
X61126062Y-65501524D01*
X61103485Y-65500944D01*
X61078985Y-65500597D01*
X61052561Y-65500481D01*
X60927997Y-65500481D01*
X60615366Y-65500481D01*
X60615366Y-64912832D01*
X60870844Y-64912832D01*
X60903664Y-64913079D01*
X60935568Y-64913817D01*
X60966557Y-64915048D01*
X60996629Y-64916771D01*
X61025785Y-64918986D01*
X61054026Y-64921694D01*
X61081351Y-64924894D01*
X61107759Y-64928586D01*
X61133252Y-64932771D01*
X61157829Y-64937448D01*
X61181490Y-64942617D01*
X61204235Y-64948278D01*
X61226065Y-64954432D01*
X61246978Y-64961078D01*
X61266975Y-64968216D01*
X61286057Y-64975847D01*
X61304451Y-64984027D01*
X61322388Y-64992936D01*
X61339866Y-65002575D01*
X61356887Y-65012941D01*
X61373450Y-65024037D01*
X61389555Y-65035862D01*
X61405201Y-65048416D01*
X61420390Y-65061698D01*
X61435121Y-65075710D01*
X61449394Y-65090450D01*
X61463209Y-65105920D01*
X61476566Y-65122118D01*
X61489465Y-65139045D01*
X61501906Y-65156701D01*
X61513890Y-65175086D01*
X61525415Y-65194200D01*
X61536358Y-65213999D01*
X61546595Y-65234439D01*
X61556126Y-65255520D01*
X61564952Y-65277243D01*
X61573071Y-65299606D01*
X61580484Y-65322611D01*
X61587191Y-65346257D01*
X61593192Y-65370544D01*
X61598487Y-65395472D01*
X61603076Y-65421041D01*
X61606959Y-65447251D01*
X61610136Y-65474103D01*
X61612608Y-65501595D01*
X61614373Y-65529729D01*
X61615432Y-65558504D01*
X61615785Y-65587920D01*
X61615491Y-65612111D01*
X61614609Y-65635959D01*
X61613140Y-65659464D01*
X61611083Y-65682625D01*
X61608438Y-65705442D01*
X61605206Y-65727917D01*
X61601386Y-65750047D01*
X61596978Y-65771835D01*
X61591982Y-65793278D01*
X61586399Y-65814379D01*
X61580228Y-65835135D01*
X61573469Y-65855549D01*
X61566123Y-65875619D01*
X61558189Y-65895345D01*
X61549667Y-65914728D01*
X61540558Y-65933768D01*
X61535822Y-65943119D01*
X61525960Y-65961326D01*
X61515580Y-65978874D01*
X61504681Y-65995761D01*
X61493262Y-66011988D01*
X61481325Y-66027554D01*
X61462446Y-66049667D01*
X61442399Y-66070293D01*
X61421184Y-66089434D01*
X61398802Y-66107090D01*
X61375251Y-66123260D01*
X61350533Y-66137945D01*
X61324647Y-66151144D01*
X61306611Y-66159188D01*
X61287797Y-66166714D01*
X61268204Y-66173721D01*
X61247833Y-66180209D01*
X61226683Y-66186177D01*
X61204754Y-66191627D01*
X61182047Y-66196558D01*
X61158562Y-66200969D01*
X61134298Y-66204862D01*
X61109255Y-66208235D01*
X61083434Y-66211090D01*
X61056835Y-66213426D01*
X61029457Y-66215242D01*
X61001300Y-66216540D01*
X60972365Y-66217318D01*
X60942651Y-66217578D01*
X60414598Y-66217578D01*
X60401960Y-66217549D01*
X60377242Y-66217320D01*
X60353268Y-66216862D01*
X60330038Y-66216175D01*
X60307553Y-66215259D01*
X60285811Y-66214114D01*
X60264814Y-66212741D01*
X60244561Y-66211138D01*
X60225052Y-66209306D01*
X60197184Y-66206129D01*
X60170990Y-66202437D01*
X60146471Y-66198229D01*
X60123626Y-66193506D01*
X60102456Y-66188269D01*
X60088969Y-66184359D01*
X60068997Y-66177800D01*
X60049333Y-66170408D01*
X60029979Y-66162184D01*
X60010934Y-66153126D01*
X59992197Y-66143236D01*
X59973770Y-66132513D01*
X59955653Y-66120956D01*
X59937844Y-66108567D01*
X59920344Y-66095345D01*
X59903154Y-66081290D01*
X59891949Y-66071347D01*
X59875715Y-66055552D01*
X59860167Y-66038700D01*
X59845306Y-66020793D01*
X59831133Y-66001829D01*
X59817646Y-65981809D01*
X59804846Y-65960734D01*
X59792733Y-65938601D01*
X59781307Y-65915413D01*
X59770568Y-65891169D01*
X59760516Y-65865868D01*
X59751262Y-65839679D01*
X59742919Y-65812768D01*
X59735486Y-65785136D01*
X59728963Y-65756783D01*
X59725120Y-65737480D01*
X59721681Y-65717857D01*
X59718647Y-65697913D01*
X59716018Y-65677648D01*
X59713793Y-65657063D01*
X59711973Y-65636158D01*
X59710557Y-65614931D01*
X59709545Y-65593385D01*
X59708939Y-65571517D01*
X59708736Y-65549329D01*
X59708941Y-65526546D01*
X59709553Y-65504236D01*
X59710574Y-65482399D01*
X59712003Y-65461036D01*
X59713841Y-65440145D01*
X59716087Y-65419728D01*
X59718741Y-65399784D01*
X59723488Y-65370755D01*
X59729154Y-65342791D01*
X59735738Y-65315892D01*
X59743241Y-65290058D01*
X59751664Y-65265288D01*
X59761004Y-65241583D01*
X59767740Y-65226303D01*
X59778602Y-65204012D01*
X59790375Y-65182477D01*
X59803057Y-65161697D01*
X59816650Y-65141673D01*
X59831153Y-65122404D01*
X59846566Y-65103891D01*
X59862889Y-65086134D01*
X59880122Y-65069133D01*
X59898266Y-65052887D01*
X59917320Y-65037396D01*
X59930335Y-65027493D01*
X59949665Y-65013511D01*
X59968763Y-65000577D01*
X59987630Y-64988690D01*
X60006264Y-64977851D01*
X60024667Y-64968059D01*
X60042838Y-64959315D01*
X60066705Y-64949286D01*
X60090160Y-64941119D01*
X60113203Y-64934814D01*
X60119017Y-64933462D01*
X60143773Y-64928482D01*
X60163913Y-64925197D01*
X60185402Y-64922299D01*
X60208238Y-64919788D01*
X60232422Y-64917662D01*
X60257955Y-64915924D01*
X60284835Y-64914571D01*
X60313064Y-64913605D01*
X60332632Y-64913176D01*
X60352799Y-64912918D01*
X60373565Y-64912832D01*
X60521577Y-64912832D01*
X60521577Y-65470195D01*
G37*
G36*
X60865471Y-63512832D02*
G01*
X60865471Y-64067264D01*
X61095547Y-64067264D01*
X61115224Y-64067397D01*
X61139415Y-64067988D01*
X61161271Y-64069053D01*
X61180791Y-64070591D01*
X61201907Y-64073179D01*
X61222430Y-64077261D01*
X61237697Y-64082407D01*
X61255729Y-64094113D01*
X61267082Y-64110304D01*
X61271757Y-64130979D01*
X61271891Y-64135652D01*
X61269650Y-64155152D01*
X61260823Y-64173738D01*
X61245302Y-64186553D01*
X61243558Y-64187431D01*
X61223836Y-64193415D01*
X61201751Y-64196781D01*
X61178572Y-64198851D01*
X61156903Y-64200027D01*
X61132456Y-64200775D01*
X61112297Y-64201055D01*
X61097990Y-64201109D01*
X60233370Y-64201109D01*
X60210594Y-64200773D01*
X60189406Y-64199765D01*
X60169806Y-64198086D01*
X60147538Y-64195043D01*
X60127750Y-64190950D01*
X60107280Y-64184653D01*
X60095617Y-64179615D01*
X60078867Y-64169204D01*
X60064762Y-64155358D01*
X60055317Y-64137300D01*
X60052630Y-64119043D01*
X60055470Y-64098069D01*
X60065452Y-64078633D01*
X60080358Y-64065055D01*
X60098060Y-64056029D01*
X60118461Y-64050052D01*
X60140605Y-64046017D01*
X60161687Y-64043406D01*
X60185760Y-64041345D01*
X60205778Y-64040160D01*
X60227480Y-64039285D01*
X60250864Y-64038718D01*
X60275931Y-64038460D01*
X60284661Y-64038443D01*
X60521577Y-64038443D01*
X60521577Y-63512832D01*
X60492746Y-63513067D01*
X60464874Y-63513405D01*
X60437960Y-63513846D01*
X60412003Y-63514390D01*
X60387005Y-63515036D01*
X60362964Y-63515786D01*
X60339881Y-63516639D01*
X60317756Y-63517595D01*
X60296589Y-63518654D01*
X60276380Y-63519816D01*
X60247862Y-63521753D01*
X60221499Y-63523921D01*
X60197292Y-63526321D01*
X60175240Y-63528952D01*
X60154302Y-63532276D01*
X60133251Y-63536749D01*
X60112090Y-63542373D01*
X60090816Y-63549148D01*
X60069431Y-63557074D01*
X60047934Y-63566150D01*
X60026326Y-63576377D01*
X60004606Y-63587754D01*
X59982775Y-63600282D01*
X59960831Y-63613960D01*
X59946140Y-63623719D01*
X59924661Y-63639077D01*
X59904186Y-63655295D01*
X59884716Y-63672371D01*
X59866250Y-63690305D01*
X59848789Y-63709099D01*
X59832333Y-63728751D01*
X59816881Y-63749261D01*
X59802434Y-63770631D01*
X59788992Y-63792859D01*
X59776554Y-63815945D01*
X59768820Y-63831814D01*
X59758083Y-63856422D01*
X59748401Y-63882068D01*
X59739776Y-63908754D01*
X59732207Y-63936479D01*
X59727747Y-63955540D01*
X59723757Y-63975062D01*
X59720237Y-63995046D01*
X59717186Y-64015492D01*
X59714604Y-64036399D01*
X59712492Y-64057769D01*
X59710849Y-64079600D01*
X59709675Y-64101893D01*
X59708971Y-64124647D01*
X59708736Y-64147864D01*
X59709057Y-64177402D01*
X59710019Y-64206177D01*
X59711622Y-64234188D01*
X59713866Y-64261437D01*
X59716751Y-64287922D01*
X59720277Y-64313644D01*
X59724444Y-64338602D01*
X59729253Y-64362798D01*
X59734702Y-64386230D01*
X59740793Y-64408898D01*
X59747525Y-64430804D01*
X59754898Y-64451946D01*
X59762913Y-64472325D01*
X59771568Y-64491941D01*
X59780864Y-64510793D01*
X59790802Y-64528883D01*
X59801375Y-64546266D01*
X59812456Y-64563000D01*
X59824044Y-64579086D01*
X59836140Y-64594523D01*
X59855235Y-64616462D01*
X59875472Y-64636941D01*
X59896852Y-64655961D01*
X59919373Y-64673520D01*
X59943036Y-64689620D01*
X59967842Y-64704261D01*
X59993789Y-64717441D01*
X60011722Y-64725417D01*
X60020879Y-64729162D01*
X60039848Y-64736201D01*
X60059752Y-64742786D01*
X60080590Y-64748917D01*
X60102364Y-64754594D01*
X60125073Y-64759816D01*
X60148717Y-64764585D01*
X60173296Y-64768899D01*
X60198810Y-64772759D01*
X60225259Y-64776165D01*
X60252642Y-64779117D01*
X60280961Y-64781615D01*
X60310215Y-64783659D01*
X60340404Y-64785248D01*
X60371528Y-64786383D01*
X60403586Y-64787065D01*
X60436580Y-64787292D01*
X60950956Y-64787292D01*
X60979704Y-64787105D01*
X61007574Y-64786544D01*
X61034567Y-64785609D01*
X61060682Y-64784300D01*
X61085919Y-64782617D01*
X61110278Y-64780560D01*
X61133760Y-64778129D01*
X61156364Y-64775324D01*
X61178090Y-64772145D01*
X61198938Y-64768592D01*
X61218909Y-64764665D01*
X61238002Y-64760364D01*
X61264996Y-64753211D01*
X61290014Y-64745217D01*
X61305596Y-64739420D01*
X61328075Y-64729399D01*
X61350081Y-64717473D01*
X61371615Y-64703639D01*
X61392676Y-64687900D01*
X61413266Y-64670254D01*
X61433383Y-64650703D01*
X61453028Y-64629245D01*
X61465862Y-64613880D01*
X61478486Y-64597669D01*
X61490901Y-64580610D01*
X61503105Y-64562704D01*
X61515100Y-64543950D01*
X61521018Y-64534256D01*
X61532494Y-64514398D01*
X61543229Y-64494025D01*
X61553224Y-64473136D01*
X61562479Y-64451732D01*
X61570993Y-64429814D01*
X61578767Y-64407380D01*
X61585800Y-64384430D01*
X61592093Y-64360966D01*
X61597646Y-64336986D01*
X61602458Y-64312491D01*
X61606530Y-64287481D01*
X61609862Y-64261956D01*
X61612453Y-64235915D01*
X61614304Y-64209360D01*
X61615414Y-64182289D01*
X61615785Y-64154703D01*
X61615416Y-64127290D01*
X61614311Y-64100374D01*
X61612470Y-64073954D01*
X61609892Y-64048030D01*
X61606578Y-64022602D01*
X61602527Y-63997670D01*
X61597739Y-63973234D01*
X61592215Y-63949294D01*
X61585955Y-63925851D01*
X61578957Y-63902904D01*
X61571224Y-63880452D01*
X61562753Y-63858497D01*
X61553547Y-63837038D01*
X61543603Y-63816075D01*
X61532923Y-63795608D01*
X61521507Y-63775638D01*
X61509529Y-63756268D01*
X61497167Y-63737727D01*
X61484418Y-63720013D01*
X61471284Y-63703128D01*
X61457765Y-63687071D01*
X61443860Y-63671842D01*
X61429570Y-63657441D01*
X61414895Y-63643869D01*
X61399834Y-63631124D01*
X61376520Y-63613560D01*
X61352338Y-63597860D01*
X61327289Y-63584022D01*
X61301373Y-63572048D01*
X61283614Y-63565100D01*
X61255536Y-63555760D01*
X61235539Y-63550043D01*
X61214518Y-63544734D01*
X61192475Y-63539834D01*
X61169410Y-63535342D01*
X61145321Y-63531259D01*
X61120210Y-63527584D01*
X61094076Y-63524317D01*
X61066919Y-63521459D01*
X61038740Y-63519009D01*
X61009538Y-63516967D01*
X60979313Y-63515334D01*
X60948065Y-63514109D01*
X60915794Y-63513292D01*
X60882501Y-63512884D01*
X60865471Y-63512832D01*
G37*
G36*
X61834626Y-62770823D02*
G01*
X61553258Y-62770823D01*
X61553258Y-62621346D01*
X61240628Y-62621346D01*
X61240628Y-62770823D01*
X60262191Y-62770823D01*
X60240655Y-62770767D01*
X60220379Y-62770601D01*
X60192327Y-62770145D01*
X60167108Y-62769439D01*
X60144722Y-62768485D01*
X60125170Y-62767281D01*
X60103509Y-62765289D01*
X60083517Y-62762176D01*
X60068750Y-62756657D01*
X60060958Y-62738371D01*
X60057180Y-62714718D01*
X60055291Y-62693854D01*
X60053905Y-62668915D01*
X60053197Y-62647535D01*
X60052772Y-62623863D01*
X60052630Y-62597899D01*
X59740000Y-62597899D01*
X59740000Y-62837257D01*
X59740062Y-62860714D01*
X59740251Y-62883335D01*
X59740566Y-62905120D01*
X59741007Y-62926070D01*
X59741574Y-62946183D01*
X59742660Y-62974787D01*
X59744030Y-63001510D01*
X59745682Y-63026353D01*
X59747619Y-63049315D01*
X59749838Y-63070397D01*
X59753239Y-63095580D01*
X59756120Y-63112274D01*
X59760959Y-63132989D01*
X59767172Y-63153124D01*
X59774758Y-63172679D01*
X59783719Y-63191653D01*
X59794053Y-63210048D01*
X59805762Y-63227862D01*
X59818844Y-63245097D01*
X59833300Y-63261751D01*
X59848817Y-63277230D01*
X59864838Y-63291182D01*
X59881363Y-63303608D01*
X59898391Y-63314507D01*
X59915923Y-63323880D01*
X59933959Y-63331726D01*
X59952498Y-63338046D01*
X59971542Y-63342839D01*
X59993936Y-63346503D01*
X60014798Y-63348930D01*
X60039147Y-63351083D01*
X60066982Y-63352960D01*
X60087476Y-63354059D01*
X60109519Y-63355036D01*
X60133111Y-63355891D01*
X60158253Y-63356624D01*
X60184944Y-63357235D01*
X60213185Y-63357723D01*
X60242975Y-63358089D01*
X60274314Y-63358334D01*
X60307203Y-63358456D01*
X60324228Y-63358471D01*
X61240628Y-63358471D01*
X61240628Y-63478150D01*
X61553258Y-63478150D01*
X61553258Y-63358471D01*
X61834626Y-63358471D01*
X61834626Y-62770823D01*
G37*
G36*
X61990942Y-61932581D02*
G01*
X61678311Y-61932581D01*
X61678311Y-62535373D01*
X61990942Y-62535373D01*
X61990942Y-61932581D01*
G37*
G36*
X61584521Y-61932581D02*
G01*
X59740000Y-61932581D01*
X59740000Y-62535373D01*
X61584521Y-62535373D01*
X61584521Y-61932581D01*
G37*
G36*
X60943930Y-60482783D02*
G01*
X60967412Y-60483000D01*
X60990134Y-60483435D01*
X61012097Y-60484088D01*
X61033300Y-60484958D01*
X61053744Y-60486046D01*
X61082986Y-60488085D01*
X61110519Y-60490614D01*
X61136343Y-60493632D01*
X61160459Y-60497140D01*
X61182866Y-60501137D01*
X61203564Y-60505623D01*
X61222554Y-60510599D01*
X61240729Y-60516149D01*
X61264802Y-60524858D01*
X61288692Y-60535063D01*
X61306489Y-60543698D01*
X61324183Y-60553175D01*
X61341775Y-60563493D01*
X61359263Y-60574653D01*
X61376648Y-60586654D01*
X61393930Y-60599497D01*
X61411109Y-60613181D01*
X61422449Y-60622768D01*
X61438937Y-60638064D01*
X61454798Y-60654458D01*
X61470032Y-60671952D01*
X61484640Y-60690545D01*
X61498620Y-60710237D01*
X61511974Y-60731029D01*
X61524701Y-60752919D01*
X61536801Y-60775908D01*
X61548274Y-60799997D01*
X61559120Y-60825184D01*
X61565982Y-60842548D01*
X61575444Y-60869367D01*
X61583911Y-60897114D01*
X61589002Y-60916126D01*
X61593650Y-60935551D01*
X61597856Y-60955389D01*
X61601618Y-60975638D01*
X61604939Y-60996299D01*
X61607816Y-61017373D01*
X61610251Y-61038859D01*
X61612243Y-61060756D01*
X61613792Y-61083066D01*
X61614899Y-61105789D01*
X61615563Y-61128923D01*
X61615785Y-61152470D01*
X61615439Y-61180491D01*
X61614403Y-61207890D01*
X61612676Y-61234667D01*
X61610259Y-61260822D01*
X61607150Y-61286355D01*
X61603351Y-61311266D01*
X61598861Y-61335554D01*
X61593681Y-61359221D01*
X61587809Y-61382266D01*
X61581247Y-61404688D01*
X61573994Y-61426489D01*
X61566051Y-61447668D01*
X61557416Y-61468224D01*
X61548091Y-61488158D01*
X61538075Y-61507471D01*
X61527369Y-61526161D01*
X61516092Y-61544187D01*
X61504364Y-61561508D01*
X61492186Y-61578122D01*
X61479558Y-61594030D01*
X61466480Y-61609232D01*
X61452951Y-61623729D01*
X61438972Y-61637519D01*
X61417159Y-61656880D01*
X61394333Y-61674653D01*
X61370493Y-61690838D01*
X61345641Y-61705433D01*
X61319775Y-61718441D01*
X61292896Y-61729860D01*
X61274272Y-61736662D01*
X61254794Y-61743026D01*
X61234460Y-61748951D01*
X61213272Y-61754437D01*
X61191229Y-61759484D01*
X61168332Y-61764092D01*
X61144579Y-61768261D01*
X61119972Y-61771992D01*
X61094509Y-61775283D01*
X61068192Y-61778136D01*
X61041020Y-61780550D01*
X61012993Y-61782525D01*
X60984112Y-61784061D01*
X60954375Y-61785158D01*
X60923784Y-61785816D01*
X60892337Y-61786036D01*
X60428276Y-61786036D01*
X60399657Y-61785915D01*
X60371932Y-61785555D01*
X60345100Y-61784954D01*
X60319160Y-61784112D01*
X60294114Y-61783030D01*
X60269961Y-61781708D01*
X60246700Y-61780145D01*
X60224333Y-61778342D01*
X60202859Y-61776298D01*
X60182278Y-61774014D01*
X60153080Y-61770137D01*
X60125892Y-61765719D01*
X60100713Y-61760761D01*
X60077543Y-61755261D01*
X60062957Y-61751189D01*
X60041565Y-61744466D01*
X60020757Y-61737004D01*
X60000532Y-61728804D01*
X59980892Y-61719865D01*
X59961835Y-61710188D01*
X59943362Y-61699772D01*
X59925473Y-61688618D01*
X59908168Y-61676725D01*
X59891447Y-61664094D01*
X59875310Y-61650725D01*
X59864974Y-61641341D01*
X59850091Y-61626420D01*
X59835956Y-61610486D01*
X59822568Y-61593539D01*
X59809927Y-61575578D01*
X59798033Y-61556605D01*
X59786886Y-61536618D01*
X59776487Y-61515618D01*
X59766834Y-61493604D01*
X59757928Y-61470578D01*
X59749769Y-61446538D01*
X59744800Y-61429956D01*
X59737948Y-61404268D01*
X59731817Y-61377600D01*
X59726408Y-61349954D01*
X59721719Y-61321329D01*
X59718995Y-61301702D01*
X59716590Y-61281640D01*
X59714507Y-61261142D01*
X59712744Y-61240210D01*
X59711301Y-61218843D01*
X59710179Y-61197040D01*
X59709378Y-61174803D01*
X59708897Y-61152130D01*
X59708773Y-61134396D01*
X60052630Y-61134396D01*
X60052662Y-61136724D01*
X60056498Y-61157484D01*
X60068100Y-61175032D01*
X60085359Y-61186175D01*
X60095129Y-61189381D01*
X60115279Y-61193388D01*
X60137108Y-61195993D01*
X60157868Y-61197595D01*
X60181560Y-61198771D01*
X60201252Y-61199372D01*
X60222593Y-61199732D01*
X60245582Y-61199853D01*
X61073565Y-61199853D01*
X61090306Y-61199799D01*
X61113849Y-61199519D01*
X61135512Y-61198998D01*
X61155294Y-61198236D01*
X61178745Y-61196847D01*
X61198853Y-61195031D01*
X61219287Y-61192159D01*
X61241116Y-61186175D01*
X61243009Y-61185265D01*
X61259869Y-61172047D01*
X61269456Y-61152941D01*
X61271891Y-61132930D01*
X61271861Y-61130514D01*
X61268933Y-61111130D01*
X61258847Y-61093210D01*
X61241605Y-61081639D01*
X61232354Y-61078662D01*
X61212181Y-61074942D01*
X61189598Y-61072523D01*
X61167754Y-61071035D01*
X61142551Y-61069943D01*
X61121445Y-61069385D01*
X61098450Y-61069050D01*
X61073565Y-61068939D01*
X60227508Y-61068939D01*
X60213432Y-61068990D01*
X60193569Y-61069261D01*
X60169424Y-61069982D01*
X60147949Y-61071115D01*
X60124863Y-61073112D01*
X60102670Y-61076357D01*
X60082428Y-61082128D01*
X60080595Y-61082977D01*
X60064270Y-61095660D01*
X60054987Y-61114462D01*
X60052630Y-61134396D01*
X59708773Y-61134396D01*
X59708736Y-61129022D01*
X59708784Y-61118557D01*
X59709161Y-61097850D01*
X59709917Y-61077440D01*
X59711051Y-61057328D01*
X59712562Y-61037514D01*
X59714451Y-61017998D01*
X59717993Y-60989281D01*
X59722385Y-60961234D01*
X59727627Y-60933857D01*
X59733719Y-60907150D01*
X59740662Y-60881112D01*
X59748454Y-60855744D01*
X59757096Y-60831046D01*
X59763351Y-60814926D01*
X59773521Y-60791433D01*
X59784635Y-60768764D01*
X59796693Y-60746920D01*
X59809696Y-60725899D01*
X59823644Y-60705704D01*
X59838536Y-60686332D01*
X59854373Y-60667785D01*
X59871154Y-60650062D01*
X59888880Y-60633163D01*
X59907550Y-60617089D01*
X59920367Y-60606818D01*
X59939800Y-60592276D01*
X59959482Y-60578774D01*
X59979413Y-60566310D01*
X59999593Y-60554886D01*
X60020022Y-60544500D01*
X60040701Y-60535153D01*
X60061628Y-60526846D01*
X60082804Y-60519577D01*
X60104229Y-60513348D01*
X60125903Y-60508157D01*
X60133326Y-60506594D01*
X60157105Y-60502204D01*
X60183151Y-60498259D01*
X60211465Y-60494762D01*
X60231599Y-60492678D01*
X60252742Y-60490793D01*
X60274891Y-60489106D01*
X60298049Y-60487618D01*
X60322213Y-60486328D01*
X60347386Y-60485236D01*
X60373565Y-60484343D01*
X60400753Y-60483649D01*
X60428948Y-60483153D01*
X60458150Y-60482855D01*
X60488360Y-60482756D01*
X60931905Y-60482756D01*
X60943930Y-60482783D01*
G37*
G36*
X61584521Y-59742700D02*
G01*
X61465331Y-59749539D01*
X61483718Y-59736052D01*
X61499145Y-59721560D01*
X61514668Y-59704110D01*
X61527155Y-59688020D01*
X61539703Y-59670038D01*
X61552312Y-59650162D01*
X61564982Y-59628394D01*
X61576889Y-59605260D01*
X61584777Y-59587358D01*
X61591772Y-59568984D01*
X61597875Y-59550138D01*
X61603084Y-59530819D01*
X61607400Y-59511028D01*
X61610823Y-59490765D01*
X61613354Y-59470030D01*
X61614991Y-59448822D01*
X61615735Y-59427142D01*
X61615785Y-59419811D01*
X61615166Y-59392439D01*
X61613312Y-59366013D01*
X61610220Y-59340530D01*
X61605893Y-59315992D01*
X61600329Y-59292399D01*
X61593528Y-59269750D01*
X61585491Y-59248046D01*
X61576217Y-59227286D01*
X61565707Y-59207471D01*
X61553961Y-59188601D01*
X61545443Y-59176545D01*
X61532032Y-59159373D01*
X61517994Y-59143395D01*
X61503329Y-59128610D01*
X61488038Y-59115019D01*
X61472120Y-59102621D01*
X61455575Y-59091417D01*
X61438403Y-59081406D01*
X61420604Y-59072589D01*
X61402178Y-59064966D01*
X61383126Y-59058536D01*
X61370076Y-59054912D01*
X61349199Y-59050023D01*
X61325952Y-59045616D01*
X61300335Y-59041689D01*
X61272349Y-59038242D01*
X61252374Y-59036212D01*
X61231346Y-59034396D01*
X61209265Y-59032793D01*
X61186131Y-59031404D01*
X61161943Y-59030228D01*
X61136702Y-59029267D01*
X61110408Y-59028519D01*
X61083060Y-59027984D01*
X61054660Y-59027664D01*
X61025205Y-59027557D01*
X59740000Y-59027557D01*
X59740000Y-59613740D01*
X61016901Y-59613740D01*
X61039515Y-59613782D01*
X61060949Y-59613908D01*
X61081204Y-59614117D01*
X61109375Y-59614590D01*
X61134893Y-59615251D01*
X61157758Y-59616101D01*
X61177970Y-59617140D01*
X61200791Y-59618819D01*
X61222685Y-59621390D01*
X61237208Y-59624486D01*
X61255498Y-59634237D01*
X61267013Y-59650666D01*
X61271586Y-59671162D01*
X61271891Y-59679197D01*
X61269326Y-59700965D01*
X61260310Y-59720272D01*
X61244803Y-59734092D01*
X61230858Y-59740257D01*
X61209935Y-59744574D01*
X61189632Y-59746955D01*
X61164246Y-59748940D01*
X61141871Y-59750167D01*
X61116636Y-59751172D01*
X61088542Y-59751953D01*
X61068224Y-59752350D01*
X61046635Y-59752648D01*
X61023776Y-59752846D01*
X60999645Y-59752946D01*
X60987103Y-59752958D01*
X59740000Y-59752958D01*
X59740000Y-60339141D01*
X61584521Y-60339141D01*
X61584521Y-59742700D01*
G37*
G36*
X61990942Y-57831255D02*
G01*
X61990942Y-58695387D01*
X59740000Y-58993851D01*
X59740000Y-58362239D01*
X60146420Y-58328045D01*
X60146420Y-58168799D01*
X60552840Y-58168799D01*
X60552840Y-58332442D01*
X60590468Y-58329616D01*
X60610393Y-58328052D01*
X60631058Y-58326389D01*
X60652464Y-58324625D01*
X60674610Y-58322762D01*
X60697496Y-58320798D01*
X60721123Y-58318734D01*
X60745490Y-58316569D01*
X60770597Y-58314305D01*
X60796445Y-58311940D01*
X60823033Y-58309475D01*
X60850362Y-58306910D01*
X60878431Y-58304245D01*
X60907240Y-58301480D01*
X60936789Y-58298614D01*
X60967079Y-58295648D01*
X60998110Y-58292582D01*
X61029880Y-58289416D01*
X61062391Y-58286150D01*
X61095643Y-58282784D01*
X61129634Y-58279317D01*
X61164367Y-58275750D01*
X61199839Y-58272083D01*
X61236052Y-58268316D01*
X61273005Y-58264449D01*
X61310699Y-58260481D01*
X61349132Y-58256413D01*
X61388307Y-58252246D01*
X61428221Y-58247978D01*
X61468876Y-58243609D01*
X61510272Y-58239141D01*
X61474023Y-58237357D01*
X61438182Y-58235546D01*
X61402749Y-58233708D01*
X61367725Y-58231844D01*
X61333110Y-58229953D01*
X61298902Y-58228035D01*
X61265103Y-58226091D01*
X61231713Y-58224120D01*
X61198730Y-58222122D01*
X61166156Y-58220098D01*
X61133991Y-58218046D01*
X61102233Y-58215968D01*
X61070884Y-58213864D01*
X61039944Y-58211732D01*
X61009412Y-58209574D01*
X60979288Y-58207389D01*
X60949572Y-58205178D01*
X60920265Y-58202940D01*
X60891366Y-58200675D01*
X60862875Y-58198383D01*
X60834793Y-58196064D01*
X60807119Y-58193719D01*
X60779854Y-58191348D01*
X60752997Y-58188949D01*
X60726548Y-58186524D01*
X60700507Y-58184072D01*
X60674875Y-58181593D01*
X60649651Y-58179088D01*
X60624836Y-58176556D01*
X60600429Y-58173997D01*
X60576430Y-58171411D01*
X60552840Y-58168799D01*
X60146420Y-58168799D01*
X60146420Y-58149260D01*
X59740000Y-58120439D01*
X59740000Y-57495666D01*
X61990942Y-57831255D01*
G37*
G36*
X61584521Y-56153307D02*
G01*
X59740000Y-56153307D01*
X59740000Y-56750237D01*
X59848932Y-56743398D01*
X59832457Y-56755637D01*
X59815638Y-56772203D01*
X59801361Y-56789314D01*
X59789767Y-56805167D01*
X59778020Y-56822944D01*
X59766121Y-56842643D01*
X59757096Y-56858680D01*
X59745762Y-56881067D01*
X59735939Y-56904262D01*
X59727627Y-56928267D01*
X59720826Y-56953080D01*
X59716718Y-56972221D01*
X59713459Y-56991817D01*
X59711051Y-57011869D01*
X59709492Y-57032375D01*
X59708784Y-57053337D01*
X59708736Y-57060425D01*
X59709136Y-57084231D01*
X59710334Y-57107291D01*
X59712330Y-57129603D01*
X59715125Y-57151169D01*
X59718718Y-57171987D01*
X59723110Y-57192058D01*
X59728301Y-57211383D01*
X59736464Y-57235986D01*
X59746047Y-57259262D01*
X59754166Y-57275847D01*
X59766111Y-57296638D01*
X59778987Y-57316025D01*
X59792794Y-57334007D01*
X59807533Y-57350585D01*
X59823202Y-57365759D01*
X59839803Y-57379528D01*
X59857335Y-57391893D01*
X59875799Y-57402853D01*
X59894804Y-57412623D01*
X59913961Y-57421416D01*
X59933272Y-57429232D01*
X59952735Y-57436070D01*
X59972351Y-57441932D01*
X59992119Y-57446817D01*
X60012040Y-57450725D01*
X60032114Y-57453656D01*
X60054668Y-57455946D01*
X60074740Y-57457463D01*
X60097516Y-57458808D01*
X60122997Y-57459981D01*
X60151182Y-57460983D01*
X60171475Y-57461556D01*
X60192971Y-57462052D01*
X60215668Y-57462472D01*
X60239568Y-57462815D01*
X60264669Y-57463082D01*
X60290973Y-57463273D01*
X60318479Y-57463387D01*
X60347187Y-57463426D01*
X61584521Y-57463426D01*
X61584521Y-56877243D01*
X60329602Y-56877243D01*
X60303977Y-56877201D01*
X60279738Y-56877075D01*
X60256884Y-56876865D01*
X60235416Y-56876571D01*
X60215332Y-56876193D01*
X60187805Y-56875469D01*
X60163394Y-56874556D01*
X60142101Y-56873454D01*
X60118558Y-56871691D01*
X60096922Y-56869015D01*
X60085847Y-56866496D01*
X60068331Y-56856249D01*
X60057301Y-56838942D01*
X60052922Y-56817330D01*
X60052630Y-56808855D01*
X60054267Y-56788973D01*
X60061179Y-56769043D01*
X60075204Y-56754331D01*
X60086824Y-56749260D01*
X60106408Y-56745939D01*
X60126771Y-56744108D01*
X60152982Y-56742581D01*
X60176476Y-56741636D01*
X60203259Y-56740864D01*
X60222942Y-56740444D01*
X60244086Y-56740100D01*
X60266692Y-56739833D01*
X60290759Y-56739642D01*
X60316289Y-56739528D01*
X60343279Y-56739490D01*
X61584521Y-56739490D01*
X61584521Y-56153307D01*
G37*
G36*
X61834626Y-55377103D02*
G01*
X61553258Y-55377103D01*
X61553258Y-55227627D01*
X61240628Y-55227627D01*
X61240628Y-55377103D01*
X60262191Y-55377103D01*
X60240655Y-55377048D01*
X60220379Y-55376882D01*
X60192327Y-55376425D01*
X60167108Y-55375720D01*
X60144722Y-55374765D01*
X60125170Y-55373562D01*
X60103509Y-55371570D01*
X60083517Y-55368457D01*
X60068750Y-55362937D01*
X60060958Y-55344652D01*
X60057180Y-55320998D01*
X60055291Y-55300135D01*
X60053905Y-55275195D01*
X60053197Y-55253816D01*
X60052772Y-55230144D01*
X60052630Y-55204179D01*
X59740000Y-55204179D01*
X59740000Y-55443537D01*
X59740062Y-55466994D01*
X59740251Y-55489615D01*
X59740566Y-55511401D01*
X59741007Y-55532350D01*
X59741574Y-55552464D01*
X59742660Y-55581067D01*
X59744030Y-55607791D01*
X59745682Y-55632633D01*
X59747619Y-55655595D01*
X59749838Y-55676677D01*
X59753239Y-55701861D01*
X59756120Y-55718555D01*
X59760959Y-55739270D01*
X59767172Y-55759404D01*
X59774758Y-55778959D01*
X59783719Y-55797934D01*
X59794053Y-55816328D01*
X59805762Y-55834143D01*
X59818844Y-55851377D01*
X59833300Y-55868031D01*
X59848817Y-55883510D01*
X59864838Y-55897463D01*
X59881363Y-55909888D01*
X59898391Y-55920788D01*
X59915923Y-55930161D01*
X59933959Y-55938007D01*
X59952498Y-55944327D01*
X59971542Y-55949120D01*
X59993936Y-55952784D01*
X60014798Y-55955211D01*
X60039147Y-55957363D01*
X60066982Y-55959241D01*
X60087476Y-55960340D01*
X60109519Y-55961317D01*
X60133111Y-55962172D01*
X60158253Y-55962904D01*
X60184944Y-55963515D01*
X60213185Y-55964004D01*
X60242975Y-55964370D01*
X60274314Y-55964614D01*
X60307203Y-55964736D01*
X60324228Y-55964752D01*
X61240628Y-55964752D01*
X61240628Y-56084431D01*
X61553258Y-56084431D01*
X61553258Y-55964752D01*
X61834626Y-55964752D01*
X61834626Y-55377103D01*
G37*
G36*
X60943930Y-53855009D02*
G01*
X60967412Y-53855227D01*
X60990134Y-53855662D01*
X61012097Y-53856314D01*
X61033300Y-53857184D01*
X61053744Y-53858272D01*
X61082986Y-53860311D01*
X61110519Y-53862840D01*
X61136343Y-53865858D01*
X61160459Y-53869366D01*
X61182866Y-53873363D01*
X61203564Y-53877850D01*
X61222554Y-53882825D01*
X61240729Y-53888375D01*
X61264802Y-53897084D01*
X61288692Y-53907289D01*
X61306489Y-53915924D01*
X61324183Y-53925401D01*
X61341775Y-53935719D01*
X61359263Y-53946879D01*
X61376648Y-53958880D01*
X61393930Y-53971723D01*
X61411109Y-53985407D01*
X61422449Y-53994994D01*
X61438937Y-54010290D01*
X61454798Y-54026685D01*
X61470032Y-54044178D01*
X61484640Y-54062771D01*
X61498620Y-54082463D01*
X61511974Y-54103255D01*
X61524701Y-54125145D01*
X61536801Y-54148134D01*
X61548274Y-54172223D01*
X61559120Y-54197410D01*
X61565982Y-54214774D01*
X61575444Y-54241593D01*
X61583911Y-54269340D01*
X61589002Y-54288353D01*
X61593650Y-54307778D01*
X61597856Y-54327615D01*
X61601618Y-54347864D01*
X61604939Y-54368525D01*
X61607816Y-54389599D01*
X61610251Y-54411085D01*
X61612243Y-54432982D01*
X61613792Y-54455293D01*
X61614899Y-54478015D01*
X61615563Y-54501149D01*
X61615785Y-54524696D01*
X61615439Y-54552717D01*
X61614403Y-54580116D01*
X61612676Y-54606893D01*
X61610259Y-54633048D01*
X61607150Y-54658581D01*
X61603351Y-54683492D01*
X61598861Y-54707781D01*
X61593681Y-54731447D01*
X61587809Y-54754492D01*
X61581247Y-54776915D01*
X61573994Y-54798715D01*
X61566051Y-54819894D01*
X61557416Y-54840450D01*
X61548091Y-54860385D01*
X61538075Y-54879697D01*
X61527369Y-54898387D01*
X61516092Y-54916414D01*
X61504364Y-54933734D01*
X61492186Y-54950348D01*
X61479558Y-54966256D01*
X61466480Y-54981458D01*
X61452951Y-54995955D01*
X61438972Y-55009745D01*
X61417159Y-55029106D01*
X61394333Y-55046879D01*
X61370493Y-55063064D01*
X61345641Y-55077660D01*
X61319775Y-55090667D01*
X61292896Y-55102086D01*
X61274272Y-55108888D01*
X61254794Y-55115252D01*
X61234460Y-55121177D01*
X61213272Y-55126663D01*
X61191229Y-55131710D01*
X61168332Y-55136318D01*
X61144579Y-55140487D01*
X61119972Y-55144218D01*
X61094509Y-55147509D01*
X61068192Y-55150362D01*
X61041020Y-55152776D01*
X61012993Y-55154751D01*
X60984112Y-55156287D01*
X60954375Y-55157384D01*
X60923784Y-55158042D01*
X60892337Y-55158262D01*
X60428276Y-55158262D01*
X60399657Y-55158141D01*
X60371932Y-55157781D01*
X60345100Y-55157180D01*
X60319160Y-55156338D01*
X60294114Y-55155256D01*
X60269961Y-55153934D01*
X60246700Y-55152371D01*
X60224333Y-55150568D01*
X60202859Y-55148524D01*
X60182278Y-55146240D01*
X60153080Y-55142363D01*
X60125892Y-55137946D01*
X60100713Y-55132987D01*
X60077543Y-55127487D01*
X60062957Y-55123415D01*
X60041565Y-55116692D01*
X60020757Y-55109230D01*
X60000532Y-55101030D01*
X59980892Y-55092091D01*
X59961835Y-55082414D01*
X59943362Y-55071998D01*
X59925473Y-55060844D01*
X59908168Y-55048952D01*
X59891447Y-55036321D01*
X59875310Y-55022951D01*
X59864974Y-55013567D01*
X59850091Y-54998646D01*
X59835956Y-54982712D01*
X59822568Y-54965765D01*
X59809927Y-54947804D01*
X59798033Y-54928831D01*
X59786886Y-54908844D01*
X59776487Y-54887844D01*
X59766834Y-54865830D01*
X59757928Y-54842804D01*
X59749769Y-54818764D01*
X59744800Y-54802182D01*
X59737948Y-54776494D01*
X59731817Y-54749827D01*
X59726408Y-54722180D01*
X59721719Y-54693555D01*
X59718995Y-54673928D01*
X59716590Y-54653866D01*
X59714507Y-54633368D01*
X59712744Y-54612436D01*
X59711301Y-54591069D01*
X59710179Y-54569266D01*
X59709378Y-54547029D01*
X59708897Y-54524356D01*
X59708773Y-54506622D01*
X60052630Y-54506622D01*
X60052662Y-54508950D01*
X60056498Y-54529710D01*
X60068100Y-54547258D01*
X60085359Y-54558401D01*
X60095129Y-54561607D01*
X60115279Y-54565614D01*
X60137108Y-54568219D01*
X60157868Y-54569821D01*
X60181560Y-54570997D01*
X60201252Y-54571598D01*
X60222593Y-54571959D01*
X60245582Y-54572079D01*
X61073565Y-54572079D01*
X61090306Y-54572025D01*
X61113849Y-54571745D01*
X61135512Y-54571224D01*
X61155294Y-54570463D01*
X61178745Y-54569073D01*
X61198853Y-54567257D01*
X61219287Y-54564385D01*
X61241116Y-54558401D01*
X61243009Y-54557491D01*
X61259869Y-54544273D01*
X61269456Y-54525167D01*
X61271891Y-54505156D01*
X61271861Y-54502740D01*
X61268933Y-54483356D01*
X61258847Y-54465436D01*
X61241605Y-54453865D01*
X61232354Y-54450889D01*
X61212181Y-54447168D01*
X61189598Y-54444749D01*
X61167754Y-54443261D01*
X61142551Y-54442169D01*
X61121445Y-54441611D01*
X61098450Y-54441276D01*
X61073565Y-54441165D01*
X60227508Y-54441165D01*
X60213432Y-54441216D01*
X60193569Y-54441487D01*
X60169424Y-54442208D01*
X60147949Y-54443341D01*
X60124863Y-54445338D01*
X60102670Y-54448584D01*
X60082428Y-54454354D01*
X60080595Y-54455203D01*
X60064270Y-54467886D01*
X60054987Y-54486688D01*
X60052630Y-54506622D01*
X59708773Y-54506622D01*
X59708736Y-54501248D01*
X59708784Y-54490783D01*
X59709161Y-54470076D01*
X59709917Y-54449666D01*
X59711051Y-54429555D01*
X59712562Y-54409740D01*
X59714451Y-54390224D01*
X59717993Y-54361507D01*
X59722385Y-54333460D01*
X59727627Y-54306083D01*
X59733719Y-54279376D01*
X59740662Y-54253338D01*
X59748454Y-54227970D01*
X59757096Y-54203272D01*
X59763351Y-54187152D01*
X59773521Y-54163659D01*
X59784635Y-54140990D01*
X59796693Y-54119146D01*
X59809696Y-54098126D01*
X59823644Y-54077930D01*
X59838536Y-54058558D01*
X59854373Y-54040011D01*
X59871154Y-54022288D01*
X59888880Y-54005390D01*
X59907550Y-53989315D01*
X59920367Y-53979044D01*
X59939800Y-53964502D01*
X59959482Y-53951000D01*
X59979413Y-53938536D01*
X59999593Y-53927112D01*
X60020022Y-53916726D01*
X60040701Y-53907380D01*
X60061628Y-53899072D01*
X60082804Y-53891803D01*
X60104229Y-53885574D01*
X60125903Y-53880383D01*
X60133326Y-53878820D01*
X60157105Y-53874430D01*
X60183151Y-53870485D01*
X60211465Y-53866988D01*
X60231599Y-53864904D01*
X60252742Y-53863019D01*
X60274891Y-53861332D01*
X60298049Y-53859844D01*
X60322213Y-53858554D01*
X60347386Y-53857462D01*
X60373565Y-53856569D01*
X60400753Y-53855875D01*
X60428948Y-53855379D01*
X60458150Y-53855081D01*
X60488360Y-53854982D01*
X60931905Y-53854982D01*
X60943930Y-53855009D01*
G37*
G36*
X61584521Y-53131046D02*
G01*
X61453119Y-53138373D01*
X61470333Y-53126257D01*
X61487475Y-53111278D01*
X61501137Y-53097234D01*
X61514754Y-53081358D01*
X61528325Y-53063650D01*
X61541850Y-53044111D01*
X61555329Y-53022740D01*
X61562051Y-53011367D01*
X61571654Y-52993741D01*
X61580312Y-52975669D01*
X61588026Y-52957151D01*
X61594795Y-52938186D01*
X61600620Y-52918774D01*
X61605500Y-52898916D01*
X61609435Y-52878611D01*
X61612426Y-52857860D01*
X61614473Y-52836663D01*
X61615575Y-52815019D01*
X61615785Y-52800341D01*
X61615027Y-52771837D01*
X61612754Y-52744211D01*
X61608967Y-52717463D01*
X61603664Y-52691592D01*
X61596846Y-52666599D01*
X61588513Y-52642484D01*
X61578665Y-52619247D01*
X61567302Y-52596887D01*
X61554424Y-52575405D01*
X61540031Y-52554801D01*
X61524123Y-52535074D01*
X61506700Y-52516226D01*
X61487761Y-52498255D01*
X61467308Y-52481162D01*
X61445339Y-52464946D01*
X61421856Y-52449608D01*
X61437780Y-52438247D01*
X61458117Y-52422230D01*
X61477431Y-52405221D01*
X61495723Y-52387219D01*
X61512991Y-52368225D01*
X61529237Y-52348240D01*
X61544460Y-52327261D01*
X61555207Y-52310877D01*
X61562051Y-52299643D01*
X61571654Y-52282340D01*
X61580312Y-52264684D01*
X61588026Y-52246677D01*
X61594795Y-52228317D01*
X61600620Y-52209605D01*
X61605500Y-52190541D01*
X61609435Y-52171125D01*
X61612426Y-52151357D01*
X61614473Y-52131237D01*
X61615575Y-52110765D01*
X61615785Y-52096922D01*
X61615158Y-52069878D01*
X61613277Y-52043702D01*
X61610143Y-52018392D01*
X61605755Y-51993951D01*
X61600114Y-51970376D01*
X61593219Y-51947668D01*
X61585070Y-51925828D01*
X61575668Y-51904855D01*
X61565012Y-51884750D01*
X61553102Y-51865511D01*
X61544466Y-51853167D01*
X61530814Y-51835559D01*
X61516605Y-51819187D01*
X61501837Y-51804052D01*
X61486511Y-51790153D01*
X61470628Y-51777490D01*
X61454185Y-51766064D01*
X61437185Y-51755875D01*
X61419627Y-51746922D01*
X61401511Y-51739205D01*
X61382836Y-51732725D01*
X61370076Y-51729092D01*
X61349773Y-51724203D01*
X61327332Y-51719796D01*
X61302753Y-51715869D01*
X61276035Y-51712422D01*
X61247180Y-51709457D01*
X61226755Y-51707748D01*
X61205380Y-51706252D01*
X61183054Y-51704969D01*
X61159779Y-51703901D01*
X61135553Y-51703046D01*
X61110377Y-51702405D01*
X61084251Y-51701977D01*
X61057174Y-51701764D01*
X61043279Y-51701737D01*
X59740000Y-51701737D01*
X59740000Y-52271800D01*
X60943140Y-52271800D01*
X60971310Y-52271855D01*
X60998056Y-52272021D01*
X61023379Y-52272298D01*
X61047279Y-52272685D01*
X61069755Y-52273183D01*
X61090807Y-52273792D01*
X61110437Y-52274511D01*
X61137211Y-52275798D01*
X61160783Y-52277333D01*
X61181152Y-52279118D01*
X61203329Y-52281885D01*
X61223042Y-52285966D01*
X61242076Y-52293492D01*
X61258104Y-52305872D01*
X61268838Y-52324617D01*
X61271891Y-52345561D01*
X61268868Y-52367238D01*
X61259801Y-52384884D01*
X61244688Y-52398501D01*
X61226506Y-52407109D01*
X61223531Y-52408087D01*
X61203934Y-52412450D01*
X61181799Y-52415407D01*
X61161432Y-52417315D01*
X61137836Y-52418956D01*
X61111011Y-52420332D01*
X61091334Y-52421101D01*
X61070222Y-52421751D01*
X61047676Y-52422284D01*
X61023694Y-52422698D01*
X60998278Y-52422994D01*
X60971426Y-52423171D01*
X60943140Y-52423230D01*
X59740000Y-52423230D01*
X59740000Y-52993293D01*
X60912854Y-52993293D01*
X60945214Y-52993337D01*
X60975861Y-52993469D01*
X61004794Y-52993688D01*
X61032014Y-52993995D01*
X61057520Y-52994390D01*
X61081313Y-52994873D01*
X61103392Y-52995444D01*
X61123757Y-52996102D01*
X61151093Y-52997254D01*
X61174573Y-52998603D01*
X61194198Y-53000150D01*
X61214367Y-53002520D01*
X61224996Y-53004528D01*
X61245512Y-53012375D01*
X61261587Y-53026530D01*
X61270242Y-53046326D01*
X61271891Y-53062658D01*
X61269120Y-53082498D01*
X61260808Y-53100376D01*
X61248443Y-53114926D01*
X61232405Y-53126756D01*
X61213601Y-53134771D01*
X61194311Y-53138721D01*
X61187383Y-53139350D01*
X61166439Y-53140302D01*
X61145983Y-53140839D01*
X61126322Y-53141182D01*
X61103729Y-53141449D01*
X61078206Y-53141640D01*
X61057140Y-53141733D01*
X61034426Y-53141783D01*
X61018367Y-53141793D01*
X59740000Y-53141793D01*
X59740000Y-53711367D01*
X61584521Y-53711367D01*
X61584521Y-53131046D01*
G37*
G36*
X60692587Y-50296393D02*
G01*
X60719879Y-50296480D01*
X60746580Y-50296625D01*
X60772689Y-50296829D01*
X60798206Y-50297091D01*
X60823133Y-50297411D01*
X60847467Y-50297789D01*
X60871210Y-50298226D01*
X60894362Y-50298721D01*
X60916922Y-50299273D01*
X60938890Y-50299885D01*
X60960267Y-50300554D01*
X60981053Y-50301281D01*
X61001247Y-50302067D01*
X61039860Y-50303813D01*
X61076107Y-50305792D01*
X61109988Y-50308003D01*
X61141503Y-50310448D01*
X61170652Y-50313125D01*
X61197435Y-50316035D01*
X61221851Y-50319177D01*
X61243902Y-50322553D01*
X61263586Y-50326161D01*
X61290935Y-50332696D01*
X61317476Y-50341308D01*
X61343211Y-50351998D01*
X61368138Y-50364767D01*
X61392258Y-50379613D01*
X61415570Y-50396537D01*
X61430664Y-50408975D01*
X61445398Y-50422336D01*
X61459774Y-50436620D01*
X61473792Y-50451828D01*
X61487450Y-50467959D01*
X61500750Y-50485014D01*
X61513691Y-50502993D01*
X61526054Y-50521977D01*
X61537619Y-50542049D01*
X61548387Y-50563208D01*
X61558357Y-50585455D01*
X61567529Y-50608790D01*
X61575904Y-50633213D01*
X61583482Y-50658723D01*
X61590261Y-50685320D01*
X61596243Y-50713006D01*
X61601428Y-50741779D01*
X61605814Y-50771639D01*
X61609404Y-50802587D01*
X61612195Y-50834623D01*
X61614189Y-50867747D01*
X61615386Y-50901958D01*
X61615785Y-50937257D01*
X61615441Y-50966772D01*
X61614411Y-50995600D01*
X61612693Y-51023742D01*
X61610289Y-51051196D01*
X61607198Y-51077964D01*
X61603420Y-51104044D01*
X61598955Y-51129438D01*
X61593803Y-51154144D01*
X61587964Y-51178164D01*
X61581438Y-51201497D01*
X61574225Y-51224143D01*
X61566325Y-51246102D01*
X61557739Y-51267374D01*
X61548465Y-51287959D01*
X61538505Y-51307857D01*
X61527857Y-51327068D01*
X61516759Y-51345545D01*
X61505448Y-51363239D01*
X61493923Y-51380151D01*
X61482184Y-51396281D01*
X61464175Y-51419008D01*
X61445685Y-51439975D01*
X61426714Y-51459182D01*
X61407262Y-51476629D01*
X61387330Y-51492315D01*
X61366916Y-51506241D01*
X61346022Y-51518407D01*
X61324647Y-51528813D01*
X61309870Y-51534906D01*
X61286331Y-51543308D01*
X61261144Y-51550825D01*
X61234308Y-51557459D01*
X61205823Y-51563207D01*
X61185917Y-51566548D01*
X61165279Y-51569497D01*
X61143907Y-51572052D01*
X61121803Y-51574213D01*
X61098967Y-51575982D01*
X61075397Y-51577358D01*
X61051095Y-51578341D01*
X61026060Y-51578930D01*
X61000293Y-51579127D01*
X60865471Y-51579127D01*
X60865471Y-51027138D01*
X61067704Y-51027138D01*
X61085446Y-51027094D01*
X61110355Y-51026864D01*
X61133222Y-51026436D01*
X61154044Y-51025811D01*
X61178629Y-51024669D01*
X61199580Y-51023177D01*
X61220661Y-51020818D01*
X61242581Y-51015903D01*
X61247819Y-51013492D01*
X61262617Y-50999434D01*
X61270059Y-50979541D01*
X61271891Y-50958750D01*
X61271326Y-50949194D01*
X61265925Y-50930149D01*
X61253217Y-50912976D01*
X61235743Y-50901109D01*
X61225164Y-50896758D01*
X61203514Y-50891320D01*
X61180173Y-50887785D01*
X61158031Y-50885610D01*
X61132805Y-50884015D01*
X61111862Y-50883199D01*
X61089185Y-50882709D01*
X61064773Y-50882546D01*
X61058159Y-50882563D01*
X61033143Y-50882964D01*
X61010432Y-50883899D01*
X60990026Y-50885368D01*
X60967761Y-50887956D01*
X60945796Y-50892163D01*
X60924577Y-50899643D01*
X60909745Y-50914865D01*
X60897014Y-50934801D01*
X60885973Y-50954892D01*
X60873653Y-50979389D01*
X60864728Y-50998167D01*
X60855235Y-51018903D01*
X60845174Y-51041596D01*
X60834543Y-51066248D01*
X60823344Y-51092857D01*
X60811577Y-51121423D01*
X60799241Y-51151948D01*
X60786336Y-51184431D01*
X60773843Y-51216106D01*
X60761522Y-51246285D01*
X60749373Y-51274968D01*
X60737396Y-51302156D01*
X60725590Y-51327847D01*
X60713956Y-51352042D01*
X60702494Y-51374741D01*
X60691203Y-51395945D01*
X60680084Y-51415652D01*
X60669137Y-51433864D01*
X60653039Y-51458376D01*
X60637327Y-51479522D01*
X60622001Y-51497302D01*
X60607062Y-51511716D01*
X60591235Y-51523763D01*
X60573064Y-51534625D01*
X60552549Y-51544302D01*
X60529690Y-51552795D01*
X60504487Y-51560102D01*
X60476939Y-51566224D01*
X60457272Y-51569647D01*
X60436563Y-51572544D01*
X60414812Y-51574914D01*
X60392019Y-51576757D01*
X60368184Y-51578074D01*
X60343308Y-51578864D01*
X60317390Y-51579127D01*
X60166448Y-51579127D01*
X60148782Y-51579003D01*
X60114623Y-51578011D01*
X60082024Y-51576026D01*
X60050986Y-51573050D01*
X60021509Y-51569081D01*
X59993593Y-51564119D01*
X59967237Y-51558166D01*
X59942443Y-51551220D01*
X59919209Y-51543282D01*
X59897537Y-51534352D01*
X59877425Y-51524430D01*
X59858874Y-51513515D01*
X59841884Y-51501608D01*
X59826454Y-51488709D01*
X59812586Y-51474818D01*
X59794710Y-51452121D01*
X59784299Y-51436153D01*
X59769942Y-51411859D01*
X59757096Y-51387152D01*
X59745762Y-51362033D01*
X59735939Y-51336502D01*
X59727627Y-51310559D01*
X59720826Y-51284204D01*
X59715537Y-51257436D01*
X59711759Y-51230257D01*
X59709492Y-51202665D01*
X59708736Y-51174661D01*
X59709187Y-51153233D01*
X59710540Y-51132363D01*
X59712794Y-51112051D01*
X59715949Y-51092298D01*
X59721559Y-51066828D01*
X59728772Y-51042350D01*
X59737588Y-51018864D01*
X59748006Y-50996371D01*
X59760027Y-50974870D01*
X59766416Y-50964604D01*
X59775456Y-50950934D01*
X60052630Y-50950934D01*
X60053513Y-50964134D01*
X60059549Y-50984407D01*
X60071304Y-51000198D01*
X60088778Y-51011507D01*
X60109856Y-51017597D01*
X60131093Y-51021032D01*
X60151793Y-51023230D01*
X60175790Y-51024940D01*
X60195951Y-51025902D01*
X60217967Y-51026589D01*
X60241838Y-51027001D01*
X60267564Y-51027138D01*
X60282900Y-51027060D01*
X60305023Y-51026649D01*
X60326091Y-51025886D01*
X60346102Y-51024772D01*
X60371141Y-51022737D01*
X60394302Y-51020077D01*
X60415585Y-51016792D01*
X60434991Y-51012880D01*
X60456608Y-51007110D01*
X60468823Y-51002612D01*
X60489733Y-50991814D01*
X60506960Y-50980205D01*
X60524630Y-50965955D01*
X60542742Y-50949064D01*
X60556616Y-50934663D01*
X60570740Y-50918776D01*
X60585113Y-50901404D01*
X60599734Y-50882546D01*
X60245094Y-50882546D01*
X60228247Y-50882598D01*
X60204600Y-50882868D01*
X60182903Y-50883371D01*
X60163155Y-50884105D01*
X60139857Y-50885444D01*
X60120024Y-50887196D01*
X60100105Y-50889965D01*
X60079497Y-50895735D01*
X60076244Y-50897439D01*
X60062102Y-50910972D01*
X60054756Y-50929386D01*
X60052630Y-50950934D01*
X59775456Y-50950934D01*
X59779055Y-50945492D01*
X59791512Y-50928273D01*
X59806825Y-50909411D01*
X59821851Y-50893507D01*
X59839506Y-50878326D01*
X59856748Y-50867403D01*
X59740000Y-50867403D01*
X59740000Y-50296364D01*
X60664703Y-50296364D01*
X60692587Y-50296393D01*
G37*
G36*
X61834626Y-49526999D02*
G01*
X61553258Y-49526999D01*
X61553258Y-49377522D01*
X61240628Y-49377522D01*
X61240628Y-49526999D01*
X60262191Y-49526999D01*
X60240655Y-49526943D01*
X60220379Y-49526777D01*
X60192327Y-49526321D01*
X60167108Y-49525615D01*
X60144722Y-49524661D01*
X60125170Y-49523457D01*
X60103509Y-49521465D01*
X60083517Y-49518352D01*
X60068750Y-49512832D01*
X60060958Y-49494547D01*
X60057180Y-49470894D01*
X60055291Y-49450030D01*
X60053905Y-49425091D01*
X60053197Y-49403711D01*
X60052772Y-49380039D01*
X60052630Y-49354075D01*
X59740000Y-49354075D01*
X59740000Y-49593433D01*
X59740062Y-49616889D01*
X59740251Y-49639511D01*
X59740566Y-49661296D01*
X59741007Y-49682245D01*
X59741574Y-49702359D01*
X59742660Y-49730963D01*
X59744030Y-49757686D01*
X59745682Y-49782529D01*
X59747619Y-49805491D01*
X59749838Y-49826572D01*
X59753239Y-49851756D01*
X59756120Y-49868450D01*
X59760959Y-49889165D01*
X59767172Y-49909300D01*
X59774758Y-49928854D01*
X59783719Y-49947829D01*
X59794053Y-49966224D01*
X59805762Y-49984038D01*
X59818844Y-50001272D01*
X59833300Y-50017927D01*
X59848817Y-50033406D01*
X59864838Y-50047358D01*
X59881363Y-50059784D01*
X59898391Y-50070683D01*
X59915923Y-50080056D01*
X59933959Y-50087902D01*
X59952498Y-50094222D01*
X59971542Y-50099015D01*
X59993936Y-50102679D01*
X60014798Y-50105106D01*
X60039147Y-50107258D01*
X60066982Y-50109136D01*
X60087476Y-50110235D01*
X60109519Y-50111212D01*
X60133111Y-50112067D01*
X60158253Y-50112800D01*
X60184944Y-50113410D01*
X60213185Y-50113899D01*
X60242975Y-50114265D01*
X60274314Y-50114509D01*
X60307203Y-50114632D01*
X60324228Y-50114647D01*
X61240628Y-50114647D01*
X61240628Y-50234326D01*
X61553258Y-50234326D01*
X61553258Y-50114647D01*
X61834626Y-50114647D01*
X61834626Y-49526999D01*
G37*
G36*
X60521577Y-48560774D02*
G01*
X60266587Y-48560774D01*
X60242656Y-48560937D01*
X60220322Y-48561426D01*
X60199585Y-48562242D01*
X60174421Y-48563837D01*
X60152095Y-48566013D01*
X60132609Y-48568768D01*
X60112245Y-48573028D01*
X60093663Y-48579336D01*
X60091139Y-48580530D01*
X60073828Y-48592521D01*
X60061646Y-48608847D01*
X60054594Y-48629509D01*
X60052630Y-48651144D01*
X60052892Y-48658610D01*
X60056821Y-48678278D01*
X60066714Y-48695327D01*
X60082428Y-48707320D01*
X60100002Y-48713030D01*
X60121950Y-48716808D01*
X60145093Y-48719169D01*
X60166785Y-48720543D01*
X60191301Y-48721459D01*
X60211541Y-48721845D01*
X60233370Y-48721974D01*
X60615366Y-48721974D01*
X60615366Y-48591060D01*
X60927997Y-48591060D01*
X60927997Y-48721974D01*
X61052561Y-48721974D01*
X61081111Y-48721875D01*
X61107412Y-48721579D01*
X61131463Y-48721085D01*
X61153265Y-48720394D01*
X61178834Y-48719165D01*
X61200404Y-48717585D01*
X61221742Y-48715117D01*
X61241116Y-48710739D01*
X61248329Y-48707373D01*
X61263205Y-48692371D01*
X61269967Y-48673828D01*
X61271891Y-48652609D01*
X61271748Y-48648241D01*
X61266739Y-48629093D01*
X61252964Y-48613209D01*
X61235254Y-48604249D01*
X61213990Y-48599110D01*
X61192390Y-48596212D01*
X61171263Y-48594357D01*
X61146716Y-48592915D01*
X61126062Y-48592103D01*
X61103485Y-48591524D01*
X61078985Y-48591176D01*
X61052561Y-48591060D01*
X60927997Y-48591060D01*
X60615366Y-48591060D01*
X60615366Y-48003412D01*
X60870844Y-48003412D01*
X60903664Y-48003658D01*
X60935568Y-48004396D01*
X60966557Y-48005627D01*
X60996629Y-48007350D01*
X61025785Y-48009565D01*
X61054026Y-48012273D01*
X61081351Y-48015473D01*
X61107759Y-48019165D01*
X61133252Y-48023350D01*
X61157829Y-48028027D01*
X61181490Y-48033196D01*
X61204235Y-48038857D01*
X61226065Y-48045011D01*
X61246978Y-48051657D01*
X61266975Y-48058796D01*
X61286057Y-48066426D01*
X61304451Y-48074607D01*
X61322388Y-48083516D01*
X61339866Y-48093154D01*
X61356887Y-48103521D01*
X61373450Y-48114617D01*
X61389555Y-48126441D01*
X61405201Y-48138995D01*
X61420390Y-48152278D01*
X61435121Y-48166289D01*
X61449394Y-48181030D01*
X61463209Y-48196499D01*
X61476566Y-48212697D01*
X61489465Y-48229624D01*
X61501906Y-48247281D01*
X61513890Y-48265666D01*
X61525415Y-48284779D01*
X61536358Y-48304578D01*
X61546595Y-48325018D01*
X61556126Y-48346100D01*
X61564952Y-48367822D01*
X61573071Y-48390185D01*
X61580484Y-48413190D01*
X61587191Y-48436836D01*
X61593192Y-48461123D01*
X61598487Y-48486051D01*
X61603076Y-48511620D01*
X61606959Y-48537830D01*
X61610136Y-48564682D01*
X61612608Y-48592174D01*
X61614373Y-48620308D01*
X61615432Y-48649083D01*
X61615785Y-48678499D01*
X61615491Y-48702690D01*
X61614609Y-48726538D01*
X61613140Y-48750043D01*
X61611083Y-48773204D01*
X61608438Y-48796022D01*
X61605206Y-48818496D01*
X61601386Y-48840627D01*
X61596978Y-48862414D01*
X61591982Y-48883858D01*
X61586399Y-48904958D01*
X61580228Y-48925715D01*
X61573469Y-48946128D01*
X61566123Y-48966198D01*
X61558189Y-48985924D01*
X61549667Y-49005307D01*
X61540558Y-49024347D01*
X61535822Y-49033698D01*
X61525960Y-49051906D01*
X61515580Y-49069453D01*
X61504681Y-49086340D01*
X61493262Y-49102567D01*
X61481325Y-49118134D01*
X61462446Y-49140246D01*
X61442399Y-49160872D01*
X61421184Y-49180013D01*
X61398802Y-49197669D01*
X61375251Y-49213839D01*
X61350533Y-49228524D01*
X61324647Y-49241723D01*
X61306611Y-49249768D01*
X61287797Y-49257293D01*
X61268204Y-49264300D01*
X61247833Y-49270788D01*
X61226683Y-49276756D01*
X61204754Y-49282206D01*
X61182047Y-49287137D01*
X61158562Y-49291548D01*
X61134298Y-49295441D01*
X61109255Y-49298815D01*
X61083434Y-49301669D01*
X61056835Y-49304005D01*
X61029457Y-49305821D01*
X61001300Y-49307119D01*
X60972365Y-49307897D01*
X60942651Y-49308157D01*
X60414598Y-49308157D01*
X60401960Y-49308128D01*
X60377242Y-49307899D01*
X60353268Y-49307441D01*
X60330038Y-49306754D01*
X60307553Y-49305839D01*
X60285811Y-49304694D01*
X60264814Y-49303320D01*
X60244561Y-49301717D01*
X60225052Y-49299885D01*
X60197184Y-49296708D01*
X60170990Y-49293016D01*
X60146471Y-49288808D01*
X60123626Y-49284086D01*
X60102456Y-49278848D01*
X60088969Y-49274938D01*
X60068997Y-49268379D01*
X60049333Y-49260988D01*
X60029979Y-49252763D01*
X60010934Y-49243705D01*
X59992197Y-49233815D01*
X59973770Y-49223092D01*
X59955653Y-49211536D01*
X59937844Y-49199146D01*
X59920344Y-49185924D01*
X59903154Y-49171869D01*
X59891949Y-49161926D01*
X59875715Y-49146131D01*
X59860167Y-49129280D01*
X59845306Y-49111372D01*
X59831133Y-49092408D01*
X59817646Y-49072389D01*
X59804846Y-49051313D01*
X59792733Y-49029181D01*
X59781307Y-49005992D01*
X59770568Y-48981748D01*
X59760516Y-48956447D01*
X59751262Y-48930258D01*
X59742919Y-48903347D01*
X59735486Y-48875715D01*
X59728963Y-48847362D01*
X59725120Y-48828059D01*
X59721681Y-48808436D01*
X59718647Y-48788492D01*
X59716018Y-48768228D01*
X59713793Y-48747643D01*
X59711973Y-48726737D01*
X59710557Y-48705511D01*
X59709545Y-48683964D01*
X59708939Y-48662096D01*
X59708736Y-48639909D01*
X59708941Y-48617125D01*
X59709553Y-48594815D01*
X59710574Y-48572978D01*
X59712003Y-48551615D01*
X59713841Y-48530724D01*
X59716087Y-48510307D01*
X59718741Y-48490363D01*
X59723488Y-48461335D01*
X59729154Y-48433371D01*
X59735738Y-48406472D01*
X59743241Y-48380637D01*
X59751664Y-48355867D01*
X59761004Y-48332163D01*
X59767740Y-48316882D01*
X59778602Y-48294591D01*
X59790375Y-48273056D01*
X59803057Y-48252276D01*
X59816650Y-48232252D01*
X59831153Y-48212983D01*
X59846566Y-48194471D01*
X59862889Y-48176713D01*
X59880122Y-48159712D01*
X59898266Y-48143466D01*
X59917320Y-48127976D01*
X59930335Y-48118072D01*
X59949665Y-48104090D01*
X59968763Y-48091156D01*
X59987630Y-48079269D01*
X60006264Y-48068430D01*
X60024667Y-48058638D01*
X60042838Y-48049894D01*
X60066705Y-48039865D01*
X60090160Y-48031698D01*
X60113203Y-48025394D01*
X60119017Y-48024041D01*
X60143773Y-48019061D01*
X60163913Y-48015776D01*
X60185402Y-48012878D01*
X60208238Y-48010367D01*
X60232422Y-48008242D01*
X60257955Y-48006503D01*
X60284835Y-48005150D01*
X60313064Y-48004184D01*
X60332632Y-48003755D01*
X60352799Y-48003498D01*
X60373565Y-48003412D01*
X60521577Y-48003412D01*
X60521577Y-48560774D01*
G37*
G36*
X61990942Y-47153935D02*
G01*
X61488778Y-47153935D01*
X61491822Y-47156787D01*
X61506753Y-47172333D01*
X61521207Y-47190027D01*
X61535184Y-47209867D01*
X61546023Y-47227284D01*
X61556556Y-47246076D01*
X61566783Y-47266241D01*
X61576706Y-47287780D01*
X61579110Y-47293354D01*
X61587964Y-47315992D01*
X61595596Y-47339180D01*
X61602008Y-47362917D01*
X61607198Y-47387204D01*
X61611167Y-47412041D01*
X61613915Y-47437427D01*
X61615441Y-47463362D01*
X61615785Y-47483174D01*
X61615514Y-47500306D01*
X61614091Y-47525445D01*
X61611449Y-47549914D01*
X61607588Y-47573713D01*
X61602508Y-47596843D01*
X61596208Y-47619303D01*
X61588689Y-47641093D01*
X61579951Y-47662213D01*
X61569993Y-47682664D01*
X61558816Y-47702444D01*
X61546420Y-47721555D01*
X61533312Y-47739700D01*
X61519818Y-47756583D01*
X61505938Y-47772204D01*
X61491671Y-47786562D01*
X61472048Y-47803743D01*
X61451737Y-47818680D01*
X61430740Y-47831373D01*
X61409056Y-47841822D01*
X61386685Y-47850027D01*
X61368588Y-47855003D01*
X61348371Y-47859490D01*
X61326033Y-47863487D01*
X61301574Y-47866994D01*
X61274994Y-47870013D01*
X61246293Y-47872541D01*
X61225981Y-47873955D01*
X61204726Y-47875152D01*
X61182528Y-47876131D01*
X61159388Y-47876892D01*
X61135305Y-47877436D01*
X61110280Y-47877762D01*
X61084312Y-47877871D01*
X60237278Y-47877871D01*
X60224715Y-47877844D01*
X60200234Y-47877626D01*
X60176611Y-47877191D01*
X60153847Y-47876538D01*
X60131941Y-47875668D01*
X60110894Y-47874581D01*
X60090706Y-47873276D01*
X60062034Y-47870910D01*
X60035293Y-47868055D01*
X60010485Y-47864710D01*
X59987609Y-47860876D01*
X59966664Y-47856553D01*
X59941744Y-47850027D01*
X59935995Y-47848188D01*
X59913430Y-47839456D01*
X59891551Y-47828526D01*
X59870359Y-47815398D01*
X59849854Y-47800072D01*
X59834926Y-47787135D01*
X59820384Y-47772961D01*
X59806229Y-47757551D01*
X59792461Y-47740904D01*
X59779078Y-47723021D01*
X59770560Y-47710490D01*
X59758814Y-47691186D01*
X59748304Y-47671272D01*
X59739030Y-47650748D01*
X59730993Y-47629615D01*
X59724192Y-47607872D01*
X59718628Y-47585520D01*
X59714301Y-47562558D01*
X59711209Y-47538986D01*
X59709355Y-47514804D01*
X59708736Y-47490013D01*
X59709408Y-47465238D01*
X59711423Y-47440737D01*
X59714781Y-47416511D01*
X59719483Y-47392560D01*
X59725528Y-47368884D01*
X59732916Y-47345482D01*
X59741648Y-47322356D01*
X59751723Y-47299504D01*
X59762806Y-47277354D01*
X59774316Y-47256334D01*
X59786253Y-47236443D01*
X59792018Y-47227696D01*
X60052630Y-47227696D01*
X60055445Y-47248352D01*
X60065042Y-47265894D01*
X60081451Y-47278010D01*
X60090015Y-47281216D01*
X60110952Y-47285798D01*
X60130544Y-47288269D01*
X60154000Y-47290072D01*
X60175547Y-47291034D01*
X60199566Y-47291568D01*
X60219204Y-47291688D01*
X61117529Y-47291688D01*
X61142305Y-47291474D01*
X61164607Y-47290833D01*
X61184436Y-47289765D01*
X61205746Y-47287828D01*
X61226216Y-47284622D01*
X61246489Y-47278010D01*
X61261968Y-47263676D01*
X61269881Y-47244020D01*
X61271891Y-47223300D01*
X61271862Y-47220762D01*
X61269076Y-47200278D01*
X61259479Y-47181015D01*
X61243070Y-47168101D01*
X61224599Y-47161903D01*
X61205096Y-47158417D01*
X61185144Y-47156273D01*
X61161829Y-47154820D01*
X61140755Y-47154156D01*
X61117529Y-47153935D01*
X60269030Y-47153935D01*
X60241937Y-47154068D01*
X60216897Y-47154467D01*
X60193909Y-47155133D01*
X60172973Y-47156065D01*
X60148251Y-47157721D01*
X60127178Y-47159850D01*
X60105966Y-47163178D01*
X60085847Y-47169078D01*
X60076278Y-47174502D01*
X60062005Y-47189500D01*
X60054706Y-47207730D01*
X60052630Y-47227696D01*
X59792018Y-47227696D01*
X59798618Y-47217682D01*
X59811410Y-47200051D01*
X59824630Y-47183549D01*
X59838277Y-47168177D01*
X59852351Y-47153935D01*
X59740000Y-47153935D01*
X59740000Y-46567752D01*
X61990942Y-46567752D01*
X61990942Y-47153935D01*
G37*
G36*
X61990942Y-45781779D02*
G01*
X60208946Y-45781779D01*
X60208946Y-45430069D01*
X59740000Y-45430069D01*
X59740000Y-46391409D01*
X61990942Y-46391409D01*
X61990942Y-45781779D01*
G37*
G36*
X61990942Y-44716880D02*
G01*
X60208946Y-44716880D01*
X60208946Y-44365170D01*
X59740000Y-44365170D01*
X59740000Y-45326510D01*
X61990942Y-45326510D01*
X61990942Y-44716880D01*
G37*
G36*
X60990523Y-42922672D02*
G01*
X60990523Y-43532302D01*
X61384731Y-43532302D01*
X61404387Y-43532365D01*
X61432017Y-43532696D01*
X61457424Y-43533310D01*
X61480606Y-43534207D01*
X61501565Y-43535388D01*
X61526050Y-43537403D01*
X61546582Y-43539921D01*
X61566687Y-43543778D01*
X61580614Y-43548422D01*
X61597615Y-43560152D01*
X61609053Y-43577754D01*
X61614548Y-43598332D01*
X61615785Y-43616810D01*
X61614256Y-43637996D01*
X61608609Y-43658850D01*
X61597061Y-43677588D01*
X61580079Y-43690892D01*
X61572309Y-43694479D01*
X61551833Y-43700124D01*
X61528394Y-43703935D01*
X61505469Y-43706401D01*
X61485842Y-43707909D01*
X61464127Y-43709125D01*
X61440327Y-43710050D01*
X61414439Y-43710682D01*
X61386465Y-43711023D01*
X61366657Y-43711088D01*
X60355003Y-43711088D01*
X60326786Y-43710942D01*
X60300569Y-43710504D01*
X60276353Y-43709774D01*
X60254138Y-43708752D01*
X60233924Y-43707439D01*
X60210083Y-43705233D01*
X60189800Y-43702508D01*
X60169447Y-43698372D01*
X60157166Y-43694479D01*
X60138787Y-43683488D01*
X60125659Y-43667613D01*
X60117782Y-43646852D01*
X60115198Y-43624679D01*
X60115157Y-43621207D01*
X60117213Y-43599428D01*
X60124602Y-43578774D01*
X60137364Y-43562639D01*
X60155499Y-43551022D01*
X60158143Y-43549888D01*
X60179272Y-43543911D01*
X60198720Y-43540614D01*
X60222457Y-43537866D01*
X60243075Y-43536166D01*
X60266106Y-43534775D01*
X60291550Y-43533693D01*
X60319407Y-43532920D01*
X60339318Y-43532577D01*
X60360302Y-43532371D01*
X60382358Y-43532302D01*
X60677892Y-43532302D01*
X60677892Y-42922672D01*
X60575799Y-42922672D01*
X60554256Y-42922721D01*
X60533102Y-42922868D01*
X60512337Y-42923114D01*
X60491962Y-42923458D01*
X60471976Y-42923900D01*
X60452380Y-42924441D01*
X60414354Y-42925817D01*
X60377885Y-42927585D01*
X60342974Y-42929747D01*
X60309620Y-42932302D01*
X60277822Y-42935250D01*
X60247582Y-42938592D01*
X60218899Y-42942326D01*
X60191772Y-42946453D01*
X60166203Y-42950974D01*
X60142191Y-42955887D01*
X60119736Y-42961194D01*
X60098838Y-42966893D01*
X60079497Y-42972986D01*
X60061139Y-42979687D01*
X60043067Y-42987335D01*
X60025281Y-42995930D01*
X60007781Y-43005470D01*
X59990568Y-43015957D01*
X59973641Y-43027391D01*
X59957000Y-43039771D01*
X59940645Y-43053098D01*
X59924576Y-43067371D01*
X59908794Y-43082590D01*
X59893298Y-43098756D01*
X59878088Y-43115868D01*
X59863165Y-43133927D01*
X59848527Y-43152932D01*
X59834176Y-43172883D01*
X59820111Y-43193782D01*
X59806624Y-43215460D01*
X59794008Y-43237753D01*
X59782261Y-43260660D01*
X59771385Y-43284182D01*
X59761378Y-43308318D01*
X59752242Y-43333069D01*
X59743976Y-43358434D01*
X59736580Y-43384413D01*
X59730054Y-43411007D01*
X59724398Y-43438215D01*
X59719613Y-43466038D01*
X59715697Y-43494475D01*
X59712652Y-43523527D01*
X59710477Y-43553193D01*
X59709171Y-43583473D01*
X59708736Y-43614368D01*
X59709099Y-43646262D01*
X59710187Y-43677466D01*
X59711999Y-43707979D01*
X59714537Y-43737802D01*
X59717800Y-43766934D01*
X59721788Y-43795375D01*
X59726501Y-43823125D01*
X59731939Y-43850184D01*
X59738103Y-43876553D01*
X59744991Y-43902231D01*
X59752605Y-43927218D01*
X59760943Y-43951514D01*
X59770007Y-43975120D01*
X59779796Y-43998035D01*
X59790310Y-44020259D01*
X59801549Y-44041793D01*
X59813488Y-44062475D01*
X59825981Y-44082268D01*
X59839027Y-44101172D01*
X59852626Y-44119187D01*
X59866779Y-44136313D01*
X59881485Y-44152549D01*
X59896744Y-44167896D01*
X59912557Y-44182354D01*
X59928923Y-44195923D01*
X59945843Y-44208603D01*
X59963316Y-44220393D01*
X59981342Y-44231295D01*
X59999922Y-44241307D01*
X60019055Y-44250430D01*
X60038741Y-44258663D01*
X60058981Y-44266008D01*
X60080184Y-44272633D01*
X60102639Y-44278830D01*
X60126346Y-44284601D01*
X60151304Y-44289943D01*
X60177515Y-44294859D01*
X60204977Y-44299347D01*
X60233691Y-44303407D01*
X60263656Y-44307040D01*
X60294873Y-44310246D01*
X60327342Y-44313024D01*
X60361063Y-44315375D01*
X60396036Y-44317299D01*
X60432260Y-44318795D01*
X60469736Y-44319863D01*
X60508464Y-44320504D01*
X60528297Y-44320665D01*
X60548443Y-44320718D01*
X61188360Y-44320718D01*
X61217581Y-44320653D01*
X61245894Y-44320459D01*
X61273299Y-44320134D01*
X61299795Y-44319680D01*
X61325384Y-44319096D01*
X61350064Y-44318382D01*
X61373835Y-44317539D01*
X61396699Y-44316566D01*
X61418654Y-44315463D01*
X61439701Y-44314230D01*
X61459839Y-44312868D01*
X61488344Y-44310581D01*
X61514805Y-44308002D01*
X61539223Y-44305131D01*
X61546908Y-44304110D01*
X61569545Y-44300403D01*
X61592028Y-44295511D01*
X61614356Y-44289435D01*
X61636530Y-44282173D01*
X61658549Y-44273727D01*
X61680414Y-44264096D01*
X61702123Y-44253279D01*
X61723679Y-44241278D01*
X61745080Y-44228092D01*
X61766326Y-44213721D01*
X61780404Y-44203481D01*
X61801137Y-44187078D01*
X61821019Y-44169558D01*
X61840051Y-44150922D01*
X61858234Y-44131170D01*
X61875566Y-44110302D01*
X61892048Y-44088317D01*
X61907680Y-44065216D01*
X61922462Y-44040999D01*
X61936394Y-44015665D01*
X61945209Y-43998156D01*
X61953647Y-43980151D01*
X61957725Y-43970962D01*
X61965533Y-43952230D01*
X61972837Y-43933158D01*
X61979638Y-43913746D01*
X61985935Y-43893995D01*
X61991728Y-43873904D01*
X61997017Y-43853474D01*
X62001803Y-43832704D01*
X62006085Y-43811594D01*
X62009863Y-43790144D01*
X62013137Y-43768355D01*
X62015908Y-43746226D01*
X62018175Y-43723758D01*
X62019938Y-43700950D01*
X62021197Y-43677802D01*
X62021953Y-43654315D01*
X62022205Y-43630488D01*
X62021813Y-43598355D01*
X62020640Y-43566924D01*
X62018684Y-43536195D01*
X62015946Y-43506168D01*
X62012425Y-43476844D01*
X62008123Y-43448222D01*
X62003037Y-43420301D01*
X61997170Y-43393084D01*
X61990520Y-43366568D01*
X61983088Y-43340755D01*
X61974873Y-43315643D01*
X61965876Y-43291234D01*
X61956097Y-43267528D01*
X61945535Y-43244523D01*
X61934191Y-43222221D01*
X61922065Y-43200620D01*
X61909414Y-43179766D01*
X61896374Y-43159824D01*
X61882944Y-43140794D01*
X61869125Y-43122676D01*
X61854917Y-43105471D01*
X61840320Y-43089177D01*
X61825333Y-43073795D01*
X61809958Y-43059326D01*
X61794193Y-43045768D01*
X61778038Y-43033123D01*
X61761495Y-43021390D01*
X61744562Y-43010569D01*
X61727239Y-43000660D01*
X61709528Y-42991663D01*
X61691427Y-42983578D01*
X61672937Y-42976405D01*
X61653686Y-42969899D01*
X61633179Y-42963812D01*
X61611417Y-42958144D01*
X61588399Y-42952897D01*
X61564125Y-42948069D01*
X61538596Y-42943662D01*
X61511812Y-42939674D01*
X61483771Y-42936105D01*
X61454476Y-42932957D01*
X61423924Y-42930228D01*
X61392117Y-42927919D01*
X61359055Y-42926030D01*
X61324737Y-42924561D01*
X61289163Y-42923512D01*
X61252334Y-42922882D01*
X61214249Y-42922672D01*
X60990523Y-42922672D01*
G37*
G36*
X58630942Y-60928254D02*
G01*
X58630942Y-61792386D01*
X56380000Y-62090850D01*
X56380000Y-61459238D01*
X56786420Y-61425044D01*
X56786420Y-61265798D01*
X57192840Y-61265798D01*
X57192840Y-61429441D01*
X57230468Y-61426615D01*
X57250393Y-61425052D01*
X57271058Y-61423388D01*
X57292464Y-61421625D01*
X57314610Y-61419761D01*
X57337496Y-61417797D01*
X57361123Y-61415733D01*
X57385490Y-61413568D01*
X57410597Y-61411304D01*
X57436445Y-61408939D01*
X57463033Y-61406474D01*
X57490362Y-61403909D01*
X57518431Y-61401244D01*
X57547240Y-61398479D01*
X57576789Y-61395613D01*
X57607079Y-61392647D01*
X57638110Y-61389582D01*
X57669880Y-61386415D01*
X57702391Y-61383149D01*
X57735643Y-61379783D01*
X57769634Y-61376316D01*
X57804367Y-61372749D01*
X57839839Y-61369082D01*
X57876052Y-61365315D01*
X57913005Y-61361448D01*
X57950699Y-61357480D01*
X57989132Y-61353413D01*
X58028307Y-61349245D01*
X58068221Y-61344977D01*
X58108876Y-61340608D01*
X58150272Y-61336140D01*
X58114023Y-61334356D01*
X58078182Y-61332545D01*
X58042749Y-61330708D01*
X58007725Y-61328843D01*
X57973110Y-61326952D01*
X57938902Y-61325035D01*
X57905103Y-61323090D01*
X57871713Y-61321119D01*
X57838730Y-61319121D01*
X57806156Y-61317097D01*
X57773991Y-61315045D01*
X57742233Y-61312968D01*
X57710884Y-61310863D01*
X57679944Y-61308731D01*
X57649412Y-61306573D01*
X57619288Y-61304388D01*
X57589572Y-61302177D01*
X57560265Y-61299939D01*
X57531366Y-61297674D01*
X57502875Y-61295382D01*
X57474793Y-61293064D01*
X57447119Y-61290719D01*
X57419854Y-61288347D01*
X57392997Y-61285948D01*
X57366548Y-61283523D01*
X57340507Y-61281071D01*
X57314875Y-61278592D01*
X57289651Y-61276087D01*
X57264836Y-61273555D01*
X57240429Y-61270996D01*
X57216430Y-61268410D01*
X57192840Y-61265798D01*
X56786420Y-61265798D01*
X56786420Y-61246259D01*
X56380000Y-61217438D01*
X56380000Y-60592665D01*
X58630942Y-60928254D01*
G37*
G36*
X58224521Y-59964472D02*
G01*
X57947550Y-60003551D01*
X57982933Y-59989242D01*
X58016175Y-59973792D01*
X58047276Y-59957200D01*
X58076236Y-59939468D01*
X58103055Y-59920594D01*
X58127733Y-59900580D01*
X58150270Y-59879424D01*
X58170666Y-59857127D01*
X58188921Y-59833690D01*
X58205035Y-59809111D01*
X58219009Y-59783391D01*
X58230841Y-59756530D01*
X58240533Y-59728528D01*
X58248083Y-59699385D01*
X58253493Y-59669101D01*
X58256762Y-59637675D01*
X57567997Y-59637675D01*
X57567850Y-59657812D01*
X57567078Y-59686593D01*
X57565646Y-59713665D01*
X57563552Y-59739029D01*
X57560797Y-59762684D01*
X57557381Y-59784630D01*
X57553304Y-59804867D01*
X57546839Y-59829192D01*
X57539199Y-59850479D01*
X57530383Y-59868729D01*
X57517890Y-59888249D01*
X57503917Y-59905289D01*
X57488466Y-59919848D01*
X57471536Y-59931927D01*
X57453127Y-59941525D01*
X57433240Y-59948642D01*
X57424870Y-59950795D01*
X57405049Y-59954344D01*
X57379289Y-59957420D01*
X57356072Y-59959416D01*
X57329515Y-59961146D01*
X57309954Y-59962152D01*
X57288909Y-59963039D01*
X57266380Y-59963808D01*
X57242366Y-59964459D01*
X57216867Y-59964991D01*
X57189884Y-59965405D01*
X57161416Y-59965701D01*
X57131464Y-59965879D01*
X57100027Y-59965938D01*
X56380000Y-59965938D01*
X56380000Y-60552121D01*
X58224521Y-60552121D01*
X58224521Y-59964472D01*
G37*
G36*
X58224521Y-58318275D02*
G01*
X57473719Y-58548352D01*
X56380000Y-58251353D01*
X56380000Y-58818973D01*
X57176720Y-58979197D01*
X56380000Y-58963565D01*
X56380000Y-59549748D01*
X58630942Y-59549748D01*
X58630942Y-58963565D01*
X57670090Y-58979197D01*
X58224521Y-58817508D01*
X58224521Y-58318275D01*
G37*
G36*
X57332587Y-56953475D02*
G01*
X57359879Y-56953563D01*
X57386580Y-56953708D01*
X57412689Y-56953912D01*
X57438206Y-56954174D01*
X57463133Y-56954494D01*
X57487467Y-56954872D01*
X57511210Y-56955309D01*
X57534362Y-56955803D01*
X57556922Y-56956356D01*
X57578890Y-56956967D01*
X57600267Y-56957637D01*
X57621053Y-56958364D01*
X57641247Y-56959150D01*
X57679860Y-56960896D01*
X57716107Y-56962875D01*
X57749988Y-56965086D01*
X57781503Y-56967530D01*
X57810652Y-56970208D01*
X57837435Y-56973117D01*
X57861851Y-56976260D01*
X57883902Y-56979636D01*
X57903586Y-56983244D01*
X57930935Y-56989778D01*
X57957476Y-56998391D01*
X57983211Y-57009081D01*
X58008138Y-57021850D01*
X58032258Y-57036696D01*
X58055570Y-57053620D01*
X58070664Y-57066058D01*
X58085398Y-57079418D01*
X58099774Y-57093703D01*
X58113792Y-57108911D01*
X58127450Y-57125042D01*
X58140750Y-57142097D01*
X58153691Y-57160076D01*
X58166054Y-57179060D01*
X58177619Y-57199132D01*
X58188387Y-57220291D01*
X58198357Y-57242538D01*
X58207529Y-57265873D01*
X58215904Y-57290295D01*
X58223482Y-57315805D01*
X58230261Y-57342403D01*
X58236243Y-57370088D01*
X58241428Y-57398861D01*
X58245814Y-57428722D01*
X58249404Y-57459670D01*
X58252195Y-57491706D01*
X58254189Y-57524830D01*
X58255386Y-57559041D01*
X58255785Y-57594340D01*
X58255441Y-57623855D01*
X58254411Y-57652683D01*
X58252693Y-57680824D01*
X58250289Y-57708279D01*
X58247198Y-57735046D01*
X58243420Y-57761127D01*
X58238955Y-57786521D01*
X58233803Y-57811227D01*
X58227964Y-57835247D01*
X58221438Y-57858580D01*
X58214225Y-57881226D01*
X58206325Y-57903185D01*
X58197739Y-57924457D01*
X58188465Y-57945042D01*
X58178505Y-57964940D01*
X58167857Y-57984151D01*
X58156759Y-58002628D01*
X58145448Y-58020322D01*
X58133923Y-58037234D01*
X58122184Y-58053364D01*
X58104175Y-58076091D01*
X58085685Y-58097058D01*
X58066714Y-58116265D01*
X58047262Y-58133712D01*
X58027330Y-58149398D01*
X58006916Y-58163324D01*
X57986022Y-58175490D01*
X57964647Y-58185896D01*
X57949870Y-58191989D01*
X57926331Y-58200391D01*
X57901144Y-58207908D01*
X57874308Y-58214541D01*
X57845823Y-58220290D01*
X57825917Y-58223631D01*
X57805279Y-58226579D01*
X57783907Y-58229134D01*
X57761803Y-58231296D01*
X57738967Y-58233065D01*
X57715397Y-58234441D01*
X57691095Y-58235424D01*
X57666060Y-58236013D01*
X57640293Y-58236210D01*
X57505471Y-58236210D01*
X57505471Y-57684221D01*
X57707704Y-57684221D01*
X57725446Y-57684177D01*
X57750355Y-57683947D01*
X57773222Y-57683519D01*
X57794044Y-57682893D01*
X57818629Y-57681752D01*
X57839580Y-57680260D01*
X57860661Y-57677901D01*
X57882581Y-57672986D01*
X57887819Y-57670574D01*
X57902617Y-57656517D01*
X57910059Y-57636624D01*
X57911891Y-57615833D01*
X57911326Y-57606277D01*
X57905925Y-57587232D01*
X57893217Y-57570058D01*
X57875743Y-57558192D01*
X57865164Y-57553841D01*
X57843514Y-57548403D01*
X57820173Y-57544868D01*
X57798031Y-57542693D01*
X57772805Y-57541098D01*
X57751862Y-57540282D01*
X57729185Y-57539792D01*
X57704773Y-57539629D01*
X57698159Y-57539646D01*
X57673143Y-57540047D01*
X57650432Y-57540982D01*
X57630026Y-57542451D01*
X57607761Y-57545039D01*
X57585796Y-57549246D01*
X57564577Y-57556726D01*
X57549745Y-57571948D01*
X57537014Y-57591884D01*
X57525973Y-57611975D01*
X57513653Y-57636472D01*
X57504728Y-57655250D01*
X57495235Y-57675985D01*
X57485174Y-57698679D01*
X57474543Y-57723330D01*
X57463344Y-57749939D01*
X57451577Y-57778506D01*
X57439241Y-57809031D01*
X57426336Y-57841513D01*
X57413843Y-57873189D01*
X57401522Y-57903368D01*
X57389373Y-57932051D01*
X57377396Y-57959238D01*
X57365590Y-57984930D01*
X57353956Y-58009125D01*
X57342494Y-58031824D01*
X57331203Y-58053028D01*
X57320084Y-58072735D01*
X57309137Y-58090946D01*
X57293039Y-58115458D01*
X57277327Y-58136605D01*
X57262001Y-58154385D01*
X57247062Y-58168799D01*
X57231235Y-58180846D01*
X57213064Y-58191708D01*
X57192549Y-58201385D01*
X57169690Y-58209877D01*
X57144487Y-58217185D01*
X57116939Y-58223307D01*
X57097272Y-58226730D01*
X57076563Y-58229627D01*
X57054812Y-58231997D01*
X57032019Y-58233840D01*
X57008184Y-58235157D01*
X56983308Y-58235947D01*
X56957390Y-58236210D01*
X56806448Y-58236210D01*
X56788782Y-58236086D01*
X56754623Y-58235094D01*
X56722024Y-58233109D01*
X56690986Y-58230132D01*
X56661509Y-58226163D01*
X56633593Y-58221202D01*
X56607237Y-58215249D01*
X56582443Y-58208303D01*
X56559209Y-58200365D01*
X56537537Y-58191435D01*
X56517425Y-58181513D01*
X56498874Y-58170598D01*
X56481884Y-58158691D01*
X56466454Y-58145792D01*
X56452586Y-58131901D01*
X56434710Y-58109204D01*
X56424299Y-58093236D01*
X56409942Y-58068942D01*
X56397096Y-58044235D01*
X56385762Y-58019116D01*
X56375939Y-57993585D01*
X56367627Y-57967642D01*
X56360826Y-57941287D01*
X56355537Y-57914519D01*
X56351759Y-57887339D01*
X56349492Y-57859748D01*
X56348736Y-57831744D01*
X56349187Y-57810316D01*
X56350540Y-57789446D01*
X56352794Y-57769134D01*
X56355949Y-57749380D01*
X56361559Y-57723910D01*
X56368772Y-57699433D01*
X56377588Y-57675947D01*
X56388006Y-57653454D01*
X56400027Y-57631953D01*
X56406416Y-57621687D01*
X56415456Y-57608017D01*
X56692630Y-57608017D01*
X56693513Y-57621217D01*
X56699549Y-57641490D01*
X56711304Y-57657281D01*
X56728778Y-57668589D01*
X56749856Y-57674680D01*
X56771093Y-57678115D01*
X56791793Y-57680313D01*
X56815790Y-57682023D01*
X56835951Y-57682985D01*
X56857967Y-57683671D01*
X56881838Y-57684084D01*
X56907564Y-57684221D01*
X56922900Y-57684143D01*
X56945023Y-57683732D01*
X56966091Y-57682969D01*
X56986102Y-57681854D01*
X57011141Y-57679820D01*
X57034302Y-57677160D01*
X57055585Y-57673875D01*
X57074991Y-57669963D01*
X57096608Y-57664193D01*
X57108823Y-57659695D01*
X57129733Y-57648897D01*
X57146960Y-57637288D01*
X57164630Y-57623038D01*
X57182742Y-57606147D01*
X57196616Y-57591746D01*
X57210740Y-57575859D01*
X57225113Y-57558487D01*
X57239734Y-57539629D01*
X56885094Y-57539629D01*
X56868247Y-57539681D01*
X56844600Y-57539951D01*
X56822903Y-57540454D01*
X56803155Y-57541188D01*
X56779857Y-57542527D01*
X56760024Y-57544279D01*
X56740105Y-57547048D01*
X56719497Y-57552818D01*
X56716244Y-57554522D01*
X56702102Y-57568055D01*
X56694756Y-57586469D01*
X56692630Y-57608017D01*
X56415456Y-57608017D01*
X56419055Y-57602575D01*
X56431512Y-57585356D01*
X56446825Y-57566494D01*
X56461851Y-57550590D01*
X56479506Y-57535408D01*
X56496748Y-57524486D01*
X56380000Y-57524486D01*
X56380000Y-56953446D01*
X57304703Y-56953446D01*
X57332587Y-56953475D01*
G37*
G36*
X58224521Y-56204109D02*
G01*
X58105331Y-56210948D01*
X58123718Y-56197461D01*
X58139145Y-56182969D01*
X58154668Y-56165519D01*
X58167155Y-56149429D01*
X58179703Y-56131447D01*
X58192312Y-56111572D01*
X58204982Y-56089804D01*
X58216889Y-56066669D01*
X58224777Y-56048768D01*
X58231772Y-56030394D01*
X58237875Y-56011547D01*
X58243084Y-55992229D01*
X58247400Y-55972438D01*
X58250823Y-55952175D01*
X58253354Y-55931439D01*
X58254991Y-55910232D01*
X58255735Y-55888552D01*
X58255785Y-55881220D01*
X58255166Y-55853849D01*
X58253312Y-55827422D01*
X58250220Y-55801940D01*
X58245893Y-55777402D01*
X58240329Y-55753809D01*
X58233528Y-55731160D01*
X58225491Y-55709456D01*
X58216217Y-55688696D01*
X58205707Y-55668881D01*
X58193961Y-55650010D01*
X58185443Y-55637954D01*
X58172032Y-55620783D01*
X58157994Y-55604804D01*
X58143329Y-55590019D01*
X58128038Y-55576428D01*
X58112120Y-55564030D01*
X58095575Y-55552826D01*
X58078403Y-55542816D01*
X58060604Y-55533999D01*
X58042178Y-55526375D01*
X58023126Y-55519945D01*
X58010076Y-55516321D01*
X57989199Y-55511433D01*
X57965952Y-55507025D01*
X57940335Y-55503098D01*
X57912349Y-55499652D01*
X57892374Y-55497622D01*
X57871346Y-55495805D01*
X57849265Y-55494202D01*
X57826131Y-55492813D01*
X57801943Y-55491638D01*
X57776702Y-55490676D01*
X57750408Y-55489928D01*
X57723060Y-55489394D01*
X57694660Y-55489073D01*
X57665205Y-55488966D01*
X56380000Y-55488966D01*
X56380000Y-56075149D01*
X57656901Y-56075149D01*
X57679515Y-56075191D01*
X57700949Y-56075317D01*
X57721204Y-56075527D01*
X57749375Y-56075999D01*
X57774893Y-56076660D01*
X57797758Y-56077510D01*
X57817970Y-56078549D01*
X57840791Y-56080229D01*
X57862685Y-56082800D01*
X57877208Y-56085896D01*
X57895498Y-56095646D01*
X57907013Y-56112076D01*
X57911586Y-56132572D01*
X57911891Y-56140606D01*
X57909326Y-56162374D01*
X57900310Y-56181681D01*
X57884803Y-56195502D01*
X57870858Y-56201667D01*
X57849935Y-56205983D01*
X57829632Y-56208365D01*
X57804246Y-56210349D01*
X57781871Y-56211577D01*
X57756636Y-56212582D01*
X57728542Y-56213363D01*
X57708224Y-56213760D01*
X57686635Y-56214057D01*
X57663776Y-56214256D01*
X57639645Y-56214355D01*
X57627103Y-56214368D01*
X56380000Y-56214368D01*
X56380000Y-56800550D01*
X58224521Y-56800550D01*
X58224521Y-56204109D01*
G37*
G36*
X58224521Y-54588687D02*
G01*
X58101423Y-54623858D01*
X58117238Y-54637040D01*
X58132442Y-54651427D01*
X58147035Y-54667020D01*
X58161018Y-54683820D01*
X58174391Y-54701825D01*
X58187152Y-54721036D01*
X58199303Y-54741453D01*
X58210844Y-54763077D01*
X58218875Y-54779918D01*
X58228355Y-54802907D01*
X58236430Y-54826507D01*
X58243101Y-54850718D01*
X58248368Y-54875539D01*
X58252230Y-54900971D01*
X58254205Y-54920445D01*
X58255390Y-54940263D01*
X58255785Y-54960425D01*
X58255670Y-54972722D01*
X58254754Y-54996726D01*
X58252922Y-55019945D01*
X58250175Y-55042377D01*
X58246511Y-55064023D01*
X58241931Y-55084883D01*
X58236436Y-55104956D01*
X58230025Y-55124244D01*
X58222697Y-55142745D01*
X58209989Y-55169023D01*
X58195220Y-55193533D01*
X58178390Y-55216273D01*
X58159499Y-55237244D01*
X58138548Y-55256447D01*
X58123327Y-55268218D01*
X58106972Y-55279230D01*
X58089484Y-55289483D01*
X58070862Y-55298976D01*
X58051107Y-55307709D01*
X58030219Y-55315684D01*
X58008197Y-55322898D01*
X57985041Y-55329354D01*
X57960753Y-55335049D01*
X57935330Y-55339986D01*
X57908775Y-55344163D01*
X57881086Y-55347580D01*
X57852263Y-55350238D01*
X57822307Y-55352137D01*
X57791217Y-55353276D01*
X57758995Y-55353656D01*
X57106378Y-55353656D01*
X57095100Y-55353619D01*
X57073019Y-55353329D01*
X57051571Y-55352749D01*
X57030757Y-55351879D01*
X57010576Y-55350719D01*
X56991029Y-55349269D01*
X56962897Y-55346550D01*
X56936189Y-55343178D01*
X56910907Y-55339154D01*
X56887051Y-55334477D01*
X56864619Y-55329148D01*
X56843613Y-55323165D01*
X56824033Y-55316531D01*
X56811603Y-55311640D01*
X56793517Y-55303367D01*
X56776100Y-55293969D01*
X56759353Y-55283446D01*
X56743276Y-55271798D01*
X56727869Y-55259025D01*
X56713131Y-55245128D01*
X56699064Y-55230106D01*
X56685666Y-55213958D01*
X56672937Y-55196686D01*
X56660879Y-55178289D01*
X56653366Y-55165444D01*
X56643007Y-55145402D01*
X56633737Y-55124434D01*
X56625558Y-55102538D01*
X56618470Y-55079714D01*
X56612472Y-55055964D01*
X56607565Y-55031286D01*
X56603748Y-55005680D01*
X56601022Y-54979148D01*
X56599386Y-54951687D01*
X56598841Y-54923300D01*
X56599383Y-54900959D01*
X56601009Y-54878878D01*
X56603718Y-54857057D01*
X56607512Y-54835495D01*
X56612389Y-54814192D01*
X56618350Y-54793149D01*
X56625395Y-54772365D01*
X56633524Y-54751841D01*
X56642446Y-54731875D01*
X56651628Y-54713007D01*
X56655911Y-54704947D01*
X56942735Y-54704947D01*
X56945645Y-54726022D01*
X56955568Y-54743585D01*
X56972533Y-54755261D01*
X56990037Y-54760019D01*
X57011813Y-54763168D01*
X57034734Y-54765135D01*
X57056197Y-54766280D01*
X57080438Y-54767044D01*
X57100442Y-54767366D01*
X57122009Y-54767473D01*
X57734082Y-54767473D01*
X57740966Y-54767457D01*
X57766978Y-54767067D01*
X57790548Y-54766159D01*
X57811675Y-54764732D01*
X57834649Y-54762218D01*
X57857180Y-54758131D01*
X57878674Y-54750864D01*
X57884610Y-54747470D01*
X57900180Y-54733426D01*
X57909263Y-54715184D01*
X57911891Y-54695177D01*
X57909688Y-54675359D01*
X57901014Y-54657014D01*
X57884047Y-54644375D01*
X57867354Y-54639806D01*
X57845864Y-54636784D01*
X57822893Y-54634895D01*
X57801201Y-54633796D01*
X57776563Y-54633063D01*
X57756151Y-54632754D01*
X57734082Y-54632651D01*
X57169881Y-54632651D01*
X57142401Y-54632775D01*
X57116930Y-54633149D01*
X57093468Y-54633771D01*
X57072016Y-54634643D01*
X57046538Y-54636192D01*
X57024633Y-54638184D01*
X57002274Y-54641297D01*
X56980348Y-54646817D01*
X56969513Y-54651843D01*
X56953351Y-54666402D01*
X56945086Y-54684644D01*
X56942735Y-54704947D01*
X56655911Y-54704947D01*
X56661070Y-54695238D01*
X56673236Y-54674573D01*
X56685809Y-54655625D01*
X56698787Y-54638394D01*
X56712170Y-54622881D01*
X56601284Y-54622881D01*
X56579076Y-54623036D01*
X56558430Y-54623499D01*
X56533334Y-54624598D01*
X56511017Y-54626247D01*
X56487027Y-54629081D01*
X56463968Y-54633614D01*
X56444968Y-54640467D01*
X56430222Y-54651335D01*
X56418669Y-54669110D01*
X56412875Y-54689840D01*
X56411263Y-54711786D01*
X56412362Y-54724706D01*
X56419078Y-54743415D01*
X56431901Y-54758594D01*
X56450830Y-54770244D01*
X56470369Y-54777021D01*
X56493817Y-54781540D01*
X56513967Y-54783446D01*
X56536315Y-54784081D01*
X56536315Y-55354144D01*
X56501411Y-55352784D01*
X56468019Y-55350168D01*
X56436137Y-55346296D01*
X56405767Y-55341169D01*
X56376908Y-55334786D01*
X56349561Y-55327148D01*
X56323724Y-55318254D01*
X56299399Y-55308104D01*
X56276586Y-55296699D01*
X56255283Y-55284039D01*
X56235492Y-55270123D01*
X56217212Y-55254951D01*
X56200443Y-55238524D01*
X56185185Y-55220841D01*
X56171439Y-55201903D01*
X56159204Y-55181709D01*
X56148083Y-55160486D01*
X56137680Y-55138463D01*
X56127994Y-55115637D01*
X56119026Y-55092011D01*
X56110775Y-55067582D01*
X56103242Y-55042353D01*
X56096426Y-55016322D01*
X56090327Y-54989490D01*
X56084947Y-54961856D01*
X56080283Y-54933421D01*
X56076337Y-54904184D01*
X56073108Y-54874146D01*
X56070597Y-54843307D01*
X56068804Y-54811666D01*
X56067727Y-54779223D01*
X56067369Y-54745980D01*
X56067417Y-54732434D01*
X56067807Y-54705765D01*
X56068585Y-54679662D01*
X56069753Y-54654123D01*
X56071310Y-54629149D01*
X56073256Y-54604740D01*
X56075592Y-54580896D01*
X56078317Y-54557617D01*
X56081431Y-54534902D01*
X56084934Y-54512752D01*
X56088827Y-54491167D01*
X56093109Y-54470147D01*
X56097780Y-54449692D01*
X56102840Y-54429801D01*
X56108290Y-54410476D01*
X56117194Y-54382546D01*
X56123600Y-54364596D01*
X56133874Y-54338594D01*
X56144946Y-54313700D01*
X56156817Y-54289914D01*
X56169487Y-54267235D01*
X56182955Y-54245664D01*
X56197222Y-54225200D01*
X56212287Y-54205845D01*
X56228151Y-54187597D01*
X56244813Y-54170456D01*
X56262274Y-54154423D01*
X56268218Y-54149331D01*
X56285935Y-54134869D01*
X56303481Y-54121625D01*
X56320855Y-54109601D01*
X56338057Y-54098796D01*
X56355087Y-54089211D01*
X56377527Y-54078326D01*
X56399661Y-54069610D01*
X56421490Y-54063061D01*
X56443014Y-54058680D01*
X56460873Y-54056236D01*
X56482209Y-54054032D01*
X56507023Y-54052068D01*
X56535315Y-54050345D01*
X56556108Y-54049330D01*
X56578447Y-54048422D01*
X56602331Y-54047621D01*
X56627761Y-54046926D01*
X56654736Y-54046338D01*
X56683258Y-54045857D01*
X56713324Y-54045483D01*
X56744936Y-54045216D01*
X56778094Y-54045056D01*
X56812798Y-54045003D01*
X58224521Y-54045003D01*
X58224521Y-54588687D01*
G37*
G36*
X57161577Y-53154493D02*
G01*
X56906587Y-53154493D01*
X56882656Y-53154656D01*
X56860322Y-53155146D01*
X56839585Y-53155961D01*
X56814421Y-53157557D01*
X56792095Y-53159732D01*
X56772609Y-53162487D01*
X56752245Y-53166747D01*
X56733663Y-53173056D01*
X56731139Y-53174250D01*
X56713828Y-53186240D01*
X56701646Y-53202567D01*
X56694594Y-53223228D01*
X56692630Y-53244863D01*
X56692892Y-53252329D01*
X56696821Y-53271997D01*
X56706714Y-53289046D01*
X56722428Y-53301039D01*
X56740002Y-53306749D01*
X56761950Y-53310527D01*
X56785093Y-53312888D01*
X56806785Y-53314262D01*
X56831301Y-53315178D01*
X56851541Y-53315565D01*
X56873370Y-53315693D01*
X57255366Y-53315693D01*
X57255366Y-53184779D01*
X57567997Y-53184779D01*
X57567997Y-53315693D01*
X57692561Y-53315693D01*
X57721111Y-53315595D01*
X57747412Y-53315298D01*
X57771463Y-53314805D01*
X57793265Y-53314113D01*
X57818834Y-53312885D01*
X57840404Y-53311305D01*
X57861742Y-53308836D01*
X57881116Y-53304458D01*
X57888329Y-53301092D01*
X57903205Y-53286090D01*
X57909967Y-53267547D01*
X57911891Y-53246328D01*
X57911748Y-53241961D01*
X57906739Y-53222812D01*
X57892964Y-53206929D01*
X57875254Y-53197968D01*
X57853990Y-53192829D01*
X57832390Y-53189931D01*
X57811263Y-53188077D01*
X57786716Y-53186634D01*
X57766062Y-53185823D01*
X57743485Y-53185243D01*
X57718985Y-53184895D01*
X57692561Y-53184779D01*
X57567997Y-53184779D01*
X57255366Y-53184779D01*
X57255366Y-52597131D01*
X57510844Y-52597131D01*
X57543664Y-52597377D01*
X57575568Y-52598116D01*
X57606557Y-52599346D01*
X57636629Y-52601069D01*
X57665785Y-52603285D01*
X57694026Y-52605992D01*
X57721351Y-52609192D01*
X57747759Y-52612885D01*
X57773252Y-52617069D01*
X57797829Y-52621746D01*
X57821490Y-52626915D01*
X57844235Y-52632577D01*
X57866065Y-52638730D01*
X57886978Y-52645377D01*
X57906975Y-52652515D01*
X57926057Y-52660146D01*
X57944451Y-52668326D01*
X57962388Y-52677235D01*
X57979866Y-52686873D01*
X57996887Y-52697240D01*
X58013450Y-52708336D01*
X58029555Y-52720161D01*
X58045201Y-52732714D01*
X58060390Y-52745997D01*
X58075121Y-52760009D01*
X58089394Y-52774749D01*
X58103209Y-52790218D01*
X58116566Y-52806417D01*
X58129465Y-52823344D01*
X58141906Y-52841000D01*
X58153890Y-52859385D01*
X58165415Y-52878499D01*
X58176358Y-52898298D01*
X58186595Y-52918738D01*
X58196126Y-52939819D01*
X58204952Y-52961541D01*
X58213071Y-52983905D01*
X58220484Y-53006909D01*
X58227191Y-53030555D01*
X58233192Y-53054842D01*
X58238487Y-53079770D01*
X58243076Y-53105339D01*
X58246959Y-53131550D01*
X58250136Y-53158401D01*
X58252608Y-53185894D01*
X58254373Y-53214027D01*
X58255432Y-53242802D01*
X58255785Y-53272218D01*
X58255491Y-53296410D01*
X58254609Y-53320258D01*
X58253140Y-53343762D01*
X58251083Y-53366923D01*
X58248438Y-53389741D01*
X58245206Y-53412215D01*
X58241386Y-53434346D01*
X58236978Y-53456133D01*
X58231982Y-53477577D01*
X58226399Y-53498677D01*
X58220228Y-53519434D01*
X58213469Y-53539847D01*
X58206123Y-53559917D01*
X58198189Y-53579644D01*
X58189667Y-53599027D01*
X58180558Y-53618066D01*
X58175822Y-53627417D01*
X58165960Y-53645625D01*
X58155580Y-53663172D01*
X58144681Y-53680059D01*
X58133262Y-53696286D01*
X58121325Y-53711853D01*
X58102446Y-53733965D01*
X58082399Y-53754592D01*
X58061184Y-53773733D01*
X58038802Y-53791388D01*
X58015251Y-53807558D01*
X57990533Y-53822243D01*
X57964647Y-53835442D01*
X57946611Y-53843487D01*
X57927797Y-53851013D01*
X57908204Y-53858019D01*
X57887833Y-53864507D01*
X57866683Y-53870476D01*
X57844754Y-53875925D01*
X57822047Y-53880856D01*
X57798562Y-53885268D01*
X57774298Y-53889160D01*
X57749255Y-53892534D01*
X57723434Y-53895389D01*
X57696835Y-53897724D01*
X57669457Y-53899541D01*
X57641300Y-53900838D01*
X57612365Y-53901617D01*
X57582651Y-53901876D01*
X57054598Y-53901876D01*
X57041960Y-53901848D01*
X57017242Y-53901619D01*
X56993268Y-53901161D01*
X56970038Y-53900474D01*
X56947553Y-53899558D01*
X56925811Y-53898413D01*
X56904814Y-53897039D01*
X56884561Y-53895436D01*
X56865052Y-53893604D01*
X56837184Y-53890427D01*
X56810990Y-53886735D01*
X56786471Y-53882528D01*
X56763626Y-53877805D01*
X56742456Y-53872567D01*
X56728969Y-53868657D01*
X56708997Y-53862099D01*
X56689333Y-53854707D01*
X56669979Y-53846482D01*
X56650934Y-53837425D01*
X56632197Y-53827534D01*
X56613770Y-53816811D01*
X56595653Y-53805255D01*
X56577844Y-53792866D01*
X56560344Y-53779644D01*
X56543154Y-53765589D01*
X56531949Y-53755645D01*
X56515715Y-53739850D01*
X56500167Y-53722999D01*
X56485306Y-53705091D01*
X56471133Y-53686128D01*
X56457646Y-53666108D01*
X56444846Y-53645032D01*
X56432733Y-53622900D01*
X56421307Y-53599712D01*
X56410568Y-53575467D01*
X56400516Y-53550167D01*
X56391262Y-53523977D01*
X56382919Y-53497067D01*
X56375486Y-53469435D01*
X56368963Y-53441082D01*
X56365120Y-53421779D01*
X56361681Y-53402155D01*
X56358647Y-53382211D01*
X56356018Y-53361947D01*
X56353793Y-53341362D01*
X56351973Y-53320456D01*
X56350557Y-53299230D01*
X56349545Y-53277683D01*
X56348939Y-53255816D01*
X56348736Y-53233628D01*
X56348941Y-53210845D01*
X56349553Y-53188534D01*
X56350574Y-53166698D01*
X56352003Y-53145334D01*
X56353841Y-53124444D01*
X56356087Y-53104026D01*
X56358741Y-53084083D01*
X56363488Y-53055054D01*
X56369154Y-53027090D01*
X56375738Y-53000191D01*
X56383241Y-52974356D01*
X56391664Y-52949587D01*
X56401004Y-52925882D01*
X56407740Y-52910601D01*
X56418602Y-52888310D01*
X56430375Y-52866775D01*
X56443057Y-52845995D01*
X56456650Y-52825971D01*
X56471153Y-52806703D01*
X56486566Y-52788190D01*
X56502889Y-52770433D01*
X56520122Y-52753431D01*
X56538266Y-52737185D01*
X56557320Y-52721695D01*
X56570335Y-52711792D01*
X56589665Y-52697810D01*
X56608763Y-52684875D01*
X56627630Y-52672988D01*
X56646264Y-52662149D01*
X56664667Y-52652358D01*
X56682838Y-52643613D01*
X56706705Y-52633584D01*
X56730160Y-52625417D01*
X56753203Y-52619113D01*
X56759017Y-52617760D01*
X56783773Y-52612780D01*
X56803913Y-52609496D01*
X56825402Y-52606598D01*
X56848238Y-52604086D01*
X56872422Y-52601961D01*
X56897955Y-52600222D01*
X56924835Y-52598870D01*
X56953064Y-52597904D01*
X56972632Y-52597474D01*
X56992799Y-52597217D01*
X57013565Y-52597131D01*
X57161577Y-52597131D01*
X57161577Y-53154493D01*
G37*
G36*
X58630942Y-51852190D02*
G01*
X56380000Y-51852190D01*
X56380000Y-52454982D01*
X58630942Y-52454982D01*
X58630942Y-51852190D01*
G37*
G36*
X55270942Y-63712623D02*
G01*
X55270942Y-63382895D01*
X52644842Y-63382895D01*
X52644842Y-63712623D01*
X55270942Y-63712623D01*
G37*
G36*
X54665901Y-61793943D02*
G01*
X54690659Y-61794217D01*
X54714581Y-61794675D01*
X54737668Y-61795316D01*
X54759919Y-61796141D01*
X54781334Y-61797148D01*
X54801913Y-61798339D01*
X54831215Y-61800468D01*
X54858637Y-61803010D01*
X54884178Y-61805964D01*
X54907838Y-61809330D01*
X54929618Y-61813108D01*
X54949518Y-61817298D01*
X54974347Y-61823839D01*
X54998275Y-61831739D01*
X55021302Y-61840997D01*
X55043429Y-61851614D01*
X55064656Y-61863590D01*
X55084981Y-61876924D01*
X55104406Y-61891617D01*
X55122930Y-61907668D01*
X55140577Y-61925277D01*
X55157124Y-61944885D01*
X55168814Y-61960903D01*
X55179885Y-61978046D01*
X55190338Y-61996314D01*
X55200172Y-62015707D01*
X55209389Y-62036225D01*
X55217987Y-62057868D01*
X55225967Y-62080636D01*
X55233328Y-62104528D01*
X55240050Y-62129844D01*
X55246111Y-62157067D01*
X55249784Y-62176274D01*
X55253163Y-62196329D01*
X55256249Y-62217231D01*
X55259040Y-62238980D01*
X55261538Y-62261576D01*
X55263742Y-62285020D01*
X55265652Y-62309310D01*
X55267268Y-62334448D01*
X55268591Y-62360433D01*
X55269619Y-62387266D01*
X55270354Y-62414945D01*
X55270795Y-62443472D01*
X55270942Y-62472846D01*
X55270942Y-63071241D01*
X53020000Y-63071241D01*
X53020000Y-62461611D01*
X53926629Y-62461611D01*
X53926629Y-62434744D01*
X54333049Y-62434744D01*
X54333072Y-62441874D01*
X54333538Y-62461611D01*
X54864521Y-62461611D01*
X54864056Y-62439835D01*
X54862659Y-62419937D01*
X54859604Y-62397705D01*
X54854017Y-62374899D01*
X54846334Y-62356317D01*
X54834724Y-62339978D01*
X54830759Y-62336192D01*
X54812132Y-62324865D01*
X54790288Y-62317538D01*
X54767939Y-62313111D01*
X54747346Y-62310669D01*
X54724341Y-62309203D01*
X54698925Y-62308715D01*
X54517697Y-62308715D01*
X54496449Y-62308951D01*
X54476670Y-62309659D01*
X54452581Y-62311339D01*
X54431103Y-62313857D01*
X54407926Y-62318186D01*
X54385498Y-62325113D01*
X54366755Y-62335582D01*
X54352008Y-62351854D01*
X54342562Y-62370751D01*
X54337032Y-62390409D01*
X54333872Y-62413261D01*
X54333049Y-62434744D01*
X53926629Y-62434744D01*
X53926629Y-62321904D01*
X53926681Y-62309914D01*
X53927097Y-62286352D01*
X53927929Y-62263348D01*
X53929177Y-62240900D01*
X53930841Y-62219010D01*
X53932921Y-62197677D01*
X53935416Y-62176901D01*
X53938328Y-62156682D01*
X53941656Y-62137021D01*
X53947428Y-62108573D01*
X53954135Y-62081379D01*
X53961779Y-62055439D01*
X53970358Y-62030752D01*
X53979874Y-62007319D01*
X53986774Y-61992411D01*
X53997810Y-61971157D01*
X54009672Y-61951235D01*
X54022357Y-61932643D01*
X54035867Y-61915383D01*
X54050201Y-61899453D01*
X54065359Y-61884854D01*
X54081342Y-61871587D01*
X54098148Y-61859650D01*
X54115780Y-61849044D01*
X54134235Y-61839769D01*
X54140635Y-61836944D01*
X54161163Y-61829007D01*
X54183683Y-61821877D01*
X54208195Y-61815554D01*
X54234699Y-61810039D01*
X54263196Y-61805330D01*
X54283300Y-61802640D01*
X54304289Y-61800308D01*
X54326164Y-61798335D01*
X54348925Y-61796721D01*
X54372571Y-61795465D01*
X54397102Y-61794568D01*
X54422518Y-61794030D01*
X54448820Y-61793851D01*
X54640307Y-61793851D01*
X54665901Y-61793943D01*
G37*
G36*
X53653361Y-60343596D02*
G01*
X53684745Y-60343774D01*
X53714498Y-60344069D01*
X53742622Y-60344483D01*
X53769117Y-60345016D01*
X53793982Y-60345666D01*
X53817218Y-60346435D01*
X53838824Y-60347323D01*
X53858800Y-60348328D01*
X53885709Y-60350059D01*
X53908952Y-60352055D01*
X53928528Y-60354318D01*
X53953007Y-60358680D01*
X53956927Y-60359672D01*
X53976867Y-60366007D01*
X53997379Y-60374632D01*
X54018464Y-60385547D01*
X54035744Y-60395927D01*
X54053391Y-60407773D01*
X54071404Y-60421084D01*
X54089783Y-60435861D01*
X54098944Y-60444018D01*
X54116179Y-60463115D01*
X54128153Y-60479872D01*
X54139311Y-60498715D01*
X54149654Y-60519645D01*
X54159181Y-60542662D01*
X54167892Y-60567765D01*
X54175787Y-60594954D01*
X54180598Y-60614240D01*
X54185046Y-60634453D01*
X54189131Y-60655593D01*
X54192854Y-60677661D01*
X54193156Y-60665423D01*
X54194289Y-60641709D01*
X54196129Y-60619010D01*
X54198674Y-60597325D01*
X54201925Y-60576656D01*
X54205883Y-60557002D01*
X54213143Y-60529425D01*
X54221992Y-60504131D01*
X54232429Y-60481122D01*
X54244454Y-60460397D01*
X54258068Y-60441955D01*
X54273271Y-60425798D01*
X54290062Y-60411925D01*
X54296121Y-60407717D01*
X54316288Y-60395897D01*
X54339443Y-60385278D01*
X54365587Y-60375861D01*
X54384676Y-60370251D01*
X54405093Y-60365175D01*
X54426838Y-60360634D01*
X54449912Y-60356627D01*
X54474313Y-60353154D01*
X54500042Y-60350215D01*
X54527100Y-60347811D01*
X54555486Y-60345941D01*
X54585199Y-60344606D01*
X54616241Y-60343804D01*
X54648611Y-60343537D01*
X54684154Y-60343907D01*
X54718487Y-60345018D01*
X54751611Y-60346869D01*
X54783524Y-60349460D01*
X54814228Y-60352791D01*
X54843723Y-60356863D01*
X54872007Y-60361676D01*
X54899082Y-60367229D01*
X54924947Y-60373522D01*
X54949602Y-60380555D01*
X54973047Y-60388329D01*
X54995283Y-60396843D01*
X55016309Y-60406097D01*
X55036125Y-60416092D01*
X55054731Y-60426828D01*
X55072128Y-60438303D01*
X55080424Y-60444249D01*
X55096418Y-60456461D01*
X55111615Y-60469101D01*
X55132914Y-60488861D01*
X55152418Y-60509584D01*
X55170128Y-60531268D01*
X55186044Y-60553914D01*
X55200165Y-60577522D01*
X55212491Y-60602091D01*
X55223022Y-60627622D01*
X55231759Y-60654115D01*
X55238702Y-60681569D01*
X55242606Y-60701215D01*
X55246258Y-60722907D01*
X55249658Y-60746645D01*
X55252807Y-60772427D01*
X55255703Y-60800256D01*
X55258348Y-60830130D01*
X55260741Y-60862049D01*
X55262882Y-60896014D01*
X55264771Y-60932025D01*
X55266408Y-60970081D01*
X55267132Y-60989876D01*
X55267793Y-61010183D01*
X55268391Y-61031000D01*
X55268927Y-61052330D01*
X55269399Y-61074170D01*
X55269808Y-61096522D01*
X55270154Y-61119386D01*
X55270438Y-61142761D01*
X55270658Y-61166647D01*
X55270816Y-61191044D01*
X55270910Y-61215953D01*
X55270942Y-61241374D01*
X55270942Y-61666356D01*
X53020000Y-61666356D01*
X53020000Y-61056726D01*
X54020418Y-61056726D01*
X54395575Y-61056726D01*
X54864521Y-61056726D01*
X54864407Y-61047075D01*
X54863119Y-61024516D01*
X54860400Y-61004199D01*
X54855248Y-60982778D01*
X54846633Y-60961867D01*
X54835212Y-60945351D01*
X54831331Y-60941329D01*
X54813359Y-60929294D01*
X54792522Y-60921509D01*
X54771328Y-60916805D01*
X54751864Y-60914210D01*
X54730173Y-60912653D01*
X54706252Y-60912134D01*
X54582665Y-60912134D01*
X54565597Y-60912266D01*
X54541704Y-60912957D01*
X54519864Y-60914241D01*
X54500076Y-60916117D01*
X54476885Y-60919540D01*
X54453026Y-60925301D01*
X54434867Y-60932707D01*
X54419023Y-60945840D01*
X54414832Y-60952542D01*
X54406658Y-60971151D01*
X54401437Y-60990414D01*
X54397865Y-61012734D01*
X54396148Y-61033669D01*
X54395575Y-61056726D01*
X54020418Y-61056726D01*
X54019838Y-61033905D01*
X54018098Y-61013312D01*
X54014291Y-60990705D01*
X54007330Y-60968174D01*
X53997759Y-60950657D01*
X53983293Y-60936559D01*
X53975135Y-60932194D01*
X53956213Y-60925873D01*
X53936284Y-60921675D01*
X53912096Y-60918240D01*
X53891161Y-60916165D01*
X53867829Y-60914519D01*
X53842102Y-60913303D01*
X53813980Y-60912516D01*
X53793900Y-60912230D01*
X53772756Y-60912134D01*
X53020000Y-60912134D01*
X53020000Y-60343537D01*
X53620348Y-60343537D01*
X53653361Y-60343596D01*
G37*
G36*
X54354041Y-58806777D02*
G01*
X54374639Y-58806826D01*
X54394844Y-58806907D01*
X54434076Y-58807166D01*
X54471735Y-58807556D01*
X54507822Y-58808075D01*
X54542337Y-58808723D01*
X54575279Y-58809502D01*
X54606649Y-58810410D01*
X54636446Y-58811448D01*
X54664672Y-58812616D01*
X54691325Y-58813914D01*
X54716405Y-58815341D01*
X54739914Y-58816898D01*
X54761850Y-58818585D01*
X54782214Y-58820401D01*
X54809811Y-58823369D01*
X54826954Y-58825730D01*
X54852382Y-58830337D01*
X54877466Y-58836223D01*
X54902207Y-58843388D01*
X54926605Y-58851833D01*
X54950659Y-58861558D01*
X54974370Y-58872562D01*
X54997737Y-58884845D01*
X55020761Y-58898407D01*
X55043441Y-58913249D01*
X55065778Y-58929371D01*
X55080381Y-58940764D01*
X55101405Y-58958678D01*
X55121373Y-58977578D01*
X55140285Y-58997466D01*
X55158141Y-59018342D01*
X55174941Y-59040205D01*
X55190685Y-59063056D01*
X55205372Y-59086894D01*
X55219004Y-59111719D01*
X55231579Y-59137532D01*
X55243098Y-59164332D01*
X55250255Y-59182668D01*
X55256951Y-59201282D01*
X55263185Y-59220174D01*
X55268957Y-59239346D01*
X55274267Y-59258795D01*
X55279116Y-59278524D01*
X55283503Y-59298531D01*
X55287428Y-59318816D01*
X55290891Y-59339380D01*
X55293893Y-59360223D01*
X55296433Y-59381344D01*
X55298510Y-59402744D01*
X55300127Y-59424423D01*
X55301281Y-59446380D01*
X55301974Y-59468615D01*
X55302205Y-59491129D01*
X55301960Y-59514943D01*
X55301228Y-59538390D01*
X55300006Y-59561471D01*
X55298297Y-59584186D01*
X55296099Y-59606534D01*
X55293412Y-59628516D01*
X55290237Y-59650132D01*
X55286573Y-59671381D01*
X55282421Y-59692263D01*
X55277780Y-59712780D01*
X55272651Y-59732930D01*
X55267034Y-59752714D01*
X55260928Y-59772131D01*
X55254333Y-59791182D01*
X55247250Y-59809866D01*
X55239678Y-59828185D01*
X55231708Y-59846028D01*
X55218944Y-59871926D01*
X55205210Y-59896786D01*
X55190505Y-59920607D01*
X55174830Y-59943389D01*
X55158185Y-59965132D01*
X55140569Y-59985836D01*
X55121983Y-60005501D01*
X55102427Y-60024126D01*
X55081901Y-60041713D01*
X55060404Y-60058261D01*
X55045662Y-60068676D01*
X55023219Y-60083282D01*
X55000382Y-60096669D01*
X54977149Y-60108836D01*
X54953521Y-60119784D01*
X54929499Y-60129512D01*
X54905081Y-60138022D01*
X54880268Y-60145312D01*
X54855061Y-60151383D01*
X54829458Y-60156234D01*
X54803461Y-60159866D01*
X54775587Y-60162747D01*
X54755139Y-60164510D01*
X54733199Y-60166147D01*
X54709767Y-60167659D01*
X54684843Y-60169044D01*
X54658427Y-60170303D01*
X54630518Y-60171437D01*
X54601117Y-60172444D01*
X54570225Y-60173326D01*
X54537840Y-60174082D01*
X54503962Y-60174711D01*
X54468593Y-60175215D01*
X54431731Y-60175593D01*
X54393378Y-60175845D01*
X54373641Y-60175923D01*
X54353532Y-60175971D01*
X54333049Y-60175986D01*
X53957892Y-60175986D01*
X53936901Y-60175970D01*
X53916302Y-60175921D01*
X53896097Y-60175840D01*
X53856865Y-60175581D01*
X53819206Y-60175192D01*
X53783119Y-60174673D01*
X53748605Y-60174024D01*
X53715662Y-60173245D01*
X53684292Y-60172337D01*
X53654495Y-60171299D01*
X53626269Y-60170131D01*
X53599616Y-60168834D01*
X53574536Y-60167406D01*
X53551027Y-60165849D01*
X53529091Y-60164163D01*
X53508728Y-60162346D01*
X53481130Y-60159378D01*
X53463985Y-60157017D01*
X53438547Y-60152411D01*
X53413444Y-60146525D01*
X53388676Y-60139359D01*
X53364243Y-60130914D01*
X53340144Y-60121190D01*
X53316381Y-60110186D01*
X53292952Y-60097903D01*
X53269858Y-60084340D01*
X53247099Y-60069498D01*
X53224675Y-60053376D01*
X53210129Y-60041983D01*
X53189176Y-60024070D01*
X53169262Y-60005169D01*
X53150387Y-59985281D01*
X53132552Y-59964405D01*
X53115755Y-59942542D01*
X53099997Y-59919692D01*
X53085278Y-59895854D01*
X53071598Y-59871028D01*
X53058957Y-59845215D01*
X53047355Y-59818415D01*
X53040256Y-59800078D01*
X53033616Y-59781458D01*
X53027434Y-59762556D01*
X53021709Y-59743371D01*
X53016443Y-59723904D01*
X53011634Y-59704155D01*
X53007284Y-59684123D01*
X53003391Y-59663809D01*
X52999956Y-59643213D01*
X52996980Y-59622334D01*
X52994461Y-59601172D01*
X52992400Y-59579729D01*
X52990797Y-59558002D01*
X52989652Y-59535994D01*
X52988965Y-59513703D01*
X52988751Y-59492595D01*
X53395157Y-59492595D01*
X53396087Y-59506298D01*
X53402449Y-59526936D01*
X53414840Y-59542396D01*
X53433258Y-59552679D01*
X53448791Y-59556619D01*
X53471574Y-59559891D01*
X53495021Y-59562029D01*
X53515652Y-59563351D01*
X53538893Y-59564433D01*
X53564745Y-59565274D01*
X53593207Y-59565875D01*
X53613632Y-59566143D01*
X53635217Y-59566303D01*
X53657962Y-59566356D01*
X54674501Y-59566356D01*
X54703999Y-59566180D01*
X54731127Y-59565652D01*
X54755885Y-59564772D01*
X54778273Y-59563540D01*
X54804438Y-59561349D01*
X54826389Y-59558533D01*
X54847903Y-59554132D01*
X54866964Y-59546328D01*
X54872114Y-59542336D01*
X54885624Y-59526918D01*
X54893505Y-59508256D01*
X54895785Y-59488687D01*
X54895220Y-59478383D01*
X54889819Y-59458436D01*
X54877110Y-59441530D01*
X54859637Y-59431046D01*
X54838589Y-59425336D01*
X54816886Y-59422116D01*
X54795523Y-59420055D01*
X54770602Y-59418452D01*
X54749578Y-59417550D01*
X54726553Y-59416906D01*
X54701527Y-59416520D01*
X54674501Y-59416391D01*
X53674082Y-59416391D01*
X53650898Y-59416446D01*
X53628851Y-59416612D01*
X53607942Y-59416889D01*
X53578710Y-59417512D01*
X53552037Y-59418383D01*
X53527923Y-59419504D01*
X53506367Y-59420873D01*
X53481607Y-59423087D01*
X53461396Y-59425743D01*
X53439609Y-59430557D01*
X53424502Y-59437054D01*
X53407702Y-59451244D01*
X53397935Y-59470766D01*
X53395157Y-59492595D01*
X52988751Y-59492595D01*
X52988736Y-59491129D01*
X52988979Y-59467377D01*
X52989706Y-59443991D01*
X52990917Y-59420971D01*
X52992614Y-59398317D01*
X52994795Y-59376030D01*
X52997460Y-59354109D01*
X53000611Y-59332555D01*
X53004246Y-59311367D01*
X53008366Y-59290545D01*
X53012970Y-59270090D01*
X53018059Y-59250001D01*
X53023633Y-59230278D01*
X53029691Y-59210922D01*
X53036234Y-59191932D01*
X53043262Y-59173308D01*
X53050774Y-59155051D01*
X53058804Y-59137149D01*
X53071649Y-59111169D01*
X53085457Y-59086236D01*
X53100226Y-59062351D01*
X53115956Y-59039513D01*
X53132649Y-59017723D01*
X53150303Y-58996980D01*
X53168919Y-58977285D01*
X53188497Y-58958638D01*
X53209036Y-58941038D01*
X53230537Y-58924486D01*
X53245279Y-58914071D01*
X53267722Y-58899465D01*
X53290560Y-58886079D01*
X53313792Y-58873912D01*
X53337420Y-58862964D01*
X53361442Y-58853235D01*
X53385860Y-58844725D01*
X53410673Y-58837435D01*
X53435880Y-58831365D01*
X53461483Y-58826513D01*
X53487480Y-58822881D01*
X53515354Y-58820000D01*
X53535802Y-58818237D01*
X53557742Y-58816600D01*
X53581174Y-58815089D01*
X53606098Y-58813703D01*
X53632514Y-58812444D01*
X53660423Y-58811310D01*
X53689824Y-58810303D01*
X53720716Y-58809421D01*
X53753102Y-58808666D01*
X53786979Y-58808036D01*
X53822348Y-58807532D01*
X53859210Y-58807155D01*
X53897564Y-58806903D01*
X53917300Y-58806824D01*
X53937410Y-58806777D01*
X53957892Y-58806761D01*
X54333049Y-58806761D01*
X54354041Y-58806777D01*
G37*
G36*
X55270942Y-57433628D02*
G01*
X54801995Y-57433628D01*
X54801995Y-57777033D01*
X53020000Y-57777033D01*
X53020000Y-58386663D01*
X54801995Y-58386663D01*
X54801995Y-58728603D01*
X55270942Y-58728603D01*
X55270942Y-57433628D01*
G37*
G36*
X54354041Y-55987238D02*
G01*
X54374639Y-55987286D01*
X54394844Y-55987368D01*
X54434076Y-55987627D01*
X54471735Y-55988016D01*
X54507822Y-55988535D01*
X54542337Y-55989184D01*
X54575279Y-55989963D01*
X54606649Y-55990871D01*
X54636446Y-55991909D01*
X54664672Y-55993077D01*
X54691325Y-55994374D01*
X54716405Y-55995802D01*
X54739914Y-55997359D01*
X54761850Y-55999045D01*
X54782214Y-56000862D01*
X54809811Y-56003830D01*
X54826954Y-56006190D01*
X54852382Y-56010797D01*
X54877466Y-56016683D01*
X54902207Y-56023849D01*
X54926605Y-56032294D01*
X54950659Y-56042018D01*
X54974370Y-56053022D01*
X54997737Y-56065305D01*
X55020761Y-56078868D01*
X55043441Y-56093710D01*
X55065778Y-56109831D01*
X55080381Y-56121225D01*
X55101405Y-56139138D01*
X55121373Y-56158039D01*
X55140285Y-56177927D01*
X55158141Y-56198803D01*
X55174941Y-56220666D01*
X55190685Y-56243516D01*
X55205372Y-56267354D01*
X55219004Y-56292180D01*
X55231579Y-56317993D01*
X55243098Y-56344793D01*
X55250255Y-56363128D01*
X55256951Y-56381742D01*
X55263185Y-56400635D01*
X55268957Y-56419806D01*
X55274267Y-56439256D01*
X55279116Y-56458984D01*
X55283503Y-56478991D01*
X55287428Y-56499277D01*
X55290891Y-56519841D01*
X55293893Y-56540683D01*
X55296433Y-56561805D01*
X55298510Y-56583205D01*
X55300127Y-56604883D01*
X55301281Y-56626840D01*
X55301974Y-56649076D01*
X55302205Y-56671590D01*
X55301960Y-56695404D01*
X55301228Y-56718851D01*
X55300006Y-56741932D01*
X55298297Y-56764647D01*
X55296099Y-56786995D01*
X55293412Y-56808977D01*
X55290237Y-56830592D01*
X55286573Y-56851841D01*
X55282421Y-56872724D01*
X55277780Y-56893240D01*
X55272651Y-56913390D01*
X55267034Y-56933174D01*
X55260928Y-56952591D01*
X55254333Y-56971642D01*
X55247250Y-56990327D01*
X55239678Y-57008645D01*
X55231708Y-57026488D01*
X55218944Y-57052387D01*
X55205210Y-57077247D01*
X55190505Y-57101068D01*
X55174830Y-57123850D01*
X55158185Y-57145592D01*
X55140569Y-57166296D01*
X55121983Y-57185961D01*
X55102427Y-57204587D01*
X55081901Y-57222174D01*
X55060404Y-57238722D01*
X55045662Y-57249137D01*
X55023219Y-57263742D01*
X55000382Y-57277129D01*
X54977149Y-57289296D01*
X54953521Y-57300244D01*
X54929499Y-57309973D01*
X54905081Y-57318482D01*
X54880268Y-57325773D01*
X54855061Y-57331843D01*
X54829458Y-57336695D01*
X54803461Y-57340327D01*
X54775587Y-57343208D01*
X54755139Y-57344971D01*
X54733199Y-57346608D01*
X54709767Y-57348119D01*
X54684843Y-57349505D01*
X54658427Y-57350764D01*
X54630518Y-57351897D01*
X54601117Y-57352905D01*
X54570225Y-57353787D01*
X54537840Y-57354542D01*
X54503962Y-57355172D01*
X54468593Y-57355676D01*
X54431731Y-57356053D01*
X54393378Y-57356305D01*
X54373641Y-57356384D01*
X54353532Y-57356431D01*
X54333049Y-57356447D01*
X53957892Y-57356447D01*
X53936901Y-57356431D01*
X53916302Y-57356382D01*
X53896097Y-57356301D01*
X53856865Y-57356041D01*
X53819206Y-57355652D01*
X53783119Y-57355133D01*
X53748605Y-57354484D01*
X53715662Y-57353706D01*
X53684292Y-57352798D01*
X53654495Y-57351760D01*
X53626269Y-57350592D01*
X53599616Y-57349294D01*
X53574536Y-57347867D01*
X53551027Y-57346310D01*
X53529091Y-57344623D01*
X53508728Y-57342807D01*
X53481130Y-57339838D01*
X53463985Y-57337478D01*
X53438547Y-57332871D01*
X53413444Y-57326985D01*
X53388676Y-57319820D01*
X53364243Y-57311375D01*
X53340144Y-57301650D01*
X53316381Y-57290646D01*
X53292952Y-57278363D01*
X53269858Y-57264801D01*
X53247099Y-57249958D01*
X53224675Y-57233837D01*
X53210129Y-57222443D01*
X53189176Y-57204530D01*
X53169262Y-57185630D01*
X53150387Y-57165741D01*
X53132552Y-57144866D01*
X53115755Y-57123003D01*
X53099997Y-57100152D01*
X53085278Y-57076314D01*
X53071598Y-57051489D01*
X53058957Y-57025676D01*
X53047355Y-56998875D01*
X53040256Y-56980538D01*
X53033616Y-56961918D01*
X53027434Y-56943016D01*
X53021709Y-56923832D01*
X53016443Y-56904365D01*
X53011634Y-56884616D01*
X53007284Y-56864584D01*
X53003391Y-56844270D01*
X52999956Y-56823673D01*
X52996980Y-56802794D01*
X52994461Y-56781633D01*
X52992400Y-56760189D01*
X52990797Y-56738463D01*
X52989652Y-56716454D01*
X52988965Y-56694163D01*
X52988751Y-56673055D01*
X53395157Y-56673055D01*
X53396087Y-56686758D01*
X53402449Y-56707396D01*
X53414840Y-56722857D01*
X53433258Y-56733139D01*
X53448791Y-56737080D01*
X53471574Y-56740352D01*
X53495021Y-56742489D01*
X53515652Y-56743811D01*
X53538893Y-56744893D01*
X53564745Y-56745735D01*
X53593207Y-56746336D01*
X53613632Y-56746603D01*
X53635217Y-56746763D01*
X53657962Y-56746817D01*
X54674501Y-56746817D01*
X54703999Y-56746641D01*
X54731127Y-56746113D01*
X54755885Y-56745233D01*
X54778273Y-56744000D01*
X54804438Y-56741810D01*
X54826389Y-56738993D01*
X54847903Y-56734593D01*
X54866964Y-56726789D01*
X54872114Y-56722796D01*
X54885624Y-56707378D01*
X54893505Y-56688717D01*
X54895785Y-56669148D01*
X54895220Y-56658844D01*
X54889819Y-56638897D01*
X54877110Y-56621991D01*
X54859637Y-56611506D01*
X54838589Y-56605796D01*
X54816886Y-56602576D01*
X54795523Y-56600515D01*
X54770602Y-56598912D01*
X54749578Y-56598011D01*
X54726553Y-56597367D01*
X54701527Y-56596980D01*
X54674501Y-56596852D01*
X53674082Y-56596852D01*
X53650898Y-56596907D01*
X53628851Y-56597073D01*
X53607942Y-56597350D01*
X53578710Y-56597972D01*
X53552037Y-56598844D01*
X53527923Y-56599964D01*
X53506367Y-56601334D01*
X53481607Y-56603547D01*
X53461396Y-56606204D01*
X53439609Y-56611018D01*
X53424502Y-56617515D01*
X53407702Y-56631704D01*
X53397935Y-56651226D01*
X53395157Y-56673055D01*
X52988751Y-56673055D01*
X52988736Y-56671590D01*
X52988979Y-56647837D01*
X52989706Y-56624451D01*
X52990917Y-56601431D01*
X52992614Y-56578778D01*
X52994795Y-56556491D01*
X52997460Y-56534570D01*
X53000611Y-56513015D01*
X53004246Y-56491827D01*
X53008366Y-56471006D01*
X53012970Y-56450550D01*
X53018059Y-56430461D01*
X53023633Y-56410739D01*
X53029691Y-56391382D01*
X53036234Y-56372393D01*
X53043262Y-56353769D01*
X53050774Y-56335512D01*
X53058804Y-56317610D01*
X53071649Y-56291629D01*
X53085457Y-56266696D01*
X53100226Y-56242811D01*
X53115956Y-56219974D01*
X53132649Y-56198183D01*
X53150303Y-56177441D01*
X53168919Y-56157746D01*
X53188497Y-56139099D01*
X53209036Y-56121499D01*
X53230537Y-56104947D01*
X53245279Y-56094532D01*
X53267722Y-56079926D01*
X53290560Y-56066539D01*
X53313792Y-56054372D01*
X53337420Y-56043424D01*
X53361442Y-56033695D01*
X53385860Y-56025186D01*
X53410673Y-56017896D01*
X53435880Y-56011825D01*
X53461483Y-56006974D01*
X53487480Y-56003342D01*
X53515354Y-56000461D01*
X53535802Y-55998698D01*
X53557742Y-55997060D01*
X53581174Y-55995549D01*
X53606098Y-55994164D01*
X53632514Y-55992904D01*
X53660423Y-55991771D01*
X53689824Y-55990764D01*
X53720716Y-55989882D01*
X53753102Y-55989126D01*
X53786979Y-55988497D01*
X53822348Y-55987993D01*
X53859210Y-55987615D01*
X53897564Y-55987363D01*
X53917300Y-55987285D01*
X53937410Y-55987237D01*
X53957892Y-55987222D01*
X54333049Y-55987222D01*
X54354041Y-55987238D01*
G37*
G36*
X55270942Y-54614088D02*
G01*
X54801995Y-54614088D01*
X54801995Y-54957494D01*
X53020000Y-54957494D01*
X53020000Y-55567124D01*
X54801995Y-55567124D01*
X54801995Y-55909064D01*
X55270942Y-55909064D01*
X55270942Y-54614088D01*
G37*
G36*
X55270942Y-53181360D02*
G01*
X53836748Y-53608296D01*
X53020000Y-53608296D01*
X53020000Y-54175428D01*
X53836748Y-54175428D01*
X55270942Y-54587222D01*
X55270942Y-54022044D01*
X55229761Y-54014170D01*
X55189445Y-54006548D01*
X55149993Y-53999176D01*
X55111405Y-53992055D01*
X55073682Y-53985185D01*
X55036823Y-53978566D01*
X55000829Y-53972198D01*
X54965699Y-53966081D01*
X54931434Y-53960215D01*
X54898032Y-53954600D01*
X54865496Y-53949236D01*
X54833823Y-53944122D01*
X54803015Y-53939260D01*
X54773072Y-53934649D01*
X54743992Y-53930288D01*
X54715778Y-53926178D01*
X54688427Y-53922320D01*
X54661941Y-53918712D01*
X54636319Y-53915355D01*
X54611562Y-53912249D01*
X54587669Y-53909394D01*
X54564641Y-53906790D01*
X54542477Y-53904436D01*
X54521177Y-53902334D01*
X54500742Y-53900483D01*
X54481171Y-53898882D01*
X54444622Y-53896434D01*
X54411531Y-53894990D01*
X54381898Y-53894549D01*
X54404268Y-53892452D01*
X54426987Y-53890193D01*
X54450056Y-53887770D01*
X54473473Y-53885184D01*
X54497240Y-53882434D01*
X54521356Y-53879522D01*
X54545822Y-53876447D01*
X54570636Y-53873208D01*
X54595800Y-53869806D01*
X54621313Y-53866241D01*
X54647175Y-53862513D01*
X54673386Y-53858622D01*
X54699947Y-53854568D01*
X54726856Y-53850350D01*
X54754115Y-53845970D01*
X54781723Y-53841426D01*
X54809680Y-53836719D01*
X54837987Y-53831849D01*
X54866642Y-53826816D01*
X54895647Y-53821619D01*
X54925001Y-53816260D01*
X54954704Y-53810737D01*
X54984757Y-53805051D01*
X55015158Y-53799203D01*
X55045909Y-53793190D01*
X55077009Y-53787015D01*
X55108458Y-53780677D01*
X55140256Y-53774175D01*
X55172404Y-53767511D01*
X55204901Y-53760683D01*
X55237746Y-53753692D01*
X55270942Y-53746538D01*
X55270942Y-53181360D01*
G37*
G36*
X54665901Y-51848374D02*
G01*
X54690659Y-51848649D01*
X54714581Y-51849107D01*
X54737668Y-51849748D01*
X54759919Y-51850572D01*
X54781334Y-51851580D01*
X54801913Y-51852770D01*
X54831215Y-51854900D01*
X54858637Y-51857441D01*
X54884178Y-51860395D01*
X54907838Y-51863761D01*
X54929618Y-51867539D01*
X54949518Y-51871730D01*
X54974347Y-51878271D01*
X54998275Y-51886170D01*
X55021302Y-51895429D01*
X55043429Y-51906046D01*
X55064656Y-51918021D01*
X55084981Y-51931355D01*
X55104406Y-51946048D01*
X55122930Y-51962099D01*
X55140577Y-51979708D01*
X55157124Y-51999316D01*
X55168814Y-52015334D01*
X55179885Y-52032478D01*
X55190338Y-52050746D01*
X55200172Y-52070139D01*
X55209389Y-52090657D01*
X55217987Y-52112299D01*
X55225967Y-52135067D01*
X55233328Y-52158959D01*
X55240050Y-52184275D01*
X55246111Y-52211498D01*
X55249784Y-52230705D01*
X55253163Y-52250760D01*
X55256249Y-52271662D01*
X55259040Y-52293411D01*
X55261538Y-52316007D01*
X55263742Y-52339451D01*
X55265652Y-52363742D01*
X55267268Y-52388879D01*
X55268591Y-52414865D01*
X55269619Y-52441697D01*
X55270354Y-52469377D01*
X55270795Y-52497903D01*
X55270942Y-52527277D01*
X55270942Y-53125672D01*
X53020000Y-53125672D01*
X53020000Y-52516042D01*
X53926629Y-52516042D01*
X53926629Y-52489175D01*
X54333049Y-52489175D01*
X54333072Y-52496305D01*
X54333538Y-52516042D01*
X54864521Y-52516042D01*
X54864056Y-52494266D01*
X54862659Y-52474368D01*
X54859604Y-52452136D01*
X54854017Y-52429330D01*
X54846334Y-52410748D01*
X54834724Y-52394409D01*
X54830759Y-52390623D01*
X54812132Y-52379297D01*
X54790288Y-52371969D01*
X54767939Y-52367543D01*
X54747346Y-52365100D01*
X54724341Y-52363635D01*
X54698925Y-52363146D01*
X54517697Y-52363146D01*
X54496449Y-52363382D01*
X54476670Y-52364091D01*
X54452581Y-52365770D01*
X54431103Y-52368289D01*
X54407926Y-52372618D01*
X54385498Y-52379544D01*
X54366755Y-52390013D01*
X54352008Y-52406286D01*
X54342562Y-52425182D01*
X54337032Y-52444840D01*
X54333872Y-52467692D01*
X54333049Y-52489175D01*
X53926629Y-52489175D01*
X53926629Y-52376335D01*
X53926681Y-52364345D01*
X53927097Y-52340784D01*
X53927929Y-52317779D01*
X53929177Y-52295332D01*
X53930841Y-52273441D01*
X53932921Y-52252108D01*
X53935416Y-52231332D01*
X53938328Y-52211114D01*
X53941656Y-52191452D01*
X53947428Y-52163004D01*
X53954135Y-52135810D01*
X53961779Y-52109870D01*
X53970358Y-52085184D01*
X53979874Y-52061750D01*
X53986774Y-52046842D01*
X53997810Y-52025589D01*
X54009672Y-52005666D01*
X54022357Y-51987075D01*
X54035867Y-51969814D01*
X54050201Y-51953884D01*
X54065359Y-51939286D01*
X54081342Y-51926018D01*
X54098148Y-51914081D01*
X54115780Y-51903475D01*
X54134235Y-51894200D01*
X54140635Y-51891375D01*
X54161163Y-51883438D01*
X54183683Y-51876308D01*
X54208195Y-51869986D01*
X54234699Y-51864470D01*
X54263196Y-51859762D01*
X54283300Y-51857071D01*
X54304289Y-51854739D01*
X54326164Y-51852766D01*
X54348925Y-51851152D01*
X54372571Y-51849897D01*
X54397102Y-51849000D01*
X54422518Y-51848462D01*
X54448820Y-51848282D01*
X54640307Y-51848282D01*
X54665901Y-51848374D01*
G37*
G36*
X55270942Y-51720787D02*
G01*
X55270942Y-50724765D01*
X54801995Y-50724765D01*
X54801995Y-51111157D01*
X54426838Y-51111157D01*
X54426838Y-50749678D01*
X53957892Y-50749678D01*
X53957892Y-51111157D01*
X53488946Y-51111157D01*
X53488946Y-50686663D01*
X53020000Y-50686663D01*
X53020000Y-51720787D01*
X55270942Y-51720787D01*
G37*
G36*
X55270942Y-50441443D02*
G01*
X55270942Y-50111716D01*
X52644842Y-50111716D01*
X52644842Y-50441443D01*
X55270942Y-50441443D01*
G37*
M02*
