%TF.GenerationSoftware,KiCad,Pcbnew,7.0.5*%
%TF.CreationDate,2023-07-24T14:19:45-04:00*%
%TF.ProjectId,GPSPCB,47505350-4342-42e6-9b69-6361645f7063,00*%
%TF.SameCoordinates,Original*%
%TF.FileFunction,Drillmap*%
%TF.FilePolarity,Positive*%
%FSLAX45Y45*%
G04 Gerber Fmt 4.5, Leading zero omitted, Abs format (unit mm)*
G04 Created by KiCad (PCBNEW 7.0.5) date 2023-07-24 14:19:45*
%MOMM*%
%LPD*%
G01*
G04 APERTURE LIST*
%ADD10C,0.050000*%
%ADD11C,0.200000*%
%ADD12C,0.006000*%
%ADD13C,0.010000*%
%ADD14C,0.011500*%
%ADD15C,0.020000*%
%ADD16C,0.025000*%
%ADD17C,0.065000*%
%ADD18C,0.080000*%
%ADD19C,0.090000*%
G04 APERTURE END LIST*
D10*
X8056812Y-5021812D02*
G75*
G03*
X7801812Y-5276812I-6812J-248188D01*
G01*
X12220000Y-8334000D02*
G75*
G03*
X12469000Y-8085000I0J249000D01*
G01*
X8056812Y-5021812D02*
X12212500Y-5025000D01*
X7806812Y-8078188D02*
G75*
G03*
X8061812Y-8333188I249998J-5002D01*
G01*
X7806812Y-7731812D02*
X7801812Y-5276812D01*
X7806812Y-7731812D02*
X7806812Y-8078188D01*
X12469000Y-8085000D02*
X12467500Y-5280000D01*
X12467500Y-5280000D02*
G75*
G03*
X12212500Y-5025000I-250000J5000D01*
G01*
X12220000Y-8334000D02*
X8061812Y-8333188D01*
D11*
D12*
X9628000Y-6505000D02*
X9634000Y-6511000D01*
X9634000Y-6505000D02*
X9628000Y-6511000D01*
X9676000Y-5566000D02*
X9682000Y-5572000D01*
X9682000Y-5566000D02*
X9676000Y-5572000D01*
X9750000Y-6539000D02*
X9756000Y-6545000D01*
X9756000Y-6539000D02*
X9750000Y-6545000D01*
X9759000Y-7155000D02*
X9765000Y-7161000D01*
X9765000Y-7155000D02*
X9759000Y-7161000D01*
X9803000Y-7009000D02*
X9809000Y-7015000D01*
X9809000Y-7009000D02*
X9803000Y-7015000D01*
X9880000Y-7166000D02*
X9886000Y-7172000D01*
X9886000Y-7166000D02*
X9880000Y-7172000D01*
X9892000Y-6242000D02*
X9898000Y-6248000D01*
X9898000Y-6242000D02*
X9892000Y-6248000D01*
X9954000Y-6929000D02*
X9960000Y-6935000D01*
X9960000Y-6929000D02*
X9954000Y-6935000D01*
X9964474Y-5622474D02*
X9970474Y-5628474D01*
X9970474Y-5622474D02*
X9964474Y-5628474D01*
X10035000Y-5280000D02*
X10041000Y-5286000D01*
X10041000Y-5280000D02*
X10035000Y-5286000D01*
X10045000Y-5588000D02*
X10051000Y-5594000D01*
X10051000Y-5588000D02*
X10045000Y-5594000D01*
X10171000Y-5697000D02*
X10177000Y-5703000D01*
X10177000Y-5697000D02*
X10171000Y-5703000D01*
X10207000Y-5565000D02*
X10213000Y-5571000D01*
X10213000Y-5565000D02*
X10207000Y-5571000D01*
X10298000Y-7252000D02*
X10304000Y-7258000D01*
X10304000Y-7252000D02*
X10298000Y-7258000D01*
X10368000Y-5507000D02*
X10374000Y-5513000D01*
X10374000Y-5507000D02*
X10368000Y-5513000D01*
X10453000Y-6047000D02*
X10459000Y-6053000D01*
X10459000Y-6047000D02*
X10453000Y-6053000D01*
X10462000Y-6449000D02*
X10468000Y-6455000D01*
X10468000Y-6449000D02*
X10462000Y-6455000D01*
X10474000Y-5422000D02*
X10480000Y-5428000D01*
X10480000Y-5422000D02*
X10474000Y-5428000D01*
X10485000Y-6427000D02*
X10491000Y-6433000D01*
X10491000Y-6427000D02*
X10485000Y-6433000D01*
X10523000Y-5650000D02*
X10529000Y-5656000D01*
X10529000Y-5650000D02*
X10523000Y-5656000D01*
X10524000Y-5851000D02*
X10530000Y-5857000D01*
X10530000Y-5851000D02*
X10524000Y-5857000D01*
X10572000Y-5750000D02*
X10578000Y-5756000D01*
X10578000Y-5750000D02*
X10572000Y-5756000D01*
X10596000Y-6637000D02*
X10602000Y-6643000D01*
X10602000Y-6637000D02*
X10596000Y-6643000D01*
X10641000Y-6373000D02*
X10647000Y-6379000D01*
X10647000Y-6373000D02*
X10641000Y-6379000D01*
X10696000Y-6484000D02*
X10702000Y-6490000D01*
X10702000Y-6484000D02*
X10696000Y-6490000D01*
X10705000Y-6527000D02*
X10711000Y-6533000D01*
X10711000Y-6527000D02*
X10705000Y-6533000D01*
X10746000Y-6534000D02*
X10752000Y-6540000D01*
X10752000Y-6534000D02*
X10746000Y-6540000D01*
X10746000Y-6684000D02*
X10752000Y-6690000D01*
X10752000Y-6684000D02*
X10746000Y-6690000D01*
X10746000Y-6734000D02*
X10752000Y-6740000D01*
X10752000Y-6734000D02*
X10746000Y-6740000D01*
X10763000Y-5488000D02*
X10769000Y-5494000D01*
X10769000Y-5488000D02*
X10763000Y-5494000D01*
X10764252Y-5589979D02*
X10770252Y-5595979D01*
X10770252Y-5589979D02*
X10764252Y-5595979D01*
X10769500Y-7022000D02*
X10775500Y-7028000D01*
X10775500Y-7022000D02*
X10769500Y-7028000D01*
X10794000Y-6638000D02*
X10800000Y-6644000D01*
X10800000Y-6638000D02*
X10794000Y-6644000D01*
X10796000Y-6936000D02*
X10802000Y-6942000D01*
X10802000Y-6936000D02*
X10796000Y-6942000D01*
X10797000Y-5430000D02*
X10803000Y-5436000D01*
X10803000Y-5430000D02*
X10797000Y-5436000D01*
X10801000Y-5319000D02*
X10807000Y-5325000D01*
X10807000Y-5319000D02*
X10801000Y-5325000D01*
X10811000Y-6106000D02*
X10817000Y-6112000D01*
X10817000Y-6106000D02*
X10811000Y-6112000D01*
X10847000Y-5847000D02*
X10853000Y-5853000D01*
X10853000Y-5847000D02*
X10847000Y-5853000D01*
X10853000Y-6592000D02*
X10859000Y-6598000D01*
X10859000Y-6592000D02*
X10853000Y-6598000D01*
X10870000Y-5524000D02*
X10876000Y-5530000D01*
X10876000Y-5524000D02*
X10870000Y-5530000D01*
X10881000Y-5440000D02*
X10887000Y-5446000D01*
X10887000Y-5440000D02*
X10881000Y-5446000D01*
X10896000Y-6371000D02*
X10902000Y-6377000D01*
X10902000Y-6371000D02*
X10896000Y-6377000D01*
X10896000Y-6934000D02*
X10902000Y-6940000D01*
X10902000Y-6934000D02*
X10896000Y-6940000D01*
X10897000Y-6533000D02*
X10903000Y-6539000D01*
X10903000Y-6533000D02*
X10897000Y-6539000D01*
X10935000Y-5934000D02*
X10941000Y-5940000D01*
X10941000Y-5934000D02*
X10935000Y-5940000D01*
X10943000Y-6688000D02*
X10949000Y-6694000D01*
X10949000Y-6688000D02*
X10943000Y-6694000D01*
X10946000Y-6589000D02*
X10952000Y-6595000D01*
X10952000Y-6589000D02*
X10946000Y-6595000D01*
X10946000Y-6635000D02*
X10952000Y-6641000D01*
X10952000Y-6635000D02*
X10946000Y-6641000D01*
X10946000Y-6784000D02*
X10952000Y-6790000D01*
X10952000Y-6784000D02*
X10946000Y-6790000D01*
X10946000Y-6935000D02*
X10952000Y-6941000D01*
X10952000Y-6935000D02*
X10946000Y-6941000D01*
X10947000Y-7465000D02*
X10953000Y-7471000D01*
X10953000Y-7465000D02*
X10947000Y-7471000D01*
X10973000Y-6359000D02*
X10979000Y-6365000D01*
X10979000Y-6359000D02*
X10973000Y-6365000D01*
X10990000Y-5673000D02*
X10996000Y-5679000D01*
X10996000Y-5673000D02*
X10990000Y-5679000D01*
X11004000Y-6841000D02*
X11010000Y-6847000D01*
X11010000Y-6841000D02*
X11004000Y-6847000D01*
X11036000Y-6750000D02*
X11042000Y-6756000D01*
X11042000Y-6750000D02*
X11036000Y-6756000D01*
X11037000Y-6808000D02*
X11043000Y-6814000D01*
X11043000Y-6808000D02*
X11037000Y-6814000D01*
X11046000Y-6683000D02*
X11052000Y-6689000D01*
X11052000Y-6683000D02*
X11046000Y-6689000D01*
X11072000Y-6580000D02*
X11078000Y-6586000D01*
X11078000Y-6580000D02*
X11072000Y-6586000D01*
X11080000Y-5357000D02*
X11086000Y-5363000D01*
X11086000Y-5357000D02*
X11080000Y-5363000D01*
X11107000Y-6775000D02*
X11113000Y-6781000D01*
X11113000Y-6775000D02*
X11107000Y-6781000D01*
X11108000Y-5246000D02*
X11114000Y-5252000D01*
X11114000Y-5246000D02*
X11108000Y-5252000D01*
X11111000Y-6714000D02*
X11117000Y-6720000D01*
X11117000Y-6714000D02*
X11111000Y-6720000D01*
X11112000Y-5460000D02*
X11118000Y-5466000D01*
X11118000Y-5460000D02*
X11112000Y-5466000D01*
X11115000Y-5560000D02*
X11121000Y-5566000D01*
X11121000Y-5560000D02*
X11115000Y-5566000D01*
X11188000Y-5401000D02*
X11194000Y-5407000D01*
X11194000Y-5401000D02*
X11188000Y-5407000D01*
X11208000Y-7098000D02*
X11214000Y-7104000D01*
X11214000Y-7098000D02*
X11208000Y-7104000D01*
X11223000Y-6820000D02*
X11229000Y-6826000D01*
X11229000Y-6820000D02*
X11223000Y-6826000D01*
X11235000Y-5388000D02*
X11241000Y-5394000D01*
X11241000Y-5388000D02*
X11235000Y-5394000D01*
X11276937Y-6305054D02*
X11282937Y-6311054D01*
X11282937Y-6305054D02*
X11276937Y-6311054D01*
X11283000Y-5695000D02*
X11289000Y-5701000D01*
X11289000Y-5695000D02*
X11283000Y-5701000D01*
X11345000Y-6413000D02*
X11351000Y-6419000D01*
X11351000Y-6413000D02*
X11345000Y-6419000D01*
X11345000Y-6975000D02*
X11351000Y-6981000D01*
X11351000Y-6975000D02*
X11345000Y-6981000D01*
X11386700Y-6042800D02*
X11392700Y-6048800D01*
X11392700Y-6042800D02*
X11386700Y-6048800D01*
X11443000Y-7214000D02*
X11449000Y-7220000D01*
X11449000Y-7214000D02*
X11443000Y-7220000D01*
X11469000Y-5511000D02*
X11475000Y-5517000D01*
X11475000Y-5511000D02*
X11469000Y-5517000D01*
X11487000Y-5704000D02*
X11493000Y-5710000D01*
X11493000Y-5704000D02*
X11487000Y-5710000D01*
X11500000Y-6804200D02*
X11506000Y-6810200D01*
X11506000Y-6804200D02*
X11500000Y-6810200D01*
X11672000Y-7640000D02*
X11678000Y-7646000D01*
X11678000Y-7640000D02*
X11672000Y-7646000D01*
X11683000Y-5740000D02*
X11689000Y-5746000D01*
X11689000Y-5740000D02*
X11683000Y-5746000D01*
X11736000Y-6924000D02*
X11742000Y-6930000D01*
X11742000Y-6924000D02*
X11736000Y-6930000D01*
X11738000Y-6803000D02*
X11744000Y-6809000D01*
X11744000Y-6803000D02*
X11738000Y-6809000D01*
D13*
X8550000Y-6374000D02*
G75*
G03*
X8550000Y-6374000I-5000J0D01*
G01*
X8583000Y-6688000D02*
G75*
G03*
X8583000Y-6688000I-5000J0D01*
G01*
X9454000Y-7377000D02*
G75*
G03*
X9454000Y-7377000I-5000J0D01*
G01*
X9458000Y-5784000D02*
G75*
G03*
X9458000Y-5784000I-5000J0D01*
G01*
X9540000Y-5877000D02*
G75*
G03*
X9540000Y-5877000I-5000J0D01*
G01*
X9600000Y-6981000D02*
G75*
G03*
X9600000Y-6981000I-5000J0D01*
G01*
X9609000Y-7092000D02*
G75*
G03*
X9609000Y-7092000I-5000J0D01*
G01*
X9642000Y-5429000D02*
G75*
G03*
X9642000Y-5429000I-5000J0D01*
G01*
X9652000Y-5286000D02*
G75*
G03*
X9652000Y-5286000I-5000J0D01*
G01*
X9658000Y-6232000D02*
G75*
G03*
X9658000Y-6232000I-5000J0D01*
G01*
X9743000Y-6861000D02*
G75*
G03*
X9743000Y-6861000I-5000J0D01*
G01*
X9745000Y-6706000D02*
G75*
G03*
X9745000Y-6706000I-5000J0D01*
G01*
X9761000Y-7473000D02*
G75*
G03*
X9761000Y-7473000I-5000J0D01*
G01*
X9781585Y-6983631D02*
G75*
G03*
X9781585Y-6983631I-5000J0D01*
G01*
X9813251Y-5663749D02*
G75*
G03*
X9813251Y-5663749I-5000J0D01*
G01*
X9891000Y-6979909D02*
G75*
G03*
X9891000Y-6979909I-5000J0D01*
G01*
X9926000Y-6829000D02*
G75*
G03*
X9926000Y-6829000I-5000J0D01*
G01*
X9947000Y-7166000D02*
G75*
G03*
X9947000Y-7166000I-5000J0D01*
G01*
X9979000Y-6544000D02*
G75*
G03*
X9979000Y-6544000I-5000J0D01*
G01*
X10025087Y-7303017D02*
G75*
G03*
X10025087Y-7303017I-5000J0D01*
G01*
X10044000Y-6535000D02*
G75*
G03*
X10044000Y-6535000I-5000J0D01*
G01*
X10064000Y-7474000D02*
G75*
G03*
X10064000Y-7474000I-5000J0D01*
G01*
X10070000Y-6493000D02*
G75*
G03*
X10070000Y-6493000I-5000J0D01*
G01*
X10107000Y-5846000D02*
G75*
G03*
X10107000Y-5846000I-5000J0D01*
G01*
X10176000Y-5630000D02*
G75*
G03*
X10176000Y-5630000I-5000J0D01*
G01*
X10176128Y-6567531D02*
G75*
G03*
X10176128Y-6567531I-5000J0D01*
G01*
X10190000Y-6831000D02*
G75*
G03*
X10190000Y-6831000I-5000J0D01*
G01*
X10214055Y-6944000D02*
G75*
G03*
X10214055Y-6944000I-5000J0D01*
G01*
X10262038Y-5561962D02*
G75*
G03*
X10262038Y-5561962I-5000J0D01*
G01*
X10280000Y-6901000D02*
G75*
G03*
X10280000Y-6901000I-5000J0D01*
G01*
X10313000Y-6354000D02*
G75*
G03*
X10313000Y-6354000I-5000J0D01*
G01*
X10359000Y-5788000D02*
G75*
G03*
X10359000Y-5788000I-5000J0D01*
G01*
X10364000Y-7259000D02*
G75*
G03*
X10364000Y-7259000I-5000J0D01*
G01*
X10365000Y-6689000D02*
G75*
G03*
X10365000Y-6689000I-5000J0D01*
G01*
X10376000Y-6940000D02*
G75*
G03*
X10376000Y-6940000I-5000J0D01*
G01*
X10379000Y-7166000D02*
G75*
G03*
X10379000Y-7166000I-5000J0D01*
G01*
X10392000Y-6422000D02*
G75*
G03*
X10392000Y-6422000I-5000J0D01*
G01*
X10392038Y-5691962D02*
G75*
G03*
X10392038Y-5691962I-5000J0D01*
G01*
X10407428Y-6338881D02*
G75*
G03*
X10407428Y-6338881I-5000J0D01*
G01*
X10432000Y-7160000D02*
G75*
G03*
X10432000Y-7160000I-5000J0D01*
G01*
X10500054Y-5746664D02*
G75*
G03*
X10500054Y-5746664I-5000J0D01*
G01*
X10505000Y-6228000D02*
G75*
G03*
X10505000Y-6228000I-5000J0D01*
G01*
X10505751Y-6300751D02*
G75*
G03*
X10505751Y-6300751I-5000J0D01*
G01*
X10523666Y-6049000D02*
G75*
G03*
X10523666Y-6049000I-5000J0D01*
G01*
X10532000Y-7293000D02*
G75*
G03*
X10532000Y-7293000I-5000J0D01*
G01*
X10541000Y-6643138D02*
G75*
G03*
X10541000Y-6643138I-5000J0D01*
G01*
X10551291Y-5981555D02*
G75*
G03*
X10551291Y-5981555I-5000J0D01*
G01*
X10571000Y-5885000D02*
G75*
G03*
X10571000Y-5885000I-5000J0D01*
G01*
X10583384Y-6482169D02*
G75*
G03*
X10583384Y-6482169I-5000J0D01*
G01*
X10588985Y-5814381D02*
G75*
G03*
X10588985Y-5814381I-5000J0D01*
G01*
X10606000Y-7464000D02*
G75*
G03*
X10606000Y-7464000I-5000J0D01*
G01*
X10615000Y-5678000D02*
G75*
G03*
X10615000Y-5678000I-5000J0D01*
G01*
X10664000Y-6313000D02*
G75*
G03*
X10664000Y-6313000I-5000J0D01*
G01*
X10703000Y-7464000D02*
G75*
G03*
X10703000Y-7464000I-5000J0D01*
G01*
X10747749Y-7786251D02*
G75*
G03*
X10747749Y-7786251I-5000J0D01*
G01*
X10774000Y-7695000D02*
G75*
G03*
X10774000Y-7695000I-5000J0D01*
G01*
X10811000Y-6227000D02*
G75*
G03*
X10811000Y-6227000I-5000J0D01*
G01*
X10856000Y-7617000D02*
G75*
G03*
X10856000Y-7617000I-5000J0D01*
G01*
X10898500Y-6225000D02*
G75*
G03*
X10898500Y-6225000I-5000J0D01*
G01*
X10910446Y-5642585D02*
G75*
G03*
X10910446Y-5642585I-5000J0D01*
G01*
X10937079Y-5675706D02*
G75*
G03*
X10937079Y-5675706I-5000J0D01*
G01*
X10940000Y-5755850D02*
G75*
G03*
X10940000Y-5755850I-5000J0D01*
G01*
X10961000Y-5790850D02*
G75*
G03*
X10961000Y-5790850I-5000J0D01*
G01*
X10996000Y-6131000D02*
G75*
G03*
X10996000Y-6131000I-5000J0D01*
G01*
X11009000Y-7465000D02*
G75*
G03*
X11009000Y-7465000I-5000J0D01*
G01*
X11060094Y-6303000D02*
G75*
G03*
X11060094Y-6303000I-5000J0D01*
G01*
X11061784Y-5792216D02*
G75*
G03*
X11061784Y-5792216I-5000J0D01*
G01*
X11089000Y-6500000D02*
G75*
G03*
X11089000Y-6500000I-5000J0D01*
G01*
X11111000Y-5761000D02*
G75*
G03*
X11111000Y-5761000I-5000J0D01*
G01*
X11114121Y-6405121D02*
G75*
G03*
X11114121Y-6405121I-5000J0D01*
G01*
X11160000Y-5730000D02*
G75*
G03*
X11160000Y-5730000I-5000J0D01*
G01*
X11196978Y-6324627D02*
G75*
G03*
X11196978Y-6324627I-5000J0D01*
G01*
X11239000Y-7448000D02*
G75*
G03*
X11239000Y-7448000I-5000J0D01*
G01*
X11268000Y-7181000D02*
G75*
G03*
X11268000Y-7181000I-5000J0D01*
G01*
X11317224Y-6393274D02*
G75*
G03*
X11317224Y-6393274I-5000J0D01*
G01*
X11324000Y-5836000D02*
G75*
G03*
X11324000Y-5836000I-5000J0D01*
G01*
X11328000Y-5938000D02*
G75*
G03*
X11328000Y-5938000I-5000J0D01*
G01*
X11339000Y-7688000D02*
G75*
G03*
X11339000Y-7688000I-5000J0D01*
G01*
X11365000Y-6819000D02*
G75*
G03*
X11365000Y-6819000I-5000J0D01*
G01*
X11372000Y-5695000D02*
G75*
G03*
X11372000Y-5695000I-5000J0D01*
G01*
X11406000Y-6254000D02*
G75*
G03*
X11406000Y-6254000I-5000J0D01*
G01*
X11458256Y-5362000D02*
G75*
G03*
X11458256Y-5362000I-5000J0D01*
G01*
X11461000Y-5463000D02*
G75*
G03*
X11461000Y-5463000I-5000J0D01*
G01*
X11462216Y-6084216D02*
G75*
G03*
X11462216Y-6084216I-5000J0D01*
G01*
X11482000Y-5986000D02*
G75*
G03*
X11482000Y-5986000I-5000J0D01*
G01*
X11485000Y-6343000D02*
G75*
G03*
X11485000Y-6343000I-5000J0D01*
G01*
X11553000Y-6963000D02*
G75*
G03*
X11553000Y-6963000I-5000J0D01*
G01*
X11569000Y-6327000D02*
G75*
G03*
X11569000Y-6327000I-5000J0D01*
G01*
X11589367Y-5992870D02*
G75*
G03*
X11589367Y-5992870I-5000J0D01*
G01*
X11638408Y-5430977D02*
G75*
G03*
X11638408Y-5430977I-5000J0D01*
G01*
X11639000Y-6767000D02*
G75*
G03*
X11639000Y-6767000I-5000J0D01*
G01*
X11671000Y-6645000D02*
G75*
G03*
X11671000Y-6645000I-5000J0D01*
G01*
X11756000Y-6219000D02*
G75*
G03*
X11756000Y-6219000I-5000J0D01*
G01*
X11783000Y-5643000D02*
G75*
G03*
X11783000Y-5643000I-5000J0D01*
G01*
X11794000Y-6079000D02*
G75*
G03*
X11794000Y-6079000I-5000J0D01*
G01*
X11921000Y-6190000D02*
G75*
G03*
X11921000Y-6190000I-5000J0D01*
G01*
X11927000Y-6387000D02*
G75*
G03*
X11927000Y-6387000I-5000J0D01*
G01*
X11930000Y-6688000D02*
G75*
G03*
X11930000Y-6688000I-5000J0D01*
G01*
X11965000Y-6559000D02*
G75*
G03*
X11965000Y-6559000I-5000J0D01*
G01*
X12030000Y-5607000D02*
G75*
G03*
X12030000Y-5607000I-5000J0D01*
G01*
X12082000Y-6190000D02*
G75*
G03*
X12082000Y-6190000I-5000J0D01*
G01*
X12214000Y-7616000D02*
G75*
G03*
X12214000Y-7616000I-5000J0D01*
G01*
X12343000Y-7663000D02*
G75*
G03*
X12343000Y-7663000I-5000J0D01*
G01*
D14*
X7896000Y-6435250D02*
X7896000Y-6446750D01*
X7890250Y-6441000D02*
X7901750Y-6441000D01*
X8207000Y-6918250D02*
X8207000Y-6929750D01*
X8201250Y-6924000D02*
X8212750Y-6924000D01*
X8523000Y-7210250D02*
X8523000Y-7221750D01*
X8517250Y-7216000D02*
X8528750Y-7216000D01*
X8560000Y-7079250D02*
X8560000Y-7090750D01*
X8554250Y-7085000D02*
X8565750Y-7085000D01*
X8637000Y-6388250D02*
X8637000Y-6399750D01*
X8631250Y-6394000D02*
X8642750Y-6394000D01*
X8743000Y-7309250D02*
X8743000Y-7320750D01*
X8737250Y-7315000D02*
X8748750Y-7315000D01*
X8779000Y-6826750D02*
X8779000Y-6838250D01*
X8773250Y-6832500D02*
X8784750Y-6832500D01*
X8803925Y-6425538D02*
X8803925Y-6437038D01*
X8798175Y-6431288D02*
X8809675Y-6431288D01*
X8875000Y-6898250D02*
X8875000Y-6909750D01*
X8869250Y-6904000D02*
X8880750Y-6904000D01*
X8876000Y-6992250D02*
X8876000Y-7003750D01*
X8870250Y-6998000D02*
X8881750Y-6998000D01*
X8984000Y-6258250D02*
X8984000Y-6269750D01*
X8978250Y-6264000D02*
X8989750Y-6264000D01*
X8987000Y-7050250D02*
X8987000Y-7061750D01*
X8981250Y-7056000D02*
X8992750Y-7056000D01*
X8990000Y-6570250D02*
X8990000Y-6581750D01*
X8984250Y-6576000D02*
X8995750Y-6576000D01*
X9007627Y-6423166D02*
X9007627Y-6434666D01*
X9001877Y-6428916D02*
X9013377Y-6428916D01*
X9139000Y-6381250D02*
X9139000Y-6392750D01*
X9133250Y-6387000D02*
X9144750Y-6387000D01*
X9154000Y-5455250D02*
X9154000Y-5466750D01*
X9148250Y-5461000D02*
X9159750Y-5461000D01*
X9155450Y-5730250D02*
X9155450Y-5741750D01*
X9149700Y-5736000D02*
X9161200Y-5736000D01*
X9155500Y-5665874D02*
X9155500Y-5677374D01*
X9149750Y-5671624D02*
X9161250Y-5671624D01*
X9188000Y-5762250D02*
X9188000Y-5773750D01*
X9182250Y-5768000D02*
X9193750Y-5768000D01*
X9235000Y-6911250D02*
X9235000Y-6922750D01*
X9229250Y-6917000D02*
X9240750Y-6917000D01*
X9240000Y-5616750D02*
X9240000Y-5628250D01*
X9234250Y-5622500D02*
X9245750Y-5622500D01*
X9285000Y-6446250D02*
X9285000Y-6457750D01*
X9279250Y-6452000D02*
X9290750Y-6452000D01*
X9311000Y-7263750D02*
X9311000Y-7275250D01*
X9305250Y-7269500D02*
X9316750Y-7269500D01*
X9320000Y-6257250D02*
X9320000Y-6268750D01*
X9314250Y-6263000D02*
X9325750Y-6263000D01*
X9357000Y-5392250D02*
X9357000Y-5403750D01*
X9351250Y-5398000D02*
X9362750Y-5398000D01*
X9358500Y-5940250D02*
X9358500Y-5951750D01*
X9352750Y-5946000D02*
X9364250Y-5946000D01*
X9358500Y-6296250D02*
X9358500Y-6307750D01*
X9352750Y-6302000D02*
X9364250Y-6302000D01*
X9362000Y-5515250D02*
X9362000Y-5526750D01*
X9356250Y-5521000D02*
X9367750Y-5521000D01*
X9363000Y-5616250D02*
X9363000Y-5627750D01*
X9357250Y-5622000D02*
X9368750Y-5622000D01*
X9363000Y-7032250D02*
X9363000Y-7043750D01*
X9357250Y-7038000D02*
X9368750Y-7038000D01*
X9392996Y-6700221D02*
X9392996Y-6711721D01*
X9387246Y-6705971D02*
X9398746Y-6705971D01*
X9403787Y-6074250D02*
X9403787Y-6085750D01*
X9398037Y-6080000D02*
X9409537Y-6080000D01*
X9515500Y-6036750D02*
X9515500Y-6048250D01*
X9509750Y-6042500D02*
X9521250Y-6042500D01*
X9526000Y-6398250D02*
X9526000Y-6409750D01*
X9520250Y-6404000D02*
X9531750Y-6404000D01*
X9539000Y-5476250D02*
X9539000Y-5487750D01*
X9533250Y-5482000D02*
X9544750Y-5482000D01*
X9552000Y-7010250D02*
X9552000Y-7021750D01*
X9546250Y-7016000D02*
X9557750Y-7016000D01*
X9576500Y-5683414D02*
X9576500Y-5694914D01*
X9570750Y-5689164D02*
X9582250Y-5689164D01*
X9593000Y-7558250D02*
X9593000Y-7569750D01*
X9587250Y-7564000D02*
X9598750Y-7564000D01*
X9596839Y-6830533D02*
X9596839Y-6842033D01*
X9591089Y-6836283D02*
X9602589Y-6836283D01*
X9630000Y-6932250D02*
X9630000Y-6943750D01*
X9624250Y-6938000D02*
X9635750Y-6938000D01*
X10179568Y-6052649D02*
X10179568Y-6064149D01*
X10173818Y-6058399D02*
X10185318Y-6058399D01*
X10236967Y-6046283D02*
X10236967Y-6057783D01*
X10231217Y-6052033D02*
X10242717Y-6052033D01*
X10255500Y-5869876D02*
X10255500Y-5881376D01*
X10249750Y-5875626D02*
X10261250Y-5875626D01*
X10393779Y-5997996D02*
X10393779Y-6009496D01*
X10388029Y-6003746D02*
X10399529Y-6003746D01*
X10394983Y-6151267D02*
X10394983Y-6162767D01*
X10389233Y-6157017D02*
X10400733Y-6157017D01*
X10549000Y-7156250D02*
X10549000Y-7167750D01*
X10543250Y-7162000D02*
X10554750Y-7162000D01*
X10815000Y-5973750D02*
X10815000Y-5985250D01*
X10809250Y-5979500D02*
X10820750Y-5979500D01*
X11186000Y-6815250D02*
X11186000Y-6826750D01*
X11180250Y-6821000D02*
X11191750Y-6821000D01*
X11503000Y-7263250D02*
X11503000Y-7274750D01*
X11497250Y-7269000D02*
X11508750Y-7269000D01*
X11831000Y-7711250D02*
X11831000Y-7722750D01*
X11825250Y-7717000D02*
X11836750Y-7717000D01*
X11898000Y-6996250D02*
X11898000Y-7007750D01*
X11892250Y-7002000D02*
X11903750Y-7002000D01*
X12124000Y-7500250D02*
X12124000Y-7511750D01*
X12118250Y-7506000D02*
X12129750Y-7506000D01*
X12142000Y-7671250D02*
X12142000Y-7682750D01*
X12136250Y-7677000D02*
X12147750Y-7677000D01*
X12270483Y-7773733D02*
X12270483Y-7785233D01*
X12264733Y-7779483D02*
X12276233Y-7779483D01*
D15*
X11622071Y-5363071D02*
X11622071Y-5348929D01*
X11607929Y-5348929D01*
X11607929Y-5363071D01*
X11622071Y-5363071D01*
D16*
X8118000Y-5979500D02*
X8130500Y-5967000D01*
X8118000Y-5954500D01*
X8105500Y-5967000D01*
X8118000Y-5979500D01*
X8160000Y-5600000D02*
X8172500Y-5587500D01*
X8160000Y-5575000D01*
X8147500Y-5587500D01*
X8160000Y-5600000D01*
X8163109Y-7169391D02*
X8175609Y-7156891D01*
X8163109Y-7144391D01*
X8150609Y-7156891D01*
X8163109Y-7169391D01*
X8575000Y-6212500D02*
X8587500Y-6200000D01*
X8575000Y-6187500D01*
X8562500Y-6200000D01*
X8575000Y-6212500D01*
X8633596Y-6574182D02*
X8646096Y-6561682D01*
X8633596Y-6549182D01*
X8621096Y-6561682D01*
X8633596Y-6574182D01*
X8728000Y-5854500D02*
X8740500Y-5842000D01*
X8728000Y-5829500D01*
X8715500Y-5842000D01*
X8728000Y-5854500D01*
X8832000Y-6181500D02*
X8844500Y-6169000D01*
X8832000Y-6156500D01*
X8819500Y-6169000D01*
X8832000Y-6181500D01*
X9010000Y-6047500D02*
X9022500Y-6035000D01*
X9010000Y-6022500D01*
X8997500Y-6035000D01*
X9010000Y-6047500D01*
X9313000Y-7079500D02*
X9325500Y-7067000D01*
X9313000Y-7054500D01*
X9300500Y-7067000D01*
X9313000Y-7079500D01*
X9330000Y-6635000D02*
X9342500Y-6622500D01*
X9330000Y-6610000D01*
X9317500Y-6622500D01*
X9330000Y-6635000D01*
X11392000Y-7445500D02*
X11404500Y-7433000D01*
X11392000Y-7420500D01*
X11379500Y-7433000D01*
X11392000Y-7445500D01*
X11616000Y-7685500D02*
X11628500Y-7673000D01*
X11616000Y-7660500D01*
X11603500Y-7673000D01*
X11616000Y-7685500D01*
D17*
X9777500Y-5429000D02*
X9842500Y-5494000D01*
X9842500Y-5429000D02*
X9777500Y-5494000D01*
X9842500Y-5461500D02*
G75*
G03*
X9842500Y-5461500I-32500J0D01*
G01*
D11*
X9777500Y-5411500D02*
X9777500Y-5511500D01*
X9777500Y-5511500D02*
G75*
G03*
X9842500Y-5511500I32500J0D01*
G01*
X9842500Y-5511500D02*
X9842500Y-5411500D01*
X9842500Y-5411500D02*
G75*
G03*
X9777500Y-5411500I-32500J0D01*
G01*
D17*
X9777500Y-5811500D02*
X9842500Y-5876500D01*
X9842500Y-5811500D02*
X9777500Y-5876500D01*
X9842500Y-5844000D02*
G75*
G03*
X9842500Y-5844000I-32500J0D01*
G01*
D11*
X9777500Y-5779000D02*
X9777500Y-5909000D01*
X9777500Y-5909000D02*
G75*
G03*
X9842500Y-5909000I32500J0D01*
G01*
X9842500Y-5909000D02*
X9842500Y-5779000D01*
X9842500Y-5779000D02*
G75*
G03*
X9777500Y-5779000I-32500J0D01*
G01*
D17*
X10641500Y-5429000D02*
X10706500Y-5494000D01*
X10706500Y-5429000D02*
X10641500Y-5494000D01*
X10706500Y-5461500D02*
G75*
G03*
X10706500Y-5461500I-32500J0D01*
G01*
D11*
X10641500Y-5411500D02*
X10641500Y-5511500D01*
X10641500Y-5511500D02*
G75*
G03*
X10706500Y-5511500I32500J0D01*
G01*
X10706500Y-5511500D02*
X10706500Y-5411500D01*
X10706500Y-5411500D02*
G75*
G03*
X10641500Y-5411500I-32500J0D01*
G01*
D17*
X10641500Y-5811500D02*
X10706500Y-5876500D01*
X10706500Y-5811500D02*
X10641500Y-5876500D01*
X10706500Y-5844000D02*
G75*
G03*
X10706500Y-5844000I-32500J0D01*
G01*
D11*
X10641500Y-5779000D02*
X10641500Y-5909000D01*
X10641500Y-5909000D02*
G75*
G03*
X10706500Y-5909000I32500J0D01*
G01*
X10706500Y-5909000D02*
X10706500Y-5779000D01*
X10706500Y-5779000D02*
G75*
G03*
X10641500Y-5779000I-32500J0D01*
G01*
D18*
X8025000Y-6179000D02*
X8105000Y-6259000D01*
X8105000Y-6179000D02*
X8025000Y-6259000D01*
X8065000Y-6179000D02*
X8065000Y-6259000D01*
X8025000Y-6219000D02*
X8105000Y-6219000D01*
X8025000Y-6941000D02*
X8105000Y-7021000D01*
X8105000Y-6941000D02*
X8025000Y-7021000D01*
X8065000Y-6941000D02*
X8065000Y-7021000D01*
X8025000Y-6981000D02*
X8105000Y-6981000D01*
X8315000Y-6179000D02*
X8395000Y-6259000D01*
X8395000Y-6179000D02*
X8315000Y-6259000D01*
X8355000Y-6179000D02*
X8355000Y-6259000D01*
X8315000Y-6219000D02*
X8395000Y-6219000D01*
X8315000Y-6941000D02*
X8395000Y-7021000D01*
X8395000Y-6941000D02*
X8315000Y-7021000D01*
X8355000Y-6941000D02*
X8355000Y-7021000D01*
X8315000Y-6981000D02*
X8395000Y-6981000D01*
X11073000Y-7832000D02*
X11153000Y-7912000D01*
X11153000Y-7832000D02*
X11073000Y-7912000D01*
X11113000Y-7832000D02*
X11113000Y-7912000D01*
X11073000Y-7872000D02*
X11153000Y-7872000D01*
X11505000Y-5779000D02*
X11585000Y-5859000D01*
X11585000Y-5779000D02*
X11505000Y-5859000D01*
X11545000Y-5779000D02*
X11545000Y-5859000D01*
X11505000Y-5819000D02*
X11585000Y-5819000D01*
X11505000Y-6541000D02*
X11585000Y-6621000D01*
X11585000Y-6541000D02*
X11505000Y-6621000D01*
X11545000Y-6541000D02*
X11545000Y-6621000D01*
X11505000Y-6581000D02*
X11585000Y-6581000D01*
X11790000Y-5779000D02*
X11870000Y-5859000D01*
X11870000Y-5779000D02*
X11790000Y-5859000D01*
X11830000Y-5779000D02*
X11830000Y-5859000D01*
X11790000Y-5819000D02*
X11870000Y-5819000D01*
X11790000Y-6541000D02*
X11870000Y-6621000D01*
X11870000Y-6541000D02*
X11790000Y-6621000D01*
X11830000Y-6541000D02*
X11830000Y-6621000D01*
X11790000Y-6581000D02*
X11870000Y-6581000D01*
X11835000Y-7832000D02*
X11915000Y-7912000D01*
X11915000Y-7832000D02*
X11835000Y-7912000D01*
X11875000Y-7832000D02*
X11875000Y-7912000D01*
X11835000Y-7872000D02*
X11915000Y-7872000D01*
X11860000Y-6789000D02*
X11940000Y-6869000D01*
X11940000Y-6789000D02*
X11860000Y-6869000D01*
X11900000Y-6789000D02*
X11900000Y-6869000D01*
X11860000Y-6829000D02*
X11940000Y-6829000D01*
X11860000Y-7551000D02*
X11940000Y-7631000D01*
X11940000Y-7551000D02*
X11860000Y-7631000D01*
X11900000Y-7551000D02*
X11900000Y-7631000D01*
X11860000Y-7591000D02*
X11940000Y-7591000D01*
X12110000Y-5579000D02*
X12190000Y-5659000D01*
X12190000Y-5579000D02*
X12110000Y-5659000D01*
X12150000Y-5579000D02*
X12150000Y-5659000D01*
X12110000Y-5619000D02*
X12190000Y-5619000D01*
X12110000Y-6341000D02*
X12190000Y-6421000D01*
X12190000Y-6341000D02*
X12110000Y-6421000D01*
X12150000Y-6341000D02*
X12150000Y-6421000D01*
X12110000Y-6381000D02*
X12190000Y-6381000D01*
X12170000Y-6574000D02*
X12250000Y-6654000D01*
X12250000Y-6574000D02*
X12170000Y-6654000D01*
X12210000Y-6574000D02*
X12210000Y-6654000D01*
X12170000Y-6614000D02*
X12250000Y-6614000D01*
X12170000Y-7336000D02*
X12250000Y-7416000D01*
X12250000Y-7336000D02*
X12170000Y-7416000D01*
X12210000Y-7336000D02*
X12210000Y-7416000D01*
X12170000Y-7376000D02*
X12250000Y-7376000D01*
D19*
X9809700Y-6330400D02*
X9899700Y-6420400D01*
X9899700Y-6330400D02*
X9809700Y-6420400D01*
X9886520Y-6407220D02*
X9886520Y-6343580D01*
X9822880Y-6343580D01*
X9822880Y-6407220D01*
X9886520Y-6407220D01*
X10063700Y-6330400D02*
X10153700Y-6420400D01*
X10153700Y-6330400D02*
X10063700Y-6420400D01*
X10140520Y-6407220D02*
X10140520Y-6343580D01*
X10076880Y-6343580D01*
X10076880Y-6407220D01*
X10140520Y-6407220D01*
D11*
X8059995Y-8647984D02*
X8059995Y-8447984D01*
X8059995Y-8447984D02*
X8107614Y-8447984D01*
X8107614Y-8447984D02*
X8136186Y-8457508D01*
X8136186Y-8457508D02*
X8155234Y-8476555D01*
X8155234Y-8476555D02*
X8164757Y-8495603D01*
X8164757Y-8495603D02*
X8174281Y-8533698D01*
X8174281Y-8533698D02*
X8174281Y-8562270D01*
X8174281Y-8562270D02*
X8164757Y-8600365D01*
X8164757Y-8600365D02*
X8155234Y-8619412D01*
X8155234Y-8619412D02*
X8136186Y-8638460D01*
X8136186Y-8638460D02*
X8107614Y-8647984D01*
X8107614Y-8647984D02*
X8059995Y-8647984D01*
X8259995Y-8647984D02*
X8259995Y-8514650D01*
X8259995Y-8552746D02*
X8269519Y-8533698D01*
X8269519Y-8533698D02*
X8279043Y-8524174D01*
X8279043Y-8524174D02*
X8298091Y-8514650D01*
X8298091Y-8514650D02*
X8317138Y-8514650D01*
X8383805Y-8647984D02*
X8383805Y-8514650D01*
X8383805Y-8447984D02*
X8374281Y-8457508D01*
X8374281Y-8457508D02*
X8383805Y-8467031D01*
X8383805Y-8467031D02*
X8393329Y-8457508D01*
X8393329Y-8457508D02*
X8383805Y-8447984D01*
X8383805Y-8447984D02*
X8383805Y-8467031D01*
X8507615Y-8647984D02*
X8488567Y-8638460D01*
X8488567Y-8638460D02*
X8479043Y-8619412D01*
X8479043Y-8619412D02*
X8479043Y-8447984D01*
X8612376Y-8647984D02*
X8593329Y-8638460D01*
X8593329Y-8638460D02*
X8583805Y-8619412D01*
X8583805Y-8619412D02*
X8583805Y-8447984D01*
X8840948Y-8647984D02*
X8840948Y-8447984D01*
X8840948Y-8447984D02*
X8907615Y-8590841D01*
X8907615Y-8590841D02*
X8974281Y-8447984D01*
X8974281Y-8447984D02*
X8974281Y-8647984D01*
X9155234Y-8647984D02*
X9155234Y-8543222D01*
X9155234Y-8543222D02*
X9145710Y-8524174D01*
X9145710Y-8524174D02*
X9126662Y-8514650D01*
X9126662Y-8514650D02*
X9088567Y-8514650D01*
X9088567Y-8514650D02*
X9069519Y-8524174D01*
X9155234Y-8638460D02*
X9136186Y-8647984D01*
X9136186Y-8647984D02*
X9088567Y-8647984D01*
X9088567Y-8647984D02*
X9069519Y-8638460D01*
X9069519Y-8638460D02*
X9059996Y-8619412D01*
X9059996Y-8619412D02*
X9059996Y-8600365D01*
X9059996Y-8600365D02*
X9069519Y-8581317D01*
X9069519Y-8581317D02*
X9088567Y-8571793D01*
X9088567Y-8571793D02*
X9136186Y-8571793D01*
X9136186Y-8571793D02*
X9155234Y-8562270D01*
X9250472Y-8514650D02*
X9250472Y-8714650D01*
X9250472Y-8524174D02*
X9269519Y-8514650D01*
X9269519Y-8514650D02*
X9307615Y-8514650D01*
X9307615Y-8514650D02*
X9326662Y-8524174D01*
X9326662Y-8524174D02*
X9336186Y-8533698D01*
X9336186Y-8533698D02*
X9345710Y-8552746D01*
X9345710Y-8552746D02*
X9345710Y-8609889D01*
X9345710Y-8609889D02*
X9336186Y-8628936D01*
X9336186Y-8628936D02*
X9326662Y-8638460D01*
X9326662Y-8638460D02*
X9307615Y-8647984D01*
X9307615Y-8647984D02*
X9269519Y-8647984D01*
X9269519Y-8647984D02*
X9250472Y-8638460D01*
X9431424Y-8628936D02*
X9440948Y-8638460D01*
X9440948Y-8638460D02*
X9431424Y-8647984D01*
X9431424Y-8647984D02*
X9421900Y-8638460D01*
X9421900Y-8638460D02*
X9431424Y-8628936D01*
X9431424Y-8628936D02*
X9431424Y-8647984D01*
X9431424Y-8524174D02*
X9440948Y-8533698D01*
X9440948Y-8533698D02*
X9431424Y-8543222D01*
X9431424Y-8543222D02*
X9421900Y-8533698D01*
X9421900Y-8533698D02*
X9431424Y-8524174D01*
X9431424Y-8524174D02*
X9431424Y-8543222D01*
D12*
X7793219Y-8973500D02*
X7799219Y-8979500D01*
X7799219Y-8973500D02*
X7793219Y-8979500D01*
D11*
X8098091Y-8867984D02*
X8117138Y-8867984D01*
X8117138Y-8867984D02*
X8136186Y-8877508D01*
X8136186Y-8877508D02*
X8145710Y-8887031D01*
X8145710Y-8887031D02*
X8155234Y-8906079D01*
X8155234Y-8906079D02*
X8164757Y-8944174D01*
X8164757Y-8944174D02*
X8164757Y-8991793D01*
X8164757Y-8991793D02*
X8155234Y-9029889D01*
X8155234Y-9029889D02*
X8145710Y-9048936D01*
X8145710Y-9048936D02*
X8136186Y-9058460D01*
X8136186Y-9058460D02*
X8117138Y-9067984D01*
X8117138Y-9067984D02*
X8098091Y-9067984D01*
X8098091Y-9067984D02*
X8079043Y-9058460D01*
X8079043Y-9058460D02*
X8069519Y-9048936D01*
X8069519Y-9048936D02*
X8059995Y-9029889D01*
X8059995Y-9029889D02*
X8050472Y-8991793D01*
X8050472Y-8991793D02*
X8050472Y-8944174D01*
X8050472Y-8944174D02*
X8059995Y-8906079D01*
X8059995Y-8906079D02*
X8069519Y-8887031D01*
X8069519Y-8887031D02*
X8079043Y-8877508D01*
X8079043Y-8877508D02*
X8098091Y-8867984D01*
X8250472Y-9048936D02*
X8259995Y-9058460D01*
X8259995Y-9058460D02*
X8250472Y-9067984D01*
X8250472Y-9067984D02*
X8240948Y-9058460D01*
X8240948Y-9058460D02*
X8250472Y-9048936D01*
X8250472Y-9048936D02*
X8250472Y-9067984D01*
X8383805Y-8867984D02*
X8402853Y-8867984D01*
X8402853Y-8867984D02*
X8421900Y-8877508D01*
X8421900Y-8877508D02*
X8431424Y-8887031D01*
X8431424Y-8887031D02*
X8440948Y-8906079D01*
X8440948Y-8906079D02*
X8450472Y-8944174D01*
X8450472Y-8944174D02*
X8450472Y-8991793D01*
X8450472Y-8991793D02*
X8440948Y-9029889D01*
X8440948Y-9029889D02*
X8431424Y-9048936D01*
X8431424Y-9048936D02*
X8421900Y-9058460D01*
X8421900Y-9058460D02*
X8402853Y-9067984D01*
X8402853Y-9067984D02*
X8383805Y-9067984D01*
X8383805Y-9067984D02*
X8364757Y-9058460D01*
X8364757Y-9058460D02*
X8355234Y-9048936D01*
X8355234Y-9048936D02*
X8345710Y-9029889D01*
X8345710Y-9029889D02*
X8336186Y-8991793D01*
X8336186Y-8991793D02*
X8336186Y-8944174D01*
X8336186Y-8944174D02*
X8345710Y-8906079D01*
X8345710Y-8906079D02*
X8355234Y-8887031D01*
X8355234Y-8887031D02*
X8364757Y-8877508D01*
X8364757Y-8877508D02*
X8383805Y-8867984D01*
X8621900Y-8867984D02*
X8583805Y-8867984D01*
X8583805Y-8867984D02*
X8564757Y-8877508D01*
X8564757Y-8877508D02*
X8555234Y-8887031D01*
X8555234Y-8887031D02*
X8536186Y-8915603D01*
X8536186Y-8915603D02*
X8526662Y-8953698D01*
X8526662Y-8953698D02*
X8526662Y-9029889D01*
X8526662Y-9029889D02*
X8536186Y-9048936D01*
X8536186Y-9048936D02*
X8545710Y-9058460D01*
X8545710Y-9058460D02*
X8564757Y-9067984D01*
X8564757Y-9067984D02*
X8602853Y-9067984D01*
X8602853Y-9067984D02*
X8621900Y-9058460D01*
X8621900Y-9058460D02*
X8631424Y-9048936D01*
X8631424Y-9048936D02*
X8640948Y-9029889D01*
X8640948Y-9029889D02*
X8640948Y-8982270D01*
X8640948Y-8982270D02*
X8631424Y-8963222D01*
X8631424Y-8963222D02*
X8621900Y-8953698D01*
X8621900Y-8953698D02*
X8602853Y-8944174D01*
X8602853Y-8944174D02*
X8564757Y-8944174D01*
X8564757Y-8944174D02*
X8545710Y-8953698D01*
X8545710Y-8953698D02*
X8536186Y-8963222D01*
X8536186Y-8963222D02*
X8526662Y-8982270D01*
X8764757Y-8867984D02*
X8783805Y-8867984D01*
X8783805Y-8867984D02*
X8802853Y-8877508D01*
X8802853Y-8877508D02*
X8812377Y-8887031D01*
X8812377Y-8887031D02*
X8821900Y-8906079D01*
X8821900Y-8906079D02*
X8831424Y-8944174D01*
X8831424Y-8944174D02*
X8831424Y-8991793D01*
X8831424Y-8991793D02*
X8821900Y-9029889D01*
X8821900Y-9029889D02*
X8812377Y-9048936D01*
X8812377Y-9048936D02*
X8802853Y-9058460D01*
X8802853Y-9058460D02*
X8783805Y-9067984D01*
X8783805Y-9067984D02*
X8764757Y-9067984D01*
X8764757Y-9067984D02*
X8745710Y-9058460D01*
X8745710Y-9058460D02*
X8736186Y-9048936D01*
X8736186Y-9048936D02*
X8726662Y-9029889D01*
X8726662Y-9029889D02*
X8717138Y-8991793D01*
X8717138Y-8991793D02*
X8717138Y-8944174D01*
X8717138Y-8944174D02*
X8726662Y-8906079D01*
X8726662Y-8906079D02*
X8736186Y-8887031D01*
X8736186Y-8887031D02*
X8745710Y-8877508D01*
X8745710Y-8877508D02*
X8764757Y-8867984D01*
X8917138Y-9067984D02*
X8917138Y-8934650D01*
X8917138Y-8953698D02*
X8926662Y-8944174D01*
X8926662Y-8944174D02*
X8945710Y-8934650D01*
X8945710Y-8934650D02*
X8974281Y-8934650D01*
X8974281Y-8934650D02*
X8993329Y-8944174D01*
X8993329Y-8944174D02*
X9002853Y-8963222D01*
X9002853Y-8963222D02*
X9002853Y-9067984D01*
X9002853Y-8963222D02*
X9012377Y-8944174D01*
X9012377Y-8944174D02*
X9031424Y-8934650D01*
X9031424Y-8934650D02*
X9059996Y-8934650D01*
X9059996Y-8934650D02*
X9079043Y-8944174D01*
X9079043Y-8944174D02*
X9088567Y-8963222D01*
X9088567Y-8963222D02*
X9088567Y-9067984D01*
X9183805Y-9067984D02*
X9183805Y-8934650D01*
X9183805Y-8953698D02*
X9193329Y-8944174D01*
X9193329Y-8944174D02*
X9212377Y-8934650D01*
X9212377Y-8934650D02*
X9240948Y-8934650D01*
X9240948Y-8934650D02*
X9259996Y-8944174D01*
X9259996Y-8944174D02*
X9269519Y-8963222D01*
X9269519Y-8963222D02*
X9269519Y-9067984D01*
X9269519Y-8963222D02*
X9279043Y-8944174D01*
X9279043Y-8944174D02*
X9298091Y-8934650D01*
X9298091Y-8934650D02*
X9326662Y-8934650D01*
X9326662Y-8934650D02*
X9345710Y-8944174D01*
X9345710Y-8944174D02*
X9355234Y-8963222D01*
X9355234Y-8963222D02*
X9355234Y-9067984D01*
X9745710Y-8858460D02*
X9574281Y-9115603D01*
X10002853Y-8867984D02*
X10021901Y-8867984D01*
X10021901Y-8867984D02*
X10040948Y-8877508D01*
X10040948Y-8877508D02*
X10050472Y-8887031D01*
X10050472Y-8887031D02*
X10059996Y-8906079D01*
X10059996Y-8906079D02*
X10069520Y-8944174D01*
X10069520Y-8944174D02*
X10069520Y-8991793D01*
X10069520Y-8991793D02*
X10059996Y-9029889D01*
X10059996Y-9029889D02*
X10050472Y-9048936D01*
X10050472Y-9048936D02*
X10040948Y-9058460D01*
X10040948Y-9058460D02*
X10021901Y-9067984D01*
X10021901Y-9067984D02*
X10002853Y-9067984D01*
X10002853Y-9067984D02*
X9983805Y-9058460D01*
X9983805Y-9058460D02*
X9974281Y-9048936D01*
X9974281Y-9048936D02*
X9964758Y-9029889D01*
X9964758Y-9029889D02*
X9955234Y-8991793D01*
X9955234Y-8991793D02*
X9955234Y-8944174D01*
X9955234Y-8944174D02*
X9964758Y-8906079D01*
X9964758Y-8906079D02*
X9974281Y-8887031D01*
X9974281Y-8887031D02*
X9983805Y-8877508D01*
X9983805Y-8877508D02*
X10002853Y-8867984D01*
X10155234Y-9048936D02*
X10164758Y-9058460D01*
X10164758Y-9058460D02*
X10155234Y-9067984D01*
X10155234Y-9067984D02*
X10145710Y-9058460D01*
X10145710Y-9058460D02*
X10155234Y-9048936D01*
X10155234Y-9048936D02*
X10155234Y-9067984D01*
X10288567Y-8867984D02*
X10307615Y-8867984D01*
X10307615Y-8867984D02*
X10326662Y-8877508D01*
X10326662Y-8877508D02*
X10336186Y-8887031D01*
X10336186Y-8887031D02*
X10345710Y-8906079D01*
X10345710Y-8906079D02*
X10355234Y-8944174D01*
X10355234Y-8944174D02*
X10355234Y-8991793D01*
X10355234Y-8991793D02*
X10345710Y-9029889D01*
X10345710Y-9029889D02*
X10336186Y-9048936D01*
X10336186Y-9048936D02*
X10326662Y-9058460D01*
X10326662Y-9058460D02*
X10307615Y-9067984D01*
X10307615Y-9067984D02*
X10288567Y-9067984D01*
X10288567Y-9067984D02*
X10269520Y-9058460D01*
X10269520Y-9058460D02*
X10259996Y-9048936D01*
X10259996Y-9048936D02*
X10250472Y-9029889D01*
X10250472Y-9029889D02*
X10240948Y-8991793D01*
X10240948Y-8991793D02*
X10240948Y-8944174D01*
X10240948Y-8944174D02*
X10250472Y-8906079D01*
X10250472Y-8906079D02*
X10259996Y-8887031D01*
X10259996Y-8887031D02*
X10269520Y-8877508D01*
X10269520Y-8877508D02*
X10288567Y-8867984D01*
X10479043Y-8867984D02*
X10498091Y-8867984D01*
X10498091Y-8867984D02*
X10517139Y-8877508D01*
X10517139Y-8877508D02*
X10526662Y-8887031D01*
X10526662Y-8887031D02*
X10536186Y-8906079D01*
X10536186Y-8906079D02*
X10545710Y-8944174D01*
X10545710Y-8944174D02*
X10545710Y-8991793D01*
X10545710Y-8991793D02*
X10536186Y-9029889D01*
X10536186Y-9029889D02*
X10526662Y-9048936D01*
X10526662Y-9048936D02*
X10517139Y-9058460D01*
X10517139Y-9058460D02*
X10498091Y-9067984D01*
X10498091Y-9067984D02*
X10479043Y-9067984D01*
X10479043Y-9067984D02*
X10459996Y-9058460D01*
X10459996Y-9058460D02*
X10450472Y-9048936D01*
X10450472Y-9048936D02*
X10440948Y-9029889D01*
X10440948Y-9029889D02*
X10431424Y-8991793D01*
X10431424Y-8991793D02*
X10431424Y-8944174D01*
X10431424Y-8944174D02*
X10440948Y-8906079D01*
X10440948Y-8906079D02*
X10450472Y-8887031D01*
X10450472Y-8887031D02*
X10459996Y-8877508D01*
X10459996Y-8877508D02*
X10479043Y-8867984D01*
X10621901Y-8887031D02*
X10631424Y-8877508D01*
X10631424Y-8877508D02*
X10650472Y-8867984D01*
X10650472Y-8867984D02*
X10698091Y-8867984D01*
X10698091Y-8867984D02*
X10717139Y-8877508D01*
X10717139Y-8877508D02*
X10726662Y-8887031D01*
X10726662Y-8887031D02*
X10736186Y-8906079D01*
X10736186Y-8906079D02*
X10736186Y-8925127D01*
X10736186Y-8925127D02*
X10726662Y-8953698D01*
X10726662Y-8953698D02*
X10612377Y-9067984D01*
X10612377Y-9067984D02*
X10736186Y-9067984D01*
X10907615Y-8934650D02*
X10907615Y-9067984D01*
X10859996Y-8858460D02*
X10812377Y-9001317D01*
X10812377Y-9001317D02*
X10936186Y-9001317D01*
X11002853Y-8867984D02*
X11002853Y-8906079D01*
X11079043Y-8867984D02*
X11079043Y-8906079D01*
X11374282Y-9144174D02*
X11364758Y-9134650D01*
X11364758Y-9134650D02*
X11345710Y-9106079D01*
X11345710Y-9106079D02*
X11336186Y-9087031D01*
X11336186Y-9087031D02*
X11326662Y-9058460D01*
X11326662Y-9058460D02*
X11317139Y-9010841D01*
X11317139Y-9010841D02*
X11317139Y-8972746D01*
X11317139Y-8972746D02*
X11326662Y-8925127D01*
X11326662Y-8925127D02*
X11336186Y-8896555D01*
X11336186Y-8896555D02*
X11345710Y-8877508D01*
X11345710Y-8877508D02*
X11364758Y-8848936D01*
X11364758Y-8848936D02*
X11374282Y-8839412D01*
X11479043Y-8953698D02*
X11459996Y-8944174D01*
X11459996Y-8944174D02*
X11450472Y-8934650D01*
X11450472Y-8934650D02*
X11440948Y-8915603D01*
X11440948Y-8915603D02*
X11440948Y-8906079D01*
X11440948Y-8906079D02*
X11450472Y-8887031D01*
X11450472Y-8887031D02*
X11459996Y-8877508D01*
X11459996Y-8877508D02*
X11479043Y-8867984D01*
X11479043Y-8867984D02*
X11517139Y-8867984D01*
X11517139Y-8867984D02*
X11536186Y-8877508D01*
X11536186Y-8877508D02*
X11545710Y-8887031D01*
X11545710Y-8887031D02*
X11555234Y-8906079D01*
X11555234Y-8906079D02*
X11555234Y-8915603D01*
X11555234Y-8915603D02*
X11545710Y-8934650D01*
X11545710Y-8934650D02*
X11536186Y-8944174D01*
X11536186Y-8944174D02*
X11517139Y-8953698D01*
X11517139Y-8953698D02*
X11479043Y-8953698D01*
X11479043Y-8953698D02*
X11459996Y-8963222D01*
X11459996Y-8963222D02*
X11450472Y-8972746D01*
X11450472Y-8972746D02*
X11440948Y-8991793D01*
X11440948Y-8991793D02*
X11440948Y-9029889D01*
X11440948Y-9029889D02*
X11450472Y-9048936D01*
X11450472Y-9048936D02*
X11459996Y-9058460D01*
X11459996Y-9058460D02*
X11479043Y-9067984D01*
X11479043Y-9067984D02*
X11517139Y-9067984D01*
X11517139Y-9067984D02*
X11536186Y-9058460D01*
X11536186Y-9058460D02*
X11545710Y-9048936D01*
X11545710Y-9048936D02*
X11555234Y-9029889D01*
X11555234Y-9029889D02*
X11555234Y-8991793D01*
X11555234Y-8991793D02*
X11545710Y-8972746D01*
X11545710Y-8972746D02*
X11536186Y-8963222D01*
X11536186Y-8963222D02*
X11517139Y-8953698D01*
X11745710Y-9067984D02*
X11631424Y-9067984D01*
X11688567Y-9067984D02*
X11688567Y-8867984D01*
X11688567Y-8867984D02*
X11669520Y-8896555D01*
X11669520Y-8896555D02*
X11650472Y-8915603D01*
X11650472Y-8915603D02*
X11631424Y-8925127D01*
X11983805Y-9067984D02*
X11983805Y-8867984D01*
X12069520Y-9067984D02*
X12069520Y-8963222D01*
X12069520Y-8963222D02*
X12059996Y-8944174D01*
X12059996Y-8944174D02*
X12040948Y-8934650D01*
X12040948Y-8934650D02*
X12012377Y-8934650D01*
X12012377Y-8934650D02*
X11993329Y-8944174D01*
X11993329Y-8944174D02*
X11983805Y-8953698D01*
X12193329Y-9067984D02*
X12174282Y-9058460D01*
X12174282Y-9058460D02*
X12164758Y-9048936D01*
X12164758Y-9048936D02*
X12155234Y-9029889D01*
X12155234Y-9029889D02*
X12155234Y-8972746D01*
X12155234Y-8972746D02*
X12164758Y-8953698D01*
X12164758Y-8953698D02*
X12174282Y-8944174D01*
X12174282Y-8944174D02*
X12193329Y-8934650D01*
X12193329Y-8934650D02*
X12221901Y-8934650D01*
X12221901Y-8934650D02*
X12240948Y-8944174D01*
X12240948Y-8944174D02*
X12250472Y-8953698D01*
X12250472Y-8953698D02*
X12259996Y-8972746D01*
X12259996Y-8972746D02*
X12259996Y-9029889D01*
X12259996Y-9029889D02*
X12250472Y-9048936D01*
X12250472Y-9048936D02*
X12240948Y-9058460D01*
X12240948Y-9058460D02*
X12221901Y-9067984D01*
X12221901Y-9067984D02*
X12193329Y-9067984D01*
X12374282Y-9067984D02*
X12355234Y-9058460D01*
X12355234Y-9058460D02*
X12345710Y-9039412D01*
X12345710Y-9039412D02*
X12345710Y-8867984D01*
X12526663Y-9058460D02*
X12507615Y-9067984D01*
X12507615Y-9067984D02*
X12469520Y-9067984D01*
X12469520Y-9067984D02*
X12450472Y-9058460D01*
X12450472Y-9058460D02*
X12440948Y-9039412D01*
X12440948Y-9039412D02*
X12440948Y-8963222D01*
X12440948Y-8963222D02*
X12450472Y-8944174D01*
X12450472Y-8944174D02*
X12469520Y-8934650D01*
X12469520Y-8934650D02*
X12507615Y-8934650D01*
X12507615Y-8934650D02*
X12526663Y-8944174D01*
X12526663Y-8944174D02*
X12536186Y-8963222D01*
X12536186Y-8963222D02*
X12536186Y-8982270D01*
X12536186Y-8982270D02*
X12440948Y-9001317D01*
X12612377Y-9058460D02*
X12631424Y-9067984D01*
X12631424Y-9067984D02*
X12669520Y-9067984D01*
X12669520Y-9067984D02*
X12688567Y-9058460D01*
X12688567Y-9058460D02*
X12698091Y-9039412D01*
X12698091Y-9039412D02*
X12698091Y-9029889D01*
X12698091Y-9029889D02*
X12688567Y-9010841D01*
X12688567Y-9010841D02*
X12669520Y-9001317D01*
X12669520Y-9001317D02*
X12640948Y-9001317D01*
X12640948Y-9001317D02*
X12621901Y-8991793D01*
X12621901Y-8991793D02*
X12612377Y-8972746D01*
X12612377Y-8972746D02*
X12612377Y-8963222D01*
X12612377Y-8963222D02*
X12621901Y-8944174D01*
X12621901Y-8944174D02*
X12640948Y-8934650D01*
X12640948Y-8934650D02*
X12669520Y-8934650D01*
X12669520Y-8934650D02*
X12688567Y-8944174D01*
X12764758Y-9144174D02*
X12774282Y-9134650D01*
X12774282Y-9134650D02*
X12793329Y-9106079D01*
X12793329Y-9106079D02*
X12802853Y-9087031D01*
X12802853Y-9087031D02*
X12812377Y-9058460D01*
X12812377Y-9058460D02*
X12821901Y-9010841D01*
X12821901Y-9010841D02*
X12821901Y-8972746D01*
X12821901Y-8972746D02*
X12812377Y-8925127D01*
X12812377Y-8925127D02*
X12802853Y-8896555D01*
X12802853Y-8896555D02*
X12793329Y-8877508D01*
X12793329Y-8877508D02*
X12774282Y-8848936D01*
X12774282Y-8848936D02*
X12764758Y-8839412D01*
D13*
X7799219Y-9240500D02*
G75*
G03*
X7799219Y-9240500I-5000J0D01*
G01*
D11*
X8098091Y-9131984D02*
X8117138Y-9131984D01*
X8117138Y-9131984D02*
X8136186Y-9141508D01*
X8136186Y-9141508D02*
X8145710Y-9151031D01*
X8145710Y-9151031D02*
X8155234Y-9170079D01*
X8155234Y-9170079D02*
X8164757Y-9208174D01*
X8164757Y-9208174D02*
X8164757Y-9255793D01*
X8164757Y-9255793D02*
X8155234Y-9293889D01*
X8155234Y-9293889D02*
X8145710Y-9312936D01*
X8145710Y-9312936D02*
X8136186Y-9322460D01*
X8136186Y-9322460D02*
X8117138Y-9331984D01*
X8117138Y-9331984D02*
X8098091Y-9331984D01*
X8098091Y-9331984D02*
X8079043Y-9322460D01*
X8079043Y-9322460D02*
X8069519Y-9312936D01*
X8069519Y-9312936D02*
X8059995Y-9293889D01*
X8059995Y-9293889D02*
X8050472Y-9255793D01*
X8050472Y-9255793D02*
X8050472Y-9208174D01*
X8050472Y-9208174D02*
X8059995Y-9170079D01*
X8059995Y-9170079D02*
X8069519Y-9151031D01*
X8069519Y-9151031D02*
X8079043Y-9141508D01*
X8079043Y-9141508D02*
X8098091Y-9131984D01*
X8250472Y-9312936D02*
X8259995Y-9322460D01*
X8259995Y-9322460D02*
X8250472Y-9331984D01*
X8250472Y-9331984D02*
X8240948Y-9322460D01*
X8240948Y-9322460D02*
X8250472Y-9312936D01*
X8250472Y-9312936D02*
X8250472Y-9331984D01*
X8450472Y-9331984D02*
X8336186Y-9331984D01*
X8393329Y-9331984D02*
X8393329Y-9131984D01*
X8393329Y-9131984D02*
X8374281Y-9160555D01*
X8374281Y-9160555D02*
X8355234Y-9179603D01*
X8355234Y-9179603D02*
X8336186Y-9189127D01*
X8574281Y-9131984D02*
X8593329Y-9131984D01*
X8593329Y-9131984D02*
X8612377Y-9141508D01*
X8612377Y-9141508D02*
X8621900Y-9151031D01*
X8621900Y-9151031D02*
X8631424Y-9170079D01*
X8631424Y-9170079D02*
X8640948Y-9208174D01*
X8640948Y-9208174D02*
X8640948Y-9255793D01*
X8640948Y-9255793D02*
X8631424Y-9293889D01*
X8631424Y-9293889D02*
X8621900Y-9312936D01*
X8621900Y-9312936D02*
X8612377Y-9322460D01*
X8612377Y-9322460D02*
X8593329Y-9331984D01*
X8593329Y-9331984D02*
X8574281Y-9331984D01*
X8574281Y-9331984D02*
X8555234Y-9322460D01*
X8555234Y-9322460D02*
X8545710Y-9312936D01*
X8545710Y-9312936D02*
X8536186Y-9293889D01*
X8536186Y-9293889D02*
X8526662Y-9255793D01*
X8526662Y-9255793D02*
X8526662Y-9208174D01*
X8526662Y-9208174D02*
X8536186Y-9170079D01*
X8536186Y-9170079D02*
X8545710Y-9151031D01*
X8545710Y-9151031D02*
X8555234Y-9141508D01*
X8555234Y-9141508D02*
X8574281Y-9131984D01*
X8764757Y-9131984D02*
X8783805Y-9131984D01*
X8783805Y-9131984D02*
X8802853Y-9141508D01*
X8802853Y-9141508D02*
X8812377Y-9151031D01*
X8812377Y-9151031D02*
X8821900Y-9170079D01*
X8821900Y-9170079D02*
X8831424Y-9208174D01*
X8831424Y-9208174D02*
X8831424Y-9255793D01*
X8831424Y-9255793D02*
X8821900Y-9293889D01*
X8821900Y-9293889D02*
X8812377Y-9312936D01*
X8812377Y-9312936D02*
X8802853Y-9322460D01*
X8802853Y-9322460D02*
X8783805Y-9331984D01*
X8783805Y-9331984D02*
X8764757Y-9331984D01*
X8764757Y-9331984D02*
X8745710Y-9322460D01*
X8745710Y-9322460D02*
X8736186Y-9312936D01*
X8736186Y-9312936D02*
X8726662Y-9293889D01*
X8726662Y-9293889D02*
X8717138Y-9255793D01*
X8717138Y-9255793D02*
X8717138Y-9208174D01*
X8717138Y-9208174D02*
X8726662Y-9170079D01*
X8726662Y-9170079D02*
X8736186Y-9151031D01*
X8736186Y-9151031D02*
X8745710Y-9141508D01*
X8745710Y-9141508D02*
X8764757Y-9131984D01*
X8917138Y-9331984D02*
X8917138Y-9198650D01*
X8917138Y-9217698D02*
X8926662Y-9208174D01*
X8926662Y-9208174D02*
X8945710Y-9198650D01*
X8945710Y-9198650D02*
X8974281Y-9198650D01*
X8974281Y-9198650D02*
X8993329Y-9208174D01*
X8993329Y-9208174D02*
X9002853Y-9227222D01*
X9002853Y-9227222D02*
X9002853Y-9331984D01*
X9002853Y-9227222D02*
X9012377Y-9208174D01*
X9012377Y-9208174D02*
X9031424Y-9198650D01*
X9031424Y-9198650D02*
X9059996Y-9198650D01*
X9059996Y-9198650D02*
X9079043Y-9208174D01*
X9079043Y-9208174D02*
X9088567Y-9227222D01*
X9088567Y-9227222D02*
X9088567Y-9331984D01*
X9183805Y-9331984D02*
X9183805Y-9198650D01*
X9183805Y-9217698D02*
X9193329Y-9208174D01*
X9193329Y-9208174D02*
X9212377Y-9198650D01*
X9212377Y-9198650D02*
X9240948Y-9198650D01*
X9240948Y-9198650D02*
X9259996Y-9208174D01*
X9259996Y-9208174D02*
X9269519Y-9227222D01*
X9269519Y-9227222D02*
X9269519Y-9331984D01*
X9269519Y-9227222D02*
X9279043Y-9208174D01*
X9279043Y-9208174D02*
X9298091Y-9198650D01*
X9298091Y-9198650D02*
X9326662Y-9198650D01*
X9326662Y-9198650D02*
X9345710Y-9208174D01*
X9345710Y-9208174D02*
X9355234Y-9227222D01*
X9355234Y-9227222D02*
X9355234Y-9331984D01*
X9745710Y-9122460D02*
X9574281Y-9379603D01*
X10002853Y-9131984D02*
X10021901Y-9131984D01*
X10021901Y-9131984D02*
X10040948Y-9141508D01*
X10040948Y-9141508D02*
X10050472Y-9151031D01*
X10050472Y-9151031D02*
X10059996Y-9170079D01*
X10059996Y-9170079D02*
X10069520Y-9208174D01*
X10069520Y-9208174D02*
X10069520Y-9255793D01*
X10069520Y-9255793D02*
X10059996Y-9293889D01*
X10059996Y-9293889D02*
X10050472Y-9312936D01*
X10050472Y-9312936D02*
X10040948Y-9322460D01*
X10040948Y-9322460D02*
X10021901Y-9331984D01*
X10021901Y-9331984D02*
X10002853Y-9331984D01*
X10002853Y-9331984D02*
X9983805Y-9322460D01*
X9983805Y-9322460D02*
X9974281Y-9312936D01*
X9974281Y-9312936D02*
X9964758Y-9293889D01*
X9964758Y-9293889D02*
X9955234Y-9255793D01*
X9955234Y-9255793D02*
X9955234Y-9208174D01*
X9955234Y-9208174D02*
X9964758Y-9170079D01*
X9964758Y-9170079D02*
X9974281Y-9151031D01*
X9974281Y-9151031D02*
X9983805Y-9141508D01*
X9983805Y-9141508D02*
X10002853Y-9131984D01*
X10155234Y-9312936D02*
X10164758Y-9322460D01*
X10164758Y-9322460D02*
X10155234Y-9331984D01*
X10155234Y-9331984D02*
X10145710Y-9322460D01*
X10145710Y-9322460D02*
X10155234Y-9312936D01*
X10155234Y-9312936D02*
X10155234Y-9331984D01*
X10288567Y-9131984D02*
X10307615Y-9131984D01*
X10307615Y-9131984D02*
X10326662Y-9141508D01*
X10326662Y-9141508D02*
X10336186Y-9151031D01*
X10336186Y-9151031D02*
X10345710Y-9170079D01*
X10345710Y-9170079D02*
X10355234Y-9208174D01*
X10355234Y-9208174D02*
X10355234Y-9255793D01*
X10355234Y-9255793D02*
X10345710Y-9293889D01*
X10345710Y-9293889D02*
X10336186Y-9312936D01*
X10336186Y-9312936D02*
X10326662Y-9322460D01*
X10326662Y-9322460D02*
X10307615Y-9331984D01*
X10307615Y-9331984D02*
X10288567Y-9331984D01*
X10288567Y-9331984D02*
X10269520Y-9322460D01*
X10269520Y-9322460D02*
X10259996Y-9312936D01*
X10259996Y-9312936D02*
X10250472Y-9293889D01*
X10250472Y-9293889D02*
X10240948Y-9255793D01*
X10240948Y-9255793D02*
X10240948Y-9208174D01*
X10240948Y-9208174D02*
X10250472Y-9170079D01*
X10250472Y-9170079D02*
X10259996Y-9151031D01*
X10259996Y-9151031D02*
X10269520Y-9141508D01*
X10269520Y-9141508D02*
X10288567Y-9131984D01*
X10479043Y-9131984D02*
X10498091Y-9131984D01*
X10498091Y-9131984D02*
X10517139Y-9141508D01*
X10517139Y-9141508D02*
X10526662Y-9151031D01*
X10526662Y-9151031D02*
X10536186Y-9170079D01*
X10536186Y-9170079D02*
X10545710Y-9208174D01*
X10545710Y-9208174D02*
X10545710Y-9255793D01*
X10545710Y-9255793D02*
X10536186Y-9293889D01*
X10536186Y-9293889D02*
X10526662Y-9312936D01*
X10526662Y-9312936D02*
X10517139Y-9322460D01*
X10517139Y-9322460D02*
X10498091Y-9331984D01*
X10498091Y-9331984D02*
X10479043Y-9331984D01*
X10479043Y-9331984D02*
X10459996Y-9322460D01*
X10459996Y-9322460D02*
X10450472Y-9312936D01*
X10450472Y-9312936D02*
X10440948Y-9293889D01*
X10440948Y-9293889D02*
X10431424Y-9255793D01*
X10431424Y-9255793D02*
X10431424Y-9208174D01*
X10431424Y-9208174D02*
X10440948Y-9170079D01*
X10440948Y-9170079D02*
X10450472Y-9151031D01*
X10450472Y-9151031D02*
X10459996Y-9141508D01*
X10459996Y-9141508D02*
X10479043Y-9131984D01*
X10612377Y-9131984D02*
X10736186Y-9131984D01*
X10736186Y-9131984D02*
X10669520Y-9208174D01*
X10669520Y-9208174D02*
X10698091Y-9208174D01*
X10698091Y-9208174D02*
X10717139Y-9217698D01*
X10717139Y-9217698D02*
X10726662Y-9227222D01*
X10726662Y-9227222D02*
X10736186Y-9246270D01*
X10736186Y-9246270D02*
X10736186Y-9293889D01*
X10736186Y-9293889D02*
X10726662Y-9312936D01*
X10726662Y-9312936D02*
X10717139Y-9322460D01*
X10717139Y-9322460D02*
X10698091Y-9331984D01*
X10698091Y-9331984D02*
X10640948Y-9331984D01*
X10640948Y-9331984D02*
X10621901Y-9322460D01*
X10621901Y-9322460D02*
X10612377Y-9312936D01*
X10831424Y-9331984D02*
X10869520Y-9331984D01*
X10869520Y-9331984D02*
X10888567Y-9322460D01*
X10888567Y-9322460D02*
X10898091Y-9312936D01*
X10898091Y-9312936D02*
X10917139Y-9284365D01*
X10917139Y-9284365D02*
X10926662Y-9246270D01*
X10926662Y-9246270D02*
X10926662Y-9170079D01*
X10926662Y-9170079D02*
X10917139Y-9151031D01*
X10917139Y-9151031D02*
X10907615Y-9141508D01*
X10907615Y-9141508D02*
X10888567Y-9131984D01*
X10888567Y-9131984D02*
X10850472Y-9131984D01*
X10850472Y-9131984D02*
X10831424Y-9141508D01*
X10831424Y-9141508D02*
X10821901Y-9151031D01*
X10821901Y-9151031D02*
X10812377Y-9170079D01*
X10812377Y-9170079D02*
X10812377Y-9217698D01*
X10812377Y-9217698D02*
X10821901Y-9236746D01*
X10821901Y-9236746D02*
X10831424Y-9246270D01*
X10831424Y-9246270D02*
X10850472Y-9255793D01*
X10850472Y-9255793D02*
X10888567Y-9255793D01*
X10888567Y-9255793D02*
X10907615Y-9246270D01*
X10907615Y-9246270D02*
X10917139Y-9236746D01*
X10917139Y-9236746D02*
X10926662Y-9217698D01*
X11002853Y-9131984D02*
X11002853Y-9170079D01*
X11079043Y-9131984D02*
X11079043Y-9170079D01*
X11374282Y-9408174D02*
X11364758Y-9398650D01*
X11364758Y-9398650D02*
X11345710Y-9370079D01*
X11345710Y-9370079D02*
X11336186Y-9351031D01*
X11336186Y-9351031D02*
X11326662Y-9322460D01*
X11326662Y-9322460D02*
X11317139Y-9274841D01*
X11317139Y-9274841D02*
X11317139Y-9236746D01*
X11317139Y-9236746D02*
X11326662Y-9189127D01*
X11326662Y-9189127D02*
X11336186Y-9160555D01*
X11336186Y-9160555D02*
X11345710Y-9141508D01*
X11345710Y-9141508D02*
X11364758Y-9112936D01*
X11364758Y-9112936D02*
X11374282Y-9103412D01*
X11555234Y-9331984D02*
X11440948Y-9331984D01*
X11498091Y-9331984D02*
X11498091Y-9131984D01*
X11498091Y-9131984D02*
X11479043Y-9160555D01*
X11479043Y-9160555D02*
X11459996Y-9179603D01*
X11459996Y-9179603D02*
X11440948Y-9189127D01*
X11679043Y-9131984D02*
X11698091Y-9131984D01*
X11698091Y-9131984D02*
X11717139Y-9141508D01*
X11717139Y-9141508D02*
X11726662Y-9151031D01*
X11726662Y-9151031D02*
X11736186Y-9170079D01*
X11736186Y-9170079D02*
X11745710Y-9208174D01*
X11745710Y-9208174D02*
X11745710Y-9255793D01*
X11745710Y-9255793D02*
X11736186Y-9293889D01*
X11736186Y-9293889D02*
X11726662Y-9312936D01*
X11726662Y-9312936D02*
X11717139Y-9322460D01*
X11717139Y-9322460D02*
X11698091Y-9331984D01*
X11698091Y-9331984D02*
X11679043Y-9331984D01*
X11679043Y-9331984D02*
X11659996Y-9322460D01*
X11659996Y-9322460D02*
X11650472Y-9312936D01*
X11650472Y-9312936D02*
X11640948Y-9293889D01*
X11640948Y-9293889D02*
X11631424Y-9255793D01*
X11631424Y-9255793D02*
X11631424Y-9208174D01*
X11631424Y-9208174D02*
X11640948Y-9170079D01*
X11640948Y-9170079D02*
X11650472Y-9151031D01*
X11650472Y-9151031D02*
X11659996Y-9141508D01*
X11659996Y-9141508D02*
X11679043Y-9131984D01*
X11812377Y-9131984D02*
X11936186Y-9131984D01*
X11936186Y-9131984D02*
X11869520Y-9208174D01*
X11869520Y-9208174D02*
X11898091Y-9208174D01*
X11898091Y-9208174D02*
X11917139Y-9217698D01*
X11917139Y-9217698D02*
X11926662Y-9227222D01*
X11926662Y-9227222D02*
X11936186Y-9246270D01*
X11936186Y-9246270D02*
X11936186Y-9293889D01*
X11936186Y-9293889D02*
X11926662Y-9312936D01*
X11926662Y-9312936D02*
X11917139Y-9322460D01*
X11917139Y-9322460D02*
X11898091Y-9331984D01*
X11898091Y-9331984D02*
X11840948Y-9331984D01*
X11840948Y-9331984D02*
X11821901Y-9322460D01*
X11821901Y-9322460D02*
X11812377Y-9312936D01*
X12174282Y-9331984D02*
X12174282Y-9131984D01*
X12259996Y-9331984D02*
X12259996Y-9227222D01*
X12259996Y-9227222D02*
X12250472Y-9208174D01*
X12250472Y-9208174D02*
X12231424Y-9198650D01*
X12231424Y-9198650D02*
X12202853Y-9198650D01*
X12202853Y-9198650D02*
X12183805Y-9208174D01*
X12183805Y-9208174D02*
X12174282Y-9217698D01*
X12383805Y-9331984D02*
X12364758Y-9322460D01*
X12364758Y-9322460D02*
X12355234Y-9312936D01*
X12355234Y-9312936D02*
X12345710Y-9293889D01*
X12345710Y-9293889D02*
X12345710Y-9236746D01*
X12345710Y-9236746D02*
X12355234Y-9217698D01*
X12355234Y-9217698D02*
X12364758Y-9208174D01*
X12364758Y-9208174D02*
X12383805Y-9198650D01*
X12383805Y-9198650D02*
X12412377Y-9198650D01*
X12412377Y-9198650D02*
X12431424Y-9208174D01*
X12431424Y-9208174D02*
X12440948Y-9217698D01*
X12440948Y-9217698D02*
X12450472Y-9236746D01*
X12450472Y-9236746D02*
X12450472Y-9293889D01*
X12450472Y-9293889D02*
X12440948Y-9312936D01*
X12440948Y-9312936D02*
X12431424Y-9322460D01*
X12431424Y-9322460D02*
X12412377Y-9331984D01*
X12412377Y-9331984D02*
X12383805Y-9331984D01*
X12564758Y-9331984D02*
X12545710Y-9322460D01*
X12545710Y-9322460D02*
X12536186Y-9303412D01*
X12536186Y-9303412D02*
X12536186Y-9131984D01*
X12717139Y-9322460D02*
X12698091Y-9331984D01*
X12698091Y-9331984D02*
X12659996Y-9331984D01*
X12659996Y-9331984D02*
X12640948Y-9322460D01*
X12640948Y-9322460D02*
X12631424Y-9303412D01*
X12631424Y-9303412D02*
X12631424Y-9227222D01*
X12631424Y-9227222D02*
X12640948Y-9208174D01*
X12640948Y-9208174D02*
X12659996Y-9198650D01*
X12659996Y-9198650D02*
X12698091Y-9198650D01*
X12698091Y-9198650D02*
X12717139Y-9208174D01*
X12717139Y-9208174D02*
X12726663Y-9227222D01*
X12726663Y-9227222D02*
X12726663Y-9246270D01*
X12726663Y-9246270D02*
X12631424Y-9265317D01*
X12802853Y-9322460D02*
X12821901Y-9331984D01*
X12821901Y-9331984D02*
X12859996Y-9331984D01*
X12859996Y-9331984D02*
X12879044Y-9322460D01*
X12879044Y-9322460D02*
X12888567Y-9303412D01*
X12888567Y-9303412D02*
X12888567Y-9293889D01*
X12888567Y-9293889D02*
X12879044Y-9274841D01*
X12879044Y-9274841D02*
X12859996Y-9265317D01*
X12859996Y-9265317D02*
X12831424Y-9265317D01*
X12831424Y-9265317D02*
X12812377Y-9255793D01*
X12812377Y-9255793D02*
X12802853Y-9236746D01*
X12802853Y-9236746D02*
X12802853Y-9227222D01*
X12802853Y-9227222D02*
X12812377Y-9208174D01*
X12812377Y-9208174D02*
X12831424Y-9198650D01*
X12831424Y-9198650D02*
X12859996Y-9198650D01*
X12859996Y-9198650D02*
X12879044Y-9208174D01*
X12955234Y-9408174D02*
X12964758Y-9398650D01*
X12964758Y-9398650D02*
X12983805Y-9370079D01*
X12983805Y-9370079D02*
X12993329Y-9351031D01*
X12993329Y-9351031D02*
X13002853Y-9322460D01*
X13002853Y-9322460D02*
X13012377Y-9274841D01*
X13012377Y-9274841D02*
X13012377Y-9236746D01*
X13012377Y-9236746D02*
X13002853Y-9189127D01*
X13002853Y-9189127D02*
X12993329Y-9160555D01*
X12993329Y-9160555D02*
X12983805Y-9141508D01*
X12983805Y-9141508D02*
X12964758Y-9112936D01*
X12964758Y-9112936D02*
X12955234Y-9103412D01*
D14*
X7793469Y-9498750D02*
X7793469Y-9510250D01*
X7787719Y-9504500D02*
X7799219Y-9504500D01*
D11*
X8098091Y-9395984D02*
X8117138Y-9395984D01*
X8117138Y-9395984D02*
X8136186Y-9405508D01*
X8136186Y-9405508D02*
X8145710Y-9415031D01*
X8145710Y-9415031D02*
X8155234Y-9434079D01*
X8155234Y-9434079D02*
X8164757Y-9472174D01*
X8164757Y-9472174D02*
X8164757Y-9519793D01*
X8164757Y-9519793D02*
X8155234Y-9557889D01*
X8155234Y-9557889D02*
X8145710Y-9576936D01*
X8145710Y-9576936D02*
X8136186Y-9586460D01*
X8136186Y-9586460D02*
X8117138Y-9595984D01*
X8117138Y-9595984D02*
X8098091Y-9595984D01*
X8098091Y-9595984D02*
X8079043Y-9586460D01*
X8079043Y-9586460D02*
X8069519Y-9576936D01*
X8069519Y-9576936D02*
X8059995Y-9557889D01*
X8059995Y-9557889D02*
X8050472Y-9519793D01*
X8050472Y-9519793D02*
X8050472Y-9472174D01*
X8050472Y-9472174D02*
X8059995Y-9434079D01*
X8059995Y-9434079D02*
X8069519Y-9415031D01*
X8069519Y-9415031D02*
X8079043Y-9405508D01*
X8079043Y-9405508D02*
X8098091Y-9395984D01*
X8250472Y-9576936D02*
X8259995Y-9586460D01*
X8259995Y-9586460D02*
X8250472Y-9595984D01*
X8250472Y-9595984D02*
X8240948Y-9586460D01*
X8240948Y-9586460D02*
X8250472Y-9576936D01*
X8250472Y-9576936D02*
X8250472Y-9595984D01*
X8450472Y-9595984D02*
X8336186Y-9595984D01*
X8393329Y-9595984D02*
X8393329Y-9395984D01*
X8393329Y-9395984D02*
X8374281Y-9424555D01*
X8374281Y-9424555D02*
X8355234Y-9443603D01*
X8355234Y-9443603D02*
X8336186Y-9453127D01*
X8640948Y-9595984D02*
X8526662Y-9595984D01*
X8583805Y-9595984D02*
X8583805Y-9395984D01*
X8583805Y-9395984D02*
X8564757Y-9424555D01*
X8564757Y-9424555D02*
X8545710Y-9443603D01*
X8545710Y-9443603D02*
X8526662Y-9453127D01*
X8821900Y-9395984D02*
X8726662Y-9395984D01*
X8726662Y-9395984D02*
X8717138Y-9491222D01*
X8717138Y-9491222D02*
X8726662Y-9481698D01*
X8726662Y-9481698D02*
X8745710Y-9472174D01*
X8745710Y-9472174D02*
X8793329Y-9472174D01*
X8793329Y-9472174D02*
X8812377Y-9481698D01*
X8812377Y-9481698D02*
X8821900Y-9491222D01*
X8821900Y-9491222D02*
X8831424Y-9510270D01*
X8831424Y-9510270D02*
X8831424Y-9557889D01*
X8831424Y-9557889D02*
X8821900Y-9576936D01*
X8821900Y-9576936D02*
X8812377Y-9586460D01*
X8812377Y-9586460D02*
X8793329Y-9595984D01*
X8793329Y-9595984D02*
X8745710Y-9595984D01*
X8745710Y-9595984D02*
X8726662Y-9586460D01*
X8726662Y-9586460D02*
X8717138Y-9576936D01*
X8917138Y-9595984D02*
X8917138Y-9462650D01*
X8917138Y-9481698D02*
X8926662Y-9472174D01*
X8926662Y-9472174D02*
X8945710Y-9462650D01*
X8945710Y-9462650D02*
X8974281Y-9462650D01*
X8974281Y-9462650D02*
X8993329Y-9472174D01*
X8993329Y-9472174D02*
X9002853Y-9491222D01*
X9002853Y-9491222D02*
X9002853Y-9595984D01*
X9002853Y-9491222D02*
X9012377Y-9472174D01*
X9012377Y-9472174D02*
X9031424Y-9462650D01*
X9031424Y-9462650D02*
X9059996Y-9462650D01*
X9059996Y-9462650D02*
X9079043Y-9472174D01*
X9079043Y-9472174D02*
X9088567Y-9491222D01*
X9088567Y-9491222D02*
X9088567Y-9595984D01*
X9183805Y-9595984D02*
X9183805Y-9462650D01*
X9183805Y-9481698D02*
X9193329Y-9472174D01*
X9193329Y-9472174D02*
X9212377Y-9462650D01*
X9212377Y-9462650D02*
X9240948Y-9462650D01*
X9240948Y-9462650D02*
X9259996Y-9472174D01*
X9259996Y-9472174D02*
X9269519Y-9491222D01*
X9269519Y-9491222D02*
X9269519Y-9595984D01*
X9269519Y-9491222D02*
X9279043Y-9472174D01*
X9279043Y-9472174D02*
X9298091Y-9462650D01*
X9298091Y-9462650D02*
X9326662Y-9462650D01*
X9326662Y-9462650D02*
X9345710Y-9472174D01*
X9345710Y-9472174D02*
X9355234Y-9491222D01*
X9355234Y-9491222D02*
X9355234Y-9595984D01*
X9745710Y-9386460D02*
X9574281Y-9643603D01*
X10002853Y-9395984D02*
X10021901Y-9395984D01*
X10021901Y-9395984D02*
X10040948Y-9405508D01*
X10040948Y-9405508D02*
X10050472Y-9415031D01*
X10050472Y-9415031D02*
X10059996Y-9434079D01*
X10059996Y-9434079D02*
X10069520Y-9472174D01*
X10069520Y-9472174D02*
X10069520Y-9519793D01*
X10069520Y-9519793D02*
X10059996Y-9557889D01*
X10059996Y-9557889D02*
X10050472Y-9576936D01*
X10050472Y-9576936D02*
X10040948Y-9586460D01*
X10040948Y-9586460D02*
X10021901Y-9595984D01*
X10021901Y-9595984D02*
X10002853Y-9595984D01*
X10002853Y-9595984D02*
X9983805Y-9586460D01*
X9983805Y-9586460D02*
X9974281Y-9576936D01*
X9974281Y-9576936D02*
X9964758Y-9557889D01*
X9964758Y-9557889D02*
X9955234Y-9519793D01*
X9955234Y-9519793D02*
X9955234Y-9472174D01*
X9955234Y-9472174D02*
X9964758Y-9434079D01*
X9964758Y-9434079D02*
X9974281Y-9415031D01*
X9974281Y-9415031D02*
X9983805Y-9405508D01*
X9983805Y-9405508D02*
X10002853Y-9395984D01*
X10155234Y-9576936D02*
X10164758Y-9586460D01*
X10164758Y-9586460D02*
X10155234Y-9595984D01*
X10155234Y-9595984D02*
X10145710Y-9586460D01*
X10145710Y-9586460D02*
X10155234Y-9576936D01*
X10155234Y-9576936D02*
X10155234Y-9595984D01*
X10288567Y-9395984D02*
X10307615Y-9395984D01*
X10307615Y-9395984D02*
X10326662Y-9405508D01*
X10326662Y-9405508D02*
X10336186Y-9415031D01*
X10336186Y-9415031D02*
X10345710Y-9434079D01*
X10345710Y-9434079D02*
X10355234Y-9472174D01*
X10355234Y-9472174D02*
X10355234Y-9519793D01*
X10355234Y-9519793D02*
X10345710Y-9557889D01*
X10345710Y-9557889D02*
X10336186Y-9576936D01*
X10336186Y-9576936D02*
X10326662Y-9586460D01*
X10326662Y-9586460D02*
X10307615Y-9595984D01*
X10307615Y-9595984D02*
X10288567Y-9595984D01*
X10288567Y-9595984D02*
X10269520Y-9586460D01*
X10269520Y-9586460D02*
X10259996Y-9576936D01*
X10259996Y-9576936D02*
X10250472Y-9557889D01*
X10250472Y-9557889D02*
X10240948Y-9519793D01*
X10240948Y-9519793D02*
X10240948Y-9472174D01*
X10240948Y-9472174D02*
X10250472Y-9434079D01*
X10250472Y-9434079D02*
X10259996Y-9415031D01*
X10259996Y-9415031D02*
X10269520Y-9405508D01*
X10269520Y-9405508D02*
X10288567Y-9395984D01*
X10479043Y-9395984D02*
X10498091Y-9395984D01*
X10498091Y-9395984D02*
X10517139Y-9405508D01*
X10517139Y-9405508D02*
X10526662Y-9415031D01*
X10526662Y-9415031D02*
X10536186Y-9434079D01*
X10536186Y-9434079D02*
X10545710Y-9472174D01*
X10545710Y-9472174D02*
X10545710Y-9519793D01*
X10545710Y-9519793D02*
X10536186Y-9557889D01*
X10536186Y-9557889D02*
X10526662Y-9576936D01*
X10526662Y-9576936D02*
X10517139Y-9586460D01*
X10517139Y-9586460D02*
X10498091Y-9595984D01*
X10498091Y-9595984D02*
X10479043Y-9595984D01*
X10479043Y-9595984D02*
X10459996Y-9586460D01*
X10459996Y-9586460D02*
X10450472Y-9576936D01*
X10450472Y-9576936D02*
X10440948Y-9557889D01*
X10440948Y-9557889D02*
X10431424Y-9519793D01*
X10431424Y-9519793D02*
X10431424Y-9472174D01*
X10431424Y-9472174D02*
X10440948Y-9434079D01*
X10440948Y-9434079D02*
X10450472Y-9415031D01*
X10450472Y-9415031D02*
X10459996Y-9405508D01*
X10459996Y-9405508D02*
X10479043Y-9395984D01*
X10717139Y-9462650D02*
X10717139Y-9595984D01*
X10669520Y-9386460D02*
X10621901Y-9529317D01*
X10621901Y-9529317D02*
X10745710Y-9529317D01*
X10917139Y-9395984D02*
X10821901Y-9395984D01*
X10821901Y-9395984D02*
X10812377Y-9491222D01*
X10812377Y-9491222D02*
X10821901Y-9481698D01*
X10821901Y-9481698D02*
X10840948Y-9472174D01*
X10840948Y-9472174D02*
X10888567Y-9472174D01*
X10888567Y-9472174D02*
X10907615Y-9481698D01*
X10907615Y-9481698D02*
X10917139Y-9491222D01*
X10917139Y-9491222D02*
X10926662Y-9510270D01*
X10926662Y-9510270D02*
X10926662Y-9557889D01*
X10926662Y-9557889D02*
X10917139Y-9576936D01*
X10917139Y-9576936D02*
X10907615Y-9586460D01*
X10907615Y-9586460D02*
X10888567Y-9595984D01*
X10888567Y-9595984D02*
X10840948Y-9595984D01*
X10840948Y-9595984D02*
X10821901Y-9586460D01*
X10821901Y-9586460D02*
X10812377Y-9576936D01*
X11002853Y-9395984D02*
X11002853Y-9434079D01*
X11079043Y-9395984D02*
X11079043Y-9434079D01*
X11374282Y-9672174D02*
X11364758Y-9662650D01*
X11364758Y-9662650D02*
X11345710Y-9634079D01*
X11345710Y-9634079D02*
X11336186Y-9615031D01*
X11336186Y-9615031D02*
X11326662Y-9586460D01*
X11326662Y-9586460D02*
X11317139Y-9538841D01*
X11317139Y-9538841D02*
X11317139Y-9500746D01*
X11317139Y-9500746D02*
X11326662Y-9453127D01*
X11326662Y-9453127D02*
X11336186Y-9424555D01*
X11336186Y-9424555D02*
X11345710Y-9405508D01*
X11345710Y-9405508D02*
X11364758Y-9376936D01*
X11364758Y-9376936D02*
X11374282Y-9367412D01*
X11545710Y-9395984D02*
X11450472Y-9395984D01*
X11450472Y-9395984D02*
X11440948Y-9491222D01*
X11440948Y-9491222D02*
X11450472Y-9481698D01*
X11450472Y-9481698D02*
X11469520Y-9472174D01*
X11469520Y-9472174D02*
X11517139Y-9472174D01*
X11517139Y-9472174D02*
X11536186Y-9481698D01*
X11536186Y-9481698D02*
X11545710Y-9491222D01*
X11545710Y-9491222D02*
X11555234Y-9510270D01*
X11555234Y-9510270D02*
X11555234Y-9557889D01*
X11555234Y-9557889D02*
X11545710Y-9576936D01*
X11545710Y-9576936D02*
X11536186Y-9586460D01*
X11536186Y-9586460D02*
X11517139Y-9595984D01*
X11517139Y-9595984D02*
X11469520Y-9595984D01*
X11469520Y-9595984D02*
X11450472Y-9586460D01*
X11450472Y-9586460D02*
X11440948Y-9576936D01*
X11726662Y-9462650D02*
X11726662Y-9595984D01*
X11679043Y-9386460D02*
X11631424Y-9529317D01*
X11631424Y-9529317D02*
X11755234Y-9529317D01*
X11983805Y-9595984D02*
X11983805Y-9395984D01*
X12069520Y-9595984D02*
X12069520Y-9491222D01*
X12069520Y-9491222D02*
X12059996Y-9472174D01*
X12059996Y-9472174D02*
X12040948Y-9462650D01*
X12040948Y-9462650D02*
X12012377Y-9462650D01*
X12012377Y-9462650D02*
X11993329Y-9472174D01*
X11993329Y-9472174D02*
X11983805Y-9481698D01*
X12193329Y-9595984D02*
X12174282Y-9586460D01*
X12174282Y-9586460D02*
X12164758Y-9576936D01*
X12164758Y-9576936D02*
X12155234Y-9557889D01*
X12155234Y-9557889D02*
X12155234Y-9500746D01*
X12155234Y-9500746D02*
X12164758Y-9481698D01*
X12164758Y-9481698D02*
X12174282Y-9472174D01*
X12174282Y-9472174D02*
X12193329Y-9462650D01*
X12193329Y-9462650D02*
X12221901Y-9462650D01*
X12221901Y-9462650D02*
X12240948Y-9472174D01*
X12240948Y-9472174D02*
X12250472Y-9481698D01*
X12250472Y-9481698D02*
X12259996Y-9500746D01*
X12259996Y-9500746D02*
X12259996Y-9557889D01*
X12259996Y-9557889D02*
X12250472Y-9576936D01*
X12250472Y-9576936D02*
X12240948Y-9586460D01*
X12240948Y-9586460D02*
X12221901Y-9595984D01*
X12221901Y-9595984D02*
X12193329Y-9595984D01*
X12374282Y-9595984D02*
X12355234Y-9586460D01*
X12355234Y-9586460D02*
X12345710Y-9567412D01*
X12345710Y-9567412D02*
X12345710Y-9395984D01*
X12526663Y-9586460D02*
X12507615Y-9595984D01*
X12507615Y-9595984D02*
X12469520Y-9595984D01*
X12469520Y-9595984D02*
X12450472Y-9586460D01*
X12450472Y-9586460D02*
X12440948Y-9567412D01*
X12440948Y-9567412D02*
X12440948Y-9491222D01*
X12440948Y-9491222D02*
X12450472Y-9472174D01*
X12450472Y-9472174D02*
X12469520Y-9462650D01*
X12469520Y-9462650D02*
X12507615Y-9462650D01*
X12507615Y-9462650D02*
X12526663Y-9472174D01*
X12526663Y-9472174D02*
X12536186Y-9491222D01*
X12536186Y-9491222D02*
X12536186Y-9510270D01*
X12536186Y-9510270D02*
X12440948Y-9529317D01*
X12612377Y-9586460D02*
X12631424Y-9595984D01*
X12631424Y-9595984D02*
X12669520Y-9595984D01*
X12669520Y-9595984D02*
X12688567Y-9586460D01*
X12688567Y-9586460D02*
X12698091Y-9567412D01*
X12698091Y-9567412D02*
X12698091Y-9557889D01*
X12698091Y-9557889D02*
X12688567Y-9538841D01*
X12688567Y-9538841D02*
X12669520Y-9529317D01*
X12669520Y-9529317D02*
X12640948Y-9529317D01*
X12640948Y-9529317D02*
X12621901Y-9519793D01*
X12621901Y-9519793D02*
X12612377Y-9500746D01*
X12612377Y-9500746D02*
X12612377Y-9491222D01*
X12612377Y-9491222D02*
X12621901Y-9472174D01*
X12621901Y-9472174D02*
X12640948Y-9462650D01*
X12640948Y-9462650D02*
X12669520Y-9462650D01*
X12669520Y-9462650D02*
X12688567Y-9472174D01*
X12764758Y-9672174D02*
X12774282Y-9662650D01*
X12774282Y-9662650D02*
X12793329Y-9634079D01*
X12793329Y-9634079D02*
X12802853Y-9615031D01*
X12802853Y-9615031D02*
X12812377Y-9586460D01*
X12812377Y-9586460D02*
X12821901Y-9538841D01*
X12821901Y-9538841D02*
X12821901Y-9500746D01*
X12821901Y-9500746D02*
X12812377Y-9453127D01*
X12812377Y-9453127D02*
X12802853Y-9424555D01*
X12802853Y-9424555D02*
X12793329Y-9405508D01*
X12793329Y-9405508D02*
X12774282Y-9376936D01*
X12774282Y-9376936D02*
X12764758Y-9367412D01*
D15*
X7796290Y-9775571D02*
X7796290Y-9761429D01*
X7782148Y-9761429D01*
X7782148Y-9775571D01*
X7796290Y-9775571D01*
D11*
X8098091Y-9659984D02*
X8117138Y-9659984D01*
X8117138Y-9659984D02*
X8136186Y-9669508D01*
X8136186Y-9669508D02*
X8145710Y-9679031D01*
X8145710Y-9679031D02*
X8155234Y-9698079D01*
X8155234Y-9698079D02*
X8164757Y-9736174D01*
X8164757Y-9736174D02*
X8164757Y-9783793D01*
X8164757Y-9783793D02*
X8155234Y-9821889D01*
X8155234Y-9821889D02*
X8145710Y-9840936D01*
X8145710Y-9840936D02*
X8136186Y-9850460D01*
X8136186Y-9850460D02*
X8117138Y-9859984D01*
X8117138Y-9859984D02*
X8098091Y-9859984D01*
X8098091Y-9859984D02*
X8079043Y-9850460D01*
X8079043Y-9850460D02*
X8069519Y-9840936D01*
X8069519Y-9840936D02*
X8059995Y-9821889D01*
X8059995Y-9821889D02*
X8050472Y-9783793D01*
X8050472Y-9783793D02*
X8050472Y-9736174D01*
X8050472Y-9736174D02*
X8059995Y-9698079D01*
X8059995Y-9698079D02*
X8069519Y-9679031D01*
X8069519Y-9679031D02*
X8079043Y-9669508D01*
X8079043Y-9669508D02*
X8098091Y-9659984D01*
X8250472Y-9840936D02*
X8259995Y-9850460D01*
X8259995Y-9850460D02*
X8250472Y-9859984D01*
X8250472Y-9859984D02*
X8240948Y-9850460D01*
X8240948Y-9850460D02*
X8250472Y-9840936D01*
X8250472Y-9840936D02*
X8250472Y-9859984D01*
X8336186Y-9679031D02*
X8345710Y-9669508D01*
X8345710Y-9669508D02*
X8364757Y-9659984D01*
X8364757Y-9659984D02*
X8412377Y-9659984D01*
X8412377Y-9659984D02*
X8431424Y-9669508D01*
X8431424Y-9669508D02*
X8440948Y-9679031D01*
X8440948Y-9679031D02*
X8450472Y-9698079D01*
X8450472Y-9698079D02*
X8450472Y-9717127D01*
X8450472Y-9717127D02*
X8440948Y-9745698D01*
X8440948Y-9745698D02*
X8326662Y-9859984D01*
X8326662Y-9859984D02*
X8450472Y-9859984D01*
X8574281Y-9659984D02*
X8593329Y-9659984D01*
X8593329Y-9659984D02*
X8612377Y-9669508D01*
X8612377Y-9669508D02*
X8621900Y-9679031D01*
X8621900Y-9679031D02*
X8631424Y-9698079D01*
X8631424Y-9698079D02*
X8640948Y-9736174D01*
X8640948Y-9736174D02*
X8640948Y-9783793D01*
X8640948Y-9783793D02*
X8631424Y-9821889D01*
X8631424Y-9821889D02*
X8621900Y-9840936D01*
X8621900Y-9840936D02*
X8612377Y-9850460D01*
X8612377Y-9850460D02*
X8593329Y-9859984D01*
X8593329Y-9859984D02*
X8574281Y-9859984D01*
X8574281Y-9859984D02*
X8555234Y-9850460D01*
X8555234Y-9850460D02*
X8545710Y-9840936D01*
X8545710Y-9840936D02*
X8536186Y-9821889D01*
X8536186Y-9821889D02*
X8526662Y-9783793D01*
X8526662Y-9783793D02*
X8526662Y-9736174D01*
X8526662Y-9736174D02*
X8536186Y-9698079D01*
X8536186Y-9698079D02*
X8545710Y-9679031D01*
X8545710Y-9679031D02*
X8555234Y-9669508D01*
X8555234Y-9669508D02*
X8574281Y-9659984D01*
X8764757Y-9659984D02*
X8783805Y-9659984D01*
X8783805Y-9659984D02*
X8802853Y-9669508D01*
X8802853Y-9669508D02*
X8812377Y-9679031D01*
X8812377Y-9679031D02*
X8821900Y-9698079D01*
X8821900Y-9698079D02*
X8831424Y-9736174D01*
X8831424Y-9736174D02*
X8831424Y-9783793D01*
X8831424Y-9783793D02*
X8821900Y-9821889D01*
X8821900Y-9821889D02*
X8812377Y-9840936D01*
X8812377Y-9840936D02*
X8802853Y-9850460D01*
X8802853Y-9850460D02*
X8783805Y-9859984D01*
X8783805Y-9859984D02*
X8764757Y-9859984D01*
X8764757Y-9859984D02*
X8745710Y-9850460D01*
X8745710Y-9850460D02*
X8736186Y-9840936D01*
X8736186Y-9840936D02*
X8726662Y-9821889D01*
X8726662Y-9821889D02*
X8717138Y-9783793D01*
X8717138Y-9783793D02*
X8717138Y-9736174D01*
X8717138Y-9736174D02*
X8726662Y-9698079D01*
X8726662Y-9698079D02*
X8736186Y-9679031D01*
X8736186Y-9679031D02*
X8745710Y-9669508D01*
X8745710Y-9669508D02*
X8764757Y-9659984D01*
X8917138Y-9859984D02*
X8917138Y-9726650D01*
X8917138Y-9745698D02*
X8926662Y-9736174D01*
X8926662Y-9736174D02*
X8945710Y-9726650D01*
X8945710Y-9726650D02*
X8974281Y-9726650D01*
X8974281Y-9726650D02*
X8993329Y-9736174D01*
X8993329Y-9736174D02*
X9002853Y-9755222D01*
X9002853Y-9755222D02*
X9002853Y-9859984D01*
X9002853Y-9755222D02*
X9012377Y-9736174D01*
X9012377Y-9736174D02*
X9031424Y-9726650D01*
X9031424Y-9726650D02*
X9059996Y-9726650D01*
X9059996Y-9726650D02*
X9079043Y-9736174D01*
X9079043Y-9736174D02*
X9088567Y-9755222D01*
X9088567Y-9755222D02*
X9088567Y-9859984D01*
X9183805Y-9859984D02*
X9183805Y-9726650D01*
X9183805Y-9745698D02*
X9193329Y-9736174D01*
X9193329Y-9736174D02*
X9212377Y-9726650D01*
X9212377Y-9726650D02*
X9240948Y-9726650D01*
X9240948Y-9726650D02*
X9259996Y-9736174D01*
X9259996Y-9736174D02*
X9269519Y-9755222D01*
X9269519Y-9755222D02*
X9269519Y-9859984D01*
X9269519Y-9755222D02*
X9279043Y-9736174D01*
X9279043Y-9736174D02*
X9298091Y-9726650D01*
X9298091Y-9726650D02*
X9326662Y-9726650D01*
X9326662Y-9726650D02*
X9345710Y-9736174D01*
X9345710Y-9736174D02*
X9355234Y-9755222D01*
X9355234Y-9755222D02*
X9355234Y-9859984D01*
X9745710Y-9650460D02*
X9574281Y-9907603D01*
X10002853Y-9659984D02*
X10021901Y-9659984D01*
X10021901Y-9659984D02*
X10040948Y-9669508D01*
X10040948Y-9669508D02*
X10050472Y-9679031D01*
X10050472Y-9679031D02*
X10059996Y-9698079D01*
X10059996Y-9698079D02*
X10069520Y-9736174D01*
X10069520Y-9736174D02*
X10069520Y-9783793D01*
X10069520Y-9783793D02*
X10059996Y-9821889D01*
X10059996Y-9821889D02*
X10050472Y-9840936D01*
X10050472Y-9840936D02*
X10040948Y-9850460D01*
X10040948Y-9850460D02*
X10021901Y-9859984D01*
X10021901Y-9859984D02*
X10002853Y-9859984D01*
X10002853Y-9859984D02*
X9983805Y-9850460D01*
X9983805Y-9850460D02*
X9974281Y-9840936D01*
X9974281Y-9840936D02*
X9964758Y-9821889D01*
X9964758Y-9821889D02*
X9955234Y-9783793D01*
X9955234Y-9783793D02*
X9955234Y-9736174D01*
X9955234Y-9736174D02*
X9964758Y-9698079D01*
X9964758Y-9698079D02*
X9974281Y-9679031D01*
X9974281Y-9679031D02*
X9983805Y-9669508D01*
X9983805Y-9669508D02*
X10002853Y-9659984D01*
X10155234Y-9840936D02*
X10164758Y-9850460D01*
X10164758Y-9850460D02*
X10155234Y-9859984D01*
X10155234Y-9859984D02*
X10145710Y-9850460D01*
X10145710Y-9850460D02*
X10155234Y-9840936D01*
X10155234Y-9840936D02*
X10155234Y-9859984D01*
X10288567Y-9659984D02*
X10307615Y-9659984D01*
X10307615Y-9659984D02*
X10326662Y-9669508D01*
X10326662Y-9669508D02*
X10336186Y-9679031D01*
X10336186Y-9679031D02*
X10345710Y-9698079D01*
X10345710Y-9698079D02*
X10355234Y-9736174D01*
X10355234Y-9736174D02*
X10355234Y-9783793D01*
X10355234Y-9783793D02*
X10345710Y-9821889D01*
X10345710Y-9821889D02*
X10336186Y-9840936D01*
X10336186Y-9840936D02*
X10326662Y-9850460D01*
X10326662Y-9850460D02*
X10307615Y-9859984D01*
X10307615Y-9859984D02*
X10288567Y-9859984D01*
X10288567Y-9859984D02*
X10269520Y-9850460D01*
X10269520Y-9850460D02*
X10259996Y-9840936D01*
X10259996Y-9840936D02*
X10250472Y-9821889D01*
X10250472Y-9821889D02*
X10240948Y-9783793D01*
X10240948Y-9783793D02*
X10240948Y-9736174D01*
X10240948Y-9736174D02*
X10250472Y-9698079D01*
X10250472Y-9698079D02*
X10259996Y-9679031D01*
X10259996Y-9679031D02*
X10269520Y-9669508D01*
X10269520Y-9669508D02*
X10288567Y-9659984D01*
X10479043Y-9659984D02*
X10498091Y-9659984D01*
X10498091Y-9659984D02*
X10517139Y-9669508D01*
X10517139Y-9669508D02*
X10526662Y-9679031D01*
X10526662Y-9679031D02*
X10536186Y-9698079D01*
X10536186Y-9698079D02*
X10545710Y-9736174D01*
X10545710Y-9736174D02*
X10545710Y-9783793D01*
X10545710Y-9783793D02*
X10536186Y-9821889D01*
X10536186Y-9821889D02*
X10526662Y-9840936D01*
X10526662Y-9840936D02*
X10517139Y-9850460D01*
X10517139Y-9850460D02*
X10498091Y-9859984D01*
X10498091Y-9859984D02*
X10479043Y-9859984D01*
X10479043Y-9859984D02*
X10459996Y-9850460D01*
X10459996Y-9850460D02*
X10450472Y-9840936D01*
X10450472Y-9840936D02*
X10440948Y-9821889D01*
X10440948Y-9821889D02*
X10431424Y-9783793D01*
X10431424Y-9783793D02*
X10431424Y-9736174D01*
X10431424Y-9736174D02*
X10440948Y-9698079D01*
X10440948Y-9698079D02*
X10450472Y-9679031D01*
X10450472Y-9679031D02*
X10459996Y-9669508D01*
X10459996Y-9669508D02*
X10479043Y-9659984D01*
X10612377Y-9659984D02*
X10745710Y-9659984D01*
X10745710Y-9659984D02*
X10659996Y-9859984D01*
X10831424Y-9859984D02*
X10869520Y-9859984D01*
X10869520Y-9859984D02*
X10888567Y-9850460D01*
X10888567Y-9850460D02*
X10898091Y-9840936D01*
X10898091Y-9840936D02*
X10917139Y-9812365D01*
X10917139Y-9812365D02*
X10926662Y-9774270D01*
X10926662Y-9774270D02*
X10926662Y-9698079D01*
X10926662Y-9698079D02*
X10917139Y-9679031D01*
X10917139Y-9679031D02*
X10907615Y-9669508D01*
X10907615Y-9669508D02*
X10888567Y-9659984D01*
X10888567Y-9659984D02*
X10850472Y-9659984D01*
X10850472Y-9659984D02*
X10831424Y-9669508D01*
X10831424Y-9669508D02*
X10821901Y-9679031D01*
X10821901Y-9679031D02*
X10812377Y-9698079D01*
X10812377Y-9698079D02*
X10812377Y-9745698D01*
X10812377Y-9745698D02*
X10821901Y-9764746D01*
X10821901Y-9764746D02*
X10831424Y-9774270D01*
X10831424Y-9774270D02*
X10850472Y-9783793D01*
X10850472Y-9783793D02*
X10888567Y-9783793D01*
X10888567Y-9783793D02*
X10907615Y-9774270D01*
X10907615Y-9774270D02*
X10917139Y-9764746D01*
X10917139Y-9764746D02*
X10926662Y-9745698D01*
X11002853Y-9659984D02*
X11002853Y-9698079D01*
X11079043Y-9659984D02*
X11079043Y-9698079D01*
X11374282Y-9936174D02*
X11364758Y-9926650D01*
X11364758Y-9926650D02*
X11345710Y-9898079D01*
X11345710Y-9898079D02*
X11336186Y-9879031D01*
X11336186Y-9879031D02*
X11326662Y-9850460D01*
X11326662Y-9850460D02*
X11317139Y-9802841D01*
X11317139Y-9802841D02*
X11317139Y-9764746D01*
X11317139Y-9764746D02*
X11326662Y-9717127D01*
X11326662Y-9717127D02*
X11336186Y-9688555D01*
X11336186Y-9688555D02*
X11345710Y-9669508D01*
X11345710Y-9669508D02*
X11364758Y-9640936D01*
X11364758Y-9640936D02*
X11374282Y-9631412D01*
X11555234Y-9859984D02*
X11440948Y-9859984D01*
X11498091Y-9859984D02*
X11498091Y-9659984D01*
X11498091Y-9659984D02*
X11479043Y-9688555D01*
X11479043Y-9688555D02*
X11459996Y-9707603D01*
X11459996Y-9707603D02*
X11440948Y-9717127D01*
X11793329Y-9859984D02*
X11793329Y-9659984D01*
X11879043Y-9859984D02*
X11879043Y-9755222D01*
X11879043Y-9755222D02*
X11869520Y-9736174D01*
X11869520Y-9736174D02*
X11850472Y-9726650D01*
X11850472Y-9726650D02*
X11821901Y-9726650D01*
X11821901Y-9726650D02*
X11802853Y-9736174D01*
X11802853Y-9736174D02*
X11793329Y-9745698D01*
X12002853Y-9859984D02*
X11983805Y-9850460D01*
X11983805Y-9850460D02*
X11974282Y-9840936D01*
X11974282Y-9840936D02*
X11964758Y-9821889D01*
X11964758Y-9821889D02*
X11964758Y-9764746D01*
X11964758Y-9764746D02*
X11974282Y-9745698D01*
X11974282Y-9745698D02*
X11983805Y-9736174D01*
X11983805Y-9736174D02*
X12002853Y-9726650D01*
X12002853Y-9726650D02*
X12031424Y-9726650D01*
X12031424Y-9726650D02*
X12050472Y-9736174D01*
X12050472Y-9736174D02*
X12059996Y-9745698D01*
X12059996Y-9745698D02*
X12069520Y-9764746D01*
X12069520Y-9764746D02*
X12069520Y-9821889D01*
X12069520Y-9821889D02*
X12059996Y-9840936D01*
X12059996Y-9840936D02*
X12050472Y-9850460D01*
X12050472Y-9850460D02*
X12031424Y-9859984D01*
X12031424Y-9859984D02*
X12002853Y-9859984D01*
X12183805Y-9859984D02*
X12164758Y-9850460D01*
X12164758Y-9850460D02*
X12155234Y-9831412D01*
X12155234Y-9831412D02*
X12155234Y-9659984D01*
X12336186Y-9850460D02*
X12317139Y-9859984D01*
X12317139Y-9859984D02*
X12279043Y-9859984D01*
X12279043Y-9859984D02*
X12259996Y-9850460D01*
X12259996Y-9850460D02*
X12250472Y-9831412D01*
X12250472Y-9831412D02*
X12250472Y-9755222D01*
X12250472Y-9755222D02*
X12259996Y-9736174D01*
X12259996Y-9736174D02*
X12279043Y-9726650D01*
X12279043Y-9726650D02*
X12317139Y-9726650D01*
X12317139Y-9726650D02*
X12336186Y-9736174D01*
X12336186Y-9736174D02*
X12345710Y-9755222D01*
X12345710Y-9755222D02*
X12345710Y-9774270D01*
X12345710Y-9774270D02*
X12250472Y-9793317D01*
X12412377Y-9936174D02*
X12421901Y-9926650D01*
X12421901Y-9926650D02*
X12440948Y-9898079D01*
X12440948Y-9898079D02*
X12450472Y-9879031D01*
X12450472Y-9879031D02*
X12459996Y-9850460D01*
X12459996Y-9850460D02*
X12469520Y-9802841D01*
X12469520Y-9802841D02*
X12469520Y-9764746D01*
X12469520Y-9764746D02*
X12459996Y-9717127D01*
X12459996Y-9717127D02*
X12450472Y-9688555D01*
X12450472Y-9688555D02*
X12440948Y-9669508D01*
X12440948Y-9669508D02*
X12421901Y-9640936D01*
X12421901Y-9640936D02*
X12412377Y-9631412D01*
D16*
X7786719Y-10045000D02*
X7799219Y-10032500D01*
X7786719Y-10020000D01*
X7774219Y-10032500D01*
X7786719Y-10045000D01*
D11*
X8098091Y-9923984D02*
X8117138Y-9923984D01*
X8117138Y-9923984D02*
X8136186Y-9933508D01*
X8136186Y-9933508D02*
X8145710Y-9943031D01*
X8145710Y-9943031D02*
X8155234Y-9962079D01*
X8155234Y-9962079D02*
X8164757Y-10000174D01*
X8164757Y-10000174D02*
X8164757Y-10047793D01*
X8164757Y-10047793D02*
X8155234Y-10085889D01*
X8155234Y-10085889D02*
X8145710Y-10104936D01*
X8145710Y-10104936D02*
X8136186Y-10114460D01*
X8136186Y-10114460D02*
X8117138Y-10123984D01*
X8117138Y-10123984D02*
X8098091Y-10123984D01*
X8098091Y-10123984D02*
X8079043Y-10114460D01*
X8079043Y-10114460D02*
X8069519Y-10104936D01*
X8069519Y-10104936D02*
X8059995Y-10085889D01*
X8059995Y-10085889D02*
X8050472Y-10047793D01*
X8050472Y-10047793D02*
X8050472Y-10000174D01*
X8050472Y-10000174D02*
X8059995Y-9962079D01*
X8059995Y-9962079D02*
X8069519Y-9943031D01*
X8069519Y-9943031D02*
X8079043Y-9933508D01*
X8079043Y-9933508D02*
X8098091Y-9923984D01*
X8250472Y-10104936D02*
X8259995Y-10114460D01*
X8259995Y-10114460D02*
X8250472Y-10123984D01*
X8250472Y-10123984D02*
X8240948Y-10114460D01*
X8240948Y-10114460D02*
X8250472Y-10104936D01*
X8250472Y-10104936D02*
X8250472Y-10123984D01*
X8336186Y-9943031D02*
X8345710Y-9933508D01*
X8345710Y-9933508D02*
X8364757Y-9923984D01*
X8364757Y-9923984D02*
X8412377Y-9923984D01*
X8412377Y-9923984D02*
X8431424Y-9933508D01*
X8431424Y-9933508D02*
X8440948Y-9943031D01*
X8440948Y-9943031D02*
X8450472Y-9962079D01*
X8450472Y-9962079D02*
X8450472Y-9981127D01*
X8450472Y-9981127D02*
X8440948Y-10009698D01*
X8440948Y-10009698D02*
X8326662Y-10123984D01*
X8326662Y-10123984D02*
X8450472Y-10123984D01*
X8631424Y-9923984D02*
X8536186Y-9923984D01*
X8536186Y-9923984D02*
X8526662Y-10019222D01*
X8526662Y-10019222D02*
X8536186Y-10009698D01*
X8536186Y-10009698D02*
X8555234Y-10000174D01*
X8555234Y-10000174D02*
X8602853Y-10000174D01*
X8602853Y-10000174D02*
X8621900Y-10009698D01*
X8621900Y-10009698D02*
X8631424Y-10019222D01*
X8631424Y-10019222D02*
X8640948Y-10038270D01*
X8640948Y-10038270D02*
X8640948Y-10085889D01*
X8640948Y-10085889D02*
X8631424Y-10104936D01*
X8631424Y-10104936D02*
X8621900Y-10114460D01*
X8621900Y-10114460D02*
X8602853Y-10123984D01*
X8602853Y-10123984D02*
X8555234Y-10123984D01*
X8555234Y-10123984D02*
X8536186Y-10114460D01*
X8536186Y-10114460D02*
X8526662Y-10104936D01*
X8764757Y-9923984D02*
X8783805Y-9923984D01*
X8783805Y-9923984D02*
X8802853Y-9933508D01*
X8802853Y-9933508D02*
X8812377Y-9943031D01*
X8812377Y-9943031D02*
X8821900Y-9962079D01*
X8821900Y-9962079D02*
X8831424Y-10000174D01*
X8831424Y-10000174D02*
X8831424Y-10047793D01*
X8831424Y-10047793D02*
X8821900Y-10085889D01*
X8821900Y-10085889D02*
X8812377Y-10104936D01*
X8812377Y-10104936D02*
X8802853Y-10114460D01*
X8802853Y-10114460D02*
X8783805Y-10123984D01*
X8783805Y-10123984D02*
X8764757Y-10123984D01*
X8764757Y-10123984D02*
X8745710Y-10114460D01*
X8745710Y-10114460D02*
X8736186Y-10104936D01*
X8736186Y-10104936D02*
X8726662Y-10085889D01*
X8726662Y-10085889D02*
X8717138Y-10047793D01*
X8717138Y-10047793D02*
X8717138Y-10000174D01*
X8717138Y-10000174D02*
X8726662Y-9962079D01*
X8726662Y-9962079D02*
X8736186Y-9943031D01*
X8736186Y-9943031D02*
X8745710Y-9933508D01*
X8745710Y-9933508D02*
X8764757Y-9923984D01*
X8917138Y-10123984D02*
X8917138Y-9990650D01*
X8917138Y-10009698D02*
X8926662Y-10000174D01*
X8926662Y-10000174D02*
X8945710Y-9990650D01*
X8945710Y-9990650D02*
X8974281Y-9990650D01*
X8974281Y-9990650D02*
X8993329Y-10000174D01*
X8993329Y-10000174D02*
X9002853Y-10019222D01*
X9002853Y-10019222D02*
X9002853Y-10123984D01*
X9002853Y-10019222D02*
X9012377Y-10000174D01*
X9012377Y-10000174D02*
X9031424Y-9990650D01*
X9031424Y-9990650D02*
X9059996Y-9990650D01*
X9059996Y-9990650D02*
X9079043Y-10000174D01*
X9079043Y-10000174D02*
X9088567Y-10019222D01*
X9088567Y-10019222D02*
X9088567Y-10123984D01*
X9183805Y-10123984D02*
X9183805Y-9990650D01*
X9183805Y-10009698D02*
X9193329Y-10000174D01*
X9193329Y-10000174D02*
X9212377Y-9990650D01*
X9212377Y-9990650D02*
X9240948Y-9990650D01*
X9240948Y-9990650D02*
X9259996Y-10000174D01*
X9259996Y-10000174D02*
X9269519Y-10019222D01*
X9269519Y-10019222D02*
X9269519Y-10123984D01*
X9269519Y-10019222D02*
X9279043Y-10000174D01*
X9279043Y-10000174D02*
X9298091Y-9990650D01*
X9298091Y-9990650D02*
X9326662Y-9990650D01*
X9326662Y-9990650D02*
X9345710Y-10000174D01*
X9345710Y-10000174D02*
X9355234Y-10019222D01*
X9355234Y-10019222D02*
X9355234Y-10123984D01*
X9745710Y-9914460D02*
X9574281Y-10171603D01*
X10002853Y-9923984D02*
X10021901Y-9923984D01*
X10021901Y-9923984D02*
X10040948Y-9933508D01*
X10040948Y-9933508D02*
X10050472Y-9943031D01*
X10050472Y-9943031D02*
X10059996Y-9962079D01*
X10059996Y-9962079D02*
X10069520Y-10000174D01*
X10069520Y-10000174D02*
X10069520Y-10047793D01*
X10069520Y-10047793D02*
X10059996Y-10085889D01*
X10059996Y-10085889D02*
X10050472Y-10104936D01*
X10050472Y-10104936D02*
X10040948Y-10114460D01*
X10040948Y-10114460D02*
X10021901Y-10123984D01*
X10021901Y-10123984D02*
X10002853Y-10123984D01*
X10002853Y-10123984D02*
X9983805Y-10114460D01*
X9983805Y-10114460D02*
X9974281Y-10104936D01*
X9974281Y-10104936D02*
X9964758Y-10085889D01*
X9964758Y-10085889D02*
X9955234Y-10047793D01*
X9955234Y-10047793D02*
X9955234Y-10000174D01*
X9955234Y-10000174D02*
X9964758Y-9962079D01*
X9964758Y-9962079D02*
X9974281Y-9943031D01*
X9974281Y-9943031D02*
X9983805Y-9933508D01*
X9983805Y-9933508D02*
X10002853Y-9923984D01*
X10155234Y-10104936D02*
X10164758Y-10114460D01*
X10164758Y-10114460D02*
X10155234Y-10123984D01*
X10155234Y-10123984D02*
X10145710Y-10114460D01*
X10145710Y-10114460D02*
X10155234Y-10104936D01*
X10155234Y-10104936D02*
X10155234Y-10123984D01*
X10288567Y-9923984D02*
X10307615Y-9923984D01*
X10307615Y-9923984D02*
X10326662Y-9933508D01*
X10326662Y-9933508D02*
X10336186Y-9943031D01*
X10336186Y-9943031D02*
X10345710Y-9962079D01*
X10345710Y-9962079D02*
X10355234Y-10000174D01*
X10355234Y-10000174D02*
X10355234Y-10047793D01*
X10355234Y-10047793D02*
X10345710Y-10085889D01*
X10345710Y-10085889D02*
X10336186Y-10104936D01*
X10336186Y-10104936D02*
X10326662Y-10114460D01*
X10326662Y-10114460D02*
X10307615Y-10123984D01*
X10307615Y-10123984D02*
X10288567Y-10123984D01*
X10288567Y-10123984D02*
X10269520Y-10114460D01*
X10269520Y-10114460D02*
X10259996Y-10104936D01*
X10259996Y-10104936D02*
X10250472Y-10085889D01*
X10250472Y-10085889D02*
X10240948Y-10047793D01*
X10240948Y-10047793D02*
X10240948Y-10000174D01*
X10240948Y-10000174D02*
X10250472Y-9962079D01*
X10250472Y-9962079D02*
X10259996Y-9943031D01*
X10259996Y-9943031D02*
X10269520Y-9933508D01*
X10269520Y-9933508D02*
X10288567Y-9923984D01*
X10479043Y-9923984D02*
X10498091Y-9923984D01*
X10498091Y-9923984D02*
X10517139Y-9933508D01*
X10517139Y-9933508D02*
X10526662Y-9943031D01*
X10526662Y-9943031D02*
X10536186Y-9962079D01*
X10536186Y-9962079D02*
X10545710Y-10000174D01*
X10545710Y-10000174D02*
X10545710Y-10047793D01*
X10545710Y-10047793D02*
X10536186Y-10085889D01*
X10536186Y-10085889D02*
X10526662Y-10104936D01*
X10526662Y-10104936D02*
X10517139Y-10114460D01*
X10517139Y-10114460D02*
X10498091Y-10123984D01*
X10498091Y-10123984D02*
X10479043Y-10123984D01*
X10479043Y-10123984D02*
X10459996Y-10114460D01*
X10459996Y-10114460D02*
X10450472Y-10104936D01*
X10450472Y-10104936D02*
X10440948Y-10085889D01*
X10440948Y-10085889D02*
X10431424Y-10047793D01*
X10431424Y-10047793D02*
X10431424Y-10000174D01*
X10431424Y-10000174D02*
X10440948Y-9962079D01*
X10440948Y-9962079D02*
X10450472Y-9943031D01*
X10450472Y-9943031D02*
X10459996Y-9933508D01*
X10459996Y-9933508D02*
X10479043Y-9923984D01*
X10640948Y-10123984D02*
X10679043Y-10123984D01*
X10679043Y-10123984D02*
X10698091Y-10114460D01*
X10698091Y-10114460D02*
X10707615Y-10104936D01*
X10707615Y-10104936D02*
X10726662Y-10076365D01*
X10726662Y-10076365D02*
X10736186Y-10038270D01*
X10736186Y-10038270D02*
X10736186Y-9962079D01*
X10736186Y-9962079D02*
X10726662Y-9943031D01*
X10726662Y-9943031D02*
X10717139Y-9933508D01*
X10717139Y-9933508D02*
X10698091Y-9923984D01*
X10698091Y-9923984D02*
X10659996Y-9923984D01*
X10659996Y-9923984D02*
X10640948Y-9933508D01*
X10640948Y-9933508D02*
X10631424Y-9943031D01*
X10631424Y-9943031D02*
X10621901Y-9962079D01*
X10621901Y-9962079D02*
X10621901Y-10009698D01*
X10621901Y-10009698D02*
X10631424Y-10028746D01*
X10631424Y-10028746D02*
X10640948Y-10038270D01*
X10640948Y-10038270D02*
X10659996Y-10047793D01*
X10659996Y-10047793D02*
X10698091Y-10047793D01*
X10698091Y-10047793D02*
X10717139Y-10038270D01*
X10717139Y-10038270D02*
X10726662Y-10028746D01*
X10726662Y-10028746D02*
X10736186Y-10009698D01*
X10850472Y-10009698D02*
X10831424Y-10000174D01*
X10831424Y-10000174D02*
X10821901Y-9990650D01*
X10821901Y-9990650D02*
X10812377Y-9971603D01*
X10812377Y-9971603D02*
X10812377Y-9962079D01*
X10812377Y-9962079D02*
X10821901Y-9943031D01*
X10821901Y-9943031D02*
X10831424Y-9933508D01*
X10831424Y-9933508D02*
X10850472Y-9923984D01*
X10850472Y-9923984D02*
X10888567Y-9923984D01*
X10888567Y-9923984D02*
X10907615Y-9933508D01*
X10907615Y-9933508D02*
X10917139Y-9943031D01*
X10917139Y-9943031D02*
X10926662Y-9962079D01*
X10926662Y-9962079D02*
X10926662Y-9971603D01*
X10926662Y-9971603D02*
X10917139Y-9990650D01*
X10917139Y-9990650D02*
X10907615Y-10000174D01*
X10907615Y-10000174D02*
X10888567Y-10009698D01*
X10888567Y-10009698D02*
X10850472Y-10009698D01*
X10850472Y-10009698D02*
X10831424Y-10019222D01*
X10831424Y-10019222D02*
X10821901Y-10028746D01*
X10821901Y-10028746D02*
X10812377Y-10047793D01*
X10812377Y-10047793D02*
X10812377Y-10085889D01*
X10812377Y-10085889D02*
X10821901Y-10104936D01*
X10821901Y-10104936D02*
X10831424Y-10114460D01*
X10831424Y-10114460D02*
X10850472Y-10123984D01*
X10850472Y-10123984D02*
X10888567Y-10123984D01*
X10888567Y-10123984D02*
X10907615Y-10114460D01*
X10907615Y-10114460D02*
X10917139Y-10104936D01*
X10917139Y-10104936D02*
X10926662Y-10085889D01*
X10926662Y-10085889D02*
X10926662Y-10047793D01*
X10926662Y-10047793D02*
X10917139Y-10028746D01*
X10917139Y-10028746D02*
X10907615Y-10019222D01*
X10907615Y-10019222D02*
X10888567Y-10009698D01*
X11002853Y-9923984D02*
X11002853Y-9962079D01*
X11079043Y-9923984D02*
X11079043Y-9962079D01*
X11374282Y-10200174D02*
X11364758Y-10190650D01*
X11364758Y-10190650D02*
X11345710Y-10162079D01*
X11345710Y-10162079D02*
X11336186Y-10143031D01*
X11336186Y-10143031D02*
X11326662Y-10114460D01*
X11326662Y-10114460D02*
X11317139Y-10066841D01*
X11317139Y-10066841D02*
X11317139Y-10028746D01*
X11317139Y-10028746D02*
X11326662Y-9981127D01*
X11326662Y-9981127D02*
X11336186Y-9952555D01*
X11336186Y-9952555D02*
X11345710Y-9933508D01*
X11345710Y-9933508D02*
X11364758Y-9904936D01*
X11364758Y-9904936D02*
X11374282Y-9895412D01*
X11555234Y-10123984D02*
X11440948Y-10123984D01*
X11498091Y-10123984D02*
X11498091Y-9923984D01*
X11498091Y-9923984D02*
X11479043Y-9952555D01*
X11479043Y-9952555D02*
X11459996Y-9971603D01*
X11459996Y-9971603D02*
X11440948Y-9981127D01*
X11631424Y-9943031D02*
X11640948Y-9933508D01*
X11640948Y-9933508D02*
X11659996Y-9923984D01*
X11659996Y-9923984D02*
X11707615Y-9923984D01*
X11707615Y-9923984D02*
X11726662Y-9933508D01*
X11726662Y-9933508D02*
X11736186Y-9943031D01*
X11736186Y-9943031D02*
X11745710Y-9962079D01*
X11745710Y-9962079D02*
X11745710Y-9981127D01*
X11745710Y-9981127D02*
X11736186Y-10009698D01*
X11736186Y-10009698D02*
X11621901Y-10123984D01*
X11621901Y-10123984D02*
X11745710Y-10123984D01*
X11983805Y-10123984D02*
X11983805Y-9923984D01*
X12069520Y-10123984D02*
X12069520Y-10019222D01*
X12069520Y-10019222D02*
X12059996Y-10000174D01*
X12059996Y-10000174D02*
X12040948Y-9990650D01*
X12040948Y-9990650D02*
X12012377Y-9990650D01*
X12012377Y-9990650D02*
X11993329Y-10000174D01*
X11993329Y-10000174D02*
X11983805Y-10009698D01*
X12193329Y-10123984D02*
X12174282Y-10114460D01*
X12174282Y-10114460D02*
X12164758Y-10104936D01*
X12164758Y-10104936D02*
X12155234Y-10085889D01*
X12155234Y-10085889D02*
X12155234Y-10028746D01*
X12155234Y-10028746D02*
X12164758Y-10009698D01*
X12164758Y-10009698D02*
X12174282Y-10000174D01*
X12174282Y-10000174D02*
X12193329Y-9990650D01*
X12193329Y-9990650D02*
X12221901Y-9990650D01*
X12221901Y-9990650D02*
X12240948Y-10000174D01*
X12240948Y-10000174D02*
X12250472Y-10009698D01*
X12250472Y-10009698D02*
X12259996Y-10028746D01*
X12259996Y-10028746D02*
X12259996Y-10085889D01*
X12259996Y-10085889D02*
X12250472Y-10104936D01*
X12250472Y-10104936D02*
X12240948Y-10114460D01*
X12240948Y-10114460D02*
X12221901Y-10123984D01*
X12221901Y-10123984D02*
X12193329Y-10123984D01*
X12374282Y-10123984D02*
X12355234Y-10114460D01*
X12355234Y-10114460D02*
X12345710Y-10095412D01*
X12345710Y-10095412D02*
X12345710Y-9923984D01*
X12526663Y-10114460D02*
X12507615Y-10123984D01*
X12507615Y-10123984D02*
X12469520Y-10123984D01*
X12469520Y-10123984D02*
X12450472Y-10114460D01*
X12450472Y-10114460D02*
X12440948Y-10095412D01*
X12440948Y-10095412D02*
X12440948Y-10019222D01*
X12440948Y-10019222D02*
X12450472Y-10000174D01*
X12450472Y-10000174D02*
X12469520Y-9990650D01*
X12469520Y-9990650D02*
X12507615Y-9990650D01*
X12507615Y-9990650D02*
X12526663Y-10000174D01*
X12526663Y-10000174D02*
X12536186Y-10019222D01*
X12536186Y-10019222D02*
X12536186Y-10038270D01*
X12536186Y-10038270D02*
X12440948Y-10057317D01*
X12612377Y-10114460D02*
X12631424Y-10123984D01*
X12631424Y-10123984D02*
X12669520Y-10123984D01*
X12669520Y-10123984D02*
X12688567Y-10114460D01*
X12688567Y-10114460D02*
X12698091Y-10095412D01*
X12698091Y-10095412D02*
X12698091Y-10085889D01*
X12698091Y-10085889D02*
X12688567Y-10066841D01*
X12688567Y-10066841D02*
X12669520Y-10057317D01*
X12669520Y-10057317D02*
X12640948Y-10057317D01*
X12640948Y-10057317D02*
X12621901Y-10047793D01*
X12621901Y-10047793D02*
X12612377Y-10028746D01*
X12612377Y-10028746D02*
X12612377Y-10019222D01*
X12612377Y-10019222D02*
X12621901Y-10000174D01*
X12621901Y-10000174D02*
X12640948Y-9990650D01*
X12640948Y-9990650D02*
X12669520Y-9990650D01*
X12669520Y-9990650D02*
X12688567Y-10000174D01*
X12764758Y-10200174D02*
X12774282Y-10190650D01*
X12774282Y-10190650D02*
X12793329Y-10162079D01*
X12793329Y-10162079D02*
X12802853Y-10143031D01*
X12802853Y-10143031D02*
X12812377Y-10114460D01*
X12812377Y-10114460D02*
X12821901Y-10066841D01*
X12821901Y-10066841D02*
X12821901Y-10028746D01*
X12821901Y-10028746D02*
X12812377Y-9981127D01*
X12812377Y-9981127D02*
X12802853Y-9952555D01*
X12802853Y-9952555D02*
X12793329Y-9933508D01*
X12793329Y-9933508D02*
X12774282Y-9904936D01*
X12774282Y-9904936D02*
X12764758Y-9895412D01*
D17*
X7734219Y-10264000D02*
X7799219Y-10329000D01*
X7799219Y-10264000D02*
X7734219Y-10329000D01*
X7799219Y-10296500D02*
G75*
G03*
X7799219Y-10296500I-32500J0D01*
G01*
D11*
X8098091Y-10187984D02*
X8117138Y-10187984D01*
X8117138Y-10187984D02*
X8136186Y-10197508D01*
X8136186Y-10197508D02*
X8145710Y-10207031D01*
X8145710Y-10207031D02*
X8155234Y-10226079D01*
X8155234Y-10226079D02*
X8164757Y-10264174D01*
X8164757Y-10264174D02*
X8164757Y-10311793D01*
X8164757Y-10311793D02*
X8155234Y-10349889D01*
X8155234Y-10349889D02*
X8145710Y-10368936D01*
X8145710Y-10368936D02*
X8136186Y-10378460D01*
X8136186Y-10378460D02*
X8117138Y-10387984D01*
X8117138Y-10387984D02*
X8098091Y-10387984D01*
X8098091Y-10387984D02*
X8079043Y-10378460D01*
X8079043Y-10378460D02*
X8069519Y-10368936D01*
X8069519Y-10368936D02*
X8059995Y-10349889D01*
X8059995Y-10349889D02*
X8050472Y-10311793D01*
X8050472Y-10311793D02*
X8050472Y-10264174D01*
X8050472Y-10264174D02*
X8059995Y-10226079D01*
X8059995Y-10226079D02*
X8069519Y-10207031D01*
X8069519Y-10207031D02*
X8079043Y-10197508D01*
X8079043Y-10197508D02*
X8098091Y-10187984D01*
X8250472Y-10368936D02*
X8259995Y-10378460D01*
X8259995Y-10378460D02*
X8250472Y-10387984D01*
X8250472Y-10387984D02*
X8240948Y-10378460D01*
X8240948Y-10378460D02*
X8250472Y-10368936D01*
X8250472Y-10368936D02*
X8250472Y-10387984D01*
X8431424Y-10187984D02*
X8393329Y-10187984D01*
X8393329Y-10187984D02*
X8374281Y-10197508D01*
X8374281Y-10197508D02*
X8364757Y-10207031D01*
X8364757Y-10207031D02*
X8345710Y-10235603D01*
X8345710Y-10235603D02*
X8336186Y-10273698D01*
X8336186Y-10273698D02*
X8336186Y-10349889D01*
X8336186Y-10349889D02*
X8345710Y-10368936D01*
X8345710Y-10368936D02*
X8355234Y-10378460D01*
X8355234Y-10378460D02*
X8374281Y-10387984D01*
X8374281Y-10387984D02*
X8412377Y-10387984D01*
X8412377Y-10387984D02*
X8431424Y-10378460D01*
X8431424Y-10378460D02*
X8440948Y-10368936D01*
X8440948Y-10368936D02*
X8450472Y-10349889D01*
X8450472Y-10349889D02*
X8450472Y-10302270D01*
X8450472Y-10302270D02*
X8440948Y-10283222D01*
X8440948Y-10283222D02*
X8431424Y-10273698D01*
X8431424Y-10273698D02*
X8412377Y-10264174D01*
X8412377Y-10264174D02*
X8374281Y-10264174D01*
X8374281Y-10264174D02*
X8355234Y-10273698D01*
X8355234Y-10273698D02*
X8345710Y-10283222D01*
X8345710Y-10283222D02*
X8336186Y-10302270D01*
X8631424Y-10187984D02*
X8536186Y-10187984D01*
X8536186Y-10187984D02*
X8526662Y-10283222D01*
X8526662Y-10283222D02*
X8536186Y-10273698D01*
X8536186Y-10273698D02*
X8555234Y-10264174D01*
X8555234Y-10264174D02*
X8602853Y-10264174D01*
X8602853Y-10264174D02*
X8621900Y-10273698D01*
X8621900Y-10273698D02*
X8631424Y-10283222D01*
X8631424Y-10283222D02*
X8640948Y-10302270D01*
X8640948Y-10302270D02*
X8640948Y-10349889D01*
X8640948Y-10349889D02*
X8631424Y-10368936D01*
X8631424Y-10368936D02*
X8621900Y-10378460D01*
X8621900Y-10378460D02*
X8602853Y-10387984D01*
X8602853Y-10387984D02*
X8555234Y-10387984D01*
X8555234Y-10387984D02*
X8536186Y-10378460D01*
X8536186Y-10378460D02*
X8526662Y-10368936D01*
X8764757Y-10187984D02*
X8783805Y-10187984D01*
X8783805Y-10187984D02*
X8802853Y-10197508D01*
X8802853Y-10197508D02*
X8812377Y-10207031D01*
X8812377Y-10207031D02*
X8821900Y-10226079D01*
X8821900Y-10226079D02*
X8831424Y-10264174D01*
X8831424Y-10264174D02*
X8831424Y-10311793D01*
X8831424Y-10311793D02*
X8821900Y-10349889D01*
X8821900Y-10349889D02*
X8812377Y-10368936D01*
X8812377Y-10368936D02*
X8802853Y-10378460D01*
X8802853Y-10378460D02*
X8783805Y-10387984D01*
X8783805Y-10387984D02*
X8764757Y-10387984D01*
X8764757Y-10387984D02*
X8745710Y-10378460D01*
X8745710Y-10378460D02*
X8736186Y-10368936D01*
X8736186Y-10368936D02*
X8726662Y-10349889D01*
X8726662Y-10349889D02*
X8717138Y-10311793D01*
X8717138Y-10311793D02*
X8717138Y-10264174D01*
X8717138Y-10264174D02*
X8726662Y-10226079D01*
X8726662Y-10226079D02*
X8736186Y-10207031D01*
X8736186Y-10207031D02*
X8745710Y-10197508D01*
X8745710Y-10197508D02*
X8764757Y-10187984D01*
X8917138Y-10387984D02*
X8917138Y-10254650D01*
X8917138Y-10273698D02*
X8926662Y-10264174D01*
X8926662Y-10264174D02*
X8945710Y-10254650D01*
X8945710Y-10254650D02*
X8974281Y-10254650D01*
X8974281Y-10254650D02*
X8993329Y-10264174D01*
X8993329Y-10264174D02*
X9002853Y-10283222D01*
X9002853Y-10283222D02*
X9002853Y-10387984D01*
X9002853Y-10283222D02*
X9012377Y-10264174D01*
X9012377Y-10264174D02*
X9031424Y-10254650D01*
X9031424Y-10254650D02*
X9059996Y-10254650D01*
X9059996Y-10254650D02*
X9079043Y-10264174D01*
X9079043Y-10264174D02*
X9088567Y-10283222D01*
X9088567Y-10283222D02*
X9088567Y-10387984D01*
X9183805Y-10387984D02*
X9183805Y-10254650D01*
X9183805Y-10273698D02*
X9193329Y-10264174D01*
X9193329Y-10264174D02*
X9212377Y-10254650D01*
X9212377Y-10254650D02*
X9240948Y-10254650D01*
X9240948Y-10254650D02*
X9259996Y-10264174D01*
X9259996Y-10264174D02*
X9269519Y-10283222D01*
X9269519Y-10283222D02*
X9269519Y-10387984D01*
X9269519Y-10283222D02*
X9279043Y-10264174D01*
X9279043Y-10264174D02*
X9298091Y-10254650D01*
X9298091Y-10254650D02*
X9326662Y-10254650D01*
X9326662Y-10254650D02*
X9345710Y-10264174D01*
X9345710Y-10264174D02*
X9355234Y-10283222D01*
X9355234Y-10283222D02*
X9355234Y-10387984D01*
X9745710Y-10178460D02*
X9574281Y-10435603D01*
X10002853Y-10187984D02*
X10021901Y-10187984D01*
X10021901Y-10187984D02*
X10040948Y-10197508D01*
X10040948Y-10197508D02*
X10050472Y-10207031D01*
X10050472Y-10207031D02*
X10059996Y-10226079D01*
X10059996Y-10226079D02*
X10069520Y-10264174D01*
X10069520Y-10264174D02*
X10069520Y-10311793D01*
X10069520Y-10311793D02*
X10059996Y-10349889D01*
X10059996Y-10349889D02*
X10050472Y-10368936D01*
X10050472Y-10368936D02*
X10040948Y-10378460D01*
X10040948Y-10378460D02*
X10021901Y-10387984D01*
X10021901Y-10387984D02*
X10002853Y-10387984D01*
X10002853Y-10387984D02*
X9983805Y-10378460D01*
X9983805Y-10378460D02*
X9974281Y-10368936D01*
X9974281Y-10368936D02*
X9964758Y-10349889D01*
X9964758Y-10349889D02*
X9955234Y-10311793D01*
X9955234Y-10311793D02*
X9955234Y-10264174D01*
X9955234Y-10264174D02*
X9964758Y-10226079D01*
X9964758Y-10226079D02*
X9974281Y-10207031D01*
X9974281Y-10207031D02*
X9983805Y-10197508D01*
X9983805Y-10197508D02*
X10002853Y-10187984D01*
X10155234Y-10368936D02*
X10164758Y-10378460D01*
X10164758Y-10378460D02*
X10155234Y-10387984D01*
X10155234Y-10387984D02*
X10145710Y-10378460D01*
X10145710Y-10378460D02*
X10155234Y-10368936D01*
X10155234Y-10368936D02*
X10155234Y-10387984D01*
X10288567Y-10187984D02*
X10307615Y-10187984D01*
X10307615Y-10187984D02*
X10326662Y-10197508D01*
X10326662Y-10197508D02*
X10336186Y-10207031D01*
X10336186Y-10207031D02*
X10345710Y-10226079D01*
X10345710Y-10226079D02*
X10355234Y-10264174D01*
X10355234Y-10264174D02*
X10355234Y-10311793D01*
X10355234Y-10311793D02*
X10345710Y-10349889D01*
X10345710Y-10349889D02*
X10336186Y-10368936D01*
X10336186Y-10368936D02*
X10326662Y-10378460D01*
X10326662Y-10378460D02*
X10307615Y-10387984D01*
X10307615Y-10387984D02*
X10288567Y-10387984D01*
X10288567Y-10387984D02*
X10269520Y-10378460D01*
X10269520Y-10378460D02*
X10259996Y-10368936D01*
X10259996Y-10368936D02*
X10250472Y-10349889D01*
X10250472Y-10349889D02*
X10240948Y-10311793D01*
X10240948Y-10311793D02*
X10240948Y-10264174D01*
X10240948Y-10264174D02*
X10250472Y-10226079D01*
X10250472Y-10226079D02*
X10259996Y-10207031D01*
X10259996Y-10207031D02*
X10269520Y-10197508D01*
X10269520Y-10197508D02*
X10288567Y-10187984D01*
X10431424Y-10207031D02*
X10440948Y-10197508D01*
X10440948Y-10197508D02*
X10459996Y-10187984D01*
X10459996Y-10187984D02*
X10507615Y-10187984D01*
X10507615Y-10187984D02*
X10526662Y-10197508D01*
X10526662Y-10197508D02*
X10536186Y-10207031D01*
X10536186Y-10207031D02*
X10545710Y-10226079D01*
X10545710Y-10226079D02*
X10545710Y-10245127D01*
X10545710Y-10245127D02*
X10536186Y-10273698D01*
X10536186Y-10273698D02*
X10421901Y-10387984D01*
X10421901Y-10387984D02*
X10545710Y-10387984D01*
X10726662Y-10187984D02*
X10631424Y-10187984D01*
X10631424Y-10187984D02*
X10621901Y-10283222D01*
X10621901Y-10283222D02*
X10631424Y-10273698D01*
X10631424Y-10273698D02*
X10650472Y-10264174D01*
X10650472Y-10264174D02*
X10698091Y-10264174D01*
X10698091Y-10264174D02*
X10717139Y-10273698D01*
X10717139Y-10273698D02*
X10726662Y-10283222D01*
X10726662Y-10283222D02*
X10736186Y-10302270D01*
X10736186Y-10302270D02*
X10736186Y-10349889D01*
X10736186Y-10349889D02*
X10726662Y-10368936D01*
X10726662Y-10368936D02*
X10717139Y-10378460D01*
X10717139Y-10378460D02*
X10698091Y-10387984D01*
X10698091Y-10387984D02*
X10650472Y-10387984D01*
X10650472Y-10387984D02*
X10631424Y-10378460D01*
X10631424Y-10378460D02*
X10621901Y-10368936D01*
X10907615Y-10187984D02*
X10869520Y-10187984D01*
X10869520Y-10187984D02*
X10850472Y-10197508D01*
X10850472Y-10197508D02*
X10840948Y-10207031D01*
X10840948Y-10207031D02*
X10821901Y-10235603D01*
X10821901Y-10235603D02*
X10812377Y-10273698D01*
X10812377Y-10273698D02*
X10812377Y-10349889D01*
X10812377Y-10349889D02*
X10821901Y-10368936D01*
X10821901Y-10368936D02*
X10831424Y-10378460D01*
X10831424Y-10378460D02*
X10850472Y-10387984D01*
X10850472Y-10387984D02*
X10888567Y-10387984D01*
X10888567Y-10387984D02*
X10907615Y-10378460D01*
X10907615Y-10378460D02*
X10917139Y-10368936D01*
X10917139Y-10368936D02*
X10926662Y-10349889D01*
X10926662Y-10349889D02*
X10926662Y-10302270D01*
X10926662Y-10302270D02*
X10917139Y-10283222D01*
X10917139Y-10283222D02*
X10907615Y-10273698D01*
X10907615Y-10273698D02*
X10888567Y-10264174D01*
X10888567Y-10264174D02*
X10850472Y-10264174D01*
X10850472Y-10264174D02*
X10831424Y-10273698D01*
X10831424Y-10273698D02*
X10821901Y-10283222D01*
X10821901Y-10283222D02*
X10812377Y-10302270D01*
X11002853Y-10187984D02*
X11002853Y-10226079D01*
X11079043Y-10187984D02*
X11079043Y-10226079D01*
X11374282Y-10464174D02*
X11364758Y-10454650D01*
X11364758Y-10454650D02*
X11345710Y-10426079D01*
X11345710Y-10426079D02*
X11336186Y-10407031D01*
X11336186Y-10407031D02*
X11326662Y-10378460D01*
X11326662Y-10378460D02*
X11317139Y-10330841D01*
X11317139Y-10330841D02*
X11317139Y-10292746D01*
X11317139Y-10292746D02*
X11326662Y-10245127D01*
X11326662Y-10245127D02*
X11336186Y-10216555D01*
X11336186Y-10216555D02*
X11345710Y-10197508D01*
X11345710Y-10197508D02*
X11364758Y-10168936D01*
X11364758Y-10168936D02*
X11374282Y-10159412D01*
X11488567Y-10187984D02*
X11507615Y-10187984D01*
X11507615Y-10187984D02*
X11526662Y-10197508D01*
X11526662Y-10197508D02*
X11536186Y-10207031D01*
X11536186Y-10207031D02*
X11545710Y-10226079D01*
X11545710Y-10226079D02*
X11555234Y-10264174D01*
X11555234Y-10264174D02*
X11555234Y-10311793D01*
X11555234Y-10311793D02*
X11545710Y-10349889D01*
X11545710Y-10349889D02*
X11536186Y-10368936D01*
X11536186Y-10368936D02*
X11526662Y-10378460D01*
X11526662Y-10378460D02*
X11507615Y-10387984D01*
X11507615Y-10387984D02*
X11488567Y-10387984D01*
X11488567Y-10387984D02*
X11469520Y-10378460D01*
X11469520Y-10378460D02*
X11459996Y-10368936D01*
X11459996Y-10368936D02*
X11450472Y-10349889D01*
X11450472Y-10349889D02*
X11440948Y-10311793D01*
X11440948Y-10311793D02*
X11440948Y-10264174D01*
X11440948Y-10264174D02*
X11450472Y-10226079D01*
X11450472Y-10226079D02*
X11459996Y-10207031D01*
X11459996Y-10207031D02*
X11469520Y-10197508D01*
X11469520Y-10197508D02*
X11488567Y-10187984D01*
X11793329Y-10387984D02*
X11793329Y-10187984D01*
X11879043Y-10387984D02*
X11879043Y-10283222D01*
X11879043Y-10283222D02*
X11869520Y-10264174D01*
X11869520Y-10264174D02*
X11850472Y-10254650D01*
X11850472Y-10254650D02*
X11821901Y-10254650D01*
X11821901Y-10254650D02*
X11802853Y-10264174D01*
X11802853Y-10264174D02*
X11793329Y-10273698D01*
X12002853Y-10387984D02*
X11983805Y-10378460D01*
X11983805Y-10378460D02*
X11974282Y-10368936D01*
X11974282Y-10368936D02*
X11964758Y-10349889D01*
X11964758Y-10349889D02*
X11964758Y-10292746D01*
X11964758Y-10292746D02*
X11974282Y-10273698D01*
X11974282Y-10273698D02*
X11983805Y-10264174D01*
X11983805Y-10264174D02*
X12002853Y-10254650D01*
X12002853Y-10254650D02*
X12031424Y-10254650D01*
X12031424Y-10254650D02*
X12050472Y-10264174D01*
X12050472Y-10264174D02*
X12059996Y-10273698D01*
X12059996Y-10273698D02*
X12069520Y-10292746D01*
X12069520Y-10292746D02*
X12069520Y-10349889D01*
X12069520Y-10349889D02*
X12059996Y-10368936D01*
X12059996Y-10368936D02*
X12050472Y-10378460D01*
X12050472Y-10378460D02*
X12031424Y-10387984D01*
X12031424Y-10387984D02*
X12002853Y-10387984D01*
X12183805Y-10387984D02*
X12164758Y-10378460D01*
X12164758Y-10378460D02*
X12155234Y-10359412D01*
X12155234Y-10359412D02*
X12155234Y-10187984D01*
X12336186Y-10378460D02*
X12317139Y-10387984D01*
X12317139Y-10387984D02*
X12279043Y-10387984D01*
X12279043Y-10387984D02*
X12259996Y-10378460D01*
X12259996Y-10378460D02*
X12250472Y-10359412D01*
X12250472Y-10359412D02*
X12250472Y-10283222D01*
X12250472Y-10283222D02*
X12259996Y-10264174D01*
X12259996Y-10264174D02*
X12279043Y-10254650D01*
X12279043Y-10254650D02*
X12317139Y-10254650D01*
X12317139Y-10254650D02*
X12336186Y-10264174D01*
X12336186Y-10264174D02*
X12345710Y-10283222D01*
X12345710Y-10283222D02*
X12345710Y-10302270D01*
X12345710Y-10302270D02*
X12250472Y-10321317D01*
X12421901Y-10378460D02*
X12440948Y-10387984D01*
X12440948Y-10387984D02*
X12479043Y-10387984D01*
X12479043Y-10387984D02*
X12498091Y-10378460D01*
X12498091Y-10378460D02*
X12507615Y-10359412D01*
X12507615Y-10359412D02*
X12507615Y-10349889D01*
X12507615Y-10349889D02*
X12498091Y-10330841D01*
X12498091Y-10330841D02*
X12479043Y-10321317D01*
X12479043Y-10321317D02*
X12450472Y-10321317D01*
X12450472Y-10321317D02*
X12431424Y-10311793D01*
X12431424Y-10311793D02*
X12421901Y-10292746D01*
X12421901Y-10292746D02*
X12421901Y-10283222D01*
X12421901Y-10283222D02*
X12431424Y-10264174D01*
X12431424Y-10264174D02*
X12450472Y-10254650D01*
X12450472Y-10254650D02*
X12479043Y-10254650D01*
X12479043Y-10254650D02*
X12498091Y-10264174D01*
X12745710Y-10311793D02*
X12898091Y-10311793D01*
X12821901Y-10387984D02*
X12821901Y-10235603D01*
X13231425Y-10254650D02*
X13231425Y-10387984D01*
X13183805Y-10178460D02*
X13136186Y-10321317D01*
X13136186Y-10321317D02*
X13259996Y-10321317D01*
X13479044Y-10378460D02*
X13498091Y-10387984D01*
X13498091Y-10387984D02*
X13536186Y-10387984D01*
X13536186Y-10387984D02*
X13555234Y-10378460D01*
X13555234Y-10378460D02*
X13564758Y-10359412D01*
X13564758Y-10359412D02*
X13564758Y-10349889D01*
X13564758Y-10349889D02*
X13555234Y-10330841D01*
X13555234Y-10330841D02*
X13536186Y-10321317D01*
X13536186Y-10321317D02*
X13507615Y-10321317D01*
X13507615Y-10321317D02*
X13488567Y-10311793D01*
X13488567Y-10311793D02*
X13479044Y-10292746D01*
X13479044Y-10292746D02*
X13479044Y-10283222D01*
X13479044Y-10283222D02*
X13488567Y-10264174D01*
X13488567Y-10264174D02*
X13507615Y-10254650D01*
X13507615Y-10254650D02*
X13536186Y-10254650D01*
X13536186Y-10254650D02*
X13555234Y-10264174D01*
X13679044Y-10387984D02*
X13659996Y-10378460D01*
X13659996Y-10378460D02*
X13650472Y-10359412D01*
X13650472Y-10359412D02*
X13650472Y-10187984D01*
X13783806Y-10387984D02*
X13764758Y-10378460D01*
X13764758Y-10378460D02*
X13755234Y-10368936D01*
X13755234Y-10368936D02*
X13745710Y-10349889D01*
X13745710Y-10349889D02*
X13745710Y-10292746D01*
X13745710Y-10292746D02*
X13755234Y-10273698D01*
X13755234Y-10273698D02*
X13764758Y-10264174D01*
X13764758Y-10264174D02*
X13783806Y-10254650D01*
X13783806Y-10254650D02*
X13812377Y-10254650D01*
X13812377Y-10254650D02*
X13831425Y-10264174D01*
X13831425Y-10264174D02*
X13840948Y-10273698D01*
X13840948Y-10273698D02*
X13850472Y-10292746D01*
X13850472Y-10292746D02*
X13850472Y-10349889D01*
X13850472Y-10349889D02*
X13840948Y-10368936D01*
X13840948Y-10368936D02*
X13831425Y-10378460D01*
X13831425Y-10378460D02*
X13812377Y-10387984D01*
X13812377Y-10387984D02*
X13783806Y-10387984D01*
X13907615Y-10254650D02*
X13983806Y-10254650D01*
X13936187Y-10187984D02*
X13936187Y-10359412D01*
X13936187Y-10359412D02*
X13945710Y-10378460D01*
X13945710Y-10378460D02*
X13964758Y-10387984D01*
X13964758Y-10387984D02*
X13983806Y-10387984D01*
X14040948Y-10378460D02*
X14059996Y-10387984D01*
X14059996Y-10387984D02*
X14098091Y-10387984D01*
X14098091Y-10387984D02*
X14117139Y-10378460D01*
X14117139Y-10378460D02*
X14126663Y-10359412D01*
X14126663Y-10359412D02*
X14126663Y-10349889D01*
X14126663Y-10349889D02*
X14117139Y-10330841D01*
X14117139Y-10330841D02*
X14098091Y-10321317D01*
X14098091Y-10321317D02*
X14069520Y-10321317D01*
X14069520Y-10321317D02*
X14050472Y-10311793D01*
X14050472Y-10311793D02*
X14040948Y-10292746D01*
X14040948Y-10292746D02*
X14040948Y-10283222D01*
X14040948Y-10283222D02*
X14050472Y-10264174D01*
X14050472Y-10264174D02*
X14069520Y-10254650D01*
X14069520Y-10254650D02*
X14098091Y-10254650D01*
X14098091Y-10254650D02*
X14117139Y-10264174D01*
X14193329Y-10464174D02*
X14202853Y-10454650D01*
X14202853Y-10454650D02*
X14221901Y-10426079D01*
X14221901Y-10426079D02*
X14231425Y-10407031D01*
X14231425Y-10407031D02*
X14240948Y-10378460D01*
X14240948Y-10378460D02*
X14250472Y-10330841D01*
X14250472Y-10330841D02*
X14250472Y-10292746D01*
X14250472Y-10292746D02*
X14240948Y-10245127D01*
X14240948Y-10245127D02*
X14231425Y-10216555D01*
X14231425Y-10216555D02*
X14221901Y-10197508D01*
X14221901Y-10197508D02*
X14202853Y-10168936D01*
X14202853Y-10168936D02*
X14193329Y-10159412D01*
D18*
X7719219Y-10520500D02*
X7799219Y-10600500D01*
X7799219Y-10520500D02*
X7719219Y-10600500D01*
X7759219Y-10520500D02*
X7759219Y-10600500D01*
X7719219Y-10560500D02*
X7799219Y-10560500D01*
D11*
X8098091Y-10451984D02*
X8117138Y-10451984D01*
X8117138Y-10451984D02*
X8136186Y-10461508D01*
X8136186Y-10461508D02*
X8145710Y-10471031D01*
X8145710Y-10471031D02*
X8155234Y-10490079D01*
X8155234Y-10490079D02*
X8164757Y-10528174D01*
X8164757Y-10528174D02*
X8164757Y-10575793D01*
X8164757Y-10575793D02*
X8155234Y-10613889D01*
X8155234Y-10613889D02*
X8145710Y-10632936D01*
X8145710Y-10632936D02*
X8136186Y-10642460D01*
X8136186Y-10642460D02*
X8117138Y-10651984D01*
X8117138Y-10651984D02*
X8098091Y-10651984D01*
X8098091Y-10651984D02*
X8079043Y-10642460D01*
X8079043Y-10642460D02*
X8069519Y-10632936D01*
X8069519Y-10632936D02*
X8059995Y-10613889D01*
X8059995Y-10613889D02*
X8050472Y-10575793D01*
X8050472Y-10575793D02*
X8050472Y-10528174D01*
X8050472Y-10528174D02*
X8059995Y-10490079D01*
X8059995Y-10490079D02*
X8069519Y-10471031D01*
X8069519Y-10471031D02*
X8079043Y-10461508D01*
X8079043Y-10461508D02*
X8098091Y-10451984D01*
X8250472Y-10632936D02*
X8259995Y-10642460D01*
X8259995Y-10642460D02*
X8250472Y-10651984D01*
X8250472Y-10651984D02*
X8240948Y-10642460D01*
X8240948Y-10642460D02*
X8250472Y-10632936D01*
X8250472Y-10632936D02*
X8250472Y-10651984D01*
X8374281Y-10537698D02*
X8355234Y-10528174D01*
X8355234Y-10528174D02*
X8345710Y-10518650D01*
X8345710Y-10518650D02*
X8336186Y-10499603D01*
X8336186Y-10499603D02*
X8336186Y-10490079D01*
X8336186Y-10490079D02*
X8345710Y-10471031D01*
X8345710Y-10471031D02*
X8355234Y-10461508D01*
X8355234Y-10461508D02*
X8374281Y-10451984D01*
X8374281Y-10451984D02*
X8412377Y-10451984D01*
X8412377Y-10451984D02*
X8431424Y-10461508D01*
X8431424Y-10461508D02*
X8440948Y-10471031D01*
X8440948Y-10471031D02*
X8450472Y-10490079D01*
X8450472Y-10490079D02*
X8450472Y-10499603D01*
X8450472Y-10499603D02*
X8440948Y-10518650D01*
X8440948Y-10518650D02*
X8431424Y-10528174D01*
X8431424Y-10528174D02*
X8412377Y-10537698D01*
X8412377Y-10537698D02*
X8374281Y-10537698D01*
X8374281Y-10537698D02*
X8355234Y-10547222D01*
X8355234Y-10547222D02*
X8345710Y-10556746D01*
X8345710Y-10556746D02*
X8336186Y-10575793D01*
X8336186Y-10575793D02*
X8336186Y-10613889D01*
X8336186Y-10613889D02*
X8345710Y-10632936D01*
X8345710Y-10632936D02*
X8355234Y-10642460D01*
X8355234Y-10642460D02*
X8374281Y-10651984D01*
X8374281Y-10651984D02*
X8412377Y-10651984D01*
X8412377Y-10651984D02*
X8431424Y-10642460D01*
X8431424Y-10642460D02*
X8440948Y-10632936D01*
X8440948Y-10632936D02*
X8450472Y-10613889D01*
X8450472Y-10613889D02*
X8450472Y-10575793D01*
X8450472Y-10575793D02*
X8440948Y-10556746D01*
X8440948Y-10556746D02*
X8431424Y-10547222D01*
X8431424Y-10547222D02*
X8412377Y-10537698D01*
X8574281Y-10451984D02*
X8593329Y-10451984D01*
X8593329Y-10451984D02*
X8612377Y-10461508D01*
X8612377Y-10461508D02*
X8621900Y-10471031D01*
X8621900Y-10471031D02*
X8631424Y-10490079D01*
X8631424Y-10490079D02*
X8640948Y-10528174D01*
X8640948Y-10528174D02*
X8640948Y-10575793D01*
X8640948Y-10575793D02*
X8631424Y-10613889D01*
X8631424Y-10613889D02*
X8621900Y-10632936D01*
X8621900Y-10632936D02*
X8612377Y-10642460D01*
X8612377Y-10642460D02*
X8593329Y-10651984D01*
X8593329Y-10651984D02*
X8574281Y-10651984D01*
X8574281Y-10651984D02*
X8555234Y-10642460D01*
X8555234Y-10642460D02*
X8545710Y-10632936D01*
X8545710Y-10632936D02*
X8536186Y-10613889D01*
X8536186Y-10613889D02*
X8526662Y-10575793D01*
X8526662Y-10575793D02*
X8526662Y-10528174D01*
X8526662Y-10528174D02*
X8536186Y-10490079D01*
X8536186Y-10490079D02*
X8545710Y-10471031D01*
X8545710Y-10471031D02*
X8555234Y-10461508D01*
X8555234Y-10461508D02*
X8574281Y-10451984D01*
X8764757Y-10451984D02*
X8783805Y-10451984D01*
X8783805Y-10451984D02*
X8802853Y-10461508D01*
X8802853Y-10461508D02*
X8812377Y-10471031D01*
X8812377Y-10471031D02*
X8821900Y-10490079D01*
X8821900Y-10490079D02*
X8831424Y-10528174D01*
X8831424Y-10528174D02*
X8831424Y-10575793D01*
X8831424Y-10575793D02*
X8821900Y-10613889D01*
X8821900Y-10613889D02*
X8812377Y-10632936D01*
X8812377Y-10632936D02*
X8802853Y-10642460D01*
X8802853Y-10642460D02*
X8783805Y-10651984D01*
X8783805Y-10651984D02*
X8764757Y-10651984D01*
X8764757Y-10651984D02*
X8745710Y-10642460D01*
X8745710Y-10642460D02*
X8736186Y-10632936D01*
X8736186Y-10632936D02*
X8726662Y-10613889D01*
X8726662Y-10613889D02*
X8717138Y-10575793D01*
X8717138Y-10575793D02*
X8717138Y-10528174D01*
X8717138Y-10528174D02*
X8726662Y-10490079D01*
X8726662Y-10490079D02*
X8736186Y-10471031D01*
X8736186Y-10471031D02*
X8745710Y-10461508D01*
X8745710Y-10461508D02*
X8764757Y-10451984D01*
X8917138Y-10651984D02*
X8917138Y-10518650D01*
X8917138Y-10537698D02*
X8926662Y-10528174D01*
X8926662Y-10528174D02*
X8945710Y-10518650D01*
X8945710Y-10518650D02*
X8974281Y-10518650D01*
X8974281Y-10518650D02*
X8993329Y-10528174D01*
X8993329Y-10528174D02*
X9002853Y-10547222D01*
X9002853Y-10547222D02*
X9002853Y-10651984D01*
X9002853Y-10547222D02*
X9012377Y-10528174D01*
X9012377Y-10528174D02*
X9031424Y-10518650D01*
X9031424Y-10518650D02*
X9059996Y-10518650D01*
X9059996Y-10518650D02*
X9079043Y-10528174D01*
X9079043Y-10528174D02*
X9088567Y-10547222D01*
X9088567Y-10547222D02*
X9088567Y-10651984D01*
X9183805Y-10651984D02*
X9183805Y-10518650D01*
X9183805Y-10537698D02*
X9193329Y-10528174D01*
X9193329Y-10528174D02*
X9212377Y-10518650D01*
X9212377Y-10518650D02*
X9240948Y-10518650D01*
X9240948Y-10518650D02*
X9259996Y-10528174D01*
X9259996Y-10528174D02*
X9269519Y-10547222D01*
X9269519Y-10547222D02*
X9269519Y-10651984D01*
X9269519Y-10547222D02*
X9279043Y-10528174D01*
X9279043Y-10528174D02*
X9298091Y-10518650D01*
X9298091Y-10518650D02*
X9326662Y-10518650D01*
X9326662Y-10518650D02*
X9345710Y-10528174D01*
X9345710Y-10528174D02*
X9355234Y-10547222D01*
X9355234Y-10547222D02*
X9355234Y-10651984D01*
X9745710Y-10442460D02*
X9574281Y-10699603D01*
X10002853Y-10451984D02*
X10021901Y-10451984D01*
X10021901Y-10451984D02*
X10040948Y-10461508D01*
X10040948Y-10461508D02*
X10050472Y-10471031D01*
X10050472Y-10471031D02*
X10059996Y-10490079D01*
X10059996Y-10490079D02*
X10069520Y-10528174D01*
X10069520Y-10528174D02*
X10069520Y-10575793D01*
X10069520Y-10575793D02*
X10059996Y-10613889D01*
X10059996Y-10613889D02*
X10050472Y-10632936D01*
X10050472Y-10632936D02*
X10040948Y-10642460D01*
X10040948Y-10642460D02*
X10021901Y-10651984D01*
X10021901Y-10651984D02*
X10002853Y-10651984D01*
X10002853Y-10651984D02*
X9983805Y-10642460D01*
X9983805Y-10642460D02*
X9974281Y-10632936D01*
X9974281Y-10632936D02*
X9964758Y-10613889D01*
X9964758Y-10613889D02*
X9955234Y-10575793D01*
X9955234Y-10575793D02*
X9955234Y-10528174D01*
X9955234Y-10528174D02*
X9964758Y-10490079D01*
X9964758Y-10490079D02*
X9974281Y-10471031D01*
X9974281Y-10471031D02*
X9983805Y-10461508D01*
X9983805Y-10461508D02*
X10002853Y-10451984D01*
X10155234Y-10632936D02*
X10164758Y-10642460D01*
X10164758Y-10642460D02*
X10155234Y-10651984D01*
X10155234Y-10651984D02*
X10145710Y-10642460D01*
X10145710Y-10642460D02*
X10155234Y-10632936D01*
X10155234Y-10632936D02*
X10155234Y-10651984D01*
X10288567Y-10451984D02*
X10307615Y-10451984D01*
X10307615Y-10451984D02*
X10326662Y-10461508D01*
X10326662Y-10461508D02*
X10336186Y-10471031D01*
X10336186Y-10471031D02*
X10345710Y-10490079D01*
X10345710Y-10490079D02*
X10355234Y-10528174D01*
X10355234Y-10528174D02*
X10355234Y-10575793D01*
X10355234Y-10575793D02*
X10345710Y-10613889D01*
X10345710Y-10613889D02*
X10336186Y-10632936D01*
X10336186Y-10632936D02*
X10326662Y-10642460D01*
X10326662Y-10642460D02*
X10307615Y-10651984D01*
X10307615Y-10651984D02*
X10288567Y-10651984D01*
X10288567Y-10651984D02*
X10269520Y-10642460D01*
X10269520Y-10642460D02*
X10259996Y-10632936D01*
X10259996Y-10632936D02*
X10250472Y-10613889D01*
X10250472Y-10613889D02*
X10240948Y-10575793D01*
X10240948Y-10575793D02*
X10240948Y-10528174D01*
X10240948Y-10528174D02*
X10250472Y-10490079D01*
X10250472Y-10490079D02*
X10259996Y-10471031D01*
X10259996Y-10471031D02*
X10269520Y-10461508D01*
X10269520Y-10461508D02*
X10288567Y-10451984D01*
X10421901Y-10451984D02*
X10545710Y-10451984D01*
X10545710Y-10451984D02*
X10479043Y-10528174D01*
X10479043Y-10528174D02*
X10507615Y-10528174D01*
X10507615Y-10528174D02*
X10526662Y-10537698D01*
X10526662Y-10537698D02*
X10536186Y-10547222D01*
X10536186Y-10547222D02*
X10545710Y-10566270D01*
X10545710Y-10566270D02*
X10545710Y-10613889D01*
X10545710Y-10613889D02*
X10536186Y-10632936D01*
X10536186Y-10632936D02*
X10526662Y-10642460D01*
X10526662Y-10642460D02*
X10507615Y-10651984D01*
X10507615Y-10651984D02*
X10450472Y-10651984D01*
X10450472Y-10651984D02*
X10431424Y-10642460D01*
X10431424Y-10642460D02*
X10421901Y-10632936D01*
X10736186Y-10651984D02*
X10621901Y-10651984D01*
X10679043Y-10651984D02*
X10679043Y-10451984D01*
X10679043Y-10451984D02*
X10659996Y-10480555D01*
X10659996Y-10480555D02*
X10640948Y-10499603D01*
X10640948Y-10499603D02*
X10621901Y-10509127D01*
X10917139Y-10451984D02*
X10821901Y-10451984D01*
X10821901Y-10451984D02*
X10812377Y-10547222D01*
X10812377Y-10547222D02*
X10821901Y-10537698D01*
X10821901Y-10537698D02*
X10840948Y-10528174D01*
X10840948Y-10528174D02*
X10888567Y-10528174D01*
X10888567Y-10528174D02*
X10907615Y-10537698D01*
X10907615Y-10537698D02*
X10917139Y-10547222D01*
X10917139Y-10547222D02*
X10926662Y-10566270D01*
X10926662Y-10566270D02*
X10926662Y-10613889D01*
X10926662Y-10613889D02*
X10917139Y-10632936D01*
X10917139Y-10632936D02*
X10907615Y-10642460D01*
X10907615Y-10642460D02*
X10888567Y-10651984D01*
X10888567Y-10651984D02*
X10840948Y-10651984D01*
X10840948Y-10651984D02*
X10821901Y-10642460D01*
X10821901Y-10642460D02*
X10812377Y-10632936D01*
X11002853Y-10451984D02*
X11002853Y-10490079D01*
X11079043Y-10451984D02*
X11079043Y-10490079D01*
X11374282Y-10728174D02*
X11364758Y-10718650D01*
X11364758Y-10718650D02*
X11345710Y-10690079D01*
X11345710Y-10690079D02*
X11336186Y-10671031D01*
X11336186Y-10671031D02*
X11326662Y-10642460D01*
X11326662Y-10642460D02*
X11317139Y-10594841D01*
X11317139Y-10594841D02*
X11317139Y-10556746D01*
X11317139Y-10556746D02*
X11326662Y-10509127D01*
X11326662Y-10509127D02*
X11336186Y-10480555D01*
X11336186Y-10480555D02*
X11345710Y-10461508D01*
X11345710Y-10461508D02*
X11364758Y-10432936D01*
X11364758Y-10432936D02*
X11374282Y-10423412D01*
X11555234Y-10651984D02*
X11440948Y-10651984D01*
X11498091Y-10651984D02*
X11498091Y-10451984D01*
X11498091Y-10451984D02*
X11479043Y-10480555D01*
X11479043Y-10480555D02*
X11459996Y-10499603D01*
X11459996Y-10499603D02*
X11440948Y-10509127D01*
X11726662Y-10451984D02*
X11688567Y-10451984D01*
X11688567Y-10451984D02*
X11669520Y-10461508D01*
X11669520Y-10461508D02*
X11659996Y-10471031D01*
X11659996Y-10471031D02*
X11640948Y-10499603D01*
X11640948Y-10499603D02*
X11631424Y-10537698D01*
X11631424Y-10537698D02*
X11631424Y-10613889D01*
X11631424Y-10613889D02*
X11640948Y-10632936D01*
X11640948Y-10632936D02*
X11650472Y-10642460D01*
X11650472Y-10642460D02*
X11669520Y-10651984D01*
X11669520Y-10651984D02*
X11707615Y-10651984D01*
X11707615Y-10651984D02*
X11726662Y-10642460D01*
X11726662Y-10642460D02*
X11736186Y-10632936D01*
X11736186Y-10632936D02*
X11745710Y-10613889D01*
X11745710Y-10613889D02*
X11745710Y-10566270D01*
X11745710Y-10566270D02*
X11736186Y-10547222D01*
X11736186Y-10547222D02*
X11726662Y-10537698D01*
X11726662Y-10537698D02*
X11707615Y-10528174D01*
X11707615Y-10528174D02*
X11669520Y-10528174D01*
X11669520Y-10528174D02*
X11650472Y-10537698D01*
X11650472Y-10537698D02*
X11640948Y-10547222D01*
X11640948Y-10547222D02*
X11631424Y-10566270D01*
X11983805Y-10651984D02*
X11983805Y-10451984D01*
X12069520Y-10651984D02*
X12069520Y-10547222D01*
X12069520Y-10547222D02*
X12059996Y-10528174D01*
X12059996Y-10528174D02*
X12040948Y-10518650D01*
X12040948Y-10518650D02*
X12012377Y-10518650D01*
X12012377Y-10518650D02*
X11993329Y-10528174D01*
X11993329Y-10528174D02*
X11983805Y-10537698D01*
X12193329Y-10651984D02*
X12174282Y-10642460D01*
X12174282Y-10642460D02*
X12164758Y-10632936D01*
X12164758Y-10632936D02*
X12155234Y-10613889D01*
X12155234Y-10613889D02*
X12155234Y-10556746D01*
X12155234Y-10556746D02*
X12164758Y-10537698D01*
X12164758Y-10537698D02*
X12174282Y-10528174D01*
X12174282Y-10528174D02*
X12193329Y-10518650D01*
X12193329Y-10518650D02*
X12221901Y-10518650D01*
X12221901Y-10518650D02*
X12240948Y-10528174D01*
X12240948Y-10528174D02*
X12250472Y-10537698D01*
X12250472Y-10537698D02*
X12259996Y-10556746D01*
X12259996Y-10556746D02*
X12259996Y-10613889D01*
X12259996Y-10613889D02*
X12250472Y-10632936D01*
X12250472Y-10632936D02*
X12240948Y-10642460D01*
X12240948Y-10642460D02*
X12221901Y-10651984D01*
X12221901Y-10651984D02*
X12193329Y-10651984D01*
X12374282Y-10651984D02*
X12355234Y-10642460D01*
X12355234Y-10642460D02*
X12345710Y-10623412D01*
X12345710Y-10623412D02*
X12345710Y-10451984D01*
X12526663Y-10642460D02*
X12507615Y-10651984D01*
X12507615Y-10651984D02*
X12469520Y-10651984D01*
X12469520Y-10651984D02*
X12450472Y-10642460D01*
X12450472Y-10642460D02*
X12440948Y-10623412D01*
X12440948Y-10623412D02*
X12440948Y-10547222D01*
X12440948Y-10547222D02*
X12450472Y-10528174D01*
X12450472Y-10528174D02*
X12469520Y-10518650D01*
X12469520Y-10518650D02*
X12507615Y-10518650D01*
X12507615Y-10518650D02*
X12526663Y-10528174D01*
X12526663Y-10528174D02*
X12536186Y-10547222D01*
X12536186Y-10547222D02*
X12536186Y-10566270D01*
X12536186Y-10566270D02*
X12440948Y-10585317D01*
X12612377Y-10642460D02*
X12631424Y-10651984D01*
X12631424Y-10651984D02*
X12669520Y-10651984D01*
X12669520Y-10651984D02*
X12688567Y-10642460D01*
X12688567Y-10642460D02*
X12698091Y-10623412D01*
X12698091Y-10623412D02*
X12698091Y-10613889D01*
X12698091Y-10613889D02*
X12688567Y-10594841D01*
X12688567Y-10594841D02*
X12669520Y-10585317D01*
X12669520Y-10585317D02*
X12640948Y-10585317D01*
X12640948Y-10585317D02*
X12621901Y-10575793D01*
X12621901Y-10575793D02*
X12612377Y-10556746D01*
X12612377Y-10556746D02*
X12612377Y-10547222D01*
X12612377Y-10547222D02*
X12621901Y-10528174D01*
X12621901Y-10528174D02*
X12640948Y-10518650D01*
X12640948Y-10518650D02*
X12669520Y-10518650D01*
X12669520Y-10518650D02*
X12688567Y-10528174D01*
X12764758Y-10728174D02*
X12774282Y-10718650D01*
X12774282Y-10718650D02*
X12793329Y-10690079D01*
X12793329Y-10690079D02*
X12802853Y-10671031D01*
X12802853Y-10671031D02*
X12812377Y-10642460D01*
X12812377Y-10642460D02*
X12821901Y-10594841D01*
X12821901Y-10594841D02*
X12821901Y-10556746D01*
X12821901Y-10556746D02*
X12812377Y-10509127D01*
X12812377Y-10509127D02*
X12802853Y-10480555D01*
X12802853Y-10480555D02*
X12793329Y-10461508D01*
X12793329Y-10461508D02*
X12774282Y-10432936D01*
X12774282Y-10432936D02*
X12764758Y-10423412D01*
D19*
X7709219Y-10779500D02*
X7799219Y-10869500D01*
X7799219Y-10779500D02*
X7709219Y-10869500D01*
X7786039Y-10856320D02*
X7786039Y-10792680D01*
X7722399Y-10792680D01*
X7722399Y-10856320D01*
X7786039Y-10856320D01*
D11*
X8098091Y-10715984D02*
X8117138Y-10715984D01*
X8117138Y-10715984D02*
X8136186Y-10725508D01*
X8136186Y-10725508D02*
X8145710Y-10735031D01*
X8145710Y-10735031D02*
X8155234Y-10754079D01*
X8155234Y-10754079D02*
X8164757Y-10792174D01*
X8164757Y-10792174D02*
X8164757Y-10839793D01*
X8164757Y-10839793D02*
X8155234Y-10877889D01*
X8155234Y-10877889D02*
X8145710Y-10896936D01*
X8145710Y-10896936D02*
X8136186Y-10906460D01*
X8136186Y-10906460D02*
X8117138Y-10915984D01*
X8117138Y-10915984D02*
X8098091Y-10915984D01*
X8098091Y-10915984D02*
X8079043Y-10906460D01*
X8079043Y-10906460D02*
X8069519Y-10896936D01*
X8069519Y-10896936D02*
X8059995Y-10877889D01*
X8059995Y-10877889D02*
X8050472Y-10839793D01*
X8050472Y-10839793D02*
X8050472Y-10792174D01*
X8050472Y-10792174D02*
X8059995Y-10754079D01*
X8059995Y-10754079D02*
X8069519Y-10735031D01*
X8069519Y-10735031D02*
X8079043Y-10725508D01*
X8079043Y-10725508D02*
X8098091Y-10715984D01*
X8250472Y-10896936D02*
X8259995Y-10906460D01*
X8259995Y-10906460D02*
X8250472Y-10915984D01*
X8250472Y-10915984D02*
X8240948Y-10906460D01*
X8240948Y-10906460D02*
X8250472Y-10896936D01*
X8250472Y-10896936D02*
X8250472Y-10915984D01*
X8355234Y-10915984D02*
X8393329Y-10915984D01*
X8393329Y-10915984D02*
X8412377Y-10906460D01*
X8412377Y-10906460D02*
X8421900Y-10896936D01*
X8421900Y-10896936D02*
X8440948Y-10868365D01*
X8440948Y-10868365D02*
X8450472Y-10830270D01*
X8450472Y-10830270D02*
X8450472Y-10754079D01*
X8450472Y-10754079D02*
X8440948Y-10735031D01*
X8440948Y-10735031D02*
X8431424Y-10725508D01*
X8431424Y-10725508D02*
X8412377Y-10715984D01*
X8412377Y-10715984D02*
X8374281Y-10715984D01*
X8374281Y-10715984D02*
X8355234Y-10725508D01*
X8355234Y-10725508D02*
X8345710Y-10735031D01*
X8345710Y-10735031D02*
X8336186Y-10754079D01*
X8336186Y-10754079D02*
X8336186Y-10801698D01*
X8336186Y-10801698D02*
X8345710Y-10820746D01*
X8345710Y-10820746D02*
X8355234Y-10830270D01*
X8355234Y-10830270D02*
X8374281Y-10839793D01*
X8374281Y-10839793D02*
X8412377Y-10839793D01*
X8412377Y-10839793D02*
X8431424Y-10830270D01*
X8431424Y-10830270D02*
X8440948Y-10820746D01*
X8440948Y-10820746D02*
X8450472Y-10801698D01*
X8574281Y-10715984D02*
X8593329Y-10715984D01*
X8593329Y-10715984D02*
X8612377Y-10725508D01*
X8612377Y-10725508D02*
X8621900Y-10735031D01*
X8621900Y-10735031D02*
X8631424Y-10754079D01*
X8631424Y-10754079D02*
X8640948Y-10792174D01*
X8640948Y-10792174D02*
X8640948Y-10839793D01*
X8640948Y-10839793D02*
X8631424Y-10877889D01*
X8631424Y-10877889D02*
X8621900Y-10896936D01*
X8621900Y-10896936D02*
X8612377Y-10906460D01*
X8612377Y-10906460D02*
X8593329Y-10915984D01*
X8593329Y-10915984D02*
X8574281Y-10915984D01*
X8574281Y-10915984D02*
X8555234Y-10906460D01*
X8555234Y-10906460D02*
X8545710Y-10896936D01*
X8545710Y-10896936D02*
X8536186Y-10877889D01*
X8536186Y-10877889D02*
X8526662Y-10839793D01*
X8526662Y-10839793D02*
X8526662Y-10792174D01*
X8526662Y-10792174D02*
X8536186Y-10754079D01*
X8536186Y-10754079D02*
X8545710Y-10735031D01*
X8545710Y-10735031D02*
X8555234Y-10725508D01*
X8555234Y-10725508D02*
X8574281Y-10715984D01*
X8764757Y-10715984D02*
X8783805Y-10715984D01*
X8783805Y-10715984D02*
X8802853Y-10725508D01*
X8802853Y-10725508D02*
X8812377Y-10735031D01*
X8812377Y-10735031D02*
X8821900Y-10754079D01*
X8821900Y-10754079D02*
X8831424Y-10792174D01*
X8831424Y-10792174D02*
X8831424Y-10839793D01*
X8831424Y-10839793D02*
X8821900Y-10877889D01*
X8821900Y-10877889D02*
X8812377Y-10896936D01*
X8812377Y-10896936D02*
X8802853Y-10906460D01*
X8802853Y-10906460D02*
X8783805Y-10915984D01*
X8783805Y-10915984D02*
X8764757Y-10915984D01*
X8764757Y-10915984D02*
X8745710Y-10906460D01*
X8745710Y-10906460D02*
X8736186Y-10896936D01*
X8736186Y-10896936D02*
X8726662Y-10877889D01*
X8726662Y-10877889D02*
X8717138Y-10839793D01*
X8717138Y-10839793D02*
X8717138Y-10792174D01*
X8717138Y-10792174D02*
X8726662Y-10754079D01*
X8726662Y-10754079D02*
X8736186Y-10735031D01*
X8736186Y-10735031D02*
X8745710Y-10725508D01*
X8745710Y-10725508D02*
X8764757Y-10715984D01*
X8917138Y-10915984D02*
X8917138Y-10782650D01*
X8917138Y-10801698D02*
X8926662Y-10792174D01*
X8926662Y-10792174D02*
X8945710Y-10782650D01*
X8945710Y-10782650D02*
X8974281Y-10782650D01*
X8974281Y-10782650D02*
X8993329Y-10792174D01*
X8993329Y-10792174D02*
X9002853Y-10811222D01*
X9002853Y-10811222D02*
X9002853Y-10915984D01*
X9002853Y-10811222D02*
X9012377Y-10792174D01*
X9012377Y-10792174D02*
X9031424Y-10782650D01*
X9031424Y-10782650D02*
X9059996Y-10782650D01*
X9059996Y-10782650D02*
X9079043Y-10792174D01*
X9079043Y-10792174D02*
X9088567Y-10811222D01*
X9088567Y-10811222D02*
X9088567Y-10915984D01*
X9183805Y-10915984D02*
X9183805Y-10782650D01*
X9183805Y-10801698D02*
X9193329Y-10792174D01*
X9193329Y-10792174D02*
X9212377Y-10782650D01*
X9212377Y-10782650D02*
X9240948Y-10782650D01*
X9240948Y-10782650D02*
X9259996Y-10792174D01*
X9259996Y-10792174D02*
X9269519Y-10811222D01*
X9269519Y-10811222D02*
X9269519Y-10915984D01*
X9269519Y-10811222D02*
X9279043Y-10792174D01*
X9279043Y-10792174D02*
X9298091Y-10782650D01*
X9298091Y-10782650D02*
X9326662Y-10782650D01*
X9326662Y-10782650D02*
X9345710Y-10792174D01*
X9345710Y-10792174D02*
X9355234Y-10811222D01*
X9355234Y-10811222D02*
X9355234Y-10915984D01*
X9745710Y-10706460D02*
X9574281Y-10963603D01*
X10002853Y-10715984D02*
X10021901Y-10715984D01*
X10021901Y-10715984D02*
X10040948Y-10725508D01*
X10040948Y-10725508D02*
X10050472Y-10735031D01*
X10050472Y-10735031D02*
X10059996Y-10754079D01*
X10059996Y-10754079D02*
X10069520Y-10792174D01*
X10069520Y-10792174D02*
X10069520Y-10839793D01*
X10069520Y-10839793D02*
X10059996Y-10877889D01*
X10059996Y-10877889D02*
X10050472Y-10896936D01*
X10050472Y-10896936D02*
X10040948Y-10906460D01*
X10040948Y-10906460D02*
X10021901Y-10915984D01*
X10021901Y-10915984D02*
X10002853Y-10915984D01*
X10002853Y-10915984D02*
X9983805Y-10906460D01*
X9983805Y-10906460D02*
X9974281Y-10896936D01*
X9974281Y-10896936D02*
X9964758Y-10877889D01*
X9964758Y-10877889D02*
X9955234Y-10839793D01*
X9955234Y-10839793D02*
X9955234Y-10792174D01*
X9955234Y-10792174D02*
X9964758Y-10754079D01*
X9964758Y-10754079D02*
X9974281Y-10735031D01*
X9974281Y-10735031D02*
X9983805Y-10725508D01*
X9983805Y-10725508D02*
X10002853Y-10715984D01*
X10155234Y-10896936D02*
X10164758Y-10906460D01*
X10164758Y-10906460D02*
X10155234Y-10915984D01*
X10155234Y-10915984D02*
X10145710Y-10906460D01*
X10145710Y-10906460D02*
X10155234Y-10896936D01*
X10155234Y-10896936D02*
X10155234Y-10915984D01*
X10288567Y-10715984D02*
X10307615Y-10715984D01*
X10307615Y-10715984D02*
X10326662Y-10725508D01*
X10326662Y-10725508D02*
X10336186Y-10735031D01*
X10336186Y-10735031D02*
X10345710Y-10754079D01*
X10345710Y-10754079D02*
X10355234Y-10792174D01*
X10355234Y-10792174D02*
X10355234Y-10839793D01*
X10355234Y-10839793D02*
X10345710Y-10877889D01*
X10345710Y-10877889D02*
X10336186Y-10896936D01*
X10336186Y-10896936D02*
X10326662Y-10906460D01*
X10326662Y-10906460D02*
X10307615Y-10915984D01*
X10307615Y-10915984D02*
X10288567Y-10915984D01*
X10288567Y-10915984D02*
X10269520Y-10906460D01*
X10269520Y-10906460D02*
X10259996Y-10896936D01*
X10259996Y-10896936D02*
X10250472Y-10877889D01*
X10250472Y-10877889D02*
X10240948Y-10839793D01*
X10240948Y-10839793D02*
X10240948Y-10792174D01*
X10240948Y-10792174D02*
X10250472Y-10754079D01*
X10250472Y-10754079D02*
X10259996Y-10735031D01*
X10259996Y-10735031D02*
X10269520Y-10725508D01*
X10269520Y-10725508D02*
X10288567Y-10715984D01*
X10421901Y-10715984D02*
X10545710Y-10715984D01*
X10545710Y-10715984D02*
X10479043Y-10792174D01*
X10479043Y-10792174D02*
X10507615Y-10792174D01*
X10507615Y-10792174D02*
X10526662Y-10801698D01*
X10526662Y-10801698D02*
X10536186Y-10811222D01*
X10536186Y-10811222D02*
X10545710Y-10830270D01*
X10545710Y-10830270D02*
X10545710Y-10877889D01*
X10545710Y-10877889D02*
X10536186Y-10896936D01*
X10536186Y-10896936D02*
X10526662Y-10906460D01*
X10526662Y-10906460D02*
X10507615Y-10915984D01*
X10507615Y-10915984D02*
X10450472Y-10915984D01*
X10450472Y-10915984D02*
X10431424Y-10906460D01*
X10431424Y-10906460D02*
X10421901Y-10896936D01*
X10726662Y-10715984D02*
X10631424Y-10715984D01*
X10631424Y-10715984D02*
X10621901Y-10811222D01*
X10621901Y-10811222D02*
X10631424Y-10801698D01*
X10631424Y-10801698D02*
X10650472Y-10792174D01*
X10650472Y-10792174D02*
X10698091Y-10792174D01*
X10698091Y-10792174D02*
X10717139Y-10801698D01*
X10717139Y-10801698D02*
X10726662Y-10811222D01*
X10726662Y-10811222D02*
X10736186Y-10830270D01*
X10736186Y-10830270D02*
X10736186Y-10877889D01*
X10736186Y-10877889D02*
X10726662Y-10896936D01*
X10726662Y-10896936D02*
X10717139Y-10906460D01*
X10717139Y-10906460D02*
X10698091Y-10915984D01*
X10698091Y-10915984D02*
X10650472Y-10915984D01*
X10650472Y-10915984D02*
X10631424Y-10906460D01*
X10631424Y-10906460D02*
X10621901Y-10896936D01*
X10907615Y-10782650D02*
X10907615Y-10915984D01*
X10859996Y-10706460D02*
X10812377Y-10849317D01*
X10812377Y-10849317D02*
X10936186Y-10849317D01*
X11002853Y-10715984D02*
X11002853Y-10754079D01*
X11079043Y-10715984D02*
X11079043Y-10754079D01*
X11374282Y-10992174D02*
X11364758Y-10982650D01*
X11364758Y-10982650D02*
X11345710Y-10954079D01*
X11345710Y-10954079D02*
X11336186Y-10935031D01*
X11336186Y-10935031D02*
X11326662Y-10906460D01*
X11326662Y-10906460D02*
X11317139Y-10858841D01*
X11317139Y-10858841D02*
X11317139Y-10820746D01*
X11317139Y-10820746D02*
X11326662Y-10773127D01*
X11326662Y-10773127D02*
X11336186Y-10744555D01*
X11336186Y-10744555D02*
X11345710Y-10725508D01*
X11345710Y-10725508D02*
X11364758Y-10696936D01*
X11364758Y-10696936D02*
X11374282Y-10687412D01*
X11440948Y-10735031D02*
X11450472Y-10725508D01*
X11450472Y-10725508D02*
X11469520Y-10715984D01*
X11469520Y-10715984D02*
X11517139Y-10715984D01*
X11517139Y-10715984D02*
X11536186Y-10725508D01*
X11536186Y-10725508D02*
X11545710Y-10735031D01*
X11545710Y-10735031D02*
X11555234Y-10754079D01*
X11555234Y-10754079D02*
X11555234Y-10773127D01*
X11555234Y-10773127D02*
X11545710Y-10801698D01*
X11545710Y-10801698D02*
X11431424Y-10915984D01*
X11431424Y-10915984D02*
X11555234Y-10915984D01*
X11793329Y-10915984D02*
X11793329Y-10715984D01*
X11879043Y-10915984D02*
X11879043Y-10811222D01*
X11879043Y-10811222D02*
X11869520Y-10792174D01*
X11869520Y-10792174D02*
X11850472Y-10782650D01*
X11850472Y-10782650D02*
X11821901Y-10782650D01*
X11821901Y-10782650D02*
X11802853Y-10792174D01*
X11802853Y-10792174D02*
X11793329Y-10801698D01*
X12002853Y-10915984D02*
X11983805Y-10906460D01*
X11983805Y-10906460D02*
X11974282Y-10896936D01*
X11974282Y-10896936D02*
X11964758Y-10877889D01*
X11964758Y-10877889D02*
X11964758Y-10820746D01*
X11964758Y-10820746D02*
X11974282Y-10801698D01*
X11974282Y-10801698D02*
X11983805Y-10792174D01*
X11983805Y-10792174D02*
X12002853Y-10782650D01*
X12002853Y-10782650D02*
X12031424Y-10782650D01*
X12031424Y-10782650D02*
X12050472Y-10792174D01*
X12050472Y-10792174D02*
X12059996Y-10801698D01*
X12059996Y-10801698D02*
X12069520Y-10820746D01*
X12069520Y-10820746D02*
X12069520Y-10877889D01*
X12069520Y-10877889D02*
X12059996Y-10896936D01*
X12059996Y-10896936D02*
X12050472Y-10906460D01*
X12050472Y-10906460D02*
X12031424Y-10915984D01*
X12031424Y-10915984D02*
X12002853Y-10915984D01*
X12183805Y-10915984D02*
X12164758Y-10906460D01*
X12164758Y-10906460D02*
X12155234Y-10887412D01*
X12155234Y-10887412D02*
X12155234Y-10715984D01*
X12336186Y-10906460D02*
X12317139Y-10915984D01*
X12317139Y-10915984D02*
X12279043Y-10915984D01*
X12279043Y-10915984D02*
X12259996Y-10906460D01*
X12259996Y-10906460D02*
X12250472Y-10887412D01*
X12250472Y-10887412D02*
X12250472Y-10811222D01*
X12250472Y-10811222D02*
X12259996Y-10792174D01*
X12259996Y-10792174D02*
X12279043Y-10782650D01*
X12279043Y-10782650D02*
X12317139Y-10782650D01*
X12317139Y-10782650D02*
X12336186Y-10792174D01*
X12336186Y-10792174D02*
X12345710Y-10811222D01*
X12345710Y-10811222D02*
X12345710Y-10830270D01*
X12345710Y-10830270D02*
X12250472Y-10849317D01*
X12421901Y-10906460D02*
X12440948Y-10915984D01*
X12440948Y-10915984D02*
X12479043Y-10915984D01*
X12479043Y-10915984D02*
X12498091Y-10906460D01*
X12498091Y-10906460D02*
X12507615Y-10887412D01*
X12507615Y-10887412D02*
X12507615Y-10877889D01*
X12507615Y-10877889D02*
X12498091Y-10858841D01*
X12498091Y-10858841D02*
X12479043Y-10849317D01*
X12479043Y-10849317D02*
X12450472Y-10849317D01*
X12450472Y-10849317D02*
X12431424Y-10839793D01*
X12431424Y-10839793D02*
X12421901Y-10820746D01*
X12421901Y-10820746D02*
X12421901Y-10811222D01*
X12421901Y-10811222D02*
X12431424Y-10792174D01*
X12431424Y-10792174D02*
X12450472Y-10782650D01*
X12450472Y-10782650D02*
X12479043Y-10782650D01*
X12479043Y-10782650D02*
X12498091Y-10792174D01*
X12574282Y-10992174D02*
X12583805Y-10982650D01*
X12583805Y-10982650D02*
X12602853Y-10954079D01*
X12602853Y-10954079D02*
X12612377Y-10935031D01*
X12612377Y-10935031D02*
X12621901Y-10906460D01*
X12621901Y-10906460D02*
X12631424Y-10858841D01*
X12631424Y-10858841D02*
X12631424Y-10820746D01*
X12631424Y-10820746D02*
X12621901Y-10773127D01*
X12621901Y-10773127D02*
X12612377Y-10744555D01*
X12612377Y-10744555D02*
X12602853Y-10725508D01*
X12602853Y-10725508D02*
X12583805Y-10696936D01*
X12583805Y-10696936D02*
X12574282Y-10687412D01*
M02*
