%TF.GenerationSoftware,KiCad,Pcbnew,7.0.5*%
%TF.CreationDate,2023-07-24T14:19:45-04:00*%
%TF.ProjectId,GPSPCB,47505350-4342-42e6-9b69-6361645f7063,00*%
%TF.SameCoordinates,Original*%
%TF.FileFunction,Drillmap*%
%TF.FilePolarity,Positive*%
%FSLAX45Y45*%
G04 Gerber Fmt 4.5, Leading zero omitted, Abs format (unit mm)*
G04 Created by KiCad (PCBNEW 7.0.5) date 2023-07-24 14:19:45*
%MOMM*%
%LPD*%
G01*
G04 APERTURE LIST*
%ADD10C,0.050000*%
%ADD11C,0.200000*%
%ADD12C,0.060000*%
%ADD13C,0.063000*%
%ADD14C,0.210000*%
G04 APERTURE END LIST*
D10*
X8056812Y-5021812D02*
G75*
G03*
X7801812Y-5276812I-6812J-248188D01*
G01*
X12220000Y-8334000D02*
G75*
G03*
X12469000Y-8085000I0J249000D01*
G01*
X8056812Y-5021812D02*
X12212500Y-5025000D01*
X7806812Y-8078188D02*
G75*
G03*
X8061812Y-8333188I249998J-5002D01*
G01*
X7806812Y-7731812D02*
X7801812Y-5276812D01*
X7806812Y-7731812D02*
X7806812Y-8078188D01*
X12469000Y-8085000D02*
X12467500Y-5280000D01*
X12467500Y-5280000D02*
G75*
G03*
X12212500Y-5025000I-250000J5000D01*
G01*
X12220000Y-8334000D02*
X8061812Y-8333188D01*
D11*
D12*
X10512000Y-5504000D02*
X10572000Y-5564000D01*
X10572000Y-5504000D02*
X10512000Y-5564000D01*
D13*
X9973500Y-5534000D02*
G75*
G03*
X9973500Y-5534000I-31500J0D01*
G01*
X10573500Y-5534000D02*
G75*
G03*
X10573500Y-5534000I-31500J0D01*
G01*
D14*
X8050000Y-5165000D02*
X8050000Y-5375000D01*
X7945000Y-5270000D02*
X8155000Y-5270000D01*
X8050000Y-7980000D02*
X8050000Y-8190000D01*
X7945000Y-8085000D02*
X8155000Y-8085000D01*
X12220000Y-5165000D02*
X12220000Y-5375000D01*
X12115000Y-5270000D02*
X12325000Y-5270000D01*
X12220000Y-7980000D02*
X12220000Y-8190000D01*
X12115000Y-8085000D02*
X12325000Y-8085000D01*
D11*
X8059995Y-8647984D02*
X8059995Y-8447984D01*
X8059995Y-8447984D02*
X8107614Y-8447984D01*
X8107614Y-8447984D02*
X8136186Y-8457508D01*
X8136186Y-8457508D02*
X8155234Y-8476555D01*
X8155234Y-8476555D02*
X8164757Y-8495603D01*
X8164757Y-8495603D02*
X8174281Y-8533698D01*
X8174281Y-8533698D02*
X8174281Y-8562270D01*
X8174281Y-8562270D02*
X8164757Y-8600365D01*
X8164757Y-8600365D02*
X8155234Y-8619412D01*
X8155234Y-8619412D02*
X8136186Y-8638460D01*
X8136186Y-8638460D02*
X8107614Y-8647984D01*
X8107614Y-8647984D02*
X8059995Y-8647984D01*
X8259995Y-8647984D02*
X8259995Y-8514650D01*
X8259995Y-8552746D02*
X8269519Y-8533698D01*
X8269519Y-8533698D02*
X8279043Y-8524174D01*
X8279043Y-8524174D02*
X8298091Y-8514650D01*
X8298091Y-8514650D02*
X8317138Y-8514650D01*
X8383805Y-8647984D02*
X8383805Y-8514650D01*
X8383805Y-8447984D02*
X8374281Y-8457508D01*
X8374281Y-8457508D02*
X8383805Y-8467031D01*
X8383805Y-8467031D02*
X8393329Y-8457508D01*
X8393329Y-8457508D02*
X8383805Y-8447984D01*
X8383805Y-8447984D02*
X8383805Y-8467031D01*
X8507615Y-8647984D02*
X8488567Y-8638460D01*
X8488567Y-8638460D02*
X8479043Y-8619412D01*
X8479043Y-8619412D02*
X8479043Y-8447984D01*
X8612376Y-8647984D02*
X8593329Y-8638460D01*
X8593329Y-8638460D02*
X8583805Y-8619412D01*
X8583805Y-8619412D02*
X8583805Y-8447984D01*
X8840948Y-8647984D02*
X8840948Y-8447984D01*
X8840948Y-8447984D02*
X8907615Y-8590841D01*
X8907615Y-8590841D02*
X8974281Y-8447984D01*
X8974281Y-8447984D02*
X8974281Y-8647984D01*
X9155234Y-8647984D02*
X9155234Y-8543222D01*
X9155234Y-8543222D02*
X9145710Y-8524174D01*
X9145710Y-8524174D02*
X9126662Y-8514650D01*
X9126662Y-8514650D02*
X9088567Y-8514650D01*
X9088567Y-8514650D02*
X9069519Y-8524174D01*
X9155234Y-8638460D02*
X9136186Y-8647984D01*
X9136186Y-8647984D02*
X9088567Y-8647984D01*
X9088567Y-8647984D02*
X9069519Y-8638460D01*
X9069519Y-8638460D02*
X9059996Y-8619412D01*
X9059996Y-8619412D02*
X9059996Y-8600365D01*
X9059996Y-8600365D02*
X9069519Y-8581317D01*
X9069519Y-8581317D02*
X9088567Y-8571793D01*
X9088567Y-8571793D02*
X9136186Y-8571793D01*
X9136186Y-8571793D02*
X9155234Y-8562270D01*
X9250472Y-8514650D02*
X9250472Y-8714650D01*
X9250472Y-8524174D02*
X9269519Y-8514650D01*
X9269519Y-8514650D02*
X9307615Y-8514650D01*
X9307615Y-8514650D02*
X9326662Y-8524174D01*
X9326662Y-8524174D02*
X9336186Y-8533698D01*
X9336186Y-8533698D02*
X9345710Y-8552746D01*
X9345710Y-8552746D02*
X9345710Y-8609889D01*
X9345710Y-8609889D02*
X9336186Y-8628936D01*
X9336186Y-8628936D02*
X9326662Y-8638460D01*
X9326662Y-8638460D02*
X9307615Y-8647984D01*
X9307615Y-8647984D02*
X9269519Y-8647984D01*
X9269519Y-8647984D02*
X9250472Y-8638460D01*
X9431424Y-8628936D02*
X9440948Y-8638460D01*
X9440948Y-8638460D02*
X9431424Y-8647984D01*
X9431424Y-8647984D02*
X9421900Y-8638460D01*
X9421900Y-8638460D02*
X9431424Y-8628936D01*
X9431424Y-8628936D02*
X9431424Y-8647984D01*
X9431424Y-8524174D02*
X9440948Y-8533698D01*
X9440948Y-8533698D02*
X9431424Y-8543222D01*
X9431424Y-8543222D02*
X9421900Y-8533698D01*
X9421900Y-8533698D02*
X9431424Y-8524174D01*
X9431424Y-8524174D02*
X9431424Y-8543222D01*
D12*
X7739219Y-8946500D02*
X7799219Y-9006500D01*
X7799219Y-8946500D02*
X7739219Y-9006500D01*
D11*
X8098091Y-8867984D02*
X8117138Y-8867984D01*
X8117138Y-8867984D02*
X8136186Y-8877508D01*
X8136186Y-8877508D02*
X8145710Y-8887031D01*
X8145710Y-8887031D02*
X8155234Y-8906079D01*
X8155234Y-8906079D02*
X8164757Y-8944174D01*
X8164757Y-8944174D02*
X8164757Y-8991793D01*
X8164757Y-8991793D02*
X8155234Y-9029889D01*
X8155234Y-9029889D02*
X8145710Y-9048936D01*
X8145710Y-9048936D02*
X8136186Y-9058460D01*
X8136186Y-9058460D02*
X8117138Y-9067984D01*
X8117138Y-9067984D02*
X8098091Y-9067984D01*
X8098091Y-9067984D02*
X8079043Y-9058460D01*
X8079043Y-9058460D02*
X8069519Y-9048936D01*
X8069519Y-9048936D02*
X8059995Y-9029889D01*
X8059995Y-9029889D02*
X8050472Y-8991793D01*
X8050472Y-8991793D02*
X8050472Y-8944174D01*
X8050472Y-8944174D02*
X8059995Y-8906079D01*
X8059995Y-8906079D02*
X8069519Y-8887031D01*
X8069519Y-8887031D02*
X8079043Y-8877508D01*
X8079043Y-8877508D02*
X8098091Y-8867984D01*
X8250472Y-9048936D02*
X8259995Y-9058460D01*
X8259995Y-9058460D02*
X8250472Y-9067984D01*
X8250472Y-9067984D02*
X8240948Y-9058460D01*
X8240948Y-9058460D02*
X8250472Y-9048936D01*
X8250472Y-9048936D02*
X8250472Y-9067984D01*
X8431424Y-8867984D02*
X8393329Y-8867984D01*
X8393329Y-8867984D02*
X8374281Y-8877508D01*
X8374281Y-8877508D02*
X8364757Y-8887031D01*
X8364757Y-8887031D02*
X8345710Y-8915603D01*
X8345710Y-8915603D02*
X8336186Y-8953698D01*
X8336186Y-8953698D02*
X8336186Y-9029889D01*
X8336186Y-9029889D02*
X8345710Y-9048936D01*
X8345710Y-9048936D02*
X8355234Y-9058460D01*
X8355234Y-9058460D02*
X8374281Y-9067984D01*
X8374281Y-9067984D02*
X8412377Y-9067984D01*
X8412377Y-9067984D02*
X8431424Y-9058460D01*
X8431424Y-9058460D02*
X8440948Y-9048936D01*
X8440948Y-9048936D02*
X8450472Y-9029889D01*
X8450472Y-9029889D02*
X8450472Y-8982270D01*
X8450472Y-8982270D02*
X8440948Y-8963222D01*
X8440948Y-8963222D02*
X8431424Y-8953698D01*
X8431424Y-8953698D02*
X8412377Y-8944174D01*
X8412377Y-8944174D02*
X8374281Y-8944174D01*
X8374281Y-8944174D02*
X8355234Y-8953698D01*
X8355234Y-8953698D02*
X8345710Y-8963222D01*
X8345710Y-8963222D02*
X8336186Y-8982270D01*
X8574281Y-8867984D02*
X8593329Y-8867984D01*
X8593329Y-8867984D02*
X8612377Y-8877508D01*
X8612377Y-8877508D02*
X8621900Y-8887031D01*
X8621900Y-8887031D02*
X8631424Y-8906079D01*
X8631424Y-8906079D02*
X8640948Y-8944174D01*
X8640948Y-8944174D02*
X8640948Y-8991793D01*
X8640948Y-8991793D02*
X8631424Y-9029889D01*
X8631424Y-9029889D02*
X8621900Y-9048936D01*
X8621900Y-9048936D02*
X8612377Y-9058460D01*
X8612377Y-9058460D02*
X8593329Y-9067984D01*
X8593329Y-9067984D02*
X8574281Y-9067984D01*
X8574281Y-9067984D02*
X8555234Y-9058460D01*
X8555234Y-9058460D02*
X8545710Y-9048936D01*
X8545710Y-9048936D02*
X8536186Y-9029889D01*
X8536186Y-9029889D02*
X8526662Y-8991793D01*
X8526662Y-8991793D02*
X8526662Y-8944174D01*
X8526662Y-8944174D02*
X8536186Y-8906079D01*
X8536186Y-8906079D02*
X8545710Y-8887031D01*
X8545710Y-8887031D02*
X8555234Y-8877508D01*
X8555234Y-8877508D02*
X8574281Y-8867984D01*
X8764757Y-8867984D02*
X8783805Y-8867984D01*
X8783805Y-8867984D02*
X8802853Y-8877508D01*
X8802853Y-8877508D02*
X8812377Y-8887031D01*
X8812377Y-8887031D02*
X8821900Y-8906079D01*
X8821900Y-8906079D02*
X8831424Y-8944174D01*
X8831424Y-8944174D02*
X8831424Y-8991793D01*
X8831424Y-8991793D02*
X8821900Y-9029889D01*
X8821900Y-9029889D02*
X8812377Y-9048936D01*
X8812377Y-9048936D02*
X8802853Y-9058460D01*
X8802853Y-9058460D02*
X8783805Y-9067984D01*
X8783805Y-9067984D02*
X8764757Y-9067984D01*
X8764757Y-9067984D02*
X8745710Y-9058460D01*
X8745710Y-9058460D02*
X8736186Y-9048936D01*
X8736186Y-9048936D02*
X8726662Y-9029889D01*
X8726662Y-9029889D02*
X8717138Y-8991793D01*
X8717138Y-8991793D02*
X8717138Y-8944174D01*
X8717138Y-8944174D02*
X8726662Y-8906079D01*
X8726662Y-8906079D02*
X8736186Y-8887031D01*
X8736186Y-8887031D02*
X8745710Y-8877508D01*
X8745710Y-8877508D02*
X8764757Y-8867984D01*
X8917138Y-9067984D02*
X8917138Y-8934650D01*
X8917138Y-8953698D02*
X8926662Y-8944174D01*
X8926662Y-8944174D02*
X8945710Y-8934650D01*
X8945710Y-8934650D02*
X8974281Y-8934650D01*
X8974281Y-8934650D02*
X8993329Y-8944174D01*
X8993329Y-8944174D02*
X9002853Y-8963222D01*
X9002853Y-8963222D02*
X9002853Y-9067984D01*
X9002853Y-8963222D02*
X9012377Y-8944174D01*
X9012377Y-8944174D02*
X9031424Y-8934650D01*
X9031424Y-8934650D02*
X9059996Y-8934650D01*
X9059996Y-8934650D02*
X9079043Y-8944174D01*
X9079043Y-8944174D02*
X9088567Y-8963222D01*
X9088567Y-8963222D02*
X9088567Y-9067984D01*
X9183805Y-9067984D02*
X9183805Y-8934650D01*
X9183805Y-8953698D02*
X9193329Y-8944174D01*
X9193329Y-8944174D02*
X9212377Y-8934650D01*
X9212377Y-8934650D02*
X9240948Y-8934650D01*
X9240948Y-8934650D02*
X9259996Y-8944174D01*
X9259996Y-8944174D02*
X9269519Y-8963222D01*
X9269519Y-8963222D02*
X9269519Y-9067984D01*
X9269519Y-8963222D02*
X9279043Y-8944174D01*
X9279043Y-8944174D02*
X9298091Y-8934650D01*
X9298091Y-8934650D02*
X9326662Y-8934650D01*
X9326662Y-8934650D02*
X9345710Y-8944174D01*
X9345710Y-8944174D02*
X9355234Y-8963222D01*
X9355234Y-8963222D02*
X9355234Y-9067984D01*
X9745710Y-8858460D02*
X9574281Y-9115603D01*
X10002853Y-8867984D02*
X10021901Y-8867984D01*
X10021901Y-8867984D02*
X10040948Y-8877508D01*
X10040948Y-8877508D02*
X10050472Y-8887031D01*
X10050472Y-8887031D02*
X10059996Y-8906079D01*
X10059996Y-8906079D02*
X10069520Y-8944174D01*
X10069520Y-8944174D02*
X10069520Y-8991793D01*
X10069520Y-8991793D02*
X10059996Y-9029889D01*
X10059996Y-9029889D02*
X10050472Y-9048936D01*
X10050472Y-9048936D02*
X10040948Y-9058460D01*
X10040948Y-9058460D02*
X10021901Y-9067984D01*
X10021901Y-9067984D02*
X10002853Y-9067984D01*
X10002853Y-9067984D02*
X9983805Y-9058460D01*
X9983805Y-9058460D02*
X9974281Y-9048936D01*
X9974281Y-9048936D02*
X9964758Y-9029889D01*
X9964758Y-9029889D02*
X9955234Y-8991793D01*
X9955234Y-8991793D02*
X9955234Y-8944174D01*
X9955234Y-8944174D02*
X9964758Y-8906079D01*
X9964758Y-8906079D02*
X9974281Y-8887031D01*
X9974281Y-8887031D02*
X9983805Y-8877508D01*
X9983805Y-8877508D02*
X10002853Y-8867984D01*
X10155234Y-9048936D02*
X10164758Y-9058460D01*
X10164758Y-9058460D02*
X10155234Y-9067984D01*
X10155234Y-9067984D02*
X10145710Y-9058460D01*
X10145710Y-9058460D02*
X10155234Y-9048936D01*
X10155234Y-9048936D02*
X10155234Y-9067984D01*
X10288567Y-8867984D02*
X10307615Y-8867984D01*
X10307615Y-8867984D02*
X10326662Y-8877508D01*
X10326662Y-8877508D02*
X10336186Y-8887031D01*
X10336186Y-8887031D02*
X10345710Y-8906079D01*
X10345710Y-8906079D02*
X10355234Y-8944174D01*
X10355234Y-8944174D02*
X10355234Y-8991793D01*
X10355234Y-8991793D02*
X10345710Y-9029889D01*
X10345710Y-9029889D02*
X10336186Y-9048936D01*
X10336186Y-9048936D02*
X10326662Y-9058460D01*
X10326662Y-9058460D02*
X10307615Y-9067984D01*
X10307615Y-9067984D02*
X10288567Y-9067984D01*
X10288567Y-9067984D02*
X10269520Y-9058460D01*
X10269520Y-9058460D02*
X10259996Y-9048936D01*
X10259996Y-9048936D02*
X10250472Y-9029889D01*
X10250472Y-9029889D02*
X10240948Y-8991793D01*
X10240948Y-8991793D02*
X10240948Y-8944174D01*
X10240948Y-8944174D02*
X10250472Y-8906079D01*
X10250472Y-8906079D02*
X10259996Y-8887031D01*
X10259996Y-8887031D02*
X10269520Y-8877508D01*
X10269520Y-8877508D02*
X10288567Y-8867984D01*
X10431424Y-8887031D02*
X10440948Y-8877508D01*
X10440948Y-8877508D02*
X10459996Y-8867984D01*
X10459996Y-8867984D02*
X10507615Y-8867984D01*
X10507615Y-8867984D02*
X10526662Y-8877508D01*
X10526662Y-8877508D02*
X10536186Y-8887031D01*
X10536186Y-8887031D02*
X10545710Y-8906079D01*
X10545710Y-8906079D02*
X10545710Y-8925127D01*
X10545710Y-8925127D02*
X10536186Y-8953698D01*
X10536186Y-8953698D02*
X10421901Y-9067984D01*
X10421901Y-9067984D02*
X10545710Y-9067984D01*
X10612377Y-8867984D02*
X10736186Y-8867984D01*
X10736186Y-8867984D02*
X10669520Y-8944174D01*
X10669520Y-8944174D02*
X10698091Y-8944174D01*
X10698091Y-8944174D02*
X10717139Y-8953698D01*
X10717139Y-8953698D02*
X10726662Y-8963222D01*
X10726662Y-8963222D02*
X10736186Y-8982270D01*
X10736186Y-8982270D02*
X10736186Y-9029889D01*
X10736186Y-9029889D02*
X10726662Y-9048936D01*
X10726662Y-9048936D02*
X10717139Y-9058460D01*
X10717139Y-9058460D02*
X10698091Y-9067984D01*
X10698091Y-9067984D02*
X10640948Y-9067984D01*
X10640948Y-9067984D02*
X10621901Y-9058460D01*
X10621901Y-9058460D02*
X10612377Y-9048936D01*
X10907615Y-8867984D02*
X10869520Y-8867984D01*
X10869520Y-8867984D02*
X10850472Y-8877508D01*
X10850472Y-8877508D02*
X10840948Y-8887031D01*
X10840948Y-8887031D02*
X10821901Y-8915603D01*
X10821901Y-8915603D02*
X10812377Y-8953698D01*
X10812377Y-8953698D02*
X10812377Y-9029889D01*
X10812377Y-9029889D02*
X10821901Y-9048936D01*
X10821901Y-9048936D02*
X10831424Y-9058460D01*
X10831424Y-9058460D02*
X10850472Y-9067984D01*
X10850472Y-9067984D02*
X10888567Y-9067984D01*
X10888567Y-9067984D02*
X10907615Y-9058460D01*
X10907615Y-9058460D02*
X10917139Y-9048936D01*
X10917139Y-9048936D02*
X10926662Y-9029889D01*
X10926662Y-9029889D02*
X10926662Y-8982270D01*
X10926662Y-8982270D02*
X10917139Y-8963222D01*
X10917139Y-8963222D02*
X10907615Y-8953698D01*
X10907615Y-8953698D02*
X10888567Y-8944174D01*
X10888567Y-8944174D02*
X10850472Y-8944174D01*
X10850472Y-8944174D02*
X10831424Y-8953698D01*
X10831424Y-8953698D02*
X10821901Y-8963222D01*
X10821901Y-8963222D02*
X10812377Y-8982270D01*
X11002853Y-8867984D02*
X11002853Y-8906079D01*
X11079043Y-8867984D02*
X11079043Y-8906079D01*
X11374282Y-9144174D02*
X11364758Y-9134650D01*
X11364758Y-9134650D02*
X11345710Y-9106079D01*
X11345710Y-9106079D02*
X11336186Y-9087031D01*
X11336186Y-9087031D02*
X11326662Y-9058460D01*
X11326662Y-9058460D02*
X11317139Y-9010841D01*
X11317139Y-9010841D02*
X11317139Y-8972746D01*
X11317139Y-8972746D02*
X11326662Y-8925127D01*
X11326662Y-8925127D02*
X11336186Y-8896555D01*
X11336186Y-8896555D02*
X11345710Y-8877508D01*
X11345710Y-8877508D02*
X11364758Y-8848936D01*
X11364758Y-8848936D02*
X11374282Y-8839412D01*
X11555234Y-9067984D02*
X11440948Y-9067984D01*
X11498091Y-9067984D02*
X11498091Y-8867984D01*
X11498091Y-8867984D02*
X11479043Y-8896555D01*
X11479043Y-8896555D02*
X11459996Y-8915603D01*
X11459996Y-8915603D02*
X11440948Y-8925127D01*
X11793329Y-9067984D02*
X11793329Y-8867984D01*
X11879043Y-9067984D02*
X11879043Y-8963222D01*
X11879043Y-8963222D02*
X11869520Y-8944174D01*
X11869520Y-8944174D02*
X11850472Y-8934650D01*
X11850472Y-8934650D02*
X11821901Y-8934650D01*
X11821901Y-8934650D02*
X11802853Y-8944174D01*
X11802853Y-8944174D02*
X11793329Y-8953698D01*
X12002853Y-9067984D02*
X11983805Y-9058460D01*
X11983805Y-9058460D02*
X11974282Y-9048936D01*
X11974282Y-9048936D02*
X11964758Y-9029889D01*
X11964758Y-9029889D02*
X11964758Y-8972746D01*
X11964758Y-8972746D02*
X11974282Y-8953698D01*
X11974282Y-8953698D02*
X11983805Y-8944174D01*
X11983805Y-8944174D02*
X12002853Y-8934650D01*
X12002853Y-8934650D02*
X12031424Y-8934650D01*
X12031424Y-8934650D02*
X12050472Y-8944174D01*
X12050472Y-8944174D02*
X12059996Y-8953698D01*
X12059996Y-8953698D02*
X12069520Y-8972746D01*
X12069520Y-8972746D02*
X12069520Y-9029889D01*
X12069520Y-9029889D02*
X12059996Y-9048936D01*
X12059996Y-9048936D02*
X12050472Y-9058460D01*
X12050472Y-9058460D02*
X12031424Y-9067984D01*
X12031424Y-9067984D02*
X12002853Y-9067984D01*
X12183805Y-9067984D02*
X12164758Y-9058460D01*
X12164758Y-9058460D02*
X12155234Y-9039412D01*
X12155234Y-9039412D02*
X12155234Y-8867984D01*
X12336186Y-9058460D02*
X12317139Y-9067984D01*
X12317139Y-9067984D02*
X12279043Y-9067984D01*
X12279043Y-9067984D02*
X12259996Y-9058460D01*
X12259996Y-9058460D02*
X12250472Y-9039412D01*
X12250472Y-9039412D02*
X12250472Y-8963222D01*
X12250472Y-8963222D02*
X12259996Y-8944174D01*
X12259996Y-8944174D02*
X12279043Y-8934650D01*
X12279043Y-8934650D02*
X12317139Y-8934650D01*
X12317139Y-8934650D02*
X12336186Y-8944174D01*
X12336186Y-8944174D02*
X12345710Y-8963222D01*
X12345710Y-8963222D02*
X12345710Y-8982270D01*
X12345710Y-8982270D02*
X12250472Y-9001317D01*
X12412377Y-9144174D02*
X12421901Y-9134650D01*
X12421901Y-9134650D02*
X12440948Y-9106079D01*
X12440948Y-9106079D02*
X12450472Y-9087031D01*
X12450472Y-9087031D02*
X12459996Y-9058460D01*
X12459996Y-9058460D02*
X12469520Y-9010841D01*
X12469520Y-9010841D02*
X12469520Y-8972746D01*
X12469520Y-8972746D02*
X12459996Y-8925127D01*
X12459996Y-8925127D02*
X12450472Y-8896555D01*
X12450472Y-8896555D02*
X12440948Y-8877508D01*
X12440948Y-8877508D02*
X12421901Y-8848936D01*
X12421901Y-8848936D02*
X12412377Y-8839412D01*
X12774282Y-9144174D02*
X12764758Y-9134650D01*
X12764758Y-9134650D02*
X12745710Y-9106079D01*
X12745710Y-9106079D02*
X12736186Y-9087031D01*
X12736186Y-9087031D02*
X12726663Y-9058460D01*
X12726663Y-9058460D02*
X12717139Y-9010841D01*
X12717139Y-9010841D02*
X12717139Y-8972746D01*
X12717139Y-8972746D02*
X12726663Y-8925127D01*
X12726663Y-8925127D02*
X12736186Y-8896555D01*
X12736186Y-8896555D02*
X12745710Y-8877508D01*
X12745710Y-8877508D02*
X12764758Y-8848936D01*
X12764758Y-8848936D02*
X12774282Y-8839412D01*
X12850472Y-8934650D02*
X12850472Y-9067984D01*
X12850472Y-8953698D02*
X12859996Y-8944174D01*
X12859996Y-8944174D02*
X12879043Y-8934650D01*
X12879043Y-8934650D02*
X12907615Y-8934650D01*
X12907615Y-8934650D02*
X12926663Y-8944174D01*
X12926663Y-8944174D02*
X12936186Y-8963222D01*
X12936186Y-8963222D02*
X12936186Y-9067984D01*
X13059996Y-9067984D02*
X13040948Y-9058460D01*
X13040948Y-9058460D02*
X13031424Y-9048936D01*
X13031424Y-9048936D02*
X13021901Y-9029889D01*
X13021901Y-9029889D02*
X13021901Y-8972746D01*
X13021901Y-8972746D02*
X13031424Y-8953698D01*
X13031424Y-8953698D02*
X13040948Y-8944174D01*
X13040948Y-8944174D02*
X13059996Y-8934650D01*
X13059996Y-8934650D02*
X13088567Y-8934650D01*
X13088567Y-8934650D02*
X13107615Y-8944174D01*
X13107615Y-8944174D02*
X13117139Y-8953698D01*
X13117139Y-8953698D02*
X13126663Y-8972746D01*
X13126663Y-8972746D02*
X13126663Y-9029889D01*
X13126663Y-9029889D02*
X13117139Y-9048936D01*
X13117139Y-9048936D02*
X13107615Y-9058460D01*
X13107615Y-9058460D02*
X13088567Y-9067984D01*
X13088567Y-9067984D02*
X13059996Y-9067984D01*
X13183805Y-8934650D02*
X13259996Y-8934650D01*
X13212377Y-8867984D02*
X13212377Y-9039412D01*
X13212377Y-9039412D02*
X13221901Y-9058460D01*
X13221901Y-9058460D02*
X13240948Y-9067984D01*
X13240948Y-9067984D02*
X13259996Y-9067984D01*
X13479044Y-8934650D02*
X13479044Y-9134650D01*
X13479044Y-8944174D02*
X13498091Y-8934650D01*
X13498091Y-8934650D02*
X13536186Y-8934650D01*
X13536186Y-8934650D02*
X13555234Y-8944174D01*
X13555234Y-8944174D02*
X13564758Y-8953698D01*
X13564758Y-8953698D02*
X13574282Y-8972746D01*
X13574282Y-8972746D02*
X13574282Y-9029889D01*
X13574282Y-9029889D02*
X13564758Y-9048936D01*
X13564758Y-9048936D02*
X13555234Y-9058460D01*
X13555234Y-9058460D02*
X13536186Y-9067984D01*
X13536186Y-9067984D02*
X13498091Y-9067984D01*
X13498091Y-9067984D02*
X13479044Y-9058460D01*
X13688567Y-9067984D02*
X13669520Y-9058460D01*
X13669520Y-9058460D02*
X13659996Y-9039412D01*
X13659996Y-9039412D02*
X13659996Y-8867984D01*
X13850472Y-9067984D02*
X13850472Y-8963222D01*
X13850472Y-8963222D02*
X13840948Y-8944174D01*
X13840948Y-8944174D02*
X13821901Y-8934650D01*
X13821901Y-8934650D02*
X13783805Y-8934650D01*
X13783805Y-8934650D02*
X13764758Y-8944174D01*
X13850472Y-9058460D02*
X13831425Y-9067984D01*
X13831425Y-9067984D02*
X13783805Y-9067984D01*
X13783805Y-9067984D02*
X13764758Y-9058460D01*
X13764758Y-9058460D02*
X13755234Y-9039412D01*
X13755234Y-9039412D02*
X13755234Y-9020365D01*
X13755234Y-9020365D02*
X13764758Y-9001317D01*
X13764758Y-9001317D02*
X13783805Y-8991793D01*
X13783805Y-8991793D02*
X13831425Y-8991793D01*
X13831425Y-8991793D02*
X13850472Y-8982270D01*
X13917139Y-8934650D02*
X13993329Y-8934650D01*
X13945710Y-8867984D02*
X13945710Y-9039412D01*
X13945710Y-9039412D02*
X13955234Y-9058460D01*
X13955234Y-9058460D02*
X13974282Y-9067984D01*
X13974282Y-9067984D02*
X13993329Y-9067984D01*
X14136186Y-9058460D02*
X14117139Y-9067984D01*
X14117139Y-9067984D02*
X14079044Y-9067984D01*
X14079044Y-9067984D02*
X14059996Y-9058460D01*
X14059996Y-9058460D02*
X14050472Y-9039412D01*
X14050472Y-9039412D02*
X14050472Y-8963222D01*
X14050472Y-8963222D02*
X14059996Y-8944174D01*
X14059996Y-8944174D02*
X14079044Y-8934650D01*
X14079044Y-8934650D02*
X14117139Y-8934650D01*
X14117139Y-8934650D02*
X14136186Y-8944174D01*
X14136186Y-8944174D02*
X14145710Y-8963222D01*
X14145710Y-8963222D02*
X14145710Y-8982270D01*
X14145710Y-8982270D02*
X14050472Y-9001317D01*
X14317139Y-9067984D02*
X14317139Y-8867984D01*
X14317139Y-9058460D02*
X14298091Y-9067984D01*
X14298091Y-9067984D02*
X14259996Y-9067984D01*
X14259996Y-9067984D02*
X14240948Y-9058460D01*
X14240948Y-9058460D02*
X14231425Y-9048936D01*
X14231425Y-9048936D02*
X14221901Y-9029889D01*
X14221901Y-9029889D02*
X14221901Y-8972746D01*
X14221901Y-8972746D02*
X14231425Y-8953698D01*
X14231425Y-8953698D02*
X14240948Y-8944174D01*
X14240948Y-8944174D02*
X14259996Y-8934650D01*
X14259996Y-8934650D02*
X14298091Y-8934650D01*
X14298091Y-8934650D02*
X14317139Y-8944174D01*
X14393329Y-9144174D02*
X14402853Y-9134650D01*
X14402853Y-9134650D02*
X14421901Y-9106079D01*
X14421901Y-9106079D02*
X14431425Y-9087031D01*
X14431425Y-9087031D02*
X14440948Y-9058460D01*
X14440948Y-9058460D02*
X14450472Y-9010841D01*
X14450472Y-9010841D02*
X14450472Y-8972746D01*
X14450472Y-8972746D02*
X14440948Y-8925127D01*
X14440948Y-8925127D02*
X14431425Y-8896555D01*
X14431425Y-8896555D02*
X14421901Y-8877508D01*
X14421901Y-8877508D02*
X14402853Y-8848936D01*
X14402853Y-8848936D02*
X14393329Y-8839412D01*
D13*
X7799219Y-9240500D02*
G75*
G03*
X7799219Y-9240500I-31500J0D01*
G01*
D11*
X8098091Y-9131984D02*
X8117138Y-9131984D01*
X8117138Y-9131984D02*
X8136186Y-9141508D01*
X8136186Y-9141508D02*
X8145710Y-9151031D01*
X8145710Y-9151031D02*
X8155234Y-9170079D01*
X8155234Y-9170079D02*
X8164757Y-9208174D01*
X8164757Y-9208174D02*
X8164757Y-9255793D01*
X8164757Y-9255793D02*
X8155234Y-9293889D01*
X8155234Y-9293889D02*
X8145710Y-9312936D01*
X8145710Y-9312936D02*
X8136186Y-9322460D01*
X8136186Y-9322460D02*
X8117138Y-9331984D01*
X8117138Y-9331984D02*
X8098091Y-9331984D01*
X8098091Y-9331984D02*
X8079043Y-9322460D01*
X8079043Y-9322460D02*
X8069519Y-9312936D01*
X8069519Y-9312936D02*
X8059995Y-9293889D01*
X8059995Y-9293889D02*
X8050472Y-9255793D01*
X8050472Y-9255793D02*
X8050472Y-9208174D01*
X8050472Y-9208174D02*
X8059995Y-9170079D01*
X8059995Y-9170079D02*
X8069519Y-9151031D01*
X8069519Y-9151031D02*
X8079043Y-9141508D01*
X8079043Y-9141508D02*
X8098091Y-9131984D01*
X8250472Y-9312936D02*
X8259995Y-9322460D01*
X8259995Y-9322460D02*
X8250472Y-9331984D01*
X8250472Y-9331984D02*
X8240948Y-9322460D01*
X8240948Y-9322460D02*
X8250472Y-9312936D01*
X8250472Y-9312936D02*
X8250472Y-9331984D01*
X8431424Y-9131984D02*
X8393329Y-9131984D01*
X8393329Y-9131984D02*
X8374281Y-9141508D01*
X8374281Y-9141508D02*
X8364757Y-9151031D01*
X8364757Y-9151031D02*
X8345710Y-9179603D01*
X8345710Y-9179603D02*
X8336186Y-9217698D01*
X8336186Y-9217698D02*
X8336186Y-9293889D01*
X8336186Y-9293889D02*
X8345710Y-9312936D01*
X8345710Y-9312936D02*
X8355234Y-9322460D01*
X8355234Y-9322460D02*
X8374281Y-9331984D01*
X8374281Y-9331984D02*
X8412377Y-9331984D01*
X8412377Y-9331984D02*
X8431424Y-9322460D01*
X8431424Y-9322460D02*
X8440948Y-9312936D01*
X8440948Y-9312936D02*
X8450472Y-9293889D01*
X8450472Y-9293889D02*
X8450472Y-9246270D01*
X8450472Y-9246270D02*
X8440948Y-9227222D01*
X8440948Y-9227222D02*
X8431424Y-9217698D01*
X8431424Y-9217698D02*
X8412377Y-9208174D01*
X8412377Y-9208174D02*
X8374281Y-9208174D01*
X8374281Y-9208174D02*
X8355234Y-9217698D01*
X8355234Y-9217698D02*
X8345710Y-9227222D01*
X8345710Y-9227222D02*
X8336186Y-9246270D01*
X8517138Y-9131984D02*
X8640948Y-9131984D01*
X8640948Y-9131984D02*
X8574281Y-9208174D01*
X8574281Y-9208174D02*
X8602853Y-9208174D01*
X8602853Y-9208174D02*
X8621900Y-9217698D01*
X8621900Y-9217698D02*
X8631424Y-9227222D01*
X8631424Y-9227222D02*
X8640948Y-9246270D01*
X8640948Y-9246270D02*
X8640948Y-9293889D01*
X8640948Y-9293889D02*
X8631424Y-9312936D01*
X8631424Y-9312936D02*
X8621900Y-9322460D01*
X8621900Y-9322460D02*
X8602853Y-9331984D01*
X8602853Y-9331984D02*
X8545710Y-9331984D01*
X8545710Y-9331984D02*
X8526662Y-9322460D01*
X8526662Y-9322460D02*
X8517138Y-9312936D01*
X8764757Y-9131984D02*
X8783805Y-9131984D01*
X8783805Y-9131984D02*
X8802853Y-9141508D01*
X8802853Y-9141508D02*
X8812377Y-9151031D01*
X8812377Y-9151031D02*
X8821900Y-9170079D01*
X8821900Y-9170079D02*
X8831424Y-9208174D01*
X8831424Y-9208174D02*
X8831424Y-9255793D01*
X8831424Y-9255793D02*
X8821900Y-9293889D01*
X8821900Y-9293889D02*
X8812377Y-9312936D01*
X8812377Y-9312936D02*
X8802853Y-9322460D01*
X8802853Y-9322460D02*
X8783805Y-9331984D01*
X8783805Y-9331984D02*
X8764757Y-9331984D01*
X8764757Y-9331984D02*
X8745710Y-9322460D01*
X8745710Y-9322460D02*
X8736186Y-9312936D01*
X8736186Y-9312936D02*
X8726662Y-9293889D01*
X8726662Y-9293889D02*
X8717138Y-9255793D01*
X8717138Y-9255793D02*
X8717138Y-9208174D01*
X8717138Y-9208174D02*
X8726662Y-9170079D01*
X8726662Y-9170079D02*
X8736186Y-9151031D01*
X8736186Y-9151031D02*
X8745710Y-9141508D01*
X8745710Y-9141508D02*
X8764757Y-9131984D01*
X8917138Y-9331984D02*
X8917138Y-9198650D01*
X8917138Y-9217698D02*
X8926662Y-9208174D01*
X8926662Y-9208174D02*
X8945710Y-9198650D01*
X8945710Y-9198650D02*
X8974281Y-9198650D01*
X8974281Y-9198650D02*
X8993329Y-9208174D01*
X8993329Y-9208174D02*
X9002853Y-9227222D01*
X9002853Y-9227222D02*
X9002853Y-9331984D01*
X9002853Y-9227222D02*
X9012377Y-9208174D01*
X9012377Y-9208174D02*
X9031424Y-9198650D01*
X9031424Y-9198650D02*
X9059996Y-9198650D01*
X9059996Y-9198650D02*
X9079043Y-9208174D01*
X9079043Y-9208174D02*
X9088567Y-9227222D01*
X9088567Y-9227222D02*
X9088567Y-9331984D01*
X9183805Y-9331984D02*
X9183805Y-9198650D01*
X9183805Y-9217698D02*
X9193329Y-9208174D01*
X9193329Y-9208174D02*
X9212377Y-9198650D01*
X9212377Y-9198650D02*
X9240948Y-9198650D01*
X9240948Y-9198650D02*
X9259996Y-9208174D01*
X9259996Y-9208174D02*
X9269519Y-9227222D01*
X9269519Y-9227222D02*
X9269519Y-9331984D01*
X9269519Y-9227222D02*
X9279043Y-9208174D01*
X9279043Y-9208174D02*
X9298091Y-9198650D01*
X9298091Y-9198650D02*
X9326662Y-9198650D01*
X9326662Y-9198650D02*
X9345710Y-9208174D01*
X9345710Y-9208174D02*
X9355234Y-9227222D01*
X9355234Y-9227222D02*
X9355234Y-9331984D01*
X9745710Y-9122460D02*
X9574281Y-9379603D01*
X10002853Y-9131984D02*
X10021901Y-9131984D01*
X10021901Y-9131984D02*
X10040948Y-9141508D01*
X10040948Y-9141508D02*
X10050472Y-9151031D01*
X10050472Y-9151031D02*
X10059996Y-9170079D01*
X10059996Y-9170079D02*
X10069520Y-9208174D01*
X10069520Y-9208174D02*
X10069520Y-9255793D01*
X10069520Y-9255793D02*
X10059996Y-9293889D01*
X10059996Y-9293889D02*
X10050472Y-9312936D01*
X10050472Y-9312936D02*
X10040948Y-9322460D01*
X10040948Y-9322460D02*
X10021901Y-9331984D01*
X10021901Y-9331984D02*
X10002853Y-9331984D01*
X10002853Y-9331984D02*
X9983805Y-9322460D01*
X9983805Y-9322460D02*
X9974281Y-9312936D01*
X9974281Y-9312936D02*
X9964758Y-9293889D01*
X9964758Y-9293889D02*
X9955234Y-9255793D01*
X9955234Y-9255793D02*
X9955234Y-9208174D01*
X9955234Y-9208174D02*
X9964758Y-9170079D01*
X9964758Y-9170079D02*
X9974281Y-9151031D01*
X9974281Y-9151031D02*
X9983805Y-9141508D01*
X9983805Y-9141508D02*
X10002853Y-9131984D01*
X10155234Y-9312936D02*
X10164758Y-9322460D01*
X10164758Y-9322460D02*
X10155234Y-9331984D01*
X10155234Y-9331984D02*
X10145710Y-9322460D01*
X10145710Y-9322460D02*
X10155234Y-9312936D01*
X10155234Y-9312936D02*
X10155234Y-9331984D01*
X10288567Y-9131984D02*
X10307615Y-9131984D01*
X10307615Y-9131984D02*
X10326662Y-9141508D01*
X10326662Y-9141508D02*
X10336186Y-9151031D01*
X10336186Y-9151031D02*
X10345710Y-9170079D01*
X10345710Y-9170079D02*
X10355234Y-9208174D01*
X10355234Y-9208174D02*
X10355234Y-9255793D01*
X10355234Y-9255793D02*
X10345710Y-9293889D01*
X10345710Y-9293889D02*
X10336186Y-9312936D01*
X10336186Y-9312936D02*
X10326662Y-9322460D01*
X10326662Y-9322460D02*
X10307615Y-9331984D01*
X10307615Y-9331984D02*
X10288567Y-9331984D01*
X10288567Y-9331984D02*
X10269520Y-9322460D01*
X10269520Y-9322460D02*
X10259996Y-9312936D01*
X10259996Y-9312936D02*
X10250472Y-9293889D01*
X10250472Y-9293889D02*
X10240948Y-9255793D01*
X10240948Y-9255793D02*
X10240948Y-9208174D01*
X10240948Y-9208174D02*
X10250472Y-9170079D01*
X10250472Y-9170079D02*
X10259996Y-9151031D01*
X10259996Y-9151031D02*
X10269520Y-9141508D01*
X10269520Y-9141508D02*
X10288567Y-9131984D01*
X10431424Y-9151031D02*
X10440948Y-9141508D01*
X10440948Y-9141508D02*
X10459996Y-9131984D01*
X10459996Y-9131984D02*
X10507615Y-9131984D01*
X10507615Y-9131984D02*
X10526662Y-9141508D01*
X10526662Y-9141508D02*
X10536186Y-9151031D01*
X10536186Y-9151031D02*
X10545710Y-9170079D01*
X10545710Y-9170079D02*
X10545710Y-9189127D01*
X10545710Y-9189127D02*
X10536186Y-9217698D01*
X10536186Y-9217698D02*
X10421901Y-9331984D01*
X10421901Y-9331984D02*
X10545710Y-9331984D01*
X10717139Y-9198650D02*
X10717139Y-9331984D01*
X10669520Y-9122460D02*
X10621901Y-9265317D01*
X10621901Y-9265317D02*
X10745710Y-9265317D01*
X10850472Y-9217698D02*
X10831424Y-9208174D01*
X10831424Y-9208174D02*
X10821901Y-9198650D01*
X10821901Y-9198650D02*
X10812377Y-9179603D01*
X10812377Y-9179603D02*
X10812377Y-9170079D01*
X10812377Y-9170079D02*
X10821901Y-9151031D01*
X10821901Y-9151031D02*
X10831424Y-9141508D01*
X10831424Y-9141508D02*
X10850472Y-9131984D01*
X10850472Y-9131984D02*
X10888567Y-9131984D01*
X10888567Y-9131984D02*
X10907615Y-9141508D01*
X10907615Y-9141508D02*
X10917139Y-9151031D01*
X10917139Y-9151031D02*
X10926662Y-9170079D01*
X10926662Y-9170079D02*
X10926662Y-9179603D01*
X10926662Y-9179603D02*
X10917139Y-9198650D01*
X10917139Y-9198650D02*
X10907615Y-9208174D01*
X10907615Y-9208174D02*
X10888567Y-9217698D01*
X10888567Y-9217698D02*
X10850472Y-9217698D01*
X10850472Y-9217698D02*
X10831424Y-9227222D01*
X10831424Y-9227222D02*
X10821901Y-9236746D01*
X10821901Y-9236746D02*
X10812377Y-9255793D01*
X10812377Y-9255793D02*
X10812377Y-9293889D01*
X10812377Y-9293889D02*
X10821901Y-9312936D01*
X10821901Y-9312936D02*
X10831424Y-9322460D01*
X10831424Y-9322460D02*
X10850472Y-9331984D01*
X10850472Y-9331984D02*
X10888567Y-9331984D01*
X10888567Y-9331984D02*
X10907615Y-9322460D01*
X10907615Y-9322460D02*
X10917139Y-9312936D01*
X10917139Y-9312936D02*
X10926662Y-9293889D01*
X10926662Y-9293889D02*
X10926662Y-9255793D01*
X10926662Y-9255793D02*
X10917139Y-9236746D01*
X10917139Y-9236746D02*
X10907615Y-9227222D01*
X10907615Y-9227222D02*
X10888567Y-9217698D01*
X11002853Y-9131984D02*
X11002853Y-9170079D01*
X11079043Y-9131984D02*
X11079043Y-9170079D01*
X11374282Y-9408174D02*
X11364758Y-9398650D01*
X11364758Y-9398650D02*
X11345710Y-9370079D01*
X11345710Y-9370079D02*
X11336186Y-9351031D01*
X11336186Y-9351031D02*
X11326662Y-9322460D01*
X11326662Y-9322460D02*
X11317139Y-9274841D01*
X11317139Y-9274841D02*
X11317139Y-9236746D01*
X11317139Y-9236746D02*
X11326662Y-9189127D01*
X11326662Y-9189127D02*
X11336186Y-9160555D01*
X11336186Y-9160555D02*
X11345710Y-9141508D01*
X11345710Y-9141508D02*
X11364758Y-9112936D01*
X11364758Y-9112936D02*
X11374282Y-9103412D01*
X11440948Y-9151031D02*
X11450472Y-9141508D01*
X11450472Y-9141508D02*
X11469520Y-9131984D01*
X11469520Y-9131984D02*
X11517139Y-9131984D01*
X11517139Y-9131984D02*
X11536186Y-9141508D01*
X11536186Y-9141508D02*
X11545710Y-9151031D01*
X11545710Y-9151031D02*
X11555234Y-9170079D01*
X11555234Y-9170079D02*
X11555234Y-9189127D01*
X11555234Y-9189127D02*
X11545710Y-9217698D01*
X11545710Y-9217698D02*
X11431424Y-9331984D01*
X11431424Y-9331984D02*
X11555234Y-9331984D01*
X11793329Y-9331984D02*
X11793329Y-9131984D01*
X11879043Y-9331984D02*
X11879043Y-9227222D01*
X11879043Y-9227222D02*
X11869520Y-9208174D01*
X11869520Y-9208174D02*
X11850472Y-9198650D01*
X11850472Y-9198650D02*
X11821901Y-9198650D01*
X11821901Y-9198650D02*
X11802853Y-9208174D01*
X11802853Y-9208174D02*
X11793329Y-9217698D01*
X12002853Y-9331984D02*
X11983805Y-9322460D01*
X11983805Y-9322460D02*
X11974282Y-9312936D01*
X11974282Y-9312936D02*
X11964758Y-9293889D01*
X11964758Y-9293889D02*
X11964758Y-9236746D01*
X11964758Y-9236746D02*
X11974282Y-9217698D01*
X11974282Y-9217698D02*
X11983805Y-9208174D01*
X11983805Y-9208174D02*
X12002853Y-9198650D01*
X12002853Y-9198650D02*
X12031424Y-9198650D01*
X12031424Y-9198650D02*
X12050472Y-9208174D01*
X12050472Y-9208174D02*
X12059996Y-9217698D01*
X12059996Y-9217698D02*
X12069520Y-9236746D01*
X12069520Y-9236746D02*
X12069520Y-9293889D01*
X12069520Y-9293889D02*
X12059996Y-9312936D01*
X12059996Y-9312936D02*
X12050472Y-9322460D01*
X12050472Y-9322460D02*
X12031424Y-9331984D01*
X12031424Y-9331984D02*
X12002853Y-9331984D01*
X12183805Y-9331984D02*
X12164758Y-9322460D01*
X12164758Y-9322460D02*
X12155234Y-9303412D01*
X12155234Y-9303412D02*
X12155234Y-9131984D01*
X12336186Y-9322460D02*
X12317139Y-9331984D01*
X12317139Y-9331984D02*
X12279043Y-9331984D01*
X12279043Y-9331984D02*
X12259996Y-9322460D01*
X12259996Y-9322460D02*
X12250472Y-9303412D01*
X12250472Y-9303412D02*
X12250472Y-9227222D01*
X12250472Y-9227222D02*
X12259996Y-9208174D01*
X12259996Y-9208174D02*
X12279043Y-9198650D01*
X12279043Y-9198650D02*
X12317139Y-9198650D01*
X12317139Y-9198650D02*
X12336186Y-9208174D01*
X12336186Y-9208174D02*
X12345710Y-9227222D01*
X12345710Y-9227222D02*
X12345710Y-9246270D01*
X12345710Y-9246270D02*
X12250472Y-9265317D01*
X12421901Y-9322460D02*
X12440948Y-9331984D01*
X12440948Y-9331984D02*
X12479043Y-9331984D01*
X12479043Y-9331984D02*
X12498091Y-9322460D01*
X12498091Y-9322460D02*
X12507615Y-9303412D01*
X12507615Y-9303412D02*
X12507615Y-9293889D01*
X12507615Y-9293889D02*
X12498091Y-9274841D01*
X12498091Y-9274841D02*
X12479043Y-9265317D01*
X12479043Y-9265317D02*
X12450472Y-9265317D01*
X12450472Y-9265317D02*
X12431424Y-9255793D01*
X12431424Y-9255793D02*
X12421901Y-9236746D01*
X12421901Y-9236746D02*
X12421901Y-9227222D01*
X12421901Y-9227222D02*
X12431424Y-9208174D01*
X12431424Y-9208174D02*
X12450472Y-9198650D01*
X12450472Y-9198650D02*
X12479043Y-9198650D01*
X12479043Y-9198650D02*
X12498091Y-9208174D01*
X12574282Y-9408174D02*
X12583805Y-9398650D01*
X12583805Y-9398650D02*
X12602853Y-9370079D01*
X12602853Y-9370079D02*
X12612377Y-9351031D01*
X12612377Y-9351031D02*
X12621901Y-9322460D01*
X12621901Y-9322460D02*
X12631424Y-9274841D01*
X12631424Y-9274841D02*
X12631424Y-9236746D01*
X12631424Y-9236746D02*
X12621901Y-9189127D01*
X12621901Y-9189127D02*
X12612377Y-9160555D01*
X12612377Y-9160555D02*
X12602853Y-9141508D01*
X12602853Y-9141508D02*
X12583805Y-9112936D01*
X12583805Y-9112936D02*
X12574282Y-9103412D01*
X12936186Y-9408174D02*
X12926663Y-9398650D01*
X12926663Y-9398650D02*
X12907615Y-9370079D01*
X12907615Y-9370079D02*
X12898091Y-9351031D01*
X12898091Y-9351031D02*
X12888567Y-9322460D01*
X12888567Y-9322460D02*
X12879044Y-9274841D01*
X12879044Y-9274841D02*
X12879044Y-9236746D01*
X12879044Y-9236746D02*
X12888567Y-9189127D01*
X12888567Y-9189127D02*
X12898091Y-9160555D01*
X12898091Y-9160555D02*
X12907615Y-9141508D01*
X12907615Y-9141508D02*
X12926663Y-9112936D01*
X12926663Y-9112936D02*
X12936186Y-9103412D01*
X13012377Y-9198650D02*
X13012377Y-9331984D01*
X13012377Y-9217698D02*
X13021901Y-9208174D01*
X13021901Y-9208174D02*
X13040948Y-9198650D01*
X13040948Y-9198650D02*
X13069520Y-9198650D01*
X13069520Y-9198650D02*
X13088567Y-9208174D01*
X13088567Y-9208174D02*
X13098091Y-9227222D01*
X13098091Y-9227222D02*
X13098091Y-9331984D01*
X13221901Y-9331984D02*
X13202853Y-9322460D01*
X13202853Y-9322460D02*
X13193329Y-9312936D01*
X13193329Y-9312936D02*
X13183805Y-9293889D01*
X13183805Y-9293889D02*
X13183805Y-9236746D01*
X13183805Y-9236746D02*
X13193329Y-9217698D01*
X13193329Y-9217698D02*
X13202853Y-9208174D01*
X13202853Y-9208174D02*
X13221901Y-9198650D01*
X13221901Y-9198650D02*
X13250472Y-9198650D01*
X13250472Y-9198650D02*
X13269520Y-9208174D01*
X13269520Y-9208174D02*
X13279044Y-9217698D01*
X13279044Y-9217698D02*
X13288567Y-9236746D01*
X13288567Y-9236746D02*
X13288567Y-9293889D01*
X13288567Y-9293889D02*
X13279044Y-9312936D01*
X13279044Y-9312936D02*
X13269520Y-9322460D01*
X13269520Y-9322460D02*
X13250472Y-9331984D01*
X13250472Y-9331984D02*
X13221901Y-9331984D01*
X13345710Y-9198650D02*
X13421901Y-9198650D01*
X13374282Y-9131984D02*
X13374282Y-9303412D01*
X13374282Y-9303412D02*
X13383805Y-9322460D01*
X13383805Y-9322460D02*
X13402853Y-9331984D01*
X13402853Y-9331984D02*
X13421901Y-9331984D01*
X13640948Y-9198650D02*
X13640948Y-9398650D01*
X13640948Y-9208174D02*
X13659996Y-9198650D01*
X13659996Y-9198650D02*
X13698091Y-9198650D01*
X13698091Y-9198650D02*
X13717139Y-9208174D01*
X13717139Y-9208174D02*
X13726663Y-9217698D01*
X13726663Y-9217698D02*
X13736186Y-9236746D01*
X13736186Y-9236746D02*
X13736186Y-9293889D01*
X13736186Y-9293889D02*
X13726663Y-9312936D01*
X13726663Y-9312936D02*
X13717139Y-9322460D01*
X13717139Y-9322460D02*
X13698091Y-9331984D01*
X13698091Y-9331984D02*
X13659996Y-9331984D01*
X13659996Y-9331984D02*
X13640948Y-9322460D01*
X13850472Y-9331984D02*
X13831425Y-9322460D01*
X13831425Y-9322460D02*
X13821901Y-9303412D01*
X13821901Y-9303412D02*
X13821901Y-9131984D01*
X14012377Y-9331984D02*
X14012377Y-9227222D01*
X14012377Y-9227222D02*
X14002853Y-9208174D01*
X14002853Y-9208174D02*
X13983806Y-9198650D01*
X13983806Y-9198650D02*
X13945710Y-9198650D01*
X13945710Y-9198650D02*
X13926663Y-9208174D01*
X14012377Y-9322460D02*
X13993329Y-9331984D01*
X13993329Y-9331984D02*
X13945710Y-9331984D01*
X13945710Y-9331984D02*
X13926663Y-9322460D01*
X13926663Y-9322460D02*
X13917139Y-9303412D01*
X13917139Y-9303412D02*
X13917139Y-9284365D01*
X13917139Y-9284365D02*
X13926663Y-9265317D01*
X13926663Y-9265317D02*
X13945710Y-9255793D01*
X13945710Y-9255793D02*
X13993329Y-9255793D01*
X13993329Y-9255793D02*
X14012377Y-9246270D01*
X14079044Y-9198650D02*
X14155234Y-9198650D01*
X14107615Y-9131984D02*
X14107615Y-9303412D01*
X14107615Y-9303412D02*
X14117139Y-9322460D01*
X14117139Y-9322460D02*
X14136186Y-9331984D01*
X14136186Y-9331984D02*
X14155234Y-9331984D01*
X14298091Y-9322460D02*
X14279044Y-9331984D01*
X14279044Y-9331984D02*
X14240948Y-9331984D01*
X14240948Y-9331984D02*
X14221901Y-9322460D01*
X14221901Y-9322460D02*
X14212377Y-9303412D01*
X14212377Y-9303412D02*
X14212377Y-9227222D01*
X14212377Y-9227222D02*
X14221901Y-9208174D01*
X14221901Y-9208174D02*
X14240948Y-9198650D01*
X14240948Y-9198650D02*
X14279044Y-9198650D01*
X14279044Y-9198650D02*
X14298091Y-9208174D01*
X14298091Y-9208174D02*
X14307615Y-9227222D01*
X14307615Y-9227222D02*
X14307615Y-9246270D01*
X14307615Y-9246270D02*
X14212377Y-9265317D01*
X14479044Y-9331984D02*
X14479044Y-9131984D01*
X14479044Y-9322460D02*
X14459996Y-9331984D01*
X14459996Y-9331984D02*
X14421901Y-9331984D01*
X14421901Y-9331984D02*
X14402853Y-9322460D01*
X14402853Y-9322460D02*
X14393329Y-9312936D01*
X14393329Y-9312936D02*
X14383806Y-9293889D01*
X14383806Y-9293889D02*
X14383806Y-9236746D01*
X14383806Y-9236746D02*
X14393329Y-9217698D01*
X14393329Y-9217698D02*
X14402853Y-9208174D01*
X14402853Y-9208174D02*
X14421901Y-9198650D01*
X14421901Y-9198650D02*
X14459996Y-9198650D01*
X14459996Y-9198650D02*
X14479044Y-9208174D01*
X14555234Y-9408174D02*
X14564758Y-9398650D01*
X14564758Y-9398650D02*
X14583806Y-9370079D01*
X14583806Y-9370079D02*
X14593329Y-9351031D01*
X14593329Y-9351031D02*
X14602853Y-9322460D01*
X14602853Y-9322460D02*
X14612377Y-9274841D01*
X14612377Y-9274841D02*
X14612377Y-9236746D01*
X14612377Y-9236746D02*
X14602853Y-9189127D01*
X14602853Y-9189127D02*
X14593329Y-9160555D01*
X14593329Y-9160555D02*
X14583806Y-9141508D01*
X14583806Y-9141508D02*
X14564758Y-9112936D01*
X14564758Y-9112936D02*
X14555234Y-9103412D01*
X7699219Y-9404500D02*
X7699219Y-9604500D01*
X7599219Y-9504500D02*
X7799219Y-9504500D01*
X8050472Y-9415031D02*
X8059995Y-9405508D01*
X8059995Y-9405508D02*
X8079043Y-9395984D01*
X8079043Y-9395984D02*
X8126662Y-9395984D01*
X8126662Y-9395984D02*
X8145710Y-9405508D01*
X8145710Y-9405508D02*
X8155234Y-9415031D01*
X8155234Y-9415031D02*
X8164757Y-9434079D01*
X8164757Y-9434079D02*
X8164757Y-9453127D01*
X8164757Y-9453127D02*
X8155234Y-9481698D01*
X8155234Y-9481698D02*
X8040948Y-9595984D01*
X8040948Y-9595984D02*
X8164757Y-9595984D01*
X8250472Y-9576936D02*
X8259995Y-9586460D01*
X8259995Y-9586460D02*
X8250472Y-9595984D01*
X8250472Y-9595984D02*
X8240948Y-9586460D01*
X8240948Y-9586460D02*
X8250472Y-9576936D01*
X8250472Y-9576936D02*
X8250472Y-9595984D01*
X8450472Y-9595984D02*
X8336186Y-9595984D01*
X8393329Y-9595984D02*
X8393329Y-9395984D01*
X8393329Y-9395984D02*
X8374281Y-9424555D01*
X8374281Y-9424555D02*
X8355234Y-9443603D01*
X8355234Y-9443603D02*
X8336186Y-9453127D01*
X8574281Y-9395984D02*
X8593329Y-9395984D01*
X8593329Y-9395984D02*
X8612377Y-9405508D01*
X8612377Y-9405508D02*
X8621900Y-9415031D01*
X8621900Y-9415031D02*
X8631424Y-9434079D01*
X8631424Y-9434079D02*
X8640948Y-9472174D01*
X8640948Y-9472174D02*
X8640948Y-9519793D01*
X8640948Y-9519793D02*
X8631424Y-9557889D01*
X8631424Y-9557889D02*
X8621900Y-9576936D01*
X8621900Y-9576936D02*
X8612377Y-9586460D01*
X8612377Y-9586460D02*
X8593329Y-9595984D01*
X8593329Y-9595984D02*
X8574281Y-9595984D01*
X8574281Y-9595984D02*
X8555234Y-9586460D01*
X8555234Y-9586460D02*
X8545710Y-9576936D01*
X8545710Y-9576936D02*
X8536186Y-9557889D01*
X8536186Y-9557889D02*
X8526662Y-9519793D01*
X8526662Y-9519793D02*
X8526662Y-9472174D01*
X8526662Y-9472174D02*
X8536186Y-9434079D01*
X8536186Y-9434079D02*
X8545710Y-9415031D01*
X8545710Y-9415031D02*
X8555234Y-9405508D01*
X8555234Y-9405508D02*
X8574281Y-9395984D01*
X8764757Y-9395984D02*
X8783805Y-9395984D01*
X8783805Y-9395984D02*
X8802853Y-9405508D01*
X8802853Y-9405508D02*
X8812377Y-9415031D01*
X8812377Y-9415031D02*
X8821900Y-9434079D01*
X8821900Y-9434079D02*
X8831424Y-9472174D01*
X8831424Y-9472174D02*
X8831424Y-9519793D01*
X8831424Y-9519793D02*
X8821900Y-9557889D01*
X8821900Y-9557889D02*
X8812377Y-9576936D01*
X8812377Y-9576936D02*
X8802853Y-9586460D01*
X8802853Y-9586460D02*
X8783805Y-9595984D01*
X8783805Y-9595984D02*
X8764757Y-9595984D01*
X8764757Y-9595984D02*
X8745710Y-9586460D01*
X8745710Y-9586460D02*
X8736186Y-9576936D01*
X8736186Y-9576936D02*
X8726662Y-9557889D01*
X8726662Y-9557889D02*
X8717138Y-9519793D01*
X8717138Y-9519793D02*
X8717138Y-9472174D01*
X8717138Y-9472174D02*
X8726662Y-9434079D01*
X8726662Y-9434079D02*
X8736186Y-9415031D01*
X8736186Y-9415031D02*
X8745710Y-9405508D01*
X8745710Y-9405508D02*
X8764757Y-9395984D01*
X8917138Y-9595984D02*
X8917138Y-9462650D01*
X8917138Y-9481698D02*
X8926662Y-9472174D01*
X8926662Y-9472174D02*
X8945710Y-9462650D01*
X8945710Y-9462650D02*
X8974281Y-9462650D01*
X8974281Y-9462650D02*
X8993329Y-9472174D01*
X8993329Y-9472174D02*
X9002853Y-9491222D01*
X9002853Y-9491222D02*
X9002853Y-9595984D01*
X9002853Y-9491222D02*
X9012377Y-9472174D01*
X9012377Y-9472174D02*
X9031424Y-9462650D01*
X9031424Y-9462650D02*
X9059996Y-9462650D01*
X9059996Y-9462650D02*
X9079043Y-9472174D01*
X9079043Y-9472174D02*
X9088567Y-9491222D01*
X9088567Y-9491222D02*
X9088567Y-9595984D01*
X9183805Y-9595984D02*
X9183805Y-9462650D01*
X9183805Y-9481698D02*
X9193329Y-9472174D01*
X9193329Y-9472174D02*
X9212377Y-9462650D01*
X9212377Y-9462650D02*
X9240948Y-9462650D01*
X9240948Y-9462650D02*
X9259996Y-9472174D01*
X9259996Y-9472174D02*
X9269519Y-9491222D01*
X9269519Y-9491222D02*
X9269519Y-9595984D01*
X9269519Y-9491222D02*
X9279043Y-9472174D01*
X9279043Y-9472174D02*
X9298091Y-9462650D01*
X9298091Y-9462650D02*
X9326662Y-9462650D01*
X9326662Y-9462650D02*
X9345710Y-9472174D01*
X9345710Y-9472174D02*
X9355234Y-9491222D01*
X9355234Y-9491222D02*
X9355234Y-9595984D01*
X9745710Y-9386460D02*
X9574281Y-9643603D01*
X10002853Y-9395984D02*
X10021901Y-9395984D01*
X10021901Y-9395984D02*
X10040948Y-9405508D01*
X10040948Y-9405508D02*
X10050472Y-9415031D01*
X10050472Y-9415031D02*
X10059996Y-9434079D01*
X10059996Y-9434079D02*
X10069520Y-9472174D01*
X10069520Y-9472174D02*
X10069520Y-9519793D01*
X10069520Y-9519793D02*
X10059996Y-9557889D01*
X10059996Y-9557889D02*
X10050472Y-9576936D01*
X10050472Y-9576936D02*
X10040948Y-9586460D01*
X10040948Y-9586460D02*
X10021901Y-9595984D01*
X10021901Y-9595984D02*
X10002853Y-9595984D01*
X10002853Y-9595984D02*
X9983805Y-9586460D01*
X9983805Y-9586460D02*
X9974281Y-9576936D01*
X9974281Y-9576936D02*
X9964758Y-9557889D01*
X9964758Y-9557889D02*
X9955234Y-9519793D01*
X9955234Y-9519793D02*
X9955234Y-9472174D01*
X9955234Y-9472174D02*
X9964758Y-9434079D01*
X9964758Y-9434079D02*
X9974281Y-9415031D01*
X9974281Y-9415031D02*
X9983805Y-9405508D01*
X9983805Y-9405508D02*
X10002853Y-9395984D01*
X10155234Y-9576936D02*
X10164758Y-9586460D01*
X10164758Y-9586460D02*
X10155234Y-9595984D01*
X10155234Y-9595984D02*
X10145710Y-9586460D01*
X10145710Y-9586460D02*
X10155234Y-9576936D01*
X10155234Y-9576936D02*
X10155234Y-9595984D01*
X10288567Y-9395984D02*
X10307615Y-9395984D01*
X10307615Y-9395984D02*
X10326662Y-9405508D01*
X10326662Y-9405508D02*
X10336186Y-9415031D01*
X10336186Y-9415031D02*
X10345710Y-9434079D01*
X10345710Y-9434079D02*
X10355234Y-9472174D01*
X10355234Y-9472174D02*
X10355234Y-9519793D01*
X10355234Y-9519793D02*
X10345710Y-9557889D01*
X10345710Y-9557889D02*
X10336186Y-9576936D01*
X10336186Y-9576936D02*
X10326662Y-9586460D01*
X10326662Y-9586460D02*
X10307615Y-9595984D01*
X10307615Y-9595984D02*
X10288567Y-9595984D01*
X10288567Y-9595984D02*
X10269520Y-9586460D01*
X10269520Y-9586460D02*
X10259996Y-9576936D01*
X10259996Y-9576936D02*
X10250472Y-9557889D01*
X10250472Y-9557889D02*
X10240948Y-9519793D01*
X10240948Y-9519793D02*
X10240948Y-9472174D01*
X10240948Y-9472174D02*
X10250472Y-9434079D01*
X10250472Y-9434079D02*
X10259996Y-9415031D01*
X10259996Y-9415031D02*
X10269520Y-9405508D01*
X10269520Y-9405508D02*
X10288567Y-9395984D01*
X10469520Y-9481698D02*
X10450472Y-9472174D01*
X10450472Y-9472174D02*
X10440948Y-9462650D01*
X10440948Y-9462650D02*
X10431424Y-9443603D01*
X10431424Y-9443603D02*
X10431424Y-9434079D01*
X10431424Y-9434079D02*
X10440948Y-9415031D01*
X10440948Y-9415031D02*
X10450472Y-9405508D01*
X10450472Y-9405508D02*
X10469520Y-9395984D01*
X10469520Y-9395984D02*
X10507615Y-9395984D01*
X10507615Y-9395984D02*
X10526662Y-9405508D01*
X10526662Y-9405508D02*
X10536186Y-9415031D01*
X10536186Y-9415031D02*
X10545710Y-9434079D01*
X10545710Y-9434079D02*
X10545710Y-9443603D01*
X10545710Y-9443603D02*
X10536186Y-9462650D01*
X10536186Y-9462650D02*
X10526662Y-9472174D01*
X10526662Y-9472174D02*
X10507615Y-9481698D01*
X10507615Y-9481698D02*
X10469520Y-9481698D01*
X10469520Y-9481698D02*
X10450472Y-9491222D01*
X10450472Y-9491222D02*
X10440948Y-9500746D01*
X10440948Y-9500746D02*
X10431424Y-9519793D01*
X10431424Y-9519793D02*
X10431424Y-9557889D01*
X10431424Y-9557889D02*
X10440948Y-9576936D01*
X10440948Y-9576936D02*
X10450472Y-9586460D01*
X10450472Y-9586460D02*
X10469520Y-9595984D01*
X10469520Y-9595984D02*
X10507615Y-9595984D01*
X10507615Y-9595984D02*
X10526662Y-9586460D01*
X10526662Y-9586460D02*
X10536186Y-9576936D01*
X10536186Y-9576936D02*
X10545710Y-9557889D01*
X10545710Y-9557889D02*
X10545710Y-9519793D01*
X10545710Y-9519793D02*
X10536186Y-9500746D01*
X10536186Y-9500746D02*
X10526662Y-9491222D01*
X10526662Y-9491222D02*
X10507615Y-9481698D01*
X10621901Y-9415031D02*
X10631424Y-9405508D01*
X10631424Y-9405508D02*
X10650472Y-9395984D01*
X10650472Y-9395984D02*
X10698091Y-9395984D01*
X10698091Y-9395984D02*
X10717139Y-9405508D01*
X10717139Y-9405508D02*
X10726662Y-9415031D01*
X10726662Y-9415031D02*
X10736186Y-9434079D01*
X10736186Y-9434079D02*
X10736186Y-9453127D01*
X10736186Y-9453127D02*
X10726662Y-9481698D01*
X10726662Y-9481698D02*
X10612377Y-9595984D01*
X10612377Y-9595984D02*
X10736186Y-9595984D01*
X10802853Y-9395984D02*
X10936186Y-9395984D01*
X10936186Y-9395984D02*
X10850472Y-9595984D01*
X11002853Y-9395984D02*
X11002853Y-9434079D01*
X11079043Y-9395984D02*
X11079043Y-9434079D01*
X11374282Y-9672174D02*
X11364758Y-9662650D01*
X11364758Y-9662650D02*
X11345710Y-9634079D01*
X11345710Y-9634079D02*
X11336186Y-9615031D01*
X11336186Y-9615031D02*
X11326662Y-9586460D01*
X11326662Y-9586460D02*
X11317139Y-9538841D01*
X11317139Y-9538841D02*
X11317139Y-9500746D01*
X11317139Y-9500746D02*
X11326662Y-9453127D01*
X11326662Y-9453127D02*
X11336186Y-9424555D01*
X11336186Y-9424555D02*
X11345710Y-9405508D01*
X11345710Y-9405508D02*
X11364758Y-9376936D01*
X11364758Y-9376936D02*
X11374282Y-9367412D01*
X11536186Y-9462650D02*
X11536186Y-9595984D01*
X11488567Y-9386460D02*
X11440948Y-9529317D01*
X11440948Y-9529317D02*
X11564758Y-9529317D01*
X11793329Y-9595984D02*
X11793329Y-9395984D01*
X11879043Y-9595984D02*
X11879043Y-9491222D01*
X11879043Y-9491222D02*
X11869520Y-9472174D01*
X11869520Y-9472174D02*
X11850472Y-9462650D01*
X11850472Y-9462650D02*
X11821901Y-9462650D01*
X11821901Y-9462650D02*
X11802853Y-9472174D01*
X11802853Y-9472174D02*
X11793329Y-9481698D01*
X12002853Y-9595984D02*
X11983805Y-9586460D01*
X11983805Y-9586460D02*
X11974282Y-9576936D01*
X11974282Y-9576936D02*
X11964758Y-9557889D01*
X11964758Y-9557889D02*
X11964758Y-9500746D01*
X11964758Y-9500746D02*
X11974282Y-9481698D01*
X11974282Y-9481698D02*
X11983805Y-9472174D01*
X11983805Y-9472174D02*
X12002853Y-9462650D01*
X12002853Y-9462650D02*
X12031424Y-9462650D01*
X12031424Y-9462650D02*
X12050472Y-9472174D01*
X12050472Y-9472174D02*
X12059996Y-9481698D01*
X12059996Y-9481698D02*
X12069520Y-9500746D01*
X12069520Y-9500746D02*
X12069520Y-9557889D01*
X12069520Y-9557889D02*
X12059996Y-9576936D01*
X12059996Y-9576936D02*
X12050472Y-9586460D01*
X12050472Y-9586460D02*
X12031424Y-9595984D01*
X12031424Y-9595984D02*
X12002853Y-9595984D01*
X12183805Y-9595984D02*
X12164758Y-9586460D01*
X12164758Y-9586460D02*
X12155234Y-9567412D01*
X12155234Y-9567412D02*
X12155234Y-9395984D01*
X12336186Y-9586460D02*
X12317139Y-9595984D01*
X12317139Y-9595984D02*
X12279043Y-9595984D01*
X12279043Y-9595984D02*
X12259996Y-9586460D01*
X12259996Y-9586460D02*
X12250472Y-9567412D01*
X12250472Y-9567412D02*
X12250472Y-9491222D01*
X12250472Y-9491222D02*
X12259996Y-9472174D01*
X12259996Y-9472174D02*
X12279043Y-9462650D01*
X12279043Y-9462650D02*
X12317139Y-9462650D01*
X12317139Y-9462650D02*
X12336186Y-9472174D01*
X12336186Y-9472174D02*
X12345710Y-9491222D01*
X12345710Y-9491222D02*
X12345710Y-9510270D01*
X12345710Y-9510270D02*
X12250472Y-9529317D01*
X12421901Y-9586460D02*
X12440948Y-9595984D01*
X12440948Y-9595984D02*
X12479043Y-9595984D01*
X12479043Y-9595984D02*
X12498091Y-9586460D01*
X12498091Y-9586460D02*
X12507615Y-9567412D01*
X12507615Y-9567412D02*
X12507615Y-9557889D01*
X12507615Y-9557889D02*
X12498091Y-9538841D01*
X12498091Y-9538841D02*
X12479043Y-9529317D01*
X12479043Y-9529317D02*
X12450472Y-9529317D01*
X12450472Y-9529317D02*
X12431424Y-9519793D01*
X12431424Y-9519793D02*
X12421901Y-9500746D01*
X12421901Y-9500746D02*
X12421901Y-9491222D01*
X12421901Y-9491222D02*
X12431424Y-9472174D01*
X12431424Y-9472174D02*
X12450472Y-9462650D01*
X12450472Y-9462650D02*
X12479043Y-9462650D01*
X12479043Y-9462650D02*
X12498091Y-9472174D01*
X12574282Y-9672174D02*
X12583805Y-9662650D01*
X12583805Y-9662650D02*
X12602853Y-9634079D01*
X12602853Y-9634079D02*
X12612377Y-9615031D01*
X12612377Y-9615031D02*
X12621901Y-9586460D01*
X12621901Y-9586460D02*
X12631424Y-9538841D01*
X12631424Y-9538841D02*
X12631424Y-9500746D01*
X12631424Y-9500746D02*
X12621901Y-9453127D01*
X12621901Y-9453127D02*
X12612377Y-9424555D01*
X12612377Y-9424555D02*
X12602853Y-9405508D01*
X12602853Y-9405508D02*
X12583805Y-9376936D01*
X12583805Y-9376936D02*
X12574282Y-9367412D01*
X12936186Y-9672174D02*
X12926663Y-9662650D01*
X12926663Y-9662650D02*
X12907615Y-9634079D01*
X12907615Y-9634079D02*
X12898091Y-9615031D01*
X12898091Y-9615031D02*
X12888567Y-9586460D01*
X12888567Y-9586460D02*
X12879044Y-9538841D01*
X12879044Y-9538841D02*
X12879044Y-9500746D01*
X12879044Y-9500746D02*
X12888567Y-9453127D01*
X12888567Y-9453127D02*
X12898091Y-9424555D01*
X12898091Y-9424555D02*
X12907615Y-9405508D01*
X12907615Y-9405508D02*
X12926663Y-9376936D01*
X12926663Y-9376936D02*
X12936186Y-9367412D01*
X13012377Y-9462650D02*
X13012377Y-9595984D01*
X13012377Y-9481698D02*
X13021901Y-9472174D01*
X13021901Y-9472174D02*
X13040948Y-9462650D01*
X13040948Y-9462650D02*
X13069520Y-9462650D01*
X13069520Y-9462650D02*
X13088567Y-9472174D01*
X13088567Y-9472174D02*
X13098091Y-9491222D01*
X13098091Y-9491222D02*
X13098091Y-9595984D01*
X13221901Y-9595984D02*
X13202853Y-9586460D01*
X13202853Y-9586460D02*
X13193329Y-9576936D01*
X13193329Y-9576936D02*
X13183805Y-9557889D01*
X13183805Y-9557889D02*
X13183805Y-9500746D01*
X13183805Y-9500746D02*
X13193329Y-9481698D01*
X13193329Y-9481698D02*
X13202853Y-9472174D01*
X13202853Y-9472174D02*
X13221901Y-9462650D01*
X13221901Y-9462650D02*
X13250472Y-9462650D01*
X13250472Y-9462650D02*
X13269520Y-9472174D01*
X13269520Y-9472174D02*
X13279044Y-9481698D01*
X13279044Y-9481698D02*
X13288567Y-9500746D01*
X13288567Y-9500746D02*
X13288567Y-9557889D01*
X13288567Y-9557889D02*
X13279044Y-9576936D01*
X13279044Y-9576936D02*
X13269520Y-9586460D01*
X13269520Y-9586460D02*
X13250472Y-9595984D01*
X13250472Y-9595984D02*
X13221901Y-9595984D01*
X13345710Y-9462650D02*
X13421901Y-9462650D01*
X13374282Y-9395984D02*
X13374282Y-9567412D01*
X13374282Y-9567412D02*
X13383805Y-9586460D01*
X13383805Y-9586460D02*
X13402853Y-9595984D01*
X13402853Y-9595984D02*
X13421901Y-9595984D01*
X13640948Y-9462650D02*
X13640948Y-9662650D01*
X13640948Y-9472174D02*
X13659996Y-9462650D01*
X13659996Y-9462650D02*
X13698091Y-9462650D01*
X13698091Y-9462650D02*
X13717139Y-9472174D01*
X13717139Y-9472174D02*
X13726663Y-9481698D01*
X13726663Y-9481698D02*
X13736186Y-9500746D01*
X13736186Y-9500746D02*
X13736186Y-9557889D01*
X13736186Y-9557889D02*
X13726663Y-9576936D01*
X13726663Y-9576936D02*
X13717139Y-9586460D01*
X13717139Y-9586460D02*
X13698091Y-9595984D01*
X13698091Y-9595984D02*
X13659996Y-9595984D01*
X13659996Y-9595984D02*
X13640948Y-9586460D01*
X13850472Y-9595984D02*
X13831425Y-9586460D01*
X13831425Y-9586460D02*
X13821901Y-9567412D01*
X13821901Y-9567412D02*
X13821901Y-9395984D01*
X14012377Y-9595984D02*
X14012377Y-9491222D01*
X14012377Y-9491222D02*
X14002853Y-9472174D01*
X14002853Y-9472174D02*
X13983806Y-9462650D01*
X13983806Y-9462650D02*
X13945710Y-9462650D01*
X13945710Y-9462650D02*
X13926663Y-9472174D01*
X14012377Y-9586460D02*
X13993329Y-9595984D01*
X13993329Y-9595984D02*
X13945710Y-9595984D01*
X13945710Y-9595984D02*
X13926663Y-9586460D01*
X13926663Y-9586460D02*
X13917139Y-9567412D01*
X13917139Y-9567412D02*
X13917139Y-9548365D01*
X13917139Y-9548365D02*
X13926663Y-9529317D01*
X13926663Y-9529317D02*
X13945710Y-9519793D01*
X13945710Y-9519793D02*
X13993329Y-9519793D01*
X13993329Y-9519793D02*
X14012377Y-9510270D01*
X14079044Y-9462650D02*
X14155234Y-9462650D01*
X14107615Y-9395984D02*
X14107615Y-9567412D01*
X14107615Y-9567412D02*
X14117139Y-9586460D01*
X14117139Y-9586460D02*
X14136186Y-9595984D01*
X14136186Y-9595984D02*
X14155234Y-9595984D01*
X14298091Y-9586460D02*
X14279044Y-9595984D01*
X14279044Y-9595984D02*
X14240948Y-9595984D01*
X14240948Y-9595984D02*
X14221901Y-9586460D01*
X14221901Y-9586460D02*
X14212377Y-9567412D01*
X14212377Y-9567412D02*
X14212377Y-9491222D01*
X14212377Y-9491222D02*
X14221901Y-9472174D01*
X14221901Y-9472174D02*
X14240948Y-9462650D01*
X14240948Y-9462650D02*
X14279044Y-9462650D01*
X14279044Y-9462650D02*
X14298091Y-9472174D01*
X14298091Y-9472174D02*
X14307615Y-9491222D01*
X14307615Y-9491222D02*
X14307615Y-9510270D01*
X14307615Y-9510270D02*
X14212377Y-9529317D01*
X14479044Y-9595984D02*
X14479044Y-9395984D01*
X14479044Y-9586460D02*
X14459996Y-9595984D01*
X14459996Y-9595984D02*
X14421901Y-9595984D01*
X14421901Y-9595984D02*
X14402853Y-9586460D01*
X14402853Y-9586460D02*
X14393329Y-9576936D01*
X14393329Y-9576936D02*
X14383806Y-9557889D01*
X14383806Y-9557889D02*
X14383806Y-9500746D01*
X14383806Y-9500746D02*
X14393329Y-9481698D01*
X14393329Y-9481698D02*
X14402853Y-9472174D01*
X14402853Y-9472174D02*
X14421901Y-9462650D01*
X14421901Y-9462650D02*
X14459996Y-9462650D01*
X14459996Y-9462650D02*
X14479044Y-9472174D01*
X14555234Y-9672174D02*
X14564758Y-9662650D01*
X14564758Y-9662650D02*
X14583806Y-9634079D01*
X14583806Y-9634079D02*
X14593329Y-9615031D01*
X14593329Y-9615031D02*
X14602853Y-9586460D01*
X14602853Y-9586460D02*
X14612377Y-9538841D01*
X14612377Y-9538841D02*
X14612377Y-9500746D01*
X14612377Y-9500746D02*
X14602853Y-9453127D01*
X14602853Y-9453127D02*
X14593329Y-9424555D01*
X14593329Y-9424555D02*
X14583806Y-9405508D01*
X14583806Y-9405508D02*
X14564758Y-9376936D01*
X14564758Y-9376936D02*
X14555234Y-9367412D01*
M02*
