%TF.GenerationSoftware,KiCad,Pcbnew,7.0.5*%
%TF.CreationDate,2023-07-24T14:08:39-04:00*%
%TF.ProjectId,GPSPCB,47505350-4342-42e6-9b69-6361645f7063,00*%
%TF.SameCoordinates,Original*%
%TF.FileFunction,Paste,Top*%
%TF.FilePolarity,Positive*%
%FSLAX46Y46*%
G04 Gerber Fmt 4.6, Leading zero omitted, Abs format (unit mm)*
G04 Created by KiCad (PCBNEW 7.0.5) date 2023-07-24 14:08:39*
%MOMM*%
%LPD*%
G01*
G04 APERTURE LIST*
G04 Aperture macros list*
%AMRoundRect*
0 Rectangle with rounded corners*
0 $1 Rounding radius*
0 $2 $3 $4 $5 $6 $7 $8 $9 X,Y pos of 4 corners*
0 Add a 4 corners polygon primitive as box body*
4,1,4,$2,$3,$4,$5,$6,$7,$8,$9,$2,$3,0*
0 Add four circle primitives for the rounded corners*
1,1,$1+$1,$2,$3*
1,1,$1+$1,$4,$5*
1,1,$1+$1,$6,$7*
1,1,$1+$1,$8,$9*
0 Add four rect primitives between the rounded corners*
20,1,$1+$1,$2,$3,$4,$5,0*
20,1,$1+$1,$4,$5,$6,$7,0*
20,1,$1+$1,$6,$7,$8,$9,0*
20,1,$1+$1,$8,$9,$2,$3,0*%
%AMFreePoly0*
4,1,14,0.100000,0.600000,0.350000,0.600000,0.350000,-0.600000,0.100000,-0.600000,0.100000,-0.650000,-0.100000,-0.650000,-0.100000,-0.600000,-0.350000,-0.600000,-0.350000,0.450000,-0.200000,0.600000,-0.100000,0.600000,-0.100000,0.650000,0.100000,0.650000,0.100000,0.600000,0.100000,0.600000,$1*%
G04 Aperture macros list end*
%ADD10RoundRect,0.250000X-0.287500X-0.275000X0.287500X-0.275000X0.287500X0.275000X-0.287500X0.275000X0*%
%ADD11RoundRect,0.250000X0.275000X-0.287500X0.275000X0.287500X-0.275000X0.287500X-0.275000X-0.287500X0*%
%ADD12RoundRect,0.079500X0.100500X-0.079500X0.100500X0.079500X-0.100500X0.079500X-0.100500X-0.079500X0*%
%ADD13RoundRect,0.250000X-0.275000X0.287500X-0.275000X-0.287500X0.275000X-0.287500X0.275000X0.287500X0*%
%ADD14RoundRect,0.250000X0.287500X0.275000X-0.287500X0.275000X-0.287500X-0.275000X0.287500X-0.275000X0*%
%ADD15R,1.000000X2.000000*%
%ADD16R,2.000000X1.500000*%
%ADD17R,2.000000X3.800000*%
%ADD18RoundRect,0.079500X-0.100500X0.079500X-0.100500X-0.079500X0.100500X-0.079500X0.100500X0.079500X0*%
%ADD19RoundRect,0.079500X0.079500X0.100500X-0.079500X0.100500X-0.079500X-0.100500X0.079500X-0.100500X0*%
%ADD20RoundRect,0.062500X-0.112500X-0.062500X0.112500X-0.062500X0.112500X0.062500X-0.112500X0.062500X0*%
%ADD21FreePoly0,0.000000*%
%ADD22R,1.000000X0.300000*%
%ADD23R,0.950000X0.250000*%
%ADD24R,0.950000X0.300000*%
%ADD25R,0.600000X1.200000*%
%ADD26R,1.500000X1.500000*%
%ADD27R,1.000000X2.500000*%
%ADD28RoundRect,0.079500X-0.079500X-0.100500X0.079500X-0.100500X0.079500X0.100500X-0.079500X0.100500X0*%
%ADD29R,0.300000X0.850000*%
%ADD30R,0.850000X0.300000*%
%ADD31R,2.650000X2.650000*%
%ADD32R,0.520000X1.000000*%
%ADD33R,0.270000X1.000000*%
%ADD34R,1.400000X0.700000*%
%ADD35O,1.699999X0.299999*%
%ADD36R,1.569999X1.879999*%
%ADD37C,0.290000*%
%ADD38R,1.050000X0.400000*%
G04 APERTURE END LIST*
D10*
%TO.C,C11*%
X94580000Y-64970000D03*
X96005000Y-64970000D03*
%TD*%
D11*
%TO.C,C21*%
X103632000Y-69800500D03*
X103632000Y-68375500D03*
%TD*%
D12*
%TO.C,R9*%
X109680000Y-56015000D03*
X109680000Y-55325000D03*
%TD*%
D13*
%TO.C,C19*%
X117348000Y-54659500D03*
X117348000Y-56084500D03*
%TD*%
%TO.C,C22*%
X92260000Y-61845000D03*
X92260000Y-63270000D03*
%TD*%
D10*
%TO.C,C24*%
X90620000Y-65080000D03*
X92045000Y-65080000D03*
%TD*%
D14*
%TO.C,C10*%
X95952500Y-63230000D03*
X94527500Y-63230000D03*
%TD*%
D10*
%TO.C,C10*%
X110935000Y-72652000D03*
X112360000Y-72652000D03*
%TD*%
D15*
%TO.C,ANT1*%
X110862000Y-81330000D03*
X117862000Y-81330000D03*
%TD*%
D12*
%TO.C,R14*%
X95850000Y-54795000D03*
X95850000Y-54105000D03*
%TD*%
D16*
%TO.C,U3*%
X83930000Y-55080000D03*
X83930000Y-57380000D03*
D17*
X90230000Y-57380000D03*
D16*
X83930000Y-59680000D03*
%TD*%
D12*
%TO.C,R2*%
X107950000Y-57495000D03*
X107950000Y-56805000D03*
%TD*%
%TO.C,R6*%
X108712000Y-54447000D03*
X108712000Y-53757000D03*
%TD*%
D18*
%TO.C,R16*%
X96750000Y-54075000D03*
X96750000Y-54765000D03*
%TD*%
D14*
%TO.C,C15*%
X88705000Y-63710000D03*
X87280000Y-63710000D03*
%TD*%
D12*
%TO.C,R1*%
X104810000Y-62285000D03*
X104810000Y-61595000D03*
%TD*%
D13*
%TO.C,C14*%
X116300000Y-70150000D03*
X116300000Y-71575000D03*
%TD*%
D11*
%TO.C,C4*%
X98298000Y-68227000D03*
X98298000Y-66802000D03*
%TD*%
%TO.C,C25*%
X90530000Y-63290000D03*
X90530000Y-61865000D03*
%TD*%
D13*
%TO.C,C9*%
X114350000Y-73975000D03*
X114350000Y-75400000D03*
%TD*%
D10*
%TO.C,C27*%
X94500000Y-59650000D03*
X95925000Y-59650000D03*
%TD*%
D19*
%TO.C,R15*%
X93135000Y-57350000D03*
X92445000Y-57350000D03*
%TD*%
D18*
%TO.C,R4*%
X108712000Y-55281000D03*
X108712000Y-55971000D03*
%TD*%
D10*
%TO.C,C6*%
X87312500Y-65460000D03*
X88737500Y-65460000D03*
%TD*%
D20*
%TO.C,U2*%
X115607000Y-67572000D03*
X115607000Y-68072000D03*
X115607000Y-68572000D03*
X117057000Y-68572000D03*
X117057000Y-68072000D03*
X117057000Y-67572000D03*
D21*
X116332000Y-68072000D03*
%TD*%
D22*
%TO.C,IC6*%
X95425000Y-69350000D03*
D23*
X95450000Y-68850000D03*
X95450000Y-68350000D03*
D24*
X95450000Y-67850000D03*
X94200000Y-67850000D03*
D23*
X94200000Y-68350000D03*
X94200000Y-68850000D03*
D24*
X94200000Y-69350000D03*
%TD*%
D25*
%TO.C,IC5*%
X89700000Y-69900000D03*
X90650000Y-69900000D03*
X91600000Y-69900000D03*
X91600000Y-67400000D03*
X89700000Y-67400000D03*
%TD*%
D12*
%TO.C,R10*%
X109474000Y-54447000D03*
X109474000Y-53757000D03*
%TD*%
D26*
%TO.C,ANT2*%
X108880000Y-78370000D03*
X108880000Y-72150000D03*
X96120000Y-78370000D03*
X96120000Y-72150000D03*
D27*
X83370000Y-75260000D03*
%TD*%
D13*
%TO.C,C13*%
X103632000Y-65327500D03*
X103632000Y-66752500D03*
%TD*%
D11*
%TO.C,C20*%
X92480000Y-60040000D03*
X92480000Y-58615000D03*
%TD*%
D10*
%TO.C,C11*%
X110935000Y-74430000D03*
X112360000Y-74430000D03*
%TD*%
D12*
%TO.C,R8*%
X96750000Y-56345000D03*
X96750000Y-55655000D03*
%TD*%
D28*
%TO.C,R3*%
X112105000Y-62750000D03*
X112795000Y-62750000D03*
%TD*%
D29*
%TO.C,IC3*%
X110022000Y-61558000D03*
X110522000Y-61558000D03*
X111022000Y-61558000D03*
X111522000Y-61558000D03*
X112022000Y-61558000D03*
X112522000Y-61558000D03*
D30*
X113222000Y-60858000D03*
X113222000Y-60358000D03*
X113222000Y-59858000D03*
X113222000Y-59358000D03*
X113222000Y-58858000D03*
X113222000Y-58358000D03*
D29*
X112522000Y-57658000D03*
X112022000Y-57658000D03*
X111522000Y-57658000D03*
X111022000Y-57658000D03*
X110522000Y-57658000D03*
X110022000Y-57658000D03*
D30*
X109322000Y-58358000D03*
X109322000Y-58858000D03*
X109322000Y-59358000D03*
X109322000Y-59858000D03*
X109322000Y-60358000D03*
X109322000Y-60858000D03*
D31*
X111272000Y-59608000D03*
%TD*%
D10*
%TO.C,C26*%
X94560000Y-61430000D03*
X95985000Y-61430000D03*
%TD*%
D32*
%TO.C,J1*%
X99320000Y-54240000D03*
X100070000Y-54240000D03*
D33*
X100670000Y-54240000D03*
X101170000Y-54240000D03*
X101670000Y-54240000D03*
X102170000Y-54240000D03*
X102670000Y-54240000D03*
X103170000Y-54240000D03*
X103670000Y-54240000D03*
X104170000Y-54240000D03*
D32*
X104770000Y-54240000D03*
X105520000Y-54240000D03*
D15*
X101020000Y-58440000D03*
X103820000Y-58440000D03*
%TD*%
D14*
%TO.C,C8*%
X112312500Y-76250000D03*
X110887500Y-76250000D03*
%TD*%
D13*
%TO.C,C18*%
X119126000Y-54659500D03*
X119126000Y-56084500D03*
%TD*%
D11*
%TO.C,C7*%
X100076000Y-68227000D03*
X100076000Y-66802000D03*
%TD*%
%TO.C,C23*%
X101854000Y-68276500D03*
X101854000Y-66851500D03*
%TD*%
%TO.C,C1*%
X112522000Y-66498500D03*
X112522000Y-65073500D03*
%TD*%
D34*
%TO.C,Y2*%
X113284000Y-70346000D03*
X113284000Y-68846000D03*
%TD*%
D25*
%TO.C,IC2*%
X86000000Y-69900000D03*
X86950000Y-69900000D03*
X87900000Y-69900000D03*
X87900000Y-67400000D03*
X86000000Y-67400000D03*
%TD*%
D13*
%TO.C,C16*%
X103124000Y-62025500D03*
X103124000Y-63450500D03*
%TD*%
D14*
%TO.C,C12*%
X102058500Y-69850000D03*
X100633500Y-69850000D03*
%TD*%
D10*
%TO.C,C17*%
X106372500Y-61990000D03*
X107797500Y-61990000D03*
%TD*%
D18*
%TO.C,R7*%
X95850000Y-55655000D03*
X95850000Y-56345000D03*
%TD*%
D35*
%TO.C,U4*%
X111190002Y-54119999D03*
X111190002Y-54619998D03*
X111190002Y-55120000D03*
X111190002Y-55619999D03*
X111190002Y-56120001D03*
X115290001Y-56120001D03*
X115290001Y-55619999D03*
X115290001Y-55120000D03*
X115290001Y-54619998D03*
X115290001Y-54119999D03*
D36*
X113240000Y-55120000D03*
%TD*%
D12*
%TO.C,R5*%
X107950000Y-54356000D03*
X107950000Y-53666000D03*
%TD*%
D37*
%TO.C,STA8090FG*%
X109990000Y-69370000D03*
X109490000Y-69370000D03*
X108990000Y-69370000D03*
X108490000Y-69370000D03*
X107990000Y-69370000D03*
X107490000Y-69370000D03*
X106990000Y-69370000D03*
X106490000Y-69370000D03*
X105990000Y-69370000D03*
X109990000Y-68870000D03*
X109490000Y-68870000D03*
X108990000Y-68870000D03*
X108490000Y-68870000D03*
X107990000Y-68870000D03*
X107490000Y-68870000D03*
X106990000Y-68870000D03*
X106490000Y-68870000D03*
X105990000Y-68870000D03*
X109990000Y-68370000D03*
X109490000Y-68370000D03*
X108990000Y-68370000D03*
X108490000Y-68370000D03*
X107990000Y-68370000D03*
X107490000Y-68370000D03*
X106990000Y-68370000D03*
X106490000Y-68370000D03*
X105990000Y-68370000D03*
X109990000Y-67870000D03*
X109490000Y-67870000D03*
X108990000Y-67870000D03*
X108490000Y-67870000D03*
X107990000Y-67870000D03*
X107490000Y-67870000D03*
X106990000Y-67870000D03*
X106490000Y-67870000D03*
X105990000Y-67870000D03*
X109990000Y-67370000D03*
X109490000Y-67370000D03*
X108990000Y-67370000D03*
X108490000Y-67370000D03*
X107990000Y-67370000D03*
X107490000Y-67370000D03*
X106990000Y-67370000D03*
X106490000Y-67370000D03*
X105990000Y-67370000D03*
X109990000Y-66870000D03*
X109490000Y-66870000D03*
X108990000Y-66870000D03*
X108490000Y-66870000D03*
X107990000Y-66870000D03*
X107490000Y-66870000D03*
X106990000Y-66870000D03*
X106490000Y-66870000D03*
X105990000Y-66870000D03*
X109990000Y-66370000D03*
X109490000Y-66370000D03*
X108990000Y-66370000D03*
X108490000Y-66370000D03*
X107990000Y-66370000D03*
X107490000Y-66370000D03*
X106990000Y-66370000D03*
X106490000Y-66370000D03*
X105990000Y-66370000D03*
X109990000Y-65870000D03*
X109490000Y-65870000D03*
X108990000Y-65870000D03*
X108490000Y-65870000D03*
X107990000Y-65870000D03*
X107490000Y-65870000D03*
X106990000Y-65870000D03*
X106490000Y-65870000D03*
X105990000Y-65870000D03*
X109990000Y-65370000D03*
X109490000Y-65370000D03*
X108990000Y-65370000D03*
X108490000Y-65370000D03*
X107990000Y-65370000D03*
X107490000Y-65370000D03*
X106990000Y-65370000D03*
X106490000Y-65370000D03*
X105990000Y-65370000D03*
X109990000Y-64870000D03*
X109490000Y-64870000D03*
X108990000Y-64870000D03*
X108490000Y-64870000D03*
X107990000Y-64870000D03*
X107490000Y-64870000D03*
X106990000Y-64870000D03*
X106490000Y-64870000D03*
X105990000Y-64870000D03*
X109990000Y-64370000D03*
X109490000Y-64370000D03*
X108990000Y-64370000D03*
X108490000Y-64370000D03*
X107990000Y-64370000D03*
X107490000Y-64370000D03*
X106990000Y-64370000D03*
X106490000Y-64370000D03*
X105990000Y-64370000D03*
%TD*%
D10*
%TO.C,C8*%
X87237500Y-62000000D03*
X88662500Y-62000000D03*
%TD*%
D12*
%TO.C,R12*%
X107950000Y-59182000D03*
X107950000Y-58492000D03*
%TD*%
D38*
%TO.C,IC4*%
X92400000Y-54550000D03*
X92400000Y-55200000D03*
X92400000Y-55850000D03*
X94500000Y-55850000D03*
X94500000Y-55200000D03*
X94500000Y-54550000D03*
%TD*%
D10*
%TO.C,C9*%
X94510000Y-57870000D03*
X95935000Y-57870000D03*
%TD*%
D18*
%TO.C,R11*%
X107950000Y-55372000D03*
X107950000Y-56062000D03*
%TD*%
D11*
%TO.C,C5*%
X116300000Y-75350000D03*
X116300000Y-73925000D03*
%TD*%
M02*
