%TF.GenerationSoftware,KiCad,Pcbnew,7.0.5*%
%TF.CreationDate,2023-07-24T14:08:39-04:00*%
%TF.ProjectId,GPSPCB,47505350-4342-42e6-9b69-6361645f7063,00*%
%TF.SameCoordinates,Original*%
%TF.FileFunction,Legend,Bot*%
%TF.FilePolarity,Positive*%
%FSLAX46Y46*%
G04 Gerber Fmt 4.6, Leading zero omitted, Abs format (unit mm)*
G04 Created by KiCad (PCBNEW 7.0.5) date 2023-07-24 14:08:39*
%MOMM*%
%LPD*%
G01*
G04 APERTURE LIST*
%ADD10C,0.100000*%
G04 APERTURE END LIST*
D10*
G36*
X119120390Y-62805000D02*
G01*
X118397431Y-62805000D01*
X118397431Y-61671713D01*
X118203258Y-61671713D01*
X118173997Y-61671462D01*
X118145441Y-61670711D01*
X118117592Y-61669459D01*
X118090449Y-61667706D01*
X118064011Y-61665452D01*
X118038280Y-61662697D01*
X118013255Y-61659441D01*
X117977040Y-61653618D01*
X117942415Y-61646668D01*
X117909377Y-61638591D01*
X117877929Y-61629388D01*
X117848069Y-61619057D01*
X117819797Y-61607599D01*
X117801763Y-61599291D01*
X117776062Y-61586016D01*
X117751982Y-61571764D01*
X117729522Y-61556535D01*
X117708683Y-61540330D01*
X117689465Y-61523147D01*
X117671868Y-61504988D01*
X117655891Y-61485853D01*
X117641536Y-61465740D01*
X117628800Y-61444651D01*
X117617686Y-61422585D01*
X117614305Y-61414890D01*
X117604806Y-61390137D01*
X117596273Y-61362883D01*
X117588706Y-61333129D01*
X117582105Y-61300873D01*
X117576470Y-61266117D01*
X117573250Y-61241557D01*
X117570459Y-61215885D01*
X117568098Y-61189102D01*
X117566166Y-61161207D01*
X117564663Y-61132201D01*
X117563590Y-61102083D01*
X117562946Y-61070854D01*
X117562731Y-61038513D01*
X117562731Y-60952418D01*
X118167233Y-60952418D01*
X118167385Y-60971167D01*
X118168187Y-60997763D01*
X118169675Y-61022523D01*
X118172728Y-61052681D01*
X118177002Y-61079576D01*
X118184062Y-61108607D01*
X118193031Y-61132539D01*
X118206311Y-61154528D01*
X118214061Y-61163149D01*
X118236317Y-61179966D01*
X118260045Y-61190707D01*
X118288066Y-61198056D01*
X118314697Y-61201589D01*
X118344309Y-61202766D01*
X118347092Y-61202759D01*
X118371936Y-61202187D01*
X118397431Y-61200935D01*
X118397431Y-60499347D01*
X118371832Y-60499723D01*
X118340338Y-60501392D01*
X118311859Y-60504398D01*
X118286395Y-60508739D01*
X118258804Y-60516043D01*
X118231914Y-60527564D01*
X118211807Y-60542090D01*
X118209064Y-60544820D01*
X118194439Y-60565285D01*
X118184644Y-60587685D01*
X118177027Y-60614944D01*
X118172500Y-60640251D01*
X118169365Y-60668668D01*
X118167624Y-60700196D01*
X118167233Y-60725882D01*
X118167233Y-60952418D01*
X117562731Y-60952418D01*
X117562731Y-60799155D01*
X117562844Y-60767473D01*
X117563180Y-60736845D01*
X117563740Y-60707271D01*
X117564525Y-60678751D01*
X117565534Y-60651286D01*
X117566767Y-60624874D01*
X117568225Y-60599518D01*
X117570831Y-60563459D01*
X117573942Y-60529772D01*
X117577557Y-60498458D01*
X117581677Y-60469516D01*
X117586301Y-60442945D01*
X117591430Y-60418747D01*
X117599263Y-60388484D01*
X117608718Y-60359365D01*
X117619795Y-60331392D01*
X117632493Y-60304563D01*
X117646814Y-60278880D01*
X117662757Y-60254341D01*
X117680321Y-60230947D01*
X117699507Y-60208698D01*
X117715094Y-60192800D01*
X117738063Y-60172722D01*
X117763532Y-60153922D01*
X117784275Y-60140661D01*
X117806423Y-60128119D01*
X117829977Y-60116296D01*
X117854937Y-60105192D01*
X117881304Y-60094808D01*
X117909076Y-60085143D01*
X117938255Y-60076196D01*
X117958631Y-60070651D01*
X117991191Y-60063003D01*
X118026144Y-60056161D01*
X118050776Y-60052046D01*
X118076471Y-60048290D01*
X118103231Y-60044891D01*
X118131054Y-60041850D01*
X118159941Y-60039166D01*
X118189892Y-60036841D01*
X118220906Y-60034873D01*
X118252985Y-60033263D01*
X118286127Y-60032011D01*
X118320333Y-60031116D01*
X118355602Y-60030580D01*
X118391936Y-60030401D01*
X119120390Y-60030401D01*
X119120390Y-62805000D01*
G37*
G36*
X116690784Y-60538426D02*
G01*
X116718262Y-60865101D01*
X116698877Y-60823172D01*
X116678429Y-60783785D01*
X116656917Y-60746941D01*
X116634342Y-60712640D01*
X116610702Y-60680881D01*
X116585999Y-60651665D01*
X116560231Y-60624991D01*
X116533401Y-60600860D01*
X116505506Y-60579272D01*
X116476547Y-60560226D01*
X116446525Y-60543723D01*
X116415439Y-60529763D01*
X116383289Y-60518345D01*
X116350075Y-60509470D01*
X116315798Y-60503137D01*
X116280457Y-60499347D01*
X116280457Y-61320003D01*
X116315292Y-61320448D01*
X116348356Y-61321785D01*
X116379649Y-61324012D01*
X116409171Y-61327130D01*
X116436922Y-61331139D01*
X116462902Y-61336039D01*
X116487111Y-61341829D01*
X116516634Y-61350936D01*
X116543010Y-61361626D01*
X116560725Y-61370683D01*
X116581944Y-61383821D01*
X116605462Y-61401987D01*
X116625640Y-61422091D01*
X116642480Y-61444133D01*
X116655980Y-61468113D01*
X116666141Y-61494031D01*
X116670634Y-61510512D01*
X116675357Y-61536616D01*
X116678486Y-61561002D01*
X116681260Y-61589510D01*
X116683681Y-61622139D01*
X116685747Y-61658890D01*
X116686928Y-61685680D01*
X116687951Y-61714303D01*
X116688817Y-61744757D01*
X116689525Y-61777042D01*
X116690076Y-61811160D01*
X116690470Y-61847110D01*
X116690706Y-61884891D01*
X116690784Y-61924504D01*
X116690784Y-62805000D01*
X117384434Y-62805000D01*
X117384434Y-60538426D01*
X116690784Y-60538426D01*
G37*
G36*
X115414153Y-60499767D02*
G01*
X115447722Y-60501026D01*
X115480518Y-60503125D01*
X115512542Y-60506064D01*
X115543792Y-60509842D01*
X115574270Y-60514460D01*
X115603975Y-60519917D01*
X115632908Y-60526214D01*
X115661067Y-60533350D01*
X115688454Y-60541326D01*
X115715068Y-60550142D01*
X115740909Y-60559797D01*
X115765977Y-60570292D01*
X115790273Y-60581626D01*
X115813795Y-60593800D01*
X115836545Y-60606814D01*
X115858405Y-60620522D01*
X115879412Y-60634778D01*
X115899564Y-60649583D01*
X115918863Y-60664936D01*
X115946209Y-60688995D01*
X115971635Y-60714288D01*
X115995139Y-60740815D01*
X116016722Y-60768577D01*
X116036384Y-60797573D01*
X116054124Y-60827804D01*
X116069943Y-60859268D01*
X116083841Y-60891967D01*
X116092122Y-60914641D01*
X116099869Y-60938393D01*
X116107082Y-60963222D01*
X116113761Y-60989130D01*
X116119905Y-61016116D01*
X116125515Y-61044180D01*
X116130591Y-61073322D01*
X116135132Y-61103543D01*
X116139139Y-61134841D01*
X116142612Y-61167218D01*
X116145551Y-61200672D01*
X116147955Y-61235205D01*
X116149825Y-61270816D01*
X116151160Y-61307505D01*
X116151962Y-61345272D01*
X116152229Y-61384117D01*
X116152229Y-61964193D01*
X116152081Y-61999656D01*
X116151637Y-62033994D01*
X116150898Y-62067205D01*
X116149863Y-62099290D01*
X116148532Y-62130250D01*
X116146905Y-62160084D01*
X116144983Y-62188792D01*
X116142765Y-62216374D01*
X116140251Y-62242831D01*
X116137441Y-62268161D01*
X116132672Y-62304046D01*
X116127237Y-62337398D01*
X116121137Y-62368217D01*
X116114371Y-62396503D01*
X116109444Y-62414349D01*
X116101318Y-62440492D01*
X116092313Y-62465884D01*
X116082428Y-62490524D01*
X116071662Y-62514413D01*
X116060017Y-62537550D01*
X116047491Y-62559936D01*
X116034085Y-62581571D01*
X116019799Y-62602454D01*
X116004633Y-62622587D01*
X115988586Y-62641967D01*
X115977242Y-62654440D01*
X115959189Y-62672405D01*
X115939890Y-62689480D01*
X115919347Y-62705664D01*
X115897558Y-62720958D01*
X115874524Y-62735360D01*
X115850246Y-62748871D01*
X115824722Y-62761492D01*
X115797953Y-62773222D01*
X115769939Y-62784061D01*
X115740680Y-62794009D01*
X115730613Y-62797089D01*
X115699588Y-62805744D01*
X115667329Y-62813518D01*
X115633836Y-62820413D01*
X115599108Y-62826427D01*
X115563146Y-62831561D01*
X115538485Y-62834495D01*
X115513276Y-62837037D01*
X115487519Y-62839189D01*
X115461213Y-62840949D01*
X115434358Y-62842318D01*
X115406954Y-62843296D01*
X115379002Y-62843883D01*
X115350502Y-62844078D01*
X115324890Y-62843849D01*
X115299650Y-62843162D01*
X115274782Y-62842018D01*
X115250286Y-62840415D01*
X115214240Y-62837152D01*
X115179031Y-62832858D01*
X115144659Y-62827535D01*
X115111125Y-62821181D01*
X115078428Y-62813796D01*
X115046567Y-62805381D01*
X115015545Y-62795936D01*
X114985359Y-62785460D01*
X114965738Y-62777806D01*
X114937148Y-62765386D01*
X114909567Y-62751839D01*
X114882995Y-62737164D01*
X114857432Y-62721363D01*
X114832878Y-62704435D01*
X114809332Y-62686380D01*
X114786796Y-62667197D01*
X114765268Y-62646888D01*
X114744750Y-62625452D01*
X114725240Y-62602889D01*
X114712847Y-62587323D01*
X114695294Y-62563706D01*
X114678987Y-62539767D01*
X114663924Y-62515506D01*
X114650107Y-62490923D01*
X114637535Y-62466018D01*
X114626207Y-62440791D01*
X114616125Y-62415243D01*
X114607288Y-62389372D01*
X114599696Y-62363179D01*
X114593349Y-62336664D01*
X114591433Y-62327613D01*
X114586050Y-62298549D01*
X114581215Y-62266619D01*
X114576927Y-62231823D01*
X114575209Y-62215153D01*
X115255858Y-62215153D01*
X115256035Y-62242067D01*
X115256566Y-62267167D01*
X115257826Y-62297812D01*
X115259715Y-62325232D01*
X115262961Y-62354972D01*
X115268156Y-62384009D01*
X115276008Y-62408715D01*
X115288411Y-62428217D01*
X115308659Y-62443496D01*
X115332253Y-62451157D01*
X115357219Y-62453290D01*
X115381528Y-62450952D01*
X115404731Y-62442556D01*
X115424996Y-62425812D01*
X115437819Y-62404441D01*
X115442684Y-62390311D01*
X115448767Y-62362498D01*
X115452720Y-62333252D01*
X115455153Y-62305885D01*
X115456937Y-62274987D01*
X115457849Y-62249497D01*
X115458397Y-62222022D01*
X115458579Y-62192561D01*
X115458579Y-61157581D01*
X115458397Y-61125752D01*
X115457849Y-61096208D01*
X115456937Y-61068951D01*
X115455660Y-61043980D01*
X115453389Y-61014241D01*
X115450470Y-60988567D01*
X115445908Y-60962190D01*
X115437819Y-60935931D01*
X115424881Y-60915896D01*
X115404214Y-60900198D01*
X115380410Y-60892327D01*
X115355387Y-60890136D01*
X115333763Y-60891746D01*
X115309606Y-60898901D01*
X115288815Y-60913794D01*
X115274787Y-60935931D01*
X115267411Y-60962190D01*
X115263252Y-60988567D01*
X115260590Y-61014241D01*
X115258520Y-61043980D01*
X115257355Y-61068951D01*
X115256523Y-61096208D01*
X115256024Y-61125752D01*
X115255858Y-61157581D01*
X115255858Y-62215153D01*
X114575209Y-62215153D01*
X114574373Y-62207034D01*
X114572061Y-62180971D01*
X114569993Y-62153634D01*
X114568169Y-62125024D01*
X114566587Y-62095140D01*
X114565249Y-62063982D01*
X114564154Y-62031551D01*
X114563303Y-61997846D01*
X114562695Y-61962867D01*
X114562330Y-61926615D01*
X114562208Y-61889089D01*
X114562208Y-61334658D01*
X114562339Y-61305139D01*
X114562733Y-61276574D01*
X114563389Y-61248963D01*
X114564307Y-61222306D01*
X114565488Y-61196603D01*
X114567751Y-61159838D01*
X114570604Y-61125219D01*
X114574048Y-61092747D01*
X114578081Y-61062422D01*
X114582706Y-61034244D01*
X114587920Y-61008212D01*
X114595791Y-60976842D01*
X114597946Y-60969483D01*
X114607688Y-60940193D01*
X114619222Y-60911132D01*
X114632551Y-60882300D01*
X114647673Y-60853697D01*
X114660191Y-60832395D01*
X114673719Y-60811222D01*
X114688256Y-60790177D01*
X114703801Y-60769262D01*
X114720355Y-60748475D01*
X114732026Y-60734748D01*
X114750650Y-60714775D01*
X114770616Y-60695543D01*
X114791923Y-60677051D01*
X114814572Y-60659300D01*
X114838563Y-60642289D01*
X114863896Y-60626019D01*
X114890570Y-60610490D01*
X114918586Y-60595701D01*
X114947943Y-60581653D01*
X114978642Y-60568346D01*
X114989164Y-60564101D01*
X115021509Y-60552174D01*
X115055023Y-60541460D01*
X115089708Y-60531960D01*
X115113481Y-60526300D01*
X115137774Y-60521179D01*
X115162588Y-60516597D01*
X115187921Y-60512554D01*
X115213774Y-60509050D01*
X115240147Y-60506085D01*
X115267040Y-60503659D01*
X115294452Y-60501773D01*
X115322385Y-60500425D01*
X115350838Y-60499617D01*
X115379811Y-60499347D01*
X115414153Y-60499767D01*
G37*
G36*
X113612103Y-60225795D02*
G01*
X113612103Y-60577505D01*
X113425258Y-60577505D01*
X113425258Y-60929214D01*
X113612103Y-60929214D01*
X113612103Y-62171800D01*
X113612013Y-62199630D01*
X113611741Y-62225877D01*
X113611288Y-62250540D01*
X113610268Y-62284564D01*
X113608840Y-62315025D01*
X113607005Y-62341923D01*
X113603923Y-62372244D01*
X113599052Y-62401236D01*
X113590328Y-62425195D01*
X113588900Y-62427034D01*
X113564257Y-62439726D01*
X113534947Y-62445880D01*
X113509684Y-62448957D01*
X113479840Y-62451213D01*
X113454452Y-62452367D01*
X113426488Y-62453059D01*
X113395948Y-62453290D01*
X113395948Y-62805000D01*
X113675607Y-62805000D01*
X113704691Y-62804923D01*
X113732717Y-62804694D01*
X113759684Y-62804313D01*
X113785592Y-62803778D01*
X113810441Y-62803091D01*
X113845729Y-62801775D01*
X113878633Y-62800115D01*
X113909155Y-62798111D01*
X113937295Y-62795764D01*
X113963051Y-62793074D01*
X113993686Y-62788952D01*
X114013883Y-62785460D01*
X114038851Y-62779621D01*
X114063075Y-62772179D01*
X114086555Y-62763135D01*
X114109290Y-62752487D01*
X114131282Y-62740237D01*
X114152529Y-62726384D01*
X114173032Y-62710928D01*
X114192791Y-62693869D01*
X114211119Y-62675541D01*
X114227634Y-62656584D01*
X114242336Y-62636997D01*
X114258164Y-62611627D01*
X114271161Y-62585274D01*
X114281325Y-62557937D01*
X114288656Y-62529616D01*
X114293093Y-62502510D01*
X114296032Y-62477060D01*
X114298638Y-62447220D01*
X114300912Y-62412989D01*
X114302243Y-62387730D01*
X114303426Y-62360520D01*
X114304461Y-62331359D01*
X114305348Y-62300246D01*
X114306088Y-62267183D01*
X114306679Y-62232168D01*
X114307123Y-62195203D01*
X114307419Y-62156286D01*
X114307566Y-62115418D01*
X114307585Y-62094253D01*
X114307585Y-60929214D01*
X114457184Y-60929214D01*
X114457184Y-60577505D01*
X114307585Y-60577505D01*
X114307585Y-60225795D01*
X113612103Y-60225795D01*
G37*
G36*
X112561568Y-60499705D02*
G01*
X112590768Y-60500778D01*
X112619538Y-60502567D01*
X112647878Y-60505071D01*
X112675790Y-60508291D01*
X112703272Y-60512227D01*
X112730325Y-60516878D01*
X112756948Y-60522245D01*
X112783142Y-60528327D01*
X112808907Y-60535125D01*
X112834242Y-60542638D01*
X112859149Y-60550867D01*
X112883625Y-60559811D01*
X112907673Y-60569471D01*
X112931291Y-60579847D01*
X112954480Y-60590938D01*
X112965866Y-60596703D01*
X112988034Y-60608705D01*
X113009395Y-60621337D01*
X113039926Y-60641466D01*
X113068643Y-60663011D01*
X113095546Y-60685973D01*
X113120636Y-60710352D01*
X113143911Y-60736148D01*
X113165372Y-60763361D01*
X113185020Y-60791990D01*
X113202853Y-60822036D01*
X113218872Y-60853499D01*
X113228633Y-60875362D01*
X113237763Y-60898207D01*
X113246264Y-60922035D01*
X113254135Y-60946846D01*
X113261376Y-60972639D01*
X113267988Y-60999415D01*
X113273970Y-61027174D01*
X113279323Y-61055915D01*
X113284045Y-61085640D01*
X113288138Y-61116346D01*
X113291601Y-61148036D01*
X113294435Y-61180708D01*
X113296639Y-61214363D01*
X113298213Y-61249001D01*
X113299158Y-61284621D01*
X113299473Y-61321224D01*
X113299473Y-61981290D01*
X113299332Y-62012346D01*
X113298910Y-62042466D01*
X113298206Y-62071651D01*
X113297221Y-62099901D01*
X113295954Y-62127216D01*
X113294406Y-62153596D01*
X113292577Y-62179041D01*
X113289305Y-62215456D01*
X113285400Y-62249767D01*
X113280862Y-62281974D01*
X113275690Y-62312077D01*
X113269885Y-62340077D01*
X113263447Y-62365973D01*
X113258719Y-62382374D01*
X113250787Y-62406652D01*
X113241847Y-62430545D01*
X113231897Y-62454051D01*
X113220938Y-62477170D01*
X113208970Y-62499903D01*
X113195994Y-62522250D01*
X113182008Y-62544211D01*
X113167014Y-62565785D01*
X113151010Y-62586972D01*
X113133998Y-62607773D01*
X113121955Y-62621331D01*
X113102809Y-62640987D01*
X113082364Y-62659828D01*
X113060620Y-62677852D01*
X113037577Y-62695062D01*
X113013236Y-62711455D01*
X112987595Y-62727033D01*
X112960657Y-62741795D01*
X112932419Y-62755741D01*
X112902883Y-62768871D01*
X112872048Y-62781186D01*
X112850781Y-62788802D01*
X112818130Y-62799304D01*
X112784578Y-62808701D01*
X112750124Y-62816993D01*
X112714769Y-62824179D01*
X112690697Y-62828355D01*
X112666225Y-62832040D01*
X112641353Y-62835234D01*
X112616079Y-62837937D01*
X112590405Y-62840148D01*
X112564330Y-62841867D01*
X112537855Y-62843096D01*
X112510978Y-62843833D01*
X112483701Y-62844078D01*
X112455683Y-62843830D01*
X112428260Y-62843086D01*
X112401434Y-62841846D01*
X112375204Y-62840109D01*
X112349571Y-62837877D01*
X112324533Y-62835148D01*
X112300092Y-62831923D01*
X112264549Y-62826156D01*
X112230347Y-62819272D01*
X112197487Y-62811273D01*
X112165969Y-62802156D01*
X112135792Y-62791924D01*
X112106957Y-62780575D01*
X112088386Y-62772392D01*
X112061298Y-62759195D01*
X112035134Y-62744893D01*
X112009893Y-62729485D01*
X111985575Y-62712972D01*
X111962180Y-62695353D01*
X111939708Y-62676629D01*
X111918159Y-62656799D01*
X111897533Y-62635864D01*
X111877830Y-62613823D01*
X111859050Y-62590676D01*
X111847043Y-62574863D01*
X111830088Y-62551375D01*
X111814400Y-62528165D01*
X111799978Y-62505236D01*
X111786822Y-62482585D01*
X111774933Y-62460213D01*
X111764311Y-62438120D01*
X111752118Y-62409097D01*
X111742176Y-62380570D01*
X111734487Y-62352540D01*
X111729685Y-62330740D01*
X111724018Y-62299036D01*
X111720319Y-62273280D01*
X111717091Y-62245828D01*
X111714336Y-62216680D01*
X111712054Y-62185836D01*
X111710244Y-62153296D01*
X111708905Y-62119060D01*
X111708040Y-62083128D01*
X111707725Y-62058232D01*
X111707620Y-62032581D01*
X111707620Y-61867107D01*
X112365244Y-61867107D01*
X112365244Y-62166304D01*
X112365480Y-62197052D01*
X112366188Y-62225867D01*
X112367369Y-62252751D01*
X112369678Y-62285590D01*
X112372826Y-62314994D01*
X112376814Y-62340964D01*
X112382980Y-62368597D01*
X112392110Y-62394672D01*
X112403824Y-62414593D01*
X112422211Y-62432625D01*
X112445682Y-62445047D01*
X112469846Y-62451229D01*
X112497745Y-62453290D01*
X112520121Y-62451723D01*
X112545480Y-62444758D01*
X112567897Y-62430263D01*
X112583841Y-62408715D01*
X112587769Y-62399272D01*
X112594467Y-62374557D01*
X112598868Y-62348024D01*
X112601615Y-62322913D01*
X112603676Y-62294348D01*
X112605050Y-62262330D01*
X112605630Y-62236049D01*
X112605823Y-62207826D01*
X112605823Y-61710792D01*
X111707620Y-61710792D01*
X111707620Y-61410983D01*
X111707918Y-61370421D01*
X111708175Y-61359082D01*
X112403101Y-61359082D01*
X112605823Y-61359082D01*
X112605823Y-61183838D01*
X112605806Y-61171396D01*
X112605556Y-61135895D01*
X112605005Y-61103132D01*
X112604153Y-61073105D01*
X112603001Y-61045816D01*
X112601549Y-61021263D01*
X112599144Y-60992784D01*
X112595388Y-60964028D01*
X112588726Y-60936542D01*
X112586374Y-60930922D01*
X112570478Y-60910121D01*
X112549050Y-60897794D01*
X112524665Y-60891767D01*
X112499577Y-60890136D01*
X112478991Y-60892046D01*
X112453343Y-60902076D01*
X112433975Y-60920704D01*
X112422030Y-60944480D01*
X112420866Y-60947967D01*
X112414655Y-60974299D01*
X112410495Y-61003327D01*
X112407834Y-61031186D01*
X112405763Y-61063166D01*
X112404599Y-61089857D01*
X112403767Y-61118865D01*
X112403268Y-61150192D01*
X112403101Y-61183838D01*
X112403101Y-61359082D01*
X111708175Y-61359082D01*
X111708812Y-61331013D01*
X111710303Y-61292759D01*
X111712390Y-61255660D01*
X111715074Y-61219716D01*
X111718353Y-61184925D01*
X111722229Y-61151289D01*
X111726701Y-61118808D01*
X111731770Y-61087481D01*
X111737435Y-61057308D01*
X111743696Y-61028290D01*
X111750553Y-61000426D01*
X111758007Y-60973717D01*
X111766057Y-60948162D01*
X111774703Y-60923762D01*
X111783946Y-60900516D01*
X111788827Y-60889251D01*
X111799255Y-60867141D01*
X111816561Y-60835021D01*
X111835863Y-60804157D01*
X111857161Y-60774550D01*
X111872469Y-60755509D01*
X111888665Y-60737026D01*
X111905748Y-60719101D01*
X111923717Y-60701735D01*
X111942575Y-60684926D01*
X111962319Y-60668676D01*
X111982951Y-60652984D01*
X112004470Y-60637850D01*
X112026877Y-60623274D01*
X112050170Y-60609256D01*
X112074306Y-60595947D01*
X112099238Y-60583496D01*
X112124967Y-60571904D01*
X112151493Y-60561171D01*
X112178815Y-60551296D01*
X112206934Y-60542280D01*
X112235850Y-60534123D01*
X112265562Y-60526824D01*
X112296071Y-60520384D01*
X112327376Y-60514803D01*
X112359479Y-60510080D01*
X112392378Y-60506216D01*
X112426073Y-60503211D01*
X112460565Y-60501064D01*
X112495854Y-60499776D01*
X112531939Y-60499347D01*
X112561568Y-60499705D01*
G37*
G36*
X109957620Y-61398161D02*
G01*
X110611580Y-61398161D01*
X110611580Y-61130104D01*
X110611779Y-61104675D01*
X110612661Y-61073224D01*
X110614250Y-61044578D01*
X110616544Y-61018737D01*
X110620405Y-60990380D01*
X110625369Y-60966406D01*
X110634172Y-60940205D01*
X110647568Y-60918300D01*
X110668385Y-60901137D01*
X110691998Y-60892531D01*
X110716604Y-60890136D01*
X110744082Y-60892845D01*
X110769155Y-60902371D01*
X110788045Y-60918755D01*
X110797205Y-60933489D01*
X110805294Y-60957360D01*
X110810646Y-60986054D01*
X110813992Y-61015770D01*
X110815938Y-61043343D01*
X110817235Y-61074293D01*
X110817783Y-61099722D01*
X110817965Y-61127051D01*
X110817965Y-62207826D01*
X110817488Y-62237555D01*
X110816057Y-62265375D01*
X110813672Y-62291288D01*
X110809349Y-62320996D01*
X110803535Y-62347722D01*
X110796230Y-62371466D01*
X110787435Y-62392229D01*
X110772408Y-62416021D01*
X110754577Y-62433970D01*
X110730763Y-62447327D01*
X110706921Y-62452753D01*
X110695844Y-62453290D01*
X110671100Y-62451014D01*
X110646247Y-62442608D01*
X110625719Y-62428007D01*
X110609516Y-62407212D01*
X110600589Y-62388565D01*
X110592081Y-62360237D01*
X110586336Y-62330431D01*
X110582620Y-62302529D01*
X110579686Y-62271021D01*
X110577999Y-62245023D01*
X110576752Y-62216996D01*
X110575945Y-62186941D01*
X110575579Y-62154857D01*
X110575554Y-62143712D01*
X110575554Y-61867107D01*
X109957620Y-61867107D01*
X109957913Y-61900619D01*
X109958335Y-61933072D01*
X109958886Y-61964465D01*
X109959566Y-61994800D01*
X109960375Y-62024076D01*
X109961312Y-62052293D01*
X109962378Y-62079450D01*
X109963573Y-62105549D01*
X109964897Y-62130589D01*
X109967124Y-62166163D01*
X109969641Y-62199354D01*
X109972448Y-62230162D01*
X109975544Y-62258587D01*
X109977770Y-62276214D01*
X109981788Y-62301804D01*
X109987201Y-62327512D01*
X109994009Y-62353338D01*
X110002213Y-62379282D01*
X110011812Y-62405345D01*
X110022807Y-62431525D01*
X110035197Y-62457823D01*
X110048982Y-62484240D01*
X110064162Y-62510775D01*
X110080738Y-62537427D01*
X110092564Y-62555261D01*
X110111288Y-62581440D01*
X110131054Y-62606395D01*
X110151860Y-62630126D01*
X110173708Y-62652634D01*
X110196597Y-62673918D01*
X110220527Y-62693979D01*
X110245498Y-62712816D01*
X110271510Y-62730429D01*
X110298563Y-62746819D01*
X110326658Y-62761985D01*
X110345966Y-62771416D01*
X110375815Y-62784402D01*
X110406974Y-62796110D01*
X110439442Y-62806541D01*
X110473220Y-62815695D01*
X110508308Y-62823571D01*
X110532427Y-62828113D01*
X110557127Y-62832086D01*
X110582410Y-62835492D01*
X110608275Y-62838331D01*
X110634722Y-62840601D01*
X110661751Y-62842304D01*
X110689362Y-62843440D01*
X110717555Y-62844007D01*
X110731870Y-62844078D01*
X110768108Y-62843690D01*
X110803397Y-62842523D01*
X110837736Y-62840579D01*
X110871126Y-62837858D01*
X110903567Y-62834359D01*
X110935059Y-62830082D01*
X110965601Y-62825028D01*
X110995194Y-62819196D01*
X111023838Y-62812587D01*
X111051532Y-62805200D01*
X111078277Y-62797035D01*
X111104073Y-62788093D01*
X111128919Y-62778374D01*
X111152816Y-62767876D01*
X111175764Y-62756602D01*
X111197763Y-62744549D01*
X111218819Y-62731722D01*
X111248937Y-62711318D01*
X111277294Y-62689518D01*
X111303892Y-62666324D01*
X111328729Y-62641734D01*
X111351805Y-62615748D01*
X111373122Y-62588368D01*
X111392678Y-62559591D01*
X111410474Y-62529420D01*
X111426509Y-62497853D01*
X111440784Y-62464891D01*
X111449362Y-62441786D01*
X111457385Y-62417502D01*
X111464856Y-62392041D01*
X111471773Y-62365401D01*
X111478136Y-62337582D01*
X111483947Y-62308585D01*
X111489204Y-62278410D01*
X111493907Y-62247057D01*
X111498058Y-62214526D01*
X111501654Y-62180816D01*
X111504698Y-62145928D01*
X111507188Y-62109861D01*
X111509125Y-62072617D01*
X111510508Y-62034194D01*
X111511338Y-61994593D01*
X111511615Y-61953813D01*
X111511615Y-61310844D01*
X111511388Y-61275371D01*
X111510709Y-61241006D01*
X111509576Y-61207747D01*
X111507989Y-61175594D01*
X111505950Y-61144549D01*
X111503458Y-61114610D01*
X111500512Y-61085778D01*
X111497113Y-61058053D01*
X111493261Y-61031434D01*
X111488956Y-61005922D01*
X111484197Y-60981517D01*
X111476210Y-60946984D01*
X111467203Y-60914941D01*
X111457176Y-60885389D01*
X111453607Y-60876092D01*
X111441457Y-60848893D01*
X111426989Y-60822253D01*
X111410202Y-60796171D01*
X111391096Y-60770647D01*
X111369673Y-60745682D01*
X111345930Y-60721274D01*
X111319870Y-60697425D01*
X111291491Y-60674133D01*
X111271284Y-60658916D01*
X111250046Y-60643946D01*
X111227778Y-60629225D01*
X111204480Y-60614752D01*
X111180270Y-60600777D01*
X111155421Y-60587704D01*
X111129933Y-60575532D01*
X111103806Y-60564262D01*
X111077039Y-60553894D01*
X111049633Y-60544427D01*
X111021588Y-60535862D01*
X110992904Y-60528198D01*
X110963581Y-60521436D01*
X110933618Y-60515576D01*
X110903016Y-60510617D01*
X110871775Y-60506560D01*
X110839895Y-60503404D01*
X110807375Y-60501150D01*
X110774216Y-60499798D01*
X110740418Y-60499347D01*
X110706837Y-60499795D01*
X110673871Y-60501141D01*
X110641521Y-60503383D01*
X110609786Y-60506522D01*
X110578667Y-60510557D01*
X110548163Y-60515490D01*
X110518274Y-60521319D01*
X110489001Y-60528046D01*
X110460343Y-60535669D01*
X110432300Y-60544188D01*
X110404873Y-60553605D01*
X110378061Y-60563919D01*
X110351864Y-60575129D01*
X110326283Y-60587236D01*
X110301318Y-60600240D01*
X110276967Y-60614141D01*
X110253428Y-60628724D01*
X110230895Y-60643775D01*
X110209369Y-60659293D01*
X110188849Y-60675278D01*
X110169336Y-60691731D01*
X110150829Y-60708652D01*
X110133329Y-60726040D01*
X110108966Y-60752998D01*
X110086868Y-60781009D01*
X110067035Y-60810071D01*
X110049466Y-60840185D01*
X110034162Y-60871351D01*
X110021123Y-60903569D01*
X110009774Y-60937590D01*
X110002829Y-60961690D01*
X109996379Y-60986925D01*
X109990426Y-61013296D01*
X109984968Y-61040802D01*
X109980007Y-61069443D01*
X109975542Y-61099220D01*
X109971573Y-61130132D01*
X109968100Y-61162179D01*
X109965124Y-61195362D01*
X109962643Y-61229680D01*
X109960659Y-61265133D01*
X109959170Y-61301722D01*
X109958178Y-61339446D01*
X109957682Y-61378305D01*
X109957620Y-61398161D01*
G37*
G36*
X109030108Y-60225795D02*
G01*
X109030108Y-60577505D01*
X108843262Y-60577505D01*
X108843262Y-60929214D01*
X109030108Y-60929214D01*
X109030108Y-62171800D01*
X109030017Y-62199630D01*
X109029745Y-62225877D01*
X109029292Y-62250540D01*
X109028272Y-62284564D01*
X109026845Y-62315025D01*
X109025009Y-62341923D01*
X109021928Y-62372244D01*
X109017056Y-62401236D01*
X109008332Y-62425195D01*
X109006905Y-62427034D01*
X108982261Y-62439726D01*
X108952952Y-62445880D01*
X108927688Y-62448957D01*
X108897844Y-62451213D01*
X108872456Y-62452367D01*
X108844493Y-62453059D01*
X108813953Y-62453290D01*
X108813953Y-62805000D01*
X109093611Y-62805000D01*
X109122696Y-62804923D01*
X109150722Y-62804694D01*
X109177688Y-62804313D01*
X109203596Y-62803778D01*
X109228445Y-62803091D01*
X109263733Y-62801775D01*
X109296638Y-62800115D01*
X109327160Y-62798111D01*
X109355299Y-62795764D01*
X109381055Y-62793074D01*
X109411691Y-62788952D01*
X109431887Y-62785460D01*
X109456855Y-62779621D01*
X109481079Y-62772179D01*
X109504559Y-62763135D01*
X109527294Y-62752487D01*
X109549286Y-62740237D01*
X109570533Y-62726384D01*
X109591036Y-62710928D01*
X109610795Y-62693869D01*
X109629123Y-62675541D01*
X109645638Y-62656584D01*
X109660340Y-62636997D01*
X109676169Y-62611627D01*
X109689165Y-62585274D01*
X109699329Y-62557937D01*
X109706660Y-62529616D01*
X109711097Y-62502510D01*
X109714036Y-62477060D01*
X109716642Y-62447220D01*
X109718916Y-62412989D01*
X109720247Y-62387730D01*
X109721430Y-62360520D01*
X109722465Y-62331359D01*
X109723352Y-62300246D01*
X109724092Y-62267183D01*
X109724683Y-62232168D01*
X109725127Y-62195203D01*
X109725423Y-62156286D01*
X109725571Y-62115418D01*
X109725589Y-62094253D01*
X109725589Y-60929214D01*
X109875188Y-60929214D01*
X109875188Y-60577505D01*
X109725589Y-60577505D01*
X109725589Y-60225795D01*
X109030108Y-60225795D01*
G37*
G36*
X107982306Y-60030401D02*
G01*
X107982306Y-60382110D01*
X108696716Y-60382110D01*
X108696716Y-60030401D01*
X107982306Y-60030401D01*
G37*
G36*
X107982306Y-60538426D02*
G01*
X107982306Y-62805000D01*
X108696716Y-62805000D01*
X108696716Y-60538426D01*
X107982306Y-60538426D01*
G37*
G36*
X107021969Y-60499767D02*
G01*
X107055538Y-60501026D01*
X107088334Y-60503125D01*
X107120358Y-60506064D01*
X107151608Y-60509842D01*
X107182086Y-60514460D01*
X107211791Y-60519917D01*
X107240723Y-60526214D01*
X107268883Y-60533350D01*
X107296270Y-60541326D01*
X107322883Y-60550142D01*
X107348725Y-60559797D01*
X107373793Y-60570292D01*
X107398088Y-60581626D01*
X107421611Y-60593800D01*
X107444361Y-60606814D01*
X107466221Y-60620522D01*
X107487227Y-60634778D01*
X107507380Y-60649583D01*
X107526678Y-60664936D01*
X107554025Y-60688995D01*
X107579451Y-60714288D01*
X107602955Y-60740815D01*
X107624538Y-60768577D01*
X107644199Y-60797573D01*
X107661940Y-60827804D01*
X107677759Y-60859268D01*
X107691657Y-60891967D01*
X107699938Y-60914641D01*
X107707685Y-60938393D01*
X107714898Y-60963222D01*
X107721577Y-60989130D01*
X107727721Y-61016116D01*
X107733331Y-61044180D01*
X107738406Y-61073322D01*
X107742948Y-61103543D01*
X107746955Y-61134841D01*
X107750428Y-61167218D01*
X107753366Y-61200672D01*
X107755771Y-61235205D01*
X107757641Y-61270816D01*
X107758976Y-61307505D01*
X107759778Y-61345272D01*
X107760045Y-61384117D01*
X107760045Y-61964193D01*
X107759897Y-61999656D01*
X107759453Y-62033994D01*
X107758714Y-62067205D01*
X107757679Y-62099290D01*
X107756348Y-62130250D01*
X107754721Y-62160084D01*
X107752799Y-62188792D01*
X107750580Y-62216374D01*
X107748066Y-62242831D01*
X107745257Y-62268161D01*
X107740487Y-62304046D01*
X107735053Y-62337398D01*
X107728953Y-62368217D01*
X107722187Y-62396503D01*
X107717259Y-62414349D01*
X107709134Y-62440492D01*
X107700129Y-62465884D01*
X107690244Y-62490524D01*
X107679478Y-62514413D01*
X107667832Y-62537550D01*
X107655307Y-62559936D01*
X107641901Y-62581571D01*
X107627615Y-62602454D01*
X107612448Y-62622587D01*
X107596402Y-62641967D01*
X107585058Y-62654440D01*
X107567005Y-62672405D01*
X107547706Y-62689480D01*
X107527163Y-62705664D01*
X107505374Y-62720958D01*
X107482340Y-62735360D01*
X107458061Y-62748871D01*
X107432538Y-62761492D01*
X107405769Y-62773222D01*
X107377755Y-62784061D01*
X107348496Y-62794009D01*
X107338428Y-62797089D01*
X107307404Y-62805744D01*
X107275145Y-62813518D01*
X107241651Y-62820413D01*
X107206924Y-62826427D01*
X107170962Y-62831561D01*
X107146301Y-62834495D01*
X107121092Y-62837037D01*
X107095335Y-62839189D01*
X107069028Y-62840949D01*
X107042174Y-62842318D01*
X107014770Y-62843296D01*
X106986818Y-62843883D01*
X106958318Y-62844078D01*
X106932706Y-62843849D01*
X106907466Y-62843162D01*
X106882598Y-62842018D01*
X106858102Y-62840415D01*
X106822056Y-62837152D01*
X106786847Y-62832858D01*
X106752475Y-62827535D01*
X106718941Y-62821181D01*
X106686243Y-62813796D01*
X106654383Y-62805381D01*
X106623360Y-62795936D01*
X106593175Y-62785460D01*
X106573554Y-62777806D01*
X106544964Y-62765386D01*
X106517383Y-62751839D01*
X106490811Y-62737164D01*
X106465248Y-62721363D01*
X106440693Y-62704435D01*
X106417148Y-62686380D01*
X106394612Y-62667197D01*
X106373084Y-62646888D01*
X106352566Y-62625452D01*
X106333056Y-62602889D01*
X106320663Y-62587323D01*
X106303110Y-62563706D01*
X106286802Y-62539767D01*
X106271740Y-62515506D01*
X106257923Y-62490923D01*
X106245350Y-62466018D01*
X106234023Y-62440791D01*
X106223941Y-62415243D01*
X106215104Y-62389372D01*
X106207512Y-62363179D01*
X106201165Y-62336664D01*
X106199249Y-62327613D01*
X106193866Y-62298549D01*
X106189031Y-62266619D01*
X106184743Y-62231823D01*
X106183025Y-62215153D01*
X106863674Y-62215153D01*
X106863851Y-62242067D01*
X106864382Y-62267167D01*
X106865641Y-62297812D01*
X106867530Y-62325232D01*
X106870777Y-62354972D01*
X106875972Y-62384009D01*
X106883824Y-62408715D01*
X106896227Y-62428217D01*
X106916475Y-62443496D01*
X106940069Y-62451157D01*
X106965034Y-62453290D01*
X106989344Y-62450952D01*
X107012547Y-62442556D01*
X107032812Y-62425812D01*
X107045634Y-62404441D01*
X107050500Y-62390311D01*
X107056582Y-62362498D01*
X107060536Y-62333252D01*
X107062969Y-62305885D01*
X107064753Y-62274987D01*
X107065665Y-62249497D01*
X107066213Y-62222022D01*
X107066395Y-62192561D01*
X107066395Y-61157581D01*
X107066213Y-61125752D01*
X107065665Y-61096208D01*
X107064753Y-61068951D01*
X107063476Y-61043980D01*
X107061205Y-61014241D01*
X107058285Y-60988567D01*
X107053724Y-60962190D01*
X107045634Y-60935931D01*
X107032697Y-60915896D01*
X107012030Y-60900198D01*
X106988226Y-60892327D01*
X106963203Y-60890136D01*
X106941578Y-60891746D01*
X106917421Y-60898901D01*
X106896631Y-60913794D01*
X106882602Y-60935931D01*
X106875227Y-60962190D01*
X106871068Y-60988567D01*
X106868406Y-61014241D01*
X106866335Y-61043980D01*
X106865171Y-61068951D01*
X106864339Y-61096208D01*
X106863840Y-61125752D01*
X106863674Y-61157581D01*
X106863674Y-62215153D01*
X106183025Y-62215153D01*
X106182188Y-62207034D01*
X106179877Y-62180971D01*
X106177809Y-62153634D01*
X106175984Y-62125024D01*
X106174403Y-62095140D01*
X106173065Y-62063982D01*
X106171970Y-62031551D01*
X106171119Y-61997846D01*
X106170510Y-61962867D01*
X106170146Y-61926615D01*
X106170024Y-61889089D01*
X106170024Y-61334658D01*
X106170155Y-61305139D01*
X106170549Y-61276574D01*
X106171205Y-61248963D01*
X106172123Y-61222306D01*
X106173303Y-61196603D01*
X106175566Y-61159838D01*
X106178420Y-61125219D01*
X106181863Y-61092747D01*
X106185897Y-61062422D01*
X106190522Y-61034244D01*
X106195736Y-61008212D01*
X106203607Y-60976842D01*
X106205762Y-60969483D01*
X106215503Y-60940193D01*
X106227038Y-60911132D01*
X106240367Y-60882300D01*
X106255489Y-60853697D01*
X106268007Y-60832395D01*
X106281535Y-60811222D01*
X106296071Y-60790177D01*
X106311617Y-60769262D01*
X106328171Y-60748475D01*
X106339842Y-60734748D01*
X106358466Y-60714775D01*
X106378432Y-60695543D01*
X106399739Y-60677051D01*
X106422388Y-60659300D01*
X106446379Y-60642289D01*
X106471711Y-60626019D01*
X106498386Y-60610490D01*
X106526401Y-60595701D01*
X106555759Y-60581653D01*
X106586458Y-60568346D01*
X106596980Y-60564101D01*
X106629324Y-60552174D01*
X106662839Y-60541460D01*
X106697524Y-60531960D01*
X106721297Y-60526300D01*
X106745590Y-60521179D01*
X106770403Y-60516597D01*
X106795736Y-60512554D01*
X106821589Y-60509050D01*
X106847962Y-60506085D01*
X106874855Y-60503659D01*
X106902268Y-60501773D01*
X106930201Y-60500425D01*
X106958654Y-60499617D01*
X106987627Y-60499347D01*
X107021969Y-60499767D01*
G37*
G36*
X105246175Y-60538426D02*
G01*
X105257777Y-60743590D01*
X105243290Y-60721229D01*
X105228224Y-60699941D01*
X105212579Y-60679727D01*
X105196354Y-60660585D01*
X105179549Y-60642518D01*
X105156241Y-60620097D01*
X105131902Y-60599584D01*
X105106533Y-60580980D01*
X105080134Y-60564284D01*
X105073373Y-60560408D01*
X105045534Y-60546097D01*
X105016663Y-60533694D01*
X104986763Y-60523199D01*
X104955832Y-60514612D01*
X104931957Y-60509424D01*
X104907503Y-60505310D01*
X104882469Y-60502269D01*
X104856856Y-60500301D01*
X104830663Y-60499407D01*
X104821803Y-60499347D01*
X104788838Y-60500082D01*
X104757031Y-60502288D01*
X104726384Y-60505964D01*
X104696896Y-60511111D01*
X104668567Y-60517728D01*
X104641398Y-60525815D01*
X104615387Y-60535373D01*
X104590536Y-60546402D01*
X104566844Y-60558901D01*
X104544311Y-60572870D01*
X104529933Y-60583000D01*
X104509352Y-60599066D01*
X104490198Y-60615894D01*
X104472472Y-60633484D01*
X104456174Y-60651837D01*
X104436663Y-60677492D01*
X104419690Y-60704501D01*
X104405255Y-60732866D01*
X104393357Y-60762585D01*
X104383998Y-60793660D01*
X104378105Y-60818971D01*
X104372792Y-60847276D01*
X104368059Y-60878576D01*
X104363905Y-60912871D01*
X104361458Y-60937398D01*
X104359268Y-60963256D01*
X104357336Y-60990444D01*
X104355662Y-61018964D01*
X104354245Y-61048815D01*
X104353086Y-61079996D01*
X104352184Y-61112509D01*
X104351540Y-61146352D01*
X104351154Y-61181526D01*
X104351025Y-61218032D01*
X104351025Y-62805000D01*
X105044675Y-62805000D01*
X105044675Y-61228412D01*
X105044737Y-61199744D01*
X105044923Y-61172513D01*
X105045233Y-61146717D01*
X105045931Y-61110716D01*
X105046907Y-61077945D01*
X105048163Y-61048405D01*
X105049698Y-61022096D01*
X105052179Y-60992043D01*
X105055155Y-60967733D01*
X105060551Y-60942037D01*
X105071618Y-60919330D01*
X105092280Y-60901540D01*
X105117944Y-60892619D01*
X105146036Y-60890136D01*
X105171810Y-60892218D01*
X105196996Y-60899911D01*
X105219341Y-60915643D01*
X105234816Y-60938780D01*
X105238848Y-60949364D01*
X105245281Y-60978530D01*
X105248830Y-61005703D01*
X105251104Y-61030139D01*
X105253045Y-61058053D01*
X105254653Y-61089444D01*
X105255928Y-61124313D01*
X105256594Y-61149491D01*
X105257111Y-61176215D01*
X105257481Y-61204484D01*
X105257703Y-61234299D01*
X105257777Y-61265659D01*
X105257777Y-62805000D01*
X105951427Y-62805000D01*
X105951427Y-60538426D01*
X105246175Y-60538426D01*
G37*
G36*
X104266761Y-62805000D02*
G01*
X103517547Y-62805000D01*
X103474804Y-62296974D01*
X103215296Y-62296974D01*
X103179270Y-62805000D01*
X102439214Y-62805000D01*
X102584986Y-61828028D01*
X103236057Y-61828028D01*
X103483353Y-61828028D01*
X103481555Y-61803660D01*
X103479596Y-61778412D01*
X103477476Y-61752283D01*
X103475195Y-61725274D01*
X103472753Y-61697386D01*
X103470151Y-61668617D01*
X103467387Y-61638968D01*
X103464462Y-61608439D01*
X103461376Y-61577029D01*
X103458129Y-61544740D01*
X103454721Y-61511570D01*
X103451153Y-61477521D01*
X103447423Y-61442591D01*
X103443532Y-61406781D01*
X103439480Y-61370091D01*
X103435267Y-61332520D01*
X103430893Y-61294070D01*
X103426359Y-61254740D01*
X103421663Y-61214529D01*
X103416806Y-61173438D01*
X103411788Y-61131467D01*
X103406609Y-61088616D01*
X103401269Y-61044885D01*
X103395769Y-61000274D01*
X103390107Y-60954782D01*
X103384284Y-60908411D01*
X103378300Y-60861159D01*
X103372155Y-60813027D01*
X103365849Y-60764015D01*
X103359383Y-60714123D01*
X103352755Y-60663351D01*
X103345966Y-60611699D01*
X103342531Y-60656918D01*
X103339097Y-60701673D01*
X103335662Y-60745962D01*
X103332227Y-60789786D01*
X103328793Y-60833145D01*
X103325358Y-60876039D01*
X103321923Y-60918468D01*
X103318489Y-60960432D01*
X103315054Y-61001930D01*
X103311619Y-61042964D01*
X103308185Y-61083532D01*
X103304750Y-61123636D01*
X103301315Y-61163274D01*
X103297881Y-61202447D01*
X103294446Y-61241155D01*
X103291011Y-61279398D01*
X103287577Y-61317175D01*
X103284142Y-61354488D01*
X103280707Y-61391335D01*
X103277273Y-61427718D01*
X103273838Y-61463635D01*
X103270403Y-61499087D01*
X103266969Y-61534074D01*
X103263534Y-61568596D01*
X103260099Y-61602653D01*
X103256665Y-61636245D01*
X103253230Y-61669372D01*
X103249795Y-61702033D01*
X103246361Y-61734230D01*
X103242926Y-61765961D01*
X103239491Y-61797227D01*
X103236057Y-61828028D01*
X102584986Y-61828028D01*
X102853206Y-60030401D01*
X103899176Y-60030401D01*
X104266761Y-62805000D01*
G37*
G36*
X100758213Y-60538426D02*
G01*
X100758213Y-62805000D01*
X101464075Y-62805000D01*
X101451863Y-62612048D01*
X101465668Y-62633291D01*
X101480063Y-62653514D01*
X101500175Y-62678892D01*
X101521336Y-62702458D01*
X101543547Y-62724211D01*
X101566807Y-62744151D01*
X101591117Y-62762278D01*
X101616476Y-62778593D01*
X101629549Y-62786071D01*
X101656454Y-62799666D01*
X101684351Y-62811449D01*
X101713241Y-62821419D01*
X101743122Y-62829576D01*
X101773996Y-62835921D01*
X101805862Y-62840453D01*
X101830413Y-62842662D01*
X101855522Y-62843852D01*
X101872571Y-62844078D01*
X101901413Y-62843601D01*
X101929322Y-62842168D01*
X101956296Y-62839780D01*
X101982337Y-62836436D01*
X102007444Y-62832138D01*
X102031617Y-62826884D01*
X102062396Y-62818392D01*
X102091514Y-62808203D01*
X102118972Y-62796315D01*
X102132079Y-62789734D01*
X102156894Y-62775442D01*
X102180050Y-62760044D01*
X102201545Y-62743538D01*
X102221380Y-62725926D01*
X102239555Y-62707207D01*
X102256070Y-62687381D01*
X102270925Y-62666449D01*
X102284120Y-62644410D01*
X102295760Y-62621693D01*
X102306255Y-62598729D01*
X102315605Y-62575516D01*
X102323810Y-62552056D01*
X102330870Y-62528347D01*
X102336785Y-62504390D01*
X102341555Y-62480185D01*
X102345181Y-62455732D01*
X102347900Y-62428131D01*
X102349701Y-62403460D01*
X102351299Y-62375387D01*
X102352692Y-62343912D01*
X102353882Y-62309034D01*
X102354562Y-62283892D01*
X102355151Y-62257237D01*
X102355649Y-62229071D01*
X102356057Y-62199392D01*
X102356375Y-62168201D01*
X102356601Y-62135497D01*
X102356737Y-62101282D01*
X102356782Y-62065554D01*
X102356782Y-60538426D01*
X101663133Y-60538426D01*
X101663133Y-62087536D01*
X101663071Y-62119970D01*
X101662885Y-62150715D01*
X101662575Y-62179771D01*
X101662140Y-62207139D01*
X101661582Y-62232818D01*
X101660513Y-62268170D01*
X101659164Y-62299722D01*
X101657536Y-62327475D01*
X101654931Y-62358568D01*
X101651831Y-62382907D01*
X101647257Y-62403831D01*
X101635503Y-62425469D01*
X101613886Y-62442422D01*
X101587210Y-62450923D01*
X101562595Y-62453242D01*
X101558108Y-62453290D01*
X101531447Y-62451487D01*
X101505876Y-62444825D01*
X101483952Y-62431201D01*
X101469812Y-62411165D01*
X101466517Y-62401999D01*
X101461537Y-62374529D01*
X101458789Y-62347318D01*
X101457029Y-62322240D01*
X101455526Y-62293158D01*
X101454281Y-62260073D01*
X101453294Y-62222984D01*
X101452779Y-62196033D01*
X101452378Y-62167304D01*
X101452092Y-62136795D01*
X101451920Y-62104507D01*
X101451863Y-62070439D01*
X101451863Y-60538426D01*
X100758213Y-60538426D01*
G37*
G36*
X99787958Y-60225795D02*
G01*
X99787958Y-60577505D01*
X99601112Y-60577505D01*
X99601112Y-60929214D01*
X99787958Y-60929214D01*
X99787958Y-62171800D01*
X99787868Y-62199630D01*
X99787596Y-62225877D01*
X99787143Y-62250540D01*
X99786123Y-62284564D01*
X99784695Y-62315025D01*
X99782860Y-62341923D01*
X99779778Y-62372244D01*
X99774907Y-62401236D01*
X99766183Y-62425195D01*
X99764755Y-62427034D01*
X99740111Y-62439726D01*
X99710802Y-62445880D01*
X99685538Y-62448957D01*
X99655695Y-62451213D01*
X99630307Y-62452367D01*
X99602343Y-62453059D01*
X99571803Y-62453290D01*
X99571803Y-62805000D01*
X99851461Y-62805000D01*
X99880546Y-62804923D01*
X99908572Y-62804694D01*
X99935539Y-62804313D01*
X99961447Y-62803778D01*
X99986296Y-62803091D01*
X100021583Y-62801775D01*
X100054488Y-62800115D01*
X100085010Y-62798111D01*
X100113149Y-62795764D01*
X100138906Y-62793074D01*
X100169541Y-62788952D01*
X100189738Y-62785460D01*
X100214706Y-62779621D01*
X100238930Y-62772179D01*
X100262410Y-62763135D01*
X100285145Y-62752487D01*
X100307137Y-62740237D01*
X100328384Y-62726384D01*
X100348887Y-62710928D01*
X100368646Y-62693869D01*
X100386973Y-62675541D01*
X100403488Y-62656584D01*
X100418191Y-62636997D01*
X100434019Y-62611627D01*
X100447016Y-62585274D01*
X100457179Y-62557937D01*
X100464511Y-62529616D01*
X100468947Y-62502510D01*
X100471887Y-62477060D01*
X100474493Y-62447220D01*
X100476767Y-62412989D01*
X100478098Y-62387730D01*
X100479281Y-62360520D01*
X100480316Y-62331359D01*
X100481203Y-62300246D01*
X100481942Y-62267183D01*
X100482534Y-62232168D01*
X100482978Y-62195203D01*
X100483273Y-62156286D01*
X100483421Y-62115418D01*
X100483440Y-62094253D01*
X100483440Y-60929214D01*
X100633039Y-60929214D01*
X100633039Y-60577505D01*
X100483440Y-60577505D01*
X100483440Y-60225795D01*
X99787958Y-60225795D01*
G37*
G36*
X98737251Y-60499767D02*
G01*
X98770820Y-60501026D01*
X98803617Y-60503125D01*
X98835640Y-60506064D01*
X98866891Y-60509842D01*
X98897369Y-60514460D01*
X98927074Y-60519917D01*
X98956006Y-60526214D01*
X98984166Y-60533350D01*
X99011552Y-60541326D01*
X99038166Y-60550142D01*
X99064007Y-60559797D01*
X99089075Y-60570292D01*
X99113371Y-60581626D01*
X99136894Y-60593800D01*
X99159644Y-60606814D01*
X99181504Y-60620522D01*
X99202510Y-60634778D01*
X99222662Y-60649583D01*
X99241961Y-60664936D01*
X99269308Y-60688995D01*
X99294733Y-60714288D01*
X99318237Y-60740815D01*
X99339820Y-60768577D01*
X99359482Y-60797573D01*
X99377222Y-60827804D01*
X99393042Y-60859268D01*
X99406939Y-60891967D01*
X99415221Y-60914641D01*
X99422968Y-60938393D01*
X99430181Y-60963222D01*
X99436859Y-60989130D01*
X99443003Y-61016116D01*
X99448613Y-61044180D01*
X99453689Y-61073322D01*
X99458230Y-61103543D01*
X99462238Y-61134841D01*
X99465710Y-61167218D01*
X99468649Y-61200672D01*
X99471053Y-61235205D01*
X99472923Y-61270816D01*
X99474259Y-61307505D01*
X99475060Y-61345272D01*
X99475327Y-61384117D01*
X99475327Y-61964193D01*
X99475180Y-61999656D01*
X99474736Y-62033994D01*
X99473996Y-62067205D01*
X99472961Y-62099290D01*
X99471630Y-62130250D01*
X99470004Y-62160084D01*
X99468081Y-62188792D01*
X99465863Y-62216374D01*
X99463349Y-62242831D01*
X99460539Y-62268161D01*
X99455770Y-62304046D01*
X99450335Y-62337398D01*
X99444235Y-62368217D01*
X99437470Y-62396503D01*
X99432542Y-62414349D01*
X99424417Y-62440492D01*
X99415412Y-62465884D01*
X99405526Y-62490524D01*
X99394761Y-62514413D01*
X99383115Y-62537550D01*
X99370589Y-62559936D01*
X99357183Y-62581571D01*
X99342897Y-62602454D01*
X99327731Y-62622587D01*
X99311685Y-62641967D01*
X99300341Y-62654440D01*
X99282287Y-62672405D01*
X99262989Y-62689480D01*
X99242445Y-62705664D01*
X99220657Y-62720958D01*
X99197623Y-62735360D01*
X99173344Y-62748871D01*
X99147820Y-62761492D01*
X99121051Y-62773222D01*
X99093037Y-62784061D01*
X99063778Y-62794009D01*
X99053711Y-62797089D01*
X99022686Y-62805744D01*
X98990427Y-62813518D01*
X98956934Y-62820413D01*
X98922206Y-62826427D01*
X98886244Y-62831561D01*
X98861584Y-62834495D01*
X98836375Y-62837037D01*
X98810617Y-62839189D01*
X98784311Y-62840949D01*
X98757456Y-62842318D01*
X98730053Y-62843296D01*
X98702101Y-62843883D01*
X98673600Y-62844078D01*
X98647988Y-62843849D01*
X98622748Y-62843162D01*
X98597880Y-62842018D01*
X98573384Y-62840415D01*
X98537338Y-62837152D01*
X98502129Y-62832858D01*
X98467758Y-62827535D01*
X98434223Y-62821181D01*
X98401526Y-62813796D01*
X98369666Y-62805381D01*
X98338643Y-62795936D01*
X98308457Y-62785460D01*
X98288837Y-62777806D01*
X98260247Y-62765386D01*
X98232666Y-62751839D01*
X98206093Y-62737164D01*
X98180530Y-62721363D01*
X98155976Y-62704435D01*
X98132431Y-62686380D01*
X98109894Y-62667197D01*
X98088367Y-62646888D01*
X98067848Y-62625452D01*
X98048339Y-62602889D01*
X98035945Y-62587323D01*
X98018393Y-62563706D01*
X98002085Y-62539767D01*
X97987023Y-62515506D01*
X97973205Y-62490923D01*
X97960633Y-62466018D01*
X97949306Y-62440791D01*
X97939224Y-62415243D01*
X97930386Y-62389372D01*
X97922794Y-62363179D01*
X97916447Y-62336664D01*
X97914532Y-62327613D01*
X97909149Y-62298549D01*
X97904313Y-62266619D01*
X97900025Y-62231823D01*
X97898307Y-62215153D01*
X98578956Y-62215153D01*
X98579133Y-62242067D01*
X98579665Y-62267167D01*
X98580924Y-62297812D01*
X98582813Y-62325232D01*
X98586060Y-62354972D01*
X98591255Y-62384009D01*
X98599106Y-62408715D01*
X98611509Y-62428217D01*
X98631758Y-62443496D01*
X98655352Y-62451157D01*
X98680317Y-62453290D01*
X98704627Y-62450952D01*
X98727830Y-62442556D01*
X98748094Y-62425812D01*
X98760917Y-62404441D01*
X98765783Y-62390311D01*
X98771865Y-62362498D01*
X98775819Y-62333252D01*
X98778251Y-62305885D01*
X98780036Y-62274987D01*
X98780948Y-62249497D01*
X98781495Y-62222022D01*
X98781678Y-62192561D01*
X98781678Y-61157581D01*
X98781495Y-61125752D01*
X98780948Y-61096208D01*
X98780036Y-61068951D01*
X98778758Y-61043980D01*
X98776488Y-61014241D01*
X98773568Y-60988567D01*
X98769006Y-60962190D01*
X98760917Y-60935931D01*
X98747980Y-60915896D01*
X98727313Y-60900198D01*
X98703509Y-60892327D01*
X98678485Y-60890136D01*
X98656861Y-60891746D01*
X98632704Y-60898901D01*
X98611913Y-60913794D01*
X98597885Y-60935931D01*
X98590509Y-60962190D01*
X98586350Y-60988567D01*
X98583688Y-61014241D01*
X98581618Y-61043980D01*
X98580453Y-61068951D01*
X98579622Y-61096208D01*
X98579123Y-61125752D01*
X98578956Y-61157581D01*
X98578956Y-62215153D01*
X97898307Y-62215153D01*
X97897471Y-62207034D01*
X97895160Y-62180971D01*
X97893092Y-62153634D01*
X97891267Y-62125024D01*
X97889686Y-62095140D01*
X97888348Y-62063982D01*
X97887253Y-62031551D01*
X97886401Y-61997846D01*
X97885793Y-61962867D01*
X97885428Y-61926615D01*
X97885306Y-61889089D01*
X97885306Y-61334658D01*
X97885438Y-61305139D01*
X97885831Y-61276574D01*
X97886487Y-61248963D01*
X97887405Y-61222306D01*
X97888586Y-61196603D01*
X97890849Y-61159838D01*
X97893702Y-61125219D01*
X97897146Y-61092747D01*
X97901180Y-61062422D01*
X97905804Y-61034244D01*
X97911019Y-61008212D01*
X97918890Y-60976842D01*
X97921045Y-60969483D01*
X97930786Y-60940193D01*
X97942321Y-60911132D01*
X97955649Y-60882300D01*
X97970771Y-60853697D01*
X97983290Y-60832395D01*
X97996817Y-60811222D01*
X98011354Y-60790177D01*
X98026899Y-60769262D01*
X98043454Y-60748475D01*
X98055124Y-60734748D01*
X98073749Y-60714775D01*
X98093714Y-60695543D01*
X98115022Y-60677051D01*
X98137671Y-60659300D01*
X98161662Y-60642289D01*
X98186994Y-60626019D01*
X98213668Y-60610490D01*
X98241684Y-60595701D01*
X98271041Y-60581653D01*
X98301741Y-60568346D01*
X98312262Y-60564101D01*
X98344607Y-60552174D01*
X98378122Y-60541460D01*
X98412807Y-60531960D01*
X98436580Y-60526300D01*
X98460873Y-60521179D01*
X98485686Y-60516597D01*
X98511019Y-60512554D01*
X98536872Y-60509050D01*
X98563245Y-60506085D01*
X98590138Y-60503659D01*
X98617551Y-60501773D01*
X98645484Y-60500425D01*
X98673937Y-60499617D01*
X98702909Y-60499347D01*
X98737251Y-60499767D01*
G37*
G36*
X96981608Y-60538426D02*
G01*
X96993820Y-60758244D01*
X96978434Y-60734542D01*
X96962500Y-60711977D01*
X96946019Y-60690549D01*
X96928991Y-60670260D01*
X96911415Y-60651108D01*
X96893292Y-60633094D01*
X96874621Y-60616217D01*
X96855403Y-60600479D01*
X96835638Y-60585878D01*
X96808432Y-60568180D01*
X96801479Y-60564071D01*
X96773067Y-60548902D01*
X96743700Y-60535754D01*
X96713380Y-60524630D01*
X96682105Y-60515528D01*
X96658023Y-60510029D01*
X96633404Y-60505668D01*
X96608249Y-60502444D01*
X96582557Y-60500358D01*
X96556328Y-60499410D01*
X96547466Y-60499347D01*
X96513127Y-60500358D01*
X96479718Y-60503392D01*
X96447238Y-60508449D01*
X96415690Y-60515528D01*
X96385071Y-60524630D01*
X96355383Y-60535754D01*
X96326624Y-60548902D01*
X96298797Y-60564071D01*
X96271899Y-60581264D01*
X96245931Y-60600479D01*
X96220894Y-60621717D01*
X96196787Y-60644977D01*
X96173610Y-60670260D01*
X96151364Y-60697565D01*
X96130047Y-60726894D01*
X96109661Y-60758244D01*
X96092981Y-60734542D01*
X96075915Y-60711977D01*
X96058463Y-60690549D01*
X96040624Y-60670260D01*
X96022399Y-60651108D01*
X96003787Y-60633094D01*
X95984789Y-60616217D01*
X95965405Y-60600479D01*
X95945634Y-60585878D01*
X95918672Y-60568180D01*
X95911824Y-60564071D01*
X95883975Y-60548902D01*
X95855381Y-60535754D01*
X95826044Y-60524630D01*
X95795962Y-60515528D01*
X95765135Y-60508449D01*
X95733565Y-60503392D01*
X95701251Y-60500358D01*
X95676526Y-60499410D01*
X95668192Y-60499347D01*
X95635527Y-60500098D01*
X95603935Y-60502352D01*
X95573417Y-60506109D01*
X95543972Y-60511368D01*
X95515600Y-60518130D01*
X95488301Y-60526395D01*
X95462076Y-60536162D01*
X95436925Y-60547432D01*
X95412846Y-60560205D01*
X95389841Y-60574480D01*
X95375101Y-60584832D01*
X95354083Y-60601089D01*
X95334536Y-60618034D01*
X95316459Y-60635665D01*
X95299853Y-60653983D01*
X95279999Y-60679476D01*
X95262758Y-60706190D01*
X95248133Y-60734125D01*
X95236121Y-60763282D01*
X95226723Y-60793660D01*
X95220830Y-60818253D01*
X95215517Y-60845552D01*
X95210784Y-60875555D01*
X95206630Y-60908263D01*
X95203056Y-60943676D01*
X95200995Y-60968787D01*
X95199192Y-60995100D01*
X95197647Y-61022616D01*
X95196359Y-61051333D01*
X95195328Y-61081253D01*
X95194555Y-61112375D01*
X95194040Y-61144699D01*
X95193783Y-61178225D01*
X95193750Y-61195439D01*
X95193750Y-62805000D01*
X95867250Y-62805000D01*
X95867250Y-61320614D01*
X95867329Y-61285072D01*
X95867565Y-61251262D01*
X95867958Y-61219184D01*
X95868509Y-61188837D01*
X95869218Y-61160222D01*
X95870084Y-61133338D01*
X95871107Y-61108187D01*
X95872937Y-61073706D01*
X95875121Y-61043121D01*
X95877659Y-61016433D01*
X95881595Y-60986909D01*
X95887400Y-60959745D01*
X95896573Y-60936089D01*
X95911942Y-60914676D01*
X95932337Y-60899924D01*
X95957757Y-60891835D01*
X95978991Y-60890136D01*
X96004851Y-60892561D01*
X96030355Y-60901523D01*
X96050833Y-60917088D01*
X96066285Y-60939257D01*
X96074246Y-60959134D01*
X96080403Y-60985991D01*
X96084577Y-61015377D01*
X96087269Y-61042024D01*
X96089585Y-61072621D01*
X96091526Y-61107168D01*
X96092612Y-61132394D01*
X96093530Y-61159375D01*
X96094281Y-61188112D01*
X96094866Y-61218604D01*
X96095283Y-61250852D01*
X96095534Y-61284855D01*
X96095617Y-61320614D01*
X96095617Y-62805000D01*
X96769117Y-62805000D01*
X96769117Y-61358471D01*
X96769181Y-61317692D01*
X96769374Y-61279006D01*
X96769696Y-61242415D01*
X96770147Y-61207918D01*
X96770727Y-61175516D01*
X96771435Y-61145207D01*
X96772272Y-61116993D01*
X96773238Y-61090873D01*
X96774929Y-61055619D01*
X96776909Y-61025077D01*
X96779179Y-60999248D01*
X96782657Y-60972138D01*
X96785603Y-60957302D01*
X96795324Y-60931131D01*
X96810597Y-60911388D01*
X96831422Y-60898072D01*
X96857798Y-60891185D01*
X96875362Y-60890136D01*
X96900403Y-60892937D01*
X96925734Y-60902621D01*
X96946288Y-60917250D01*
X96954741Y-60925551D01*
X96970675Y-60946384D01*
X96982068Y-60969729D01*
X96988922Y-60995586D01*
X96990767Y-61011036D01*
X96991957Y-61038672D01*
X96992627Y-61065103D01*
X96993057Y-61090262D01*
X96993391Y-61118989D01*
X96993629Y-61151285D01*
X96993746Y-61177848D01*
X96993808Y-61206418D01*
X96993820Y-61226580D01*
X96993820Y-62805000D01*
X97666709Y-62805000D01*
X97666709Y-60538426D01*
X96981608Y-60538426D01*
G37*
G36*
X94254820Y-60499764D02*
G01*
X94290176Y-60501017D01*
X94324677Y-60503104D01*
X94358325Y-60506026D01*
X94391119Y-60509782D01*
X94423059Y-60514374D01*
X94454145Y-60519800D01*
X94484377Y-60526061D01*
X94513756Y-60533157D01*
X94542280Y-60541088D01*
X94569951Y-60549853D01*
X94596767Y-60559454D01*
X94622730Y-60569889D01*
X94647839Y-60581159D01*
X94672094Y-60593264D01*
X94695495Y-60606203D01*
X94706862Y-60612914D01*
X94728877Y-60626529D01*
X94749934Y-60640401D01*
X94779721Y-60661692D01*
X94807350Y-60683563D01*
X94832822Y-60706014D01*
X94856136Y-60729044D01*
X94877294Y-60752654D01*
X94896293Y-60776843D01*
X94913136Y-60801612D01*
X94927821Y-60826960D01*
X94940348Y-60852889D01*
X94947742Y-60870751D01*
X94957939Y-60899271D01*
X94967062Y-60929863D01*
X94975112Y-60962527D01*
X94982089Y-60997261D01*
X94986144Y-61021569D01*
X94989722Y-61046797D01*
X94992822Y-61072946D01*
X94995446Y-61100015D01*
X94997593Y-61128005D01*
X94999262Y-61156916D01*
X95000455Y-61186748D01*
X95001171Y-61217500D01*
X95001409Y-61249173D01*
X95001409Y-61398161D01*
X94350502Y-61398161D01*
X94350502Y-61164909D01*
X94350352Y-61131344D01*
X94349901Y-61100258D01*
X94349149Y-61071652D01*
X94348098Y-61045526D01*
X94346228Y-61014547D01*
X94343823Y-60987976D01*
X94340067Y-60960961D01*
X94333405Y-60934710D01*
X94332284Y-60931968D01*
X94317472Y-60911204D01*
X94294159Y-60897492D01*
X94270150Y-60891703D01*
X94245477Y-60890136D01*
X94241658Y-60890187D01*
X94216855Y-60893418D01*
X94192660Y-60903264D01*
X94172892Y-60919674D01*
X94157550Y-60942648D01*
X94155897Y-60946048D01*
X94147081Y-60971407D01*
X94141178Y-60999034D01*
X94137400Y-61025385D01*
X94134461Y-61055515D01*
X94132809Y-61080591D01*
X94131628Y-61107793D01*
X94130919Y-61137120D01*
X94130683Y-61168572D01*
X94130779Y-61185538D01*
X94131542Y-61217309D01*
X94133068Y-61246198D01*
X94135358Y-61272206D01*
X94139294Y-61300665D01*
X94145591Y-61328872D01*
X94155108Y-61353586D01*
X94156906Y-61356573D01*
X94175200Y-61374101D01*
X94200999Y-61391237D01*
X94226859Y-61405904D01*
X94258300Y-61422127D01*
X94282362Y-61433807D01*
X94308904Y-61446179D01*
X94337927Y-61459243D01*
X94369431Y-61472998D01*
X94403415Y-61487445D01*
X94439879Y-61502584D01*
X94478825Y-61518415D01*
X94520251Y-61534937D01*
X94559310Y-61550312D01*
X94596500Y-61565448D01*
X94631820Y-61580346D01*
X94665270Y-61595005D01*
X94696850Y-61609426D01*
X94726560Y-61623608D01*
X94754399Y-61637552D01*
X94780369Y-61651257D01*
X94804469Y-61664724D01*
X94826699Y-61677952D01*
X94856538Y-61697347D01*
X94882169Y-61716206D01*
X94903593Y-61734528D01*
X94920809Y-61752313D01*
X94930569Y-61764630D01*
X94944029Y-61785503D01*
X94956071Y-61809252D01*
X94966697Y-61835878D01*
X94975907Y-61865380D01*
X94983699Y-61897759D01*
X94990075Y-61933014D01*
X94993538Y-61958116D01*
X94996372Y-61984496D01*
X94998575Y-62012155D01*
X95000150Y-62041092D01*
X95001094Y-62071307D01*
X95001409Y-62102801D01*
X95001409Y-62291479D01*
X95000815Y-62333880D01*
X94999033Y-62374378D01*
X94996064Y-62412973D01*
X94991906Y-62449664D01*
X94986561Y-62484452D01*
X94980028Y-62517337D01*
X94972307Y-62548318D01*
X94963399Y-62577396D01*
X94953302Y-62604570D01*
X94942018Y-62629841D01*
X94929546Y-62653209D01*
X94915886Y-62674673D01*
X94901038Y-62694234D01*
X94876539Y-62720006D01*
X94849368Y-62741496D01*
X94830246Y-62753918D01*
X94801125Y-62771049D01*
X94771477Y-62786376D01*
X94741304Y-62799900D01*
X94710605Y-62811621D01*
X94679380Y-62821538D01*
X94647629Y-62829653D01*
X94615352Y-62835964D01*
X94582549Y-62840472D01*
X94549221Y-62843177D01*
X94515366Y-62844078D01*
X94498116Y-62843840D01*
X94472814Y-62842588D01*
X94448199Y-62840262D01*
X94416447Y-62835492D01*
X94385917Y-62828813D01*
X94356608Y-62820227D01*
X94328520Y-62809732D01*
X94301653Y-62797329D01*
X94276008Y-62783018D01*
X94257445Y-62770918D01*
X94233712Y-62753115D01*
X94211143Y-62733403D01*
X94189739Y-62711784D01*
X94169498Y-62688257D01*
X94150421Y-62662821D01*
X94136878Y-62642492D01*
X94123989Y-62621090D01*
X94111754Y-62598614D01*
X94111754Y-62805000D01*
X93437034Y-62805000D01*
X93437034Y-61710792D01*
X94130683Y-61710792D01*
X94130683Y-62193171D01*
X94130860Y-62225182D01*
X94131392Y-62254809D01*
X94132277Y-62282054D01*
X94133517Y-62306916D01*
X94135721Y-62336359D01*
X94138554Y-62361565D01*
X94142982Y-62387116D01*
X94150833Y-62411769D01*
X94163465Y-62429934D01*
X94184519Y-62444166D01*
X94209315Y-62451303D01*
X94235708Y-62453290D01*
X94239938Y-62453238D01*
X94267078Y-62449970D01*
X94292800Y-62440009D01*
X94312873Y-62423408D01*
X94327299Y-62400167D01*
X94328726Y-62396721D01*
X94336340Y-62370761D01*
X94341438Y-62342207D01*
X94344701Y-62314835D01*
X94347239Y-62283436D01*
X94348666Y-62257245D01*
X94349686Y-62228789D01*
X94350298Y-62198069D01*
X94350502Y-62165083D01*
X94350399Y-62145527D01*
X94349861Y-62117275D01*
X94348861Y-62090322D01*
X94347399Y-62064668D01*
X94344733Y-62032482D01*
X94341246Y-62002605D01*
X94336938Y-61975037D01*
X94331810Y-61949778D01*
X94324246Y-61921451D01*
X94312436Y-61893929D01*
X94298073Y-61870473D01*
X94279339Y-61845739D01*
X94262422Y-61826349D01*
X94243046Y-61806240D01*
X94221213Y-61785412D01*
X94196922Y-61763865D01*
X94170172Y-61741599D01*
X94150974Y-61726355D01*
X94130683Y-61710792D01*
X93437034Y-61710792D01*
X93437034Y-61668660D01*
X93437069Y-61633922D01*
X93437174Y-61599931D01*
X93437350Y-61566684D01*
X93437597Y-61534183D01*
X93437913Y-61502427D01*
X93438300Y-61471417D01*
X93438758Y-61441152D01*
X93439285Y-61411632D01*
X93439883Y-61382858D01*
X93440552Y-61354829D01*
X93441291Y-61327546D01*
X93442100Y-61301007D01*
X93442979Y-61275215D01*
X93444949Y-61225865D01*
X93447201Y-61179497D01*
X93449734Y-61136111D01*
X93452549Y-61095706D01*
X93455645Y-61058282D01*
X93459022Y-61023840D01*
X93462681Y-60992379D01*
X93466621Y-60963900D01*
X93473059Y-60926772D01*
X93475451Y-60915569D01*
X93484298Y-60882627D01*
X93495658Y-60850683D01*
X93509529Y-60819737D01*
X93525912Y-60789789D01*
X93544806Y-60760840D01*
X93566212Y-60732888D01*
X93590129Y-60705935D01*
X93607469Y-60688521D01*
X93625926Y-60671550D01*
X93645499Y-60655023D01*
X93666188Y-60638940D01*
X93687993Y-60623300D01*
X93710960Y-60608290D01*
X93735287Y-60594249D01*
X93760973Y-60581176D01*
X93788018Y-60569071D01*
X93816423Y-60557934D01*
X93846188Y-60547766D01*
X93877312Y-60538567D01*
X93909796Y-60530335D01*
X93943640Y-60523072D01*
X93978842Y-60516778D01*
X94015405Y-60511452D01*
X94053327Y-60507094D01*
X94092609Y-60503705D01*
X94133250Y-60501284D01*
X94175250Y-60499831D01*
X94218611Y-60499347D01*
X94254820Y-60499764D01*
G37*
G36*
X92475327Y-60225795D02*
G01*
X92475327Y-60577505D01*
X92288482Y-60577505D01*
X92288482Y-60929214D01*
X92475327Y-60929214D01*
X92475327Y-62171800D01*
X92475237Y-62199630D01*
X92474965Y-62225877D01*
X92474512Y-62250540D01*
X92473492Y-62284564D01*
X92472064Y-62315025D01*
X92470229Y-62341923D01*
X92467147Y-62372244D01*
X92462276Y-62401236D01*
X92453552Y-62425195D01*
X92452124Y-62427034D01*
X92427481Y-62439726D01*
X92398171Y-62445880D01*
X92372908Y-62448957D01*
X92343064Y-62451213D01*
X92317676Y-62452367D01*
X92289712Y-62453059D01*
X92259172Y-62453290D01*
X92259172Y-62805000D01*
X92538831Y-62805000D01*
X92567915Y-62804923D01*
X92595941Y-62804694D01*
X92622908Y-62804313D01*
X92648816Y-62803778D01*
X92673665Y-62803091D01*
X92708953Y-62801775D01*
X92741857Y-62800115D01*
X92772379Y-62798111D01*
X92800519Y-62795764D01*
X92826275Y-62793074D01*
X92856910Y-62788952D01*
X92877107Y-62785460D01*
X92902075Y-62779621D01*
X92926299Y-62772179D01*
X92949779Y-62763135D01*
X92972514Y-62752487D01*
X92994506Y-62740237D01*
X93015753Y-62726384D01*
X93036256Y-62710928D01*
X93056015Y-62693869D01*
X93074343Y-62675541D01*
X93090858Y-62656584D01*
X93105560Y-62636997D01*
X93121389Y-62611627D01*
X93134385Y-62585274D01*
X93144549Y-62557937D01*
X93151880Y-62529616D01*
X93156317Y-62502510D01*
X93159256Y-62477060D01*
X93161862Y-62447220D01*
X93164136Y-62412989D01*
X93165467Y-62387730D01*
X93166650Y-62360520D01*
X93167685Y-62331359D01*
X93168572Y-62300246D01*
X93169312Y-62267183D01*
X93169903Y-62232168D01*
X93170347Y-62195203D01*
X93170643Y-62156286D01*
X93170790Y-62115418D01*
X93170809Y-62094253D01*
X93170809Y-60929214D01*
X93320408Y-60929214D01*
X93320408Y-60577505D01*
X93170809Y-60577505D01*
X93170809Y-60225795D01*
X92475327Y-60225795D01*
G37*
G36*
X91424792Y-60499705D02*
G01*
X91453992Y-60500778D01*
X91482762Y-60502567D01*
X91511102Y-60505071D01*
X91539014Y-60508291D01*
X91566496Y-60512227D01*
X91593549Y-60516878D01*
X91620172Y-60522245D01*
X91646366Y-60528327D01*
X91672131Y-60535125D01*
X91697466Y-60542638D01*
X91722373Y-60550867D01*
X91746849Y-60559811D01*
X91770897Y-60569471D01*
X91794515Y-60579847D01*
X91817704Y-60590938D01*
X91829090Y-60596703D01*
X91851258Y-60608705D01*
X91872619Y-60621337D01*
X91903150Y-60641466D01*
X91931867Y-60663011D01*
X91958770Y-60685973D01*
X91983860Y-60710352D01*
X92007135Y-60736148D01*
X92028596Y-60763361D01*
X92048244Y-60791990D01*
X92066077Y-60822036D01*
X92082096Y-60853499D01*
X92091857Y-60875362D01*
X92100987Y-60898207D01*
X92109488Y-60922035D01*
X92117359Y-60946846D01*
X92124600Y-60972639D01*
X92131212Y-60999415D01*
X92137194Y-61027174D01*
X92142547Y-61055915D01*
X92147269Y-61085640D01*
X92151362Y-61116346D01*
X92154825Y-61148036D01*
X92157659Y-61180708D01*
X92159863Y-61214363D01*
X92161437Y-61249001D01*
X92162382Y-61284621D01*
X92162697Y-61321224D01*
X92162697Y-61981290D01*
X92162556Y-62012346D01*
X92162134Y-62042466D01*
X92161430Y-62071651D01*
X92160445Y-62099901D01*
X92159178Y-62127216D01*
X92157630Y-62153596D01*
X92155801Y-62179041D01*
X92152529Y-62215456D01*
X92148624Y-62249767D01*
X92144086Y-62281974D01*
X92138914Y-62312077D01*
X92133109Y-62340077D01*
X92126671Y-62365973D01*
X92121943Y-62382374D01*
X92114011Y-62406652D01*
X92105071Y-62430545D01*
X92095121Y-62454051D01*
X92084162Y-62477170D01*
X92072194Y-62499903D01*
X92059218Y-62522250D01*
X92045232Y-62544211D01*
X92030238Y-62565785D01*
X92014234Y-62586972D01*
X91997222Y-62607773D01*
X91985179Y-62621331D01*
X91966033Y-62640987D01*
X91945588Y-62659828D01*
X91923844Y-62677852D01*
X91900801Y-62695062D01*
X91876460Y-62711455D01*
X91850819Y-62727033D01*
X91823881Y-62741795D01*
X91795643Y-62755741D01*
X91766107Y-62768871D01*
X91735272Y-62781186D01*
X91714005Y-62788802D01*
X91681355Y-62799304D01*
X91647802Y-62808701D01*
X91613348Y-62816993D01*
X91577993Y-62824179D01*
X91553921Y-62828355D01*
X91529449Y-62832040D01*
X91504577Y-62835234D01*
X91479303Y-62837937D01*
X91453629Y-62840148D01*
X91427554Y-62841867D01*
X91401079Y-62843096D01*
X91374202Y-62843833D01*
X91346925Y-62844078D01*
X91318907Y-62843830D01*
X91291484Y-62843086D01*
X91264658Y-62841846D01*
X91238428Y-62840109D01*
X91212795Y-62837877D01*
X91187757Y-62835148D01*
X91163316Y-62831923D01*
X91127773Y-62826156D01*
X91093571Y-62819272D01*
X91060711Y-62811273D01*
X91029193Y-62802156D01*
X90999016Y-62791924D01*
X90970181Y-62780575D01*
X90951610Y-62772392D01*
X90924522Y-62759195D01*
X90898358Y-62744893D01*
X90873117Y-62729485D01*
X90848799Y-62712972D01*
X90825404Y-62695353D01*
X90802932Y-62676629D01*
X90781383Y-62656799D01*
X90760757Y-62635864D01*
X90741054Y-62613823D01*
X90722274Y-62590676D01*
X90710267Y-62574863D01*
X90693312Y-62551375D01*
X90677624Y-62528165D01*
X90663202Y-62505236D01*
X90650046Y-62482585D01*
X90638157Y-62460213D01*
X90627535Y-62438120D01*
X90615342Y-62409097D01*
X90605400Y-62380570D01*
X90597711Y-62352540D01*
X90592909Y-62330740D01*
X90587242Y-62299036D01*
X90583543Y-62273280D01*
X90580315Y-62245828D01*
X90577560Y-62216680D01*
X90575278Y-62185836D01*
X90573468Y-62153296D01*
X90572129Y-62119060D01*
X90571264Y-62083128D01*
X90570949Y-62058232D01*
X90570844Y-62032581D01*
X90570844Y-61867107D01*
X91228468Y-61867107D01*
X91228468Y-62166304D01*
X91228704Y-62197052D01*
X91229412Y-62225867D01*
X91230593Y-62252751D01*
X91232902Y-62285590D01*
X91236050Y-62314994D01*
X91240038Y-62340964D01*
X91246204Y-62368597D01*
X91255334Y-62394672D01*
X91267048Y-62414593D01*
X91285435Y-62432625D01*
X91308906Y-62445047D01*
X91333070Y-62451229D01*
X91360969Y-62453290D01*
X91383345Y-62451723D01*
X91408704Y-62444758D01*
X91431121Y-62430263D01*
X91447065Y-62408715D01*
X91450993Y-62399272D01*
X91457691Y-62374557D01*
X91462092Y-62348024D01*
X91464839Y-62322913D01*
X91466900Y-62294348D01*
X91468274Y-62262330D01*
X91468854Y-62236049D01*
X91469047Y-62207826D01*
X91469047Y-61710792D01*
X90570844Y-61710792D01*
X90570844Y-61410983D01*
X90571142Y-61370421D01*
X90571399Y-61359082D01*
X91266325Y-61359082D01*
X91469047Y-61359082D01*
X91469047Y-61183838D01*
X91469030Y-61171396D01*
X91468780Y-61135895D01*
X91468229Y-61103132D01*
X91467377Y-61073105D01*
X91466225Y-61045816D01*
X91464773Y-61021263D01*
X91462368Y-60992784D01*
X91458612Y-60964028D01*
X91451950Y-60936542D01*
X91449598Y-60930922D01*
X91433702Y-60910121D01*
X91412274Y-60897794D01*
X91387889Y-60891767D01*
X91362801Y-60890136D01*
X91342215Y-60892046D01*
X91316567Y-60902076D01*
X91297199Y-60920704D01*
X91285254Y-60944480D01*
X91284090Y-60947967D01*
X91277879Y-60974299D01*
X91273719Y-61003327D01*
X91271058Y-61031186D01*
X91268987Y-61063166D01*
X91267823Y-61089857D01*
X91266991Y-61118865D01*
X91266492Y-61150192D01*
X91266325Y-61183838D01*
X91266325Y-61359082D01*
X90571399Y-61359082D01*
X90572036Y-61331013D01*
X90573527Y-61292759D01*
X90575614Y-61255660D01*
X90578298Y-61219716D01*
X90581577Y-61184925D01*
X90585453Y-61151289D01*
X90589925Y-61118808D01*
X90594994Y-61087481D01*
X90600659Y-61057308D01*
X90606920Y-61028290D01*
X90613777Y-61000426D01*
X90621231Y-60973717D01*
X90629281Y-60948162D01*
X90637927Y-60923762D01*
X90647170Y-60900516D01*
X90652051Y-60889251D01*
X90662479Y-60867141D01*
X90679785Y-60835021D01*
X90699087Y-60804157D01*
X90720385Y-60774550D01*
X90735693Y-60755509D01*
X90751889Y-60737026D01*
X90768972Y-60719101D01*
X90786941Y-60701735D01*
X90805799Y-60684926D01*
X90825543Y-60668676D01*
X90846175Y-60652984D01*
X90867694Y-60637850D01*
X90890101Y-60623274D01*
X90913394Y-60609256D01*
X90937530Y-60595947D01*
X90962462Y-60583496D01*
X90988191Y-60571904D01*
X91014717Y-60561171D01*
X91042039Y-60551296D01*
X91070158Y-60542280D01*
X91099074Y-60534123D01*
X91128786Y-60526824D01*
X91159295Y-60520384D01*
X91190600Y-60514803D01*
X91222703Y-60510080D01*
X91255602Y-60506216D01*
X91289297Y-60503211D01*
X91323789Y-60501064D01*
X91359078Y-60499776D01*
X91395163Y-60499347D01*
X91424792Y-60499705D01*
G37*
G36*
X89469919Y-60688635D02*
G01*
X89492063Y-60665718D01*
X89514837Y-60644290D01*
X89538240Y-60624350D01*
X89562274Y-60605898D01*
X89586936Y-60588935D01*
X89612229Y-60573459D01*
X89638151Y-60559473D01*
X89664703Y-60546974D01*
X89691903Y-60535812D01*
X89719772Y-60526137D01*
X89748308Y-60517951D01*
X89777513Y-60511254D01*
X89807385Y-60506045D01*
X89837924Y-60502324D01*
X89869132Y-60500091D01*
X89901008Y-60499347D01*
X89921663Y-60499671D01*
X89951967Y-60501374D01*
X89981455Y-60504537D01*
X90010128Y-60509160D01*
X90037984Y-60515242D01*
X90065025Y-60522784D01*
X90091250Y-60531786D01*
X90116659Y-60542247D01*
X90141253Y-60554168D01*
X90165031Y-60567549D01*
X90187993Y-60582390D01*
X90202617Y-60592799D01*
X90223291Y-60608806D01*
X90242452Y-60625285D01*
X90265645Y-60647992D01*
X90286148Y-60671538D01*
X90303961Y-60695924D01*
X90319083Y-60721150D01*
X90331514Y-60747215D01*
X90341256Y-60774120D01*
X90347257Y-60795841D01*
X90352669Y-60820245D01*
X90357490Y-60847332D01*
X90361720Y-60877103D01*
X90365361Y-60909557D01*
X90368411Y-60944694D01*
X90370116Y-60969610D01*
X90371559Y-60995718D01*
X90372740Y-61023019D01*
X90373658Y-61051512D01*
X90374314Y-61081198D01*
X90374708Y-61112077D01*
X90374839Y-61144148D01*
X90374839Y-62202941D01*
X90374806Y-62218452D01*
X90374544Y-62248658D01*
X90374019Y-62277776D01*
X90373232Y-62305807D01*
X90372182Y-62332750D01*
X90370871Y-62358605D01*
X90369296Y-62383373D01*
X90366443Y-62418485D01*
X90362999Y-62451150D01*
X90358966Y-62481368D01*
X90354341Y-62509139D01*
X90349127Y-62534462D01*
X90341256Y-62564420D01*
X90334213Y-62585021D01*
X90322501Y-62611754D01*
X90308138Y-62637648D01*
X90291122Y-62662702D01*
X90271454Y-62686916D01*
X90249133Y-62710291D01*
X90230652Y-62727271D01*
X90210679Y-62743779D01*
X90189214Y-62759815D01*
X90174240Y-62770018D01*
X90151153Y-62784090D01*
X90127314Y-62796680D01*
X90102724Y-62807789D01*
X90077383Y-62817417D01*
X90051290Y-62825563D01*
X90024446Y-62832229D01*
X89996850Y-62837413D01*
X89968504Y-62841116D01*
X89939406Y-62843338D01*
X89909556Y-62844078D01*
X89879646Y-62843267D01*
X89850060Y-62840835D01*
X89820799Y-62836780D01*
X89791862Y-62831103D01*
X89763249Y-62823804D01*
X89734961Y-62814884D01*
X89706997Y-62804341D01*
X89679357Y-62792177D01*
X89665659Y-62785410D01*
X89638506Y-62770660D01*
X89611678Y-62754288D01*
X89585174Y-62736294D01*
X89565508Y-62721735D01*
X89546026Y-62706262D01*
X89526725Y-62689878D01*
X89507607Y-62672581D01*
X89488672Y-62654372D01*
X89469919Y-62635251D01*
X89469919Y-62805000D01*
X88776269Y-62805000D01*
X88776269Y-62163251D01*
X89469919Y-62163251D01*
X89469941Y-62175096D01*
X89470272Y-62208961D01*
X89471000Y-62240326D01*
X89472125Y-62269189D01*
X89473648Y-62295552D01*
X89476295Y-62326812D01*
X89479649Y-62353627D01*
X89484834Y-62380892D01*
X89492512Y-62404441D01*
X89493930Y-62407447D01*
X89508451Y-62428055D01*
X89528620Y-62442556D01*
X89554437Y-62450952D01*
X89581660Y-62453290D01*
X89598878Y-62452216D01*
X89625288Y-62444875D01*
X89645804Y-62430578D01*
X89660429Y-62409326D01*
X89667484Y-62389469D01*
X89673080Y-62362872D01*
X89676628Y-62335559D01*
X89678736Y-62310338D01*
X89680196Y-62282121D01*
X89681007Y-62250909D01*
X89681189Y-62225533D01*
X89681189Y-61102627D01*
X89681168Y-61094287D01*
X89680667Y-61062812D01*
X89679499Y-61034352D01*
X89677662Y-61008907D01*
X89674427Y-60981340D01*
X89669168Y-60954478D01*
X89659818Y-60929214D01*
X89646575Y-60912117D01*
X89625565Y-60898722D01*
X89601456Y-60892006D01*
X89576165Y-60890136D01*
X89553832Y-60891660D01*
X89528664Y-60898434D01*
X89506644Y-60912532D01*
X89491290Y-60933489D01*
X89488703Y-60939158D01*
X89480960Y-60964148D01*
X89475951Y-60991941D01*
X89472925Y-61019594D01*
X89471255Y-61044657D01*
X89470253Y-61072335D01*
X89469919Y-61102627D01*
X89469919Y-62163251D01*
X88776269Y-62163251D01*
X88776269Y-60030401D01*
X89469919Y-60030401D01*
X89469919Y-60688635D01*
G37*
G36*
X87793803Y-60030401D02*
G01*
X87793803Y-62257896D01*
X87354166Y-62257896D01*
X87354166Y-62805000D01*
X88516761Y-62805000D01*
X88516761Y-60030401D01*
X87793803Y-60030401D01*
G37*
G36*
X86462679Y-60030401D02*
G01*
X86462679Y-62257896D01*
X86023042Y-62257896D01*
X86023042Y-62805000D01*
X87185638Y-62805000D01*
X87185638Y-60030401D01*
X86462679Y-60030401D01*
G37*
G36*
X84219919Y-61241845D02*
G01*
X84942878Y-61241845D01*
X84942878Y-60768625D01*
X84942969Y-60743506D01*
X84943444Y-60708092D01*
X84944328Y-60675393D01*
X84945620Y-60645409D01*
X84947319Y-60618141D01*
X84949427Y-60593589D01*
X84952871Y-60565076D01*
X84958196Y-60536224D01*
X84966081Y-60511559D01*
X84981155Y-60489119D01*
X85003175Y-60473091D01*
X85028141Y-60464325D01*
X85053772Y-60460719D01*
X85068052Y-60460268D01*
X85094331Y-60461789D01*
X85121694Y-60467628D01*
X85144506Y-60477846D01*
X85165368Y-60495302D01*
X85180036Y-60518718D01*
X85181625Y-60522550D01*
X85189718Y-60550972D01*
X85194183Y-60575549D01*
X85197904Y-60604629D01*
X85200207Y-60629394D01*
X85202090Y-60656693D01*
X85203555Y-60686524D01*
X85204602Y-60718889D01*
X85205230Y-60753787D01*
X85205416Y-60778459D01*
X85205439Y-60791217D01*
X85205439Y-62055785D01*
X85205230Y-62091781D01*
X85204602Y-62125351D01*
X85203555Y-62156495D01*
X85202090Y-62185214D01*
X85200207Y-62211507D01*
X85197044Y-62242791D01*
X85193137Y-62269763D01*
X85187207Y-62297413D01*
X85181625Y-62314682D01*
X85168106Y-62338236D01*
X85148917Y-62356005D01*
X85124061Y-62367989D01*
X85098244Y-62373656D01*
X85073548Y-62375132D01*
X85045276Y-62372964D01*
X85020912Y-62366460D01*
X84997424Y-62353391D01*
X84979254Y-62334419D01*
X84967913Y-62313461D01*
X84960701Y-62289913D01*
X84955811Y-62265193D01*
X84951704Y-62235245D01*
X84949137Y-62209352D01*
X84947010Y-62180519D01*
X84945323Y-62148745D01*
X84944076Y-62114030D01*
X84943489Y-62089252D01*
X84943098Y-62063168D01*
X84942902Y-62035776D01*
X84942878Y-62021591D01*
X84942878Y-61671713D01*
X84219919Y-61671713D01*
X84219919Y-61779790D01*
X84219979Y-61806526D01*
X84220158Y-61832772D01*
X84220456Y-61858528D01*
X84220873Y-61883794D01*
X84221410Y-61908569D01*
X84222841Y-61956650D01*
X84224749Y-62002770D01*
X84227134Y-62046929D01*
X84229997Y-62089128D01*
X84233336Y-62129366D01*
X84237152Y-62167643D01*
X84241445Y-62203960D01*
X84246216Y-62238316D01*
X84251463Y-62270712D01*
X84257188Y-62301147D01*
X84263389Y-62329621D01*
X84270068Y-62356135D01*
X84277223Y-62380688D01*
X84280980Y-62392229D01*
X84293728Y-62425617D01*
X84309073Y-62458232D01*
X84327015Y-62490074D01*
X84340420Y-62510873D01*
X84354979Y-62531328D01*
X84370693Y-62551440D01*
X84387561Y-62571209D01*
X84405583Y-62590633D01*
X84424760Y-62609715D01*
X84445091Y-62628453D01*
X84466577Y-62646847D01*
X84489217Y-62664899D01*
X84513012Y-62682606D01*
X84537961Y-62699970D01*
X84550868Y-62708524D01*
X84577277Y-62724938D01*
X84604449Y-62740294D01*
X84632384Y-62754591D01*
X84661083Y-62767829D01*
X84690545Y-62780008D01*
X84720770Y-62791127D01*
X84751758Y-62801188D01*
X84783510Y-62810190D01*
X84816024Y-62818132D01*
X84849302Y-62825016D01*
X84883344Y-62830841D01*
X84918148Y-62835606D01*
X84953716Y-62839313D01*
X84990047Y-62841960D01*
X85027142Y-62843549D01*
X85064999Y-62844078D01*
X85104255Y-62843637D01*
X85142642Y-62842313D01*
X85180161Y-62840107D01*
X85216812Y-62837018D01*
X85252594Y-62833047D01*
X85287508Y-62828193D01*
X85321555Y-62822457D01*
X85354733Y-62815838D01*
X85387042Y-62808336D01*
X85418484Y-62799952D01*
X85449057Y-62790686D01*
X85478762Y-62780537D01*
X85507599Y-62769506D01*
X85535568Y-62757592D01*
X85562668Y-62744795D01*
X85588900Y-62731116D01*
X85614081Y-62716581D01*
X85638178Y-62701368D01*
X85661193Y-62685478D01*
X85683125Y-62668910D01*
X85703974Y-62651666D01*
X85723740Y-62633743D01*
X85742423Y-62615144D01*
X85760023Y-62595867D01*
X85776540Y-62575912D01*
X85791975Y-62555280D01*
X85806327Y-62533971D01*
X85819595Y-62511984D01*
X85831781Y-62489320D01*
X85842884Y-62465979D01*
X85852904Y-62441960D01*
X85861842Y-62417264D01*
X85869901Y-62391437D01*
X85877441Y-62364027D01*
X85884460Y-62335032D01*
X85890960Y-62304454D01*
X85896940Y-62272292D01*
X85902399Y-62238547D01*
X85907339Y-62203218D01*
X85911759Y-62166304D01*
X85915659Y-62127808D01*
X85919038Y-62087727D01*
X85921898Y-62046063D01*
X85924238Y-62002814D01*
X85926058Y-61957982D01*
X85927358Y-61911567D01*
X85928138Y-61863567D01*
X85928333Y-61838974D01*
X85928398Y-61813984D01*
X85928398Y-61014089D01*
X85928319Y-60977724D01*
X85928083Y-60942514D01*
X85927689Y-60908459D01*
X85927139Y-60875557D01*
X85926430Y-60843811D01*
X85925564Y-60813218D01*
X85924541Y-60783780D01*
X85923360Y-60755497D01*
X85922022Y-60728368D01*
X85920527Y-60702393D01*
X85918874Y-60677573D01*
X85916099Y-60642507D01*
X85912971Y-60610039D01*
X85909488Y-60580168D01*
X85908248Y-60570788D01*
X85903641Y-60543069D01*
X85897608Y-60515554D01*
X85890146Y-60488243D01*
X85881257Y-60461136D01*
X85870941Y-60434233D01*
X85859197Y-60407534D01*
X85846025Y-60381039D01*
X85831426Y-60354748D01*
X85815399Y-60328660D01*
X85797945Y-60302777D01*
X85785516Y-60285635D01*
X85765595Y-60260499D01*
X85744300Y-60236383D01*
X85721631Y-60213287D01*
X85697588Y-60191210D01*
X85672172Y-60170153D01*
X85645381Y-60150116D01*
X85617217Y-60131098D01*
X85587679Y-60113100D01*
X85556767Y-60096122D01*
X85524481Y-60080163D01*
X85502194Y-60070090D01*
X85479313Y-60060552D01*
X85456007Y-60051629D01*
X85432277Y-60043321D01*
X85408122Y-60035629D01*
X85383543Y-60028552D01*
X85358539Y-60022091D01*
X85333111Y-60016245D01*
X85307258Y-60011014D01*
X85280980Y-60006399D01*
X85254278Y-60002399D01*
X85227151Y-59999014D01*
X85199600Y-59996245D01*
X85171624Y-59994091D01*
X85143224Y-59992553D01*
X85114399Y-59991630D01*
X85085149Y-59991322D01*
X85045668Y-59991799D01*
X85007059Y-59993230D01*
X84969323Y-59995615D01*
X84932460Y-59998954D01*
X84896469Y-60003248D01*
X84861352Y-60008495D01*
X84827108Y-60014697D01*
X84793737Y-60021852D01*
X84761239Y-60029962D01*
X84729614Y-60039026D01*
X84698862Y-60049043D01*
X84668983Y-60060015D01*
X84639976Y-60071941D01*
X84611843Y-60084821D01*
X84584583Y-60098655D01*
X84558196Y-60113443D01*
X84532800Y-60128868D01*
X84508517Y-60144766D01*
X84485345Y-60161135D01*
X84463284Y-60177977D01*
X84442335Y-60195291D01*
X84422498Y-60213077D01*
X84403772Y-60231336D01*
X84386157Y-60250067D01*
X84369654Y-60269270D01*
X84354262Y-60288945D01*
X84339982Y-60309093D01*
X84326814Y-60329713D01*
X84309145Y-60361528D01*
X84293977Y-60394406D01*
X84285254Y-60416915D01*
X84277342Y-60440373D01*
X84269941Y-60465411D01*
X84263050Y-60492027D01*
X84256670Y-60520222D01*
X84250800Y-60549996D01*
X84245441Y-60581350D01*
X84240592Y-60614282D01*
X84236253Y-60648793D01*
X84232425Y-60684883D01*
X84229107Y-60722553D01*
X84226300Y-60761801D01*
X84224003Y-60802628D01*
X84222216Y-60845034D01*
X84220940Y-60889019D01*
X84220174Y-60934583D01*
X84219919Y-60981727D01*
X84219919Y-61241845D01*
G37*
G36*
X108138010Y-67005000D02*
G01*
X107388795Y-67005000D01*
X107346053Y-66496974D01*
X107086545Y-66496974D01*
X107050519Y-67005000D01*
X106310463Y-67005000D01*
X106456235Y-66028028D01*
X107107305Y-66028028D01*
X107354601Y-66028028D01*
X107352803Y-66003660D01*
X107350845Y-65978412D01*
X107348725Y-65952283D01*
X107346444Y-65925274D01*
X107344002Y-65897386D01*
X107341399Y-65868617D01*
X107338635Y-65838968D01*
X107335711Y-65808439D01*
X107332625Y-65777029D01*
X107329378Y-65744740D01*
X107325970Y-65711570D01*
X107322401Y-65677521D01*
X107318671Y-65642591D01*
X107314781Y-65606781D01*
X107310729Y-65570091D01*
X107306516Y-65532520D01*
X107302142Y-65494070D01*
X107297607Y-65454740D01*
X107292911Y-65414529D01*
X107288055Y-65373438D01*
X107283037Y-65331467D01*
X107277858Y-65288616D01*
X107272518Y-65244885D01*
X107267017Y-65200274D01*
X107261355Y-65154782D01*
X107255533Y-65108411D01*
X107249549Y-65061159D01*
X107243404Y-65013027D01*
X107237098Y-64964015D01*
X107230631Y-64914123D01*
X107224003Y-64863351D01*
X107217215Y-64811699D01*
X107213780Y-64856918D01*
X107210345Y-64901673D01*
X107206911Y-64945962D01*
X107203476Y-64989786D01*
X107200041Y-65033145D01*
X107196607Y-65076039D01*
X107193172Y-65118468D01*
X107189737Y-65160432D01*
X107186303Y-65201930D01*
X107182868Y-65242964D01*
X107179433Y-65283532D01*
X107175999Y-65323636D01*
X107172564Y-65363274D01*
X107169129Y-65402447D01*
X107165695Y-65441155D01*
X107162260Y-65479398D01*
X107158825Y-65517175D01*
X107155391Y-65554488D01*
X107151956Y-65591335D01*
X107148521Y-65627718D01*
X107145087Y-65663635D01*
X107141652Y-65699087D01*
X107138217Y-65734074D01*
X107134783Y-65768596D01*
X107131348Y-65802653D01*
X107127913Y-65836245D01*
X107124479Y-65869372D01*
X107121044Y-65902033D01*
X107117609Y-65934230D01*
X107114175Y-65965961D01*
X107110740Y-65997227D01*
X107107305Y-66028028D01*
X106456235Y-66028028D01*
X106724455Y-64230401D01*
X107770425Y-64230401D01*
X108138010Y-67005000D01*
G37*
G36*
X105524001Y-64738426D02*
G01*
X105551478Y-65065101D01*
X105532094Y-65023172D01*
X105511646Y-64983785D01*
X105490134Y-64946941D01*
X105467558Y-64912640D01*
X105443919Y-64880881D01*
X105419215Y-64851665D01*
X105393448Y-64824991D01*
X105366617Y-64800860D01*
X105338722Y-64779272D01*
X105309764Y-64760226D01*
X105279742Y-64743723D01*
X105248655Y-64729763D01*
X105216506Y-64718345D01*
X105183292Y-64709470D01*
X105149014Y-64703137D01*
X105113673Y-64699347D01*
X105113673Y-65520003D01*
X105148508Y-65520448D01*
X105181572Y-65521785D01*
X105212865Y-65524012D01*
X105242387Y-65527130D01*
X105270138Y-65531139D01*
X105296118Y-65536039D01*
X105320327Y-65541829D01*
X105349851Y-65550936D01*
X105376226Y-65561626D01*
X105393942Y-65570683D01*
X105415160Y-65583821D01*
X105438678Y-65601987D01*
X105458857Y-65622091D01*
X105475696Y-65644133D01*
X105489196Y-65668113D01*
X105499357Y-65694031D01*
X105503851Y-65710512D01*
X105508574Y-65736616D01*
X105511702Y-65761002D01*
X105514477Y-65789510D01*
X105516897Y-65822139D01*
X105518964Y-65858890D01*
X105520144Y-65885680D01*
X105521167Y-65914303D01*
X105522033Y-65944757D01*
X105522742Y-65977042D01*
X105523293Y-66011160D01*
X105523686Y-66047110D01*
X105523922Y-66084891D01*
X105524001Y-66124504D01*
X105524001Y-67005000D01*
X106217651Y-67005000D01*
X106217651Y-64738426D01*
X105524001Y-64738426D01*
G37*
G36*
X103471140Y-64738426D02*
G01*
X103752630Y-65656779D01*
X103386876Y-67005000D01*
X104054880Y-67005000D01*
X104271035Y-66028639D01*
X104271035Y-67005000D01*
X104964685Y-67005000D01*
X104964685Y-64230401D01*
X104271035Y-64230401D01*
X104271035Y-65411926D01*
X104054880Y-64738426D01*
X103471140Y-64738426D01*
G37*
G36*
X102576174Y-64699764D02*
G01*
X102611529Y-64701017D01*
X102646031Y-64703104D01*
X102679679Y-64706026D01*
X102712473Y-64709782D01*
X102744413Y-64714374D01*
X102775499Y-64719800D01*
X102805731Y-64726061D01*
X102835109Y-64733157D01*
X102863634Y-64741088D01*
X102891304Y-64749853D01*
X102918121Y-64759454D01*
X102944083Y-64769889D01*
X102969192Y-64781159D01*
X102993447Y-64793264D01*
X103016848Y-64806203D01*
X103028215Y-64812914D01*
X103050231Y-64826529D01*
X103071287Y-64840401D01*
X103101074Y-64861692D01*
X103128703Y-64883563D01*
X103154175Y-64906014D01*
X103177490Y-64929044D01*
X103198647Y-64952654D01*
X103217647Y-64976843D01*
X103234489Y-65001612D01*
X103249174Y-65026960D01*
X103261702Y-65052889D01*
X103269096Y-65070751D01*
X103279292Y-65099271D01*
X103288416Y-65129863D01*
X103296466Y-65162527D01*
X103303442Y-65197261D01*
X103307497Y-65221569D01*
X103311075Y-65246797D01*
X103314176Y-65272946D01*
X103316799Y-65300015D01*
X103318946Y-65328005D01*
X103320616Y-65356916D01*
X103321808Y-65386748D01*
X103322524Y-65417500D01*
X103322762Y-65449173D01*
X103322762Y-65598161D01*
X102671855Y-65598161D01*
X102671855Y-65364909D01*
X102671705Y-65331344D01*
X102671254Y-65300258D01*
X102670503Y-65271652D01*
X102669451Y-65245526D01*
X102667581Y-65214547D01*
X102665177Y-65187976D01*
X102661420Y-65160961D01*
X102654758Y-65134710D01*
X102653637Y-65131968D01*
X102638825Y-65111204D01*
X102615512Y-65097492D01*
X102591503Y-65091703D01*
X102566831Y-65090136D01*
X102563011Y-65090187D01*
X102538209Y-65093418D01*
X102514013Y-65103264D01*
X102494245Y-65119674D01*
X102478903Y-65142648D01*
X102477250Y-65146048D01*
X102468435Y-65171407D01*
X102462531Y-65199034D01*
X102458753Y-65225385D01*
X102455815Y-65255515D01*
X102454162Y-65280591D01*
X102452981Y-65307793D01*
X102452273Y-65337120D01*
X102452037Y-65368572D01*
X102452132Y-65385538D01*
X102452895Y-65417309D01*
X102454422Y-65446198D01*
X102456712Y-65472206D01*
X102460647Y-65500665D01*
X102466944Y-65528872D01*
X102476461Y-65553586D01*
X102478259Y-65556573D01*
X102496554Y-65574101D01*
X102522352Y-65591237D01*
X102548212Y-65605904D01*
X102579654Y-65622127D01*
X102603715Y-65633807D01*
X102630258Y-65646179D01*
X102659281Y-65659243D01*
X102690784Y-65672998D01*
X102724768Y-65687445D01*
X102761233Y-65702584D01*
X102800178Y-65718415D01*
X102841604Y-65734937D01*
X102880664Y-65750312D01*
X102917854Y-65765448D01*
X102953173Y-65780346D01*
X102986623Y-65795005D01*
X103018203Y-65809426D01*
X103047913Y-65823608D01*
X103075753Y-65837552D01*
X103101723Y-65851257D01*
X103125823Y-65864724D01*
X103148052Y-65877952D01*
X103177891Y-65897347D01*
X103203522Y-65916206D01*
X103224946Y-65934528D01*
X103242162Y-65952313D01*
X103251922Y-65964630D01*
X103265382Y-65985503D01*
X103277425Y-66009252D01*
X103288051Y-66035878D01*
X103297260Y-66065380D01*
X103305052Y-66097759D01*
X103311428Y-66133014D01*
X103314891Y-66158116D01*
X103317725Y-66184496D01*
X103319929Y-66212155D01*
X103321503Y-66241092D01*
X103322448Y-66271307D01*
X103322762Y-66302801D01*
X103322762Y-66491479D01*
X103322168Y-66533880D01*
X103320387Y-66574378D01*
X103317417Y-66612973D01*
X103313260Y-66649664D01*
X103307915Y-66684452D01*
X103301382Y-66717337D01*
X103293661Y-66748318D01*
X103284752Y-66777396D01*
X103274656Y-66804570D01*
X103263371Y-66829841D01*
X103250899Y-66853209D01*
X103237239Y-66874673D01*
X103222391Y-66894234D01*
X103197893Y-66920006D01*
X103170721Y-66941496D01*
X103151599Y-66953918D01*
X103122478Y-66971049D01*
X103092831Y-66986376D01*
X103062657Y-66999900D01*
X103031958Y-67011621D01*
X103000733Y-67021538D01*
X102968982Y-67029653D01*
X102936705Y-67035964D01*
X102903903Y-67040472D01*
X102870574Y-67043177D01*
X102836719Y-67044078D01*
X102819469Y-67043840D01*
X102794167Y-67042588D01*
X102769552Y-67040262D01*
X102737801Y-67035492D01*
X102707270Y-67028813D01*
X102677961Y-67020227D01*
X102649873Y-67009732D01*
X102623007Y-66997329D01*
X102597361Y-66983018D01*
X102578798Y-66970918D01*
X102555065Y-66953115D01*
X102532497Y-66933403D01*
X102511092Y-66911784D01*
X102490851Y-66888257D01*
X102471775Y-66862821D01*
X102458231Y-66842492D01*
X102445342Y-66821090D01*
X102433108Y-66798614D01*
X102433108Y-67005000D01*
X101758387Y-67005000D01*
X101758387Y-65910792D01*
X102452037Y-65910792D01*
X102452037Y-66393171D01*
X102452214Y-66425182D01*
X102452745Y-66454809D01*
X102453631Y-66482054D01*
X102454870Y-66506916D01*
X102457074Y-66536359D01*
X102459908Y-66561565D01*
X102464335Y-66587116D01*
X102472187Y-66611769D01*
X102484819Y-66629934D01*
X102505872Y-66644166D01*
X102530668Y-66651303D01*
X102557061Y-66653290D01*
X102561291Y-66653238D01*
X102588431Y-66649970D01*
X102614153Y-66640009D01*
X102634227Y-66623408D01*
X102648652Y-66600167D01*
X102650080Y-66596721D01*
X102657693Y-66570761D01*
X102662792Y-66542207D01*
X102666054Y-66514835D01*
X102668592Y-66483436D01*
X102670020Y-66457245D01*
X102671039Y-66428789D01*
X102671651Y-66398069D01*
X102671855Y-66365083D01*
X102671753Y-66345527D01*
X102671214Y-66317275D01*
X102670214Y-66290322D01*
X102668753Y-66264668D01*
X102666086Y-66232482D01*
X102662599Y-66202605D01*
X102658291Y-66175037D01*
X102653163Y-66149778D01*
X102645599Y-66121451D01*
X102633789Y-66093929D01*
X102619426Y-66070473D01*
X102600693Y-66045739D01*
X102583775Y-66026349D01*
X102564400Y-66006240D01*
X102542566Y-65985412D01*
X102518275Y-65963865D01*
X102491526Y-65941599D01*
X102472327Y-65926355D01*
X102452037Y-65910792D01*
X101758387Y-65910792D01*
X101758387Y-65868660D01*
X101758422Y-65833922D01*
X101758528Y-65799931D01*
X101758704Y-65766684D01*
X101758950Y-65734183D01*
X101759267Y-65702427D01*
X101759654Y-65671417D01*
X101760111Y-65641152D01*
X101760639Y-65611632D01*
X101761237Y-65582858D01*
X101761905Y-65554829D01*
X101762644Y-65527546D01*
X101763453Y-65501007D01*
X101764333Y-65475215D01*
X101766303Y-65425865D01*
X101768554Y-65379497D01*
X101771087Y-65336111D01*
X101773902Y-65295706D01*
X101776998Y-65258282D01*
X101780375Y-65223840D01*
X101784034Y-65192379D01*
X101787975Y-65163900D01*
X101794413Y-65126772D01*
X101796804Y-65115569D01*
X101805652Y-65082627D01*
X101817011Y-65050683D01*
X101830882Y-65019737D01*
X101847265Y-64989789D01*
X101866159Y-64960840D01*
X101887565Y-64932888D01*
X101911482Y-64905935D01*
X101928823Y-64888521D01*
X101947279Y-64871550D01*
X101966852Y-64855023D01*
X101987541Y-64838940D01*
X102009346Y-64823300D01*
X102032313Y-64808290D01*
X102056640Y-64794249D01*
X102082326Y-64781176D01*
X102109372Y-64769071D01*
X102137777Y-64757934D01*
X102167541Y-64747766D01*
X102198666Y-64738567D01*
X102231150Y-64730335D01*
X102264993Y-64723072D01*
X102300196Y-64716778D01*
X102336758Y-64711452D01*
X102374680Y-64707094D01*
X102413962Y-64703705D01*
X102454603Y-64701284D01*
X102496604Y-64699831D01*
X102539964Y-64699347D01*
X102576174Y-64699764D01*
G37*
G36*
X100822937Y-64738426D02*
G01*
X100834538Y-64943590D01*
X100820052Y-64921229D01*
X100804986Y-64899941D01*
X100789340Y-64879727D01*
X100773115Y-64860585D01*
X100756310Y-64842518D01*
X100733002Y-64820097D01*
X100708664Y-64799584D01*
X100683295Y-64780980D01*
X100656896Y-64764284D01*
X100650135Y-64760408D01*
X100622295Y-64746097D01*
X100593425Y-64733694D01*
X100563524Y-64723199D01*
X100532593Y-64714612D01*
X100508719Y-64709424D01*
X100484265Y-64705310D01*
X100459231Y-64702269D01*
X100433618Y-64700301D01*
X100407425Y-64699407D01*
X100398565Y-64699347D01*
X100365599Y-64700082D01*
X100333793Y-64702288D01*
X100303146Y-64705964D01*
X100273658Y-64711111D01*
X100245329Y-64717728D01*
X100218159Y-64725815D01*
X100192149Y-64735373D01*
X100167297Y-64746402D01*
X100143605Y-64758901D01*
X100121073Y-64772870D01*
X100106695Y-64783000D01*
X100086114Y-64799066D01*
X100066960Y-64815894D01*
X100049234Y-64833484D01*
X100032935Y-64851837D01*
X100013424Y-64877492D01*
X99996452Y-64904501D01*
X99982016Y-64932866D01*
X99970119Y-64962585D01*
X99960760Y-64993660D01*
X99954867Y-65018971D01*
X99949554Y-65047276D01*
X99944821Y-65078576D01*
X99940667Y-65112871D01*
X99938220Y-65137398D01*
X99936030Y-65163256D01*
X99934098Y-65190444D01*
X99932424Y-65218964D01*
X99931007Y-65248815D01*
X99929848Y-65279996D01*
X99928946Y-65312509D01*
X99928302Y-65346352D01*
X99927916Y-65381526D01*
X99927787Y-65418032D01*
X99927787Y-67005000D01*
X100621437Y-67005000D01*
X100621437Y-65428412D01*
X100621499Y-65399744D01*
X100621685Y-65372513D01*
X100621995Y-65346717D01*
X100622692Y-65310716D01*
X100623669Y-65277945D01*
X100624925Y-65248405D01*
X100626460Y-65222096D01*
X100628940Y-65192043D01*
X100631917Y-65167733D01*
X100637312Y-65142037D01*
X100648380Y-65119330D01*
X100669041Y-65101540D01*
X100694706Y-65092619D01*
X100722797Y-65090136D01*
X100748572Y-65092218D01*
X100773758Y-65099911D01*
X100796102Y-65115643D01*
X100811577Y-65138780D01*
X100815610Y-65149364D01*
X100822042Y-65178530D01*
X100825592Y-65205703D01*
X100827865Y-65230139D01*
X100829806Y-65258053D01*
X100831414Y-65289444D01*
X100832690Y-65324313D01*
X100833355Y-65349491D01*
X100833873Y-65376215D01*
X100834243Y-65404484D01*
X100834464Y-65434299D01*
X100834538Y-65465659D01*
X100834538Y-67005000D01*
X101528188Y-67005000D01*
X101528188Y-64738426D01*
X100822937Y-64738426D01*
G37*
G36*
X99276937Y-64699896D02*
G01*
X99305349Y-64701541D01*
X99332807Y-64704284D01*
X99359312Y-64708125D01*
X99384862Y-64713062D01*
X99409458Y-64719096D01*
X99433100Y-64726228D01*
X99466774Y-64738983D01*
X99498301Y-64754206D01*
X99527682Y-64771898D01*
X99554916Y-64792059D01*
X99580003Y-64814689D01*
X99602944Y-64839787D01*
X99623786Y-64867702D01*
X99642578Y-64898784D01*
X99653968Y-64921265D01*
X99664446Y-64945152D01*
X99674013Y-64970447D01*
X99682669Y-64997149D01*
X99690413Y-65025259D01*
X99697247Y-65054775D01*
X99703169Y-65085699D01*
X99708181Y-65118030D01*
X99712281Y-65151769D01*
X99715470Y-65186914D01*
X99717748Y-65223467D01*
X99719114Y-65261428D01*
X99719570Y-65300795D01*
X99719570Y-66116566D01*
X99719396Y-66144103D01*
X99718873Y-66170843D01*
X99718003Y-66196787D01*
X99716784Y-66221934D01*
X99714303Y-66258161D01*
X99711038Y-66292595D01*
X99706990Y-66325237D01*
X99702158Y-66356086D01*
X99696543Y-66385143D01*
X99690144Y-66412408D01*
X99682961Y-66437880D01*
X99674995Y-66461559D01*
X99662659Y-66491059D01*
X99647938Y-66519109D01*
X99630831Y-66545708D01*
X99611340Y-66570858D01*
X99589463Y-66594557D01*
X99571490Y-66611380D01*
X99552175Y-66627387D01*
X99531519Y-66642578D01*
X99509521Y-66656953D01*
X99494077Y-66665974D01*
X99469954Y-66678414D01*
X99444682Y-66689545D01*
X99418262Y-66699366D01*
X99390693Y-66707877D01*
X99361976Y-66715079D01*
X99332111Y-66720972D01*
X99301097Y-66725555D01*
X99268935Y-66728829D01*
X99235624Y-66730793D01*
X99201164Y-66731448D01*
X99174288Y-66730789D01*
X99147698Y-66728814D01*
X99121394Y-66725523D01*
X99095377Y-66720915D01*
X99069645Y-66714990D01*
X99044200Y-66707748D01*
X99019041Y-66699190D01*
X98994169Y-66689316D01*
X98969592Y-66678143D01*
X98945320Y-66665693D01*
X98921354Y-66651964D01*
X98897693Y-66636956D01*
X98874337Y-66620670D01*
X98851286Y-66603106D01*
X98828541Y-66584263D01*
X98806102Y-66564141D01*
X98806102Y-66747934D01*
X98806202Y-66767278D01*
X98806728Y-66794701D01*
X98807704Y-66820215D01*
X98809708Y-66851260D01*
X98812513Y-66878909D01*
X98816119Y-66903162D01*
X98821754Y-66928701D01*
X98831747Y-66955540D01*
X98841073Y-66969789D01*
X98861452Y-66987563D01*
X98884794Y-66998044D01*
X98908893Y-67003261D01*
X98936771Y-67005000D01*
X98956413Y-67003626D01*
X98984857Y-66995230D01*
X99007933Y-66979201D01*
X99025643Y-66955540D01*
X99035947Y-66931116D01*
X99042817Y-66901807D01*
X99045715Y-66876619D01*
X99046681Y-66848684D01*
X99719570Y-66848684D01*
X99717972Y-66888526D01*
X99714857Y-66926689D01*
X99710225Y-66963173D01*
X99704076Y-66997978D01*
X99696410Y-67031103D01*
X99687227Y-67062549D01*
X99676527Y-67092316D01*
X99664310Y-67120404D01*
X99650576Y-67146813D01*
X99635325Y-67171543D01*
X99618557Y-67194593D01*
X99600272Y-67215964D01*
X99580471Y-67235656D01*
X99559152Y-67253669D01*
X99536316Y-67270003D01*
X99511963Y-67284658D01*
X99486342Y-67298115D01*
X99459699Y-67310704D01*
X99432036Y-67322425D01*
X99403352Y-67333277D01*
X99373647Y-67343262D01*
X99342921Y-67352378D01*
X99311174Y-67360626D01*
X99278406Y-67368005D01*
X99244618Y-67374517D01*
X99209808Y-67380160D01*
X99173978Y-67384935D01*
X99137127Y-67388842D01*
X99099255Y-67391881D01*
X99060362Y-67394052D01*
X99020449Y-67395354D01*
X98979514Y-67395788D01*
X98962774Y-67395728D01*
X98929829Y-67395251D01*
X98897601Y-67394297D01*
X98866088Y-67392866D01*
X98835290Y-67390958D01*
X98805208Y-67388573D01*
X98775842Y-67385711D01*
X98747191Y-67382371D01*
X98719256Y-67378555D01*
X98692036Y-67374262D01*
X98665532Y-67369491D01*
X98639743Y-67364244D01*
X98614670Y-67358520D01*
X98590313Y-67352318D01*
X98566671Y-67345640D01*
X98532550Y-67334727D01*
X98510644Y-67326956D01*
X98478931Y-67314495D01*
X98448591Y-67301068D01*
X98419625Y-67286674D01*
X98392034Y-67271315D01*
X98365816Y-67254989D01*
X98340972Y-67237698D01*
X98317501Y-67219441D01*
X98295405Y-67200217D01*
X98274683Y-67180028D01*
X98255334Y-67158872D01*
X98237298Y-67137451D01*
X98220744Y-67116233D01*
X98205671Y-67095218D01*
X98192079Y-67074408D01*
X98176260Y-67046979D01*
X98163075Y-67019912D01*
X98152523Y-66993207D01*
X98144604Y-66966865D01*
X98139319Y-66940886D01*
X98136372Y-66919228D01*
X98133716Y-66893180D01*
X98131349Y-66862742D01*
X98129272Y-66827914D01*
X98128049Y-66802256D01*
X98126954Y-66774648D01*
X98125988Y-66745088D01*
X98125151Y-66713578D01*
X98124442Y-66680116D01*
X98123863Y-66644703D01*
X98123412Y-66607339D01*
X98123090Y-66568024D01*
X98122897Y-66526758D01*
X98122832Y-66483541D01*
X98122832Y-66037187D01*
X98818314Y-66037187D01*
X98818334Y-66049150D01*
X98818638Y-66083412D01*
X98819307Y-66115238D01*
X98820341Y-66144628D01*
X98821740Y-66171581D01*
X98824173Y-66203729D01*
X98827255Y-66231545D01*
X98832019Y-66260223D01*
X98839074Y-66285704D01*
X98841784Y-66292359D01*
X98856438Y-66314684D01*
X98877199Y-66330140D01*
X98900374Y-66338029D01*
X98928223Y-66340659D01*
X98949225Y-66339070D01*
X98972752Y-66332010D01*
X98993108Y-66317316D01*
X99006991Y-66295474D01*
X99010374Y-66285948D01*
X99016141Y-66261262D01*
X99019931Y-66234950D01*
X99022297Y-66210144D01*
X99024072Y-66181999D01*
X99025255Y-66150514D01*
X99025754Y-66124710D01*
X99025920Y-66097027D01*
X99025920Y-65331936D01*
X99025705Y-65305754D01*
X99024751Y-65273449D01*
X99023034Y-65244121D01*
X99020553Y-65217769D01*
X99016379Y-65189016D01*
X99011013Y-65164913D01*
X99001496Y-65138984D01*
X98999897Y-65135979D01*
X98984612Y-65115371D01*
X98964901Y-65100869D01*
X98940763Y-65092473D01*
X98916011Y-65090136D01*
X98894430Y-65091638D01*
X98870463Y-65098317D01*
X98850070Y-65112216D01*
X98836632Y-65132878D01*
X98833358Y-65141890D01*
X98827777Y-65165905D01*
X98824110Y-65192016D01*
X98821820Y-65216899D01*
X98820103Y-65245330D01*
X98818958Y-65277311D01*
X98818475Y-65303625D01*
X98818314Y-65331936D01*
X98818314Y-66037187D01*
X98122832Y-66037187D01*
X98122832Y-64738426D01*
X98768244Y-64738426D01*
X98818314Y-64914891D01*
X98828937Y-64901668D01*
X98845213Y-64882620D01*
X98861896Y-64864516D01*
X98884774Y-64841847D01*
X98908378Y-64820858D01*
X98932707Y-64801547D01*
X98957761Y-64783916D01*
X98983540Y-64767964D01*
X99010044Y-64753691D01*
X99037130Y-64740954D01*
X99064961Y-64729916D01*
X99093535Y-64720575D01*
X99122854Y-64712933D01*
X99152917Y-64706989D01*
X99183724Y-64702744D01*
X99215275Y-64700196D01*
X99247571Y-64699347D01*
X99276937Y-64699896D01*
G37*
G36*
X97166941Y-64699705D02*
G01*
X97196140Y-64700778D01*
X97224911Y-64702567D01*
X97253251Y-64705071D01*
X97281163Y-64708291D01*
X97308645Y-64712227D01*
X97335698Y-64716878D01*
X97362321Y-64722245D01*
X97388515Y-64728327D01*
X97414280Y-64735125D01*
X97439615Y-64742638D01*
X97464521Y-64750867D01*
X97488998Y-64759811D01*
X97513046Y-64769471D01*
X97536664Y-64779847D01*
X97559852Y-64790938D01*
X97571239Y-64796703D01*
X97593407Y-64808705D01*
X97614768Y-64821337D01*
X97645299Y-64841466D01*
X97674016Y-64863011D01*
X97700919Y-64885973D01*
X97726009Y-64910352D01*
X97749284Y-64936148D01*
X97770745Y-64963361D01*
X97790392Y-64991990D01*
X97808226Y-65022036D01*
X97824245Y-65053499D01*
X97834005Y-65075362D01*
X97843136Y-65098207D01*
X97851637Y-65122035D01*
X97859508Y-65146846D01*
X97866749Y-65172639D01*
X97873361Y-65199415D01*
X97879343Y-65227174D01*
X97884695Y-65255915D01*
X97889418Y-65285640D01*
X97893511Y-65316346D01*
X97896974Y-65348036D01*
X97899808Y-65380708D01*
X97902012Y-65414363D01*
X97903586Y-65449001D01*
X97904531Y-65484621D01*
X97904845Y-65521224D01*
X97904845Y-66181290D01*
X97904705Y-66212346D01*
X97904283Y-66242466D01*
X97903579Y-66271651D01*
X97902594Y-66299901D01*
X97901327Y-66327216D01*
X97899779Y-66353596D01*
X97897950Y-66379041D01*
X97894678Y-66415456D01*
X97890773Y-66449767D01*
X97886234Y-66481974D01*
X97881063Y-66512077D01*
X97875258Y-66540077D01*
X97868820Y-66565973D01*
X97864092Y-66582374D01*
X97856160Y-66606652D01*
X97847219Y-66630545D01*
X97837270Y-66654051D01*
X97826311Y-66677170D01*
X97814343Y-66699903D01*
X97801367Y-66722250D01*
X97787381Y-66744211D01*
X97772387Y-66765785D01*
X97756383Y-66786972D01*
X97739371Y-66807773D01*
X97727328Y-66821331D01*
X97708182Y-66840987D01*
X97687736Y-66859828D01*
X97665993Y-66877852D01*
X97642950Y-66895062D01*
X97618608Y-66911455D01*
X97592968Y-66927033D01*
X97566029Y-66941795D01*
X97537792Y-66955741D01*
X97508256Y-66968871D01*
X97477420Y-66981186D01*
X97456154Y-66988802D01*
X97423503Y-66999304D01*
X97389951Y-67008701D01*
X97355497Y-67016993D01*
X97320141Y-67024179D01*
X97296070Y-67028355D01*
X97271598Y-67032040D01*
X97246725Y-67035234D01*
X97221452Y-67037937D01*
X97195778Y-67040148D01*
X97169703Y-67041867D01*
X97143228Y-67043096D01*
X97116351Y-67043833D01*
X97089074Y-67044078D01*
X97061056Y-67043830D01*
X97033633Y-67043086D01*
X97006807Y-67041846D01*
X96980577Y-67040109D01*
X96954944Y-67037877D01*
X96929906Y-67035148D01*
X96905465Y-67031923D01*
X96869922Y-67026156D01*
X96835720Y-67019272D01*
X96802860Y-67011273D01*
X96771342Y-67002156D01*
X96741165Y-66991924D01*
X96712330Y-66980575D01*
X96693759Y-66972392D01*
X96666671Y-66959195D01*
X96640507Y-66944893D01*
X96615266Y-66929485D01*
X96590948Y-66912972D01*
X96567553Y-66895353D01*
X96545081Y-66876629D01*
X96523532Y-66856799D01*
X96502906Y-66835864D01*
X96483203Y-66813823D01*
X96464423Y-66790676D01*
X96452416Y-66774863D01*
X96435461Y-66751375D01*
X96419773Y-66728165D01*
X96405351Y-66705236D01*
X96392195Y-66682585D01*
X96380306Y-66660213D01*
X96369684Y-66638120D01*
X96357491Y-66609097D01*
X96347549Y-66580570D01*
X96339859Y-66552540D01*
X96335058Y-66530740D01*
X96329391Y-66499036D01*
X96325691Y-66473280D01*
X96322464Y-66445828D01*
X96319709Y-66416680D01*
X96317427Y-66385836D01*
X96315616Y-66353296D01*
X96314278Y-66319060D01*
X96313412Y-66283128D01*
X96313098Y-66258232D01*
X96312993Y-66232581D01*
X96312993Y-66067107D01*
X96970617Y-66067107D01*
X96970617Y-66366304D01*
X96970853Y-66397052D01*
X96971561Y-66425867D01*
X96972742Y-66452751D01*
X96975051Y-66485590D01*
X96978199Y-66514994D01*
X96982187Y-66540964D01*
X96988353Y-66568597D01*
X96997483Y-66594672D01*
X97009197Y-66614593D01*
X97027584Y-66632625D01*
X97051055Y-66645047D01*
X97075219Y-66651229D01*
X97103118Y-66653290D01*
X97125494Y-66651723D01*
X97150853Y-66644758D01*
X97173270Y-66630263D01*
X97189214Y-66608715D01*
X97193142Y-66599272D01*
X97199840Y-66574557D01*
X97204241Y-66548024D01*
X97206988Y-66522913D01*
X97209049Y-66494348D01*
X97210423Y-66462330D01*
X97211003Y-66436049D01*
X97211196Y-66407826D01*
X97211196Y-65910792D01*
X96312993Y-65910792D01*
X96312993Y-65610983D01*
X96313291Y-65570421D01*
X96313548Y-65559082D01*
X97008474Y-65559082D01*
X97211196Y-65559082D01*
X97211196Y-65383838D01*
X97211179Y-65371396D01*
X97210929Y-65335895D01*
X97210378Y-65303132D01*
X97209526Y-65273105D01*
X97208374Y-65245816D01*
X97206922Y-65221263D01*
X97204517Y-65192784D01*
X97200761Y-65164028D01*
X97194099Y-65136542D01*
X97191747Y-65130922D01*
X97175851Y-65110121D01*
X97154422Y-65097794D01*
X97130037Y-65091767D01*
X97104950Y-65090136D01*
X97084364Y-65092046D01*
X97058716Y-65102076D01*
X97039348Y-65120704D01*
X97027403Y-65144480D01*
X97026238Y-65147967D01*
X97020027Y-65174299D01*
X97015868Y-65203327D01*
X97013206Y-65231186D01*
X97011136Y-65263166D01*
X97009972Y-65289857D01*
X97009140Y-65318865D01*
X97008641Y-65350192D01*
X97008474Y-65383838D01*
X97008474Y-65559082D01*
X96313548Y-65559082D01*
X96314185Y-65531013D01*
X96315676Y-65492759D01*
X96317763Y-65455660D01*
X96320446Y-65419716D01*
X96323726Y-65384925D01*
X96327602Y-65351289D01*
X96332074Y-65318808D01*
X96337143Y-65287481D01*
X96342807Y-65257308D01*
X96349069Y-65228290D01*
X96355926Y-65200426D01*
X96363380Y-65173717D01*
X96371430Y-65148162D01*
X96380076Y-65123762D01*
X96389319Y-65100516D01*
X96394200Y-65089251D01*
X96404628Y-65067141D01*
X96421934Y-65035021D01*
X96441236Y-65004157D01*
X96462534Y-64974550D01*
X96477842Y-64955509D01*
X96494038Y-64937026D01*
X96511120Y-64919101D01*
X96529090Y-64901735D01*
X96547948Y-64884926D01*
X96567692Y-64868676D01*
X96588324Y-64852984D01*
X96609843Y-64837850D01*
X96632250Y-64823274D01*
X96655543Y-64809256D01*
X96679679Y-64795947D01*
X96704611Y-64783496D01*
X96730340Y-64771904D01*
X96756866Y-64761171D01*
X96784188Y-64751296D01*
X96812307Y-64742280D01*
X96841223Y-64734123D01*
X96870935Y-64726824D01*
X96901444Y-64720384D01*
X96932749Y-64714803D01*
X96964852Y-64710080D01*
X96997750Y-64706216D01*
X97031446Y-64703211D01*
X97065938Y-64701064D01*
X97101227Y-64699776D01*
X97137312Y-64699347D01*
X97166941Y-64699705D01*
G37*
G36*
X95381817Y-64230401D02*
G01*
X95381817Y-67005000D01*
X96096227Y-67005000D01*
X96096227Y-64230401D01*
X95381817Y-64230401D01*
G37*
G36*
X110168279Y-68430401D02*
G01*
X109795198Y-68430401D01*
X109795198Y-71673946D01*
X110168279Y-71673946D01*
X110168279Y-68430401D01*
G37*
G36*
X109366552Y-71205000D02*
G01*
X108643593Y-71205000D01*
X108643593Y-70071713D01*
X108449420Y-70071713D01*
X108420159Y-70071462D01*
X108391603Y-70070711D01*
X108363754Y-70069459D01*
X108336610Y-70067706D01*
X108310173Y-70065452D01*
X108284442Y-70062697D01*
X108259416Y-70059441D01*
X108223202Y-70053618D01*
X108188576Y-70046668D01*
X108155539Y-70038591D01*
X108124091Y-70029388D01*
X108094230Y-70019057D01*
X108065959Y-70007599D01*
X108047924Y-69999291D01*
X108022223Y-69986016D01*
X107998143Y-69971764D01*
X107975684Y-69956535D01*
X107954845Y-69940330D01*
X107935627Y-69923147D01*
X107918030Y-69904988D01*
X107902053Y-69885853D01*
X107887697Y-69865740D01*
X107874962Y-69844651D01*
X107863848Y-69822585D01*
X107860467Y-69814890D01*
X107850968Y-69790137D01*
X107842435Y-69762883D01*
X107834868Y-69733129D01*
X107828267Y-69700873D01*
X107822632Y-69666117D01*
X107819412Y-69641557D01*
X107816621Y-69615885D01*
X107814260Y-69589102D01*
X107812328Y-69561207D01*
X107810825Y-69532201D01*
X107809752Y-69502083D01*
X107809108Y-69470854D01*
X107808893Y-69438513D01*
X107808893Y-69352418D01*
X108413394Y-69352418D01*
X108413547Y-69371167D01*
X108414348Y-69397763D01*
X108415837Y-69422523D01*
X108418890Y-69452681D01*
X108423164Y-69479576D01*
X108430224Y-69508607D01*
X108439192Y-69532539D01*
X108452473Y-69554528D01*
X108460223Y-69563149D01*
X108482479Y-69579966D01*
X108506207Y-69590707D01*
X108534228Y-69598056D01*
X108560858Y-69601589D01*
X108590470Y-69602766D01*
X108593254Y-69602759D01*
X108618098Y-69602187D01*
X108643593Y-69600935D01*
X108643593Y-68899347D01*
X108617994Y-68899723D01*
X108586500Y-68901392D01*
X108558021Y-68904398D01*
X108532557Y-68908739D01*
X108504966Y-68916043D01*
X108478076Y-68927564D01*
X108457969Y-68942090D01*
X108455226Y-68944820D01*
X108440600Y-68965285D01*
X108430806Y-68987685D01*
X108423188Y-69014944D01*
X108418661Y-69040251D01*
X108415527Y-69068668D01*
X108413786Y-69100196D01*
X108413394Y-69125882D01*
X108413394Y-69352418D01*
X107808893Y-69352418D01*
X107808893Y-69199155D01*
X107809005Y-69167473D01*
X107809342Y-69136845D01*
X107809902Y-69107271D01*
X107810687Y-69078751D01*
X107811696Y-69051286D01*
X107812929Y-69024874D01*
X107814386Y-68999518D01*
X107816993Y-68963459D01*
X107820104Y-68929772D01*
X107823719Y-68898458D01*
X107827839Y-68869516D01*
X107832463Y-68842945D01*
X107837592Y-68818747D01*
X107845425Y-68788484D01*
X107854880Y-68759365D01*
X107865956Y-68731392D01*
X107878655Y-68704563D01*
X107892976Y-68678880D01*
X107908918Y-68654341D01*
X107926483Y-68630947D01*
X107945669Y-68608698D01*
X107961256Y-68592800D01*
X107984225Y-68572722D01*
X108009694Y-68553922D01*
X108030436Y-68540661D01*
X108052584Y-68528119D01*
X108076139Y-68516296D01*
X108101099Y-68505192D01*
X108127466Y-68494808D01*
X108155238Y-68485143D01*
X108184417Y-68476196D01*
X108204793Y-68470651D01*
X108237353Y-68463003D01*
X108272306Y-68456161D01*
X108296938Y-68452046D01*
X108322633Y-68448290D01*
X108349393Y-68444891D01*
X108377216Y-68441850D01*
X108406103Y-68439166D01*
X108436054Y-68436841D01*
X108467068Y-68434873D01*
X108499146Y-68433263D01*
X108532289Y-68432011D01*
X108566494Y-68431116D01*
X108601764Y-68430580D01*
X108638098Y-68430401D01*
X109366552Y-68430401D01*
X109366552Y-71205000D01*
G37*
G36*
X107610446Y-71205000D02*
G01*
X106887487Y-71205000D01*
X106887487Y-69954476D01*
X106860446Y-69954943D01*
X106827531Y-69957018D01*
X106798202Y-69960753D01*
X106772462Y-69966149D01*
X106745330Y-69975227D01*
X106720171Y-69989545D01*
X106703084Y-70007599D01*
X106700905Y-70011085D01*
X106691048Y-70033488D01*
X106684408Y-70057378D01*
X106678874Y-70086572D01*
X106675450Y-70111950D01*
X106672649Y-70140311D01*
X106670470Y-70171655D01*
X106668914Y-70205984D01*
X106668222Y-70230528D01*
X106667807Y-70256397D01*
X106667669Y-70283593D01*
X106667669Y-71205000D01*
X105996001Y-71205000D01*
X105996001Y-70474103D01*
X105996019Y-70453368D01*
X105996162Y-70413431D01*
X105996448Y-70375535D01*
X105996877Y-70339681D01*
X105997450Y-70305869D01*
X105998165Y-70274098D01*
X105999024Y-70244369D01*
X106000026Y-70216682D01*
X106001171Y-70191036D01*
X106003156Y-70156396D01*
X106005464Y-70126350D01*
X106009042Y-70093435D01*
X106014319Y-70063775D01*
X106021224Y-70040153D01*
X106030872Y-70015845D01*
X106043263Y-69990851D01*
X106058397Y-69965171D01*
X106072479Y-69944134D01*
X106088317Y-69922658D01*
X106105910Y-69900743D01*
X106110665Y-69895206D01*
X106132427Y-69873763D01*
X106151629Y-69858420D01*
X106173300Y-69843710D01*
X106197439Y-69829633D01*
X106224047Y-69816190D01*
X106253124Y-69803379D01*
X106284669Y-69791203D01*
X106318683Y-69779659D01*
X106342730Y-69772315D01*
X106367875Y-69765252D01*
X106394117Y-69758471D01*
X106365113Y-69755301D01*
X106337330Y-69751440D01*
X106310769Y-69746886D01*
X106285428Y-69741641D01*
X106249708Y-69732477D01*
X106216735Y-69721756D01*
X106186510Y-69709479D01*
X106159033Y-69695645D01*
X106134303Y-69680256D01*
X106112321Y-69663310D01*
X106093087Y-69644807D01*
X106076601Y-69624748D01*
X106062197Y-69601929D01*
X106049209Y-69575375D01*
X106037639Y-69545086D01*
X106027485Y-69511061D01*
X106021503Y-69486303D01*
X106016151Y-69459884D01*
X106011428Y-69431806D01*
X106007335Y-69402067D01*
X106003872Y-69370669D01*
X106001038Y-69337610D01*
X105998834Y-69302892D01*
X105997463Y-69271207D01*
X106667669Y-69271207D01*
X106667716Y-69282660D01*
X106668432Y-69315247D01*
X106670006Y-69345171D01*
X106672439Y-69372434D01*
X106675730Y-69397035D01*
X106681455Y-69425695D01*
X106688706Y-69449623D01*
X106699916Y-69472879D01*
X106716517Y-69491025D01*
X106729874Y-69498896D01*
X106754203Y-69508735D01*
X106778413Y-69515131D01*
X106806200Y-69519886D01*
X106831006Y-69522510D01*
X106858102Y-69524084D01*
X106887487Y-69524609D01*
X106887487Y-68899347D01*
X106872146Y-68899512D01*
X106843294Y-68900828D01*
X106816886Y-68903461D01*
X106787309Y-68908605D01*
X106761549Y-68915805D01*
X106735675Y-68927161D01*
X106715296Y-68941479D01*
X106704133Y-68953300D01*
X106690180Y-68976434D01*
X106681110Y-69000664D01*
X106674366Y-69029397D01*
X106670645Y-69055624D01*
X106668413Y-69084733D01*
X106667669Y-69116723D01*
X106667669Y-69271207D01*
X105997463Y-69271207D01*
X105997260Y-69266513D01*
X105996316Y-69228474D01*
X105996001Y-69188775D01*
X105996447Y-69145109D01*
X105997785Y-69102956D01*
X106000015Y-69062315D01*
X106003137Y-69023186D01*
X106007151Y-68985569D01*
X106012058Y-68949465D01*
X106017856Y-68914872D01*
X106024547Y-68881792D01*
X106032129Y-68850224D01*
X106040604Y-68820168D01*
X106049970Y-68791625D01*
X106060229Y-68764594D01*
X106071380Y-68739075D01*
X106083422Y-68715068D01*
X106096357Y-68692573D01*
X106110184Y-68671591D01*
X106124720Y-68651770D01*
X106147506Y-68623845D01*
X106171474Y-68598089D01*
X106196622Y-68574500D01*
X106222951Y-68553080D01*
X106250460Y-68533828D01*
X106279151Y-68516744D01*
X106309022Y-68501829D01*
X106340073Y-68489081D01*
X106372305Y-68478502D01*
X106405718Y-68470090D01*
X106429677Y-68465284D01*
X106456217Y-68460788D01*
X106485338Y-68456602D01*
X106517039Y-68452726D01*
X106551322Y-68449160D01*
X106588185Y-68445904D01*
X106627628Y-68442959D01*
X106669653Y-68440323D01*
X106714258Y-68437998D01*
X106761444Y-68435982D01*
X106786005Y-68435091D01*
X106811211Y-68434277D01*
X106837062Y-68433540D01*
X106863559Y-68432881D01*
X106890701Y-68432300D01*
X106918487Y-68431796D01*
X106946919Y-68431370D01*
X106975996Y-68431021D01*
X107005719Y-68430750D01*
X107036086Y-68430556D01*
X107067099Y-68430440D01*
X107098757Y-68430401D01*
X107610446Y-68430401D01*
X107610446Y-71205000D01*
G37*
G36*
X104925625Y-68391396D02*
G01*
X104954629Y-68391993D01*
X104983175Y-68393185D01*
X105011263Y-68394974D01*
X105038893Y-68397359D01*
X105066065Y-68400341D01*
X105092779Y-68403919D01*
X105119035Y-68408093D01*
X105144833Y-68412863D01*
X105170174Y-68418230D01*
X105195056Y-68424193D01*
X105219480Y-68430752D01*
X105243446Y-68437908D01*
X105266955Y-68445659D01*
X105290005Y-68454008D01*
X105323722Y-68467648D01*
X105345497Y-68477372D01*
X105377094Y-68492934D01*
X105407414Y-68509665D01*
X105436456Y-68527567D01*
X105464222Y-68546638D01*
X105490710Y-68566879D01*
X105515920Y-68588290D01*
X105539854Y-68610872D01*
X105562510Y-68634623D01*
X105583889Y-68659544D01*
X105603991Y-68685635D01*
X105616640Y-68703533D01*
X105634387Y-68730810D01*
X105650664Y-68758602D01*
X105665471Y-68786909D01*
X105678807Y-68815732D01*
X105690673Y-68845070D01*
X105701068Y-68874923D01*
X105709993Y-68905291D01*
X105717447Y-68936174D01*
X105723431Y-68967573D01*
X105727944Y-68999487D01*
X105731436Y-69033772D01*
X105733573Y-69058979D01*
X105735558Y-69086065D01*
X105737389Y-69115031D01*
X105739069Y-69145876D01*
X105740595Y-69178601D01*
X105741969Y-69213205D01*
X105743190Y-69249689D01*
X105744259Y-69288052D01*
X105745175Y-69328295D01*
X105745938Y-69370417D01*
X105746549Y-69414419D01*
X105747007Y-69460301D01*
X105747312Y-69508061D01*
X105747407Y-69532647D01*
X105747465Y-69557702D01*
X105747484Y-69583227D01*
X105747484Y-70052173D01*
X105747464Y-70078335D01*
X105747405Y-70104001D01*
X105747306Y-70129172D01*
X105746992Y-70178030D01*
X105746519Y-70224909D01*
X105745890Y-70269808D01*
X105745103Y-70312727D01*
X105744158Y-70353666D01*
X105743056Y-70392625D01*
X105741797Y-70429605D01*
X105740380Y-70464606D01*
X105738806Y-70497626D01*
X105737074Y-70528667D01*
X105735185Y-70557728D01*
X105733138Y-70584809D01*
X105730935Y-70609911D01*
X105727334Y-70643852D01*
X105724397Y-70664896D01*
X105718714Y-70696096D01*
X105711496Y-70726856D01*
X105702743Y-70757176D01*
X105692455Y-70787056D01*
X105680632Y-70816495D01*
X105667275Y-70845495D01*
X105652382Y-70874055D01*
X105635955Y-70902174D01*
X105617993Y-70929854D01*
X105598495Y-70957093D01*
X105584640Y-70974751D01*
X105562846Y-71000190D01*
X105539839Y-71024374D01*
X105515619Y-71047302D01*
X105490187Y-71068975D01*
X105463541Y-71089391D01*
X105435683Y-71108552D01*
X105406612Y-71126457D01*
X105376327Y-71143106D01*
X105344831Y-71158500D01*
X105312121Y-71172637D01*
X105278402Y-71185405D01*
X105243878Y-71196916D01*
X105220415Y-71203893D01*
X105196594Y-71210311D01*
X105172416Y-71216172D01*
X105147879Y-71221474D01*
X105122985Y-71226218D01*
X105097733Y-71230404D01*
X105072123Y-71234032D01*
X105046156Y-71237102D01*
X105019831Y-71239613D01*
X104993148Y-71241567D01*
X104966107Y-71242962D01*
X104938708Y-71243799D01*
X104910952Y-71244078D01*
X104881795Y-71243783D01*
X104853097Y-71242895D01*
X104824856Y-71241416D01*
X104797074Y-71239346D01*
X104769749Y-71236684D01*
X104742882Y-71233431D01*
X104716473Y-71229586D01*
X104690523Y-71225150D01*
X104665030Y-71220122D01*
X104639995Y-71214502D01*
X104615418Y-71208291D01*
X104591299Y-71201489D01*
X104567638Y-71194094D01*
X104533005Y-71181894D01*
X104499403Y-71168363D01*
X104477554Y-71158565D01*
X104445855Y-71142901D01*
X104415444Y-71126079D01*
X104386321Y-71108097D01*
X104358486Y-71088956D01*
X104331939Y-71068655D01*
X104306680Y-71047196D01*
X104282709Y-71024577D01*
X104260026Y-71000799D01*
X104238630Y-70975862D01*
X104218523Y-70949766D01*
X104205877Y-70931867D01*
X104188142Y-70904590D01*
X104171888Y-70876798D01*
X104157116Y-70848491D01*
X104143824Y-70819668D01*
X104132014Y-70790330D01*
X104121685Y-70760478D01*
X104112837Y-70730109D01*
X104105470Y-70699226D01*
X104099585Y-70667827D01*
X104095181Y-70635914D01*
X104091580Y-70601628D01*
X104089376Y-70576421D01*
X104087329Y-70549335D01*
X104085440Y-70520369D01*
X104083709Y-70489524D01*
X104082134Y-70456799D01*
X104080718Y-70422195D01*
X104080191Y-70406936D01*
X104797990Y-70406936D01*
X104798010Y-70421800D01*
X104798172Y-70450494D01*
X104798496Y-70477809D01*
X104798983Y-70503745D01*
X104800017Y-70540065D01*
X104801416Y-70573283D01*
X104803180Y-70603399D01*
X104805308Y-70630413D01*
X104808714Y-70661606D01*
X104812769Y-70687285D01*
X104818750Y-70711629D01*
X104826359Y-70729923D01*
X104841419Y-70750326D01*
X104861621Y-70764652D01*
X104886966Y-70772900D01*
X104912784Y-70775132D01*
X104921587Y-70774915D01*
X104949207Y-70770737D01*
X104971860Y-70761241D01*
X104991666Y-70743877D01*
X105004985Y-70719567D01*
X105008477Y-70707554D01*
X105013534Y-70680450D01*
X105016892Y-70652391D01*
X105019010Y-70627627D01*
X105020785Y-70599676D01*
X105022216Y-70568536D01*
X105023304Y-70534209D01*
X105023838Y-70509554D01*
X105024219Y-70483481D01*
X105024448Y-70455992D01*
X105024525Y-70427086D01*
X105024525Y-69156413D01*
X105024496Y-69143410D01*
X105024057Y-69106371D01*
X105023093Y-69072284D01*
X105021603Y-69041149D01*
X105019587Y-69012965D01*
X105017045Y-68987732D01*
X105012837Y-68958681D01*
X105006263Y-68929746D01*
X104994605Y-68903011D01*
X104980230Y-68886356D01*
X104957969Y-68870954D01*
X104934613Y-68862940D01*
X104907899Y-68860268D01*
X104903746Y-68860320D01*
X104877178Y-68863588D01*
X104852181Y-68873549D01*
X104832909Y-68890150D01*
X104819361Y-68913391D01*
X104814352Y-68928675D01*
X104809030Y-68953845D01*
X104805524Y-68978832D01*
X104802685Y-69008132D01*
X104800995Y-69032936D01*
X104799680Y-69060167D01*
X104798741Y-69089823D01*
X104798177Y-69121905D01*
X104797990Y-69156413D01*
X104797990Y-70406936D01*
X104080191Y-70406936D01*
X104079458Y-70385711D01*
X104078356Y-70347348D01*
X104077412Y-70307105D01*
X104076625Y-70264983D01*
X104075995Y-70220981D01*
X104075523Y-70175100D01*
X104075208Y-70127339D01*
X104075109Y-70102753D01*
X104075050Y-70077698D01*
X104075031Y-70052173D01*
X104075031Y-69583227D01*
X104075051Y-69557066D01*
X104075112Y-69531399D01*
X104075213Y-69506228D01*
X104075538Y-69457370D01*
X104076024Y-69410491D01*
X104076673Y-69365593D01*
X104077484Y-69322674D01*
X104078457Y-69281734D01*
X104079592Y-69242775D01*
X104080890Y-69205795D01*
X104082350Y-69170795D01*
X104083972Y-69137774D01*
X104085756Y-69106733D01*
X104087702Y-69077672D01*
X104089810Y-69050591D01*
X104092081Y-69025489D01*
X104095791Y-68991549D01*
X104098656Y-68970507D01*
X104104250Y-68939319D01*
X104111400Y-68908582D01*
X104120106Y-68878297D01*
X104130369Y-68848462D01*
X104142189Y-68819077D01*
X104155564Y-68790144D01*
X104170496Y-68761661D01*
X104186984Y-68733629D01*
X104205029Y-68706048D01*
X104224629Y-68678918D01*
X104238411Y-68661189D01*
X104260103Y-68635660D01*
X104283019Y-68611408D01*
X104307158Y-68588433D01*
X104332521Y-68566735D01*
X104359107Y-68546315D01*
X104386917Y-68527172D01*
X104415951Y-68509307D01*
X104446208Y-68492718D01*
X104477689Y-68477407D01*
X104510394Y-68463374D01*
X104544107Y-68450497D01*
X104578615Y-68438887D01*
X104602061Y-68431851D01*
X104625860Y-68425378D01*
X104650013Y-68419467D01*
X104674518Y-68414119D01*
X104699376Y-68409335D01*
X104724588Y-68405113D01*
X104750152Y-68401454D01*
X104776070Y-68398358D01*
X104802340Y-68395825D01*
X104828964Y-68393855D01*
X104855940Y-68392448D01*
X104883269Y-68391603D01*
X104910952Y-68391322D01*
X104925625Y-68391396D01*
G37*
G36*
X102358614Y-68430401D02*
G01*
X102358614Y-68977505D01*
X102787871Y-68977505D01*
X102787871Y-71205000D01*
X103510830Y-71205000D01*
X103510830Y-68977505D01*
X103938255Y-68977505D01*
X103938255Y-68430401D01*
X102358614Y-68430401D01*
G37*
G36*
X101401201Y-68391396D02*
G01*
X101430205Y-68391993D01*
X101458751Y-68393185D01*
X101486839Y-68394974D01*
X101514469Y-68397359D01*
X101541641Y-68400341D01*
X101568355Y-68403919D01*
X101594611Y-68408093D01*
X101620409Y-68412863D01*
X101645749Y-68418230D01*
X101670632Y-68424193D01*
X101695056Y-68430752D01*
X101719022Y-68437908D01*
X101742531Y-68445659D01*
X101765581Y-68454008D01*
X101799298Y-68467648D01*
X101821072Y-68477372D01*
X101852669Y-68492934D01*
X101882989Y-68509665D01*
X101912032Y-68527567D01*
X101939797Y-68546638D01*
X101966285Y-68566879D01*
X101991496Y-68588290D01*
X102015430Y-68610872D01*
X102038086Y-68634623D01*
X102059465Y-68659544D01*
X102079567Y-68685635D01*
X102092215Y-68703533D01*
X102109963Y-68730810D01*
X102126240Y-68758602D01*
X102141047Y-68786909D01*
X102154383Y-68815732D01*
X102166248Y-68845070D01*
X102176644Y-68874923D01*
X102185568Y-68905291D01*
X102193023Y-68936174D01*
X102199007Y-68967573D01*
X102203520Y-68999487D01*
X102207012Y-69033772D01*
X102209149Y-69058979D01*
X102211133Y-69086065D01*
X102212965Y-69115031D01*
X102214644Y-69145876D01*
X102216171Y-69178601D01*
X102217545Y-69213205D01*
X102218766Y-69249689D01*
X102219835Y-69288052D01*
X102220750Y-69328295D01*
X102221514Y-69370417D01*
X102222124Y-69414419D01*
X102222582Y-69460301D01*
X102222888Y-69508061D01*
X102222983Y-69532647D01*
X102223040Y-69557702D01*
X102223059Y-69583227D01*
X102223059Y-70052173D01*
X102223040Y-70078335D01*
X102222981Y-70104001D01*
X102222882Y-70129172D01*
X102222567Y-70178030D01*
X102222095Y-70224909D01*
X102221465Y-70269808D01*
X102220678Y-70312727D01*
X102219734Y-70353666D01*
X102218632Y-70392625D01*
X102217372Y-70429605D01*
X102215956Y-70464606D01*
X102214381Y-70497626D01*
X102212650Y-70528667D01*
X102210761Y-70557728D01*
X102208714Y-70584809D01*
X102206510Y-70609911D01*
X102202909Y-70643852D01*
X102199973Y-70664896D01*
X102194290Y-70696096D01*
X102187072Y-70726856D01*
X102178319Y-70757176D01*
X102168031Y-70787056D01*
X102156208Y-70816495D01*
X102142850Y-70845495D01*
X102127958Y-70874055D01*
X102111530Y-70902174D01*
X102093568Y-70929854D01*
X102074071Y-70957093D01*
X102060216Y-70974751D01*
X102038422Y-71000190D01*
X102015415Y-71024374D01*
X101991195Y-71047302D01*
X101965762Y-71068975D01*
X101939117Y-71089391D01*
X101911259Y-71108552D01*
X101882187Y-71126457D01*
X101851903Y-71143106D01*
X101820406Y-71158500D01*
X101787696Y-71172637D01*
X101753978Y-71185405D01*
X101719454Y-71196916D01*
X101695991Y-71203893D01*
X101672170Y-71210311D01*
X101647991Y-71216172D01*
X101623455Y-71221474D01*
X101598561Y-71226218D01*
X101573309Y-71230404D01*
X101547699Y-71234032D01*
X101521732Y-71237102D01*
X101495406Y-71239613D01*
X101468723Y-71241567D01*
X101441683Y-71242962D01*
X101414284Y-71243799D01*
X101386528Y-71244078D01*
X101357371Y-71243783D01*
X101328673Y-71242895D01*
X101300432Y-71241416D01*
X101272649Y-71239346D01*
X101245325Y-71236684D01*
X101218458Y-71233431D01*
X101192049Y-71229586D01*
X101166098Y-71225150D01*
X101140606Y-71220122D01*
X101115571Y-71214502D01*
X101090994Y-71208291D01*
X101066875Y-71201489D01*
X101043214Y-71194094D01*
X101008581Y-71181894D01*
X100974978Y-71168363D01*
X100953130Y-71158565D01*
X100921431Y-71142901D01*
X100891020Y-71126079D01*
X100861897Y-71108097D01*
X100834062Y-71088956D01*
X100807515Y-71068655D01*
X100782255Y-71047196D01*
X100758284Y-71024577D01*
X100735601Y-71000799D01*
X100714206Y-70975862D01*
X100694099Y-70949766D01*
X100681453Y-70931867D01*
X100663718Y-70904590D01*
X100647464Y-70876798D01*
X100632691Y-70848491D01*
X100619400Y-70819668D01*
X100607590Y-70790330D01*
X100597261Y-70760478D01*
X100588413Y-70730109D01*
X100581046Y-70699226D01*
X100575161Y-70667827D01*
X100570756Y-70635914D01*
X100567155Y-70601628D01*
X100564951Y-70576421D01*
X100562905Y-70549335D01*
X100561016Y-70520369D01*
X100559284Y-70489524D01*
X100557710Y-70456799D01*
X100556293Y-70422195D01*
X100555766Y-70406936D01*
X101273565Y-70406936D01*
X101273586Y-70421800D01*
X101273748Y-70450494D01*
X101274072Y-70477809D01*
X101274559Y-70503745D01*
X101275593Y-70540065D01*
X101276992Y-70573283D01*
X101278755Y-70603399D01*
X101280884Y-70630413D01*
X101284290Y-70661606D01*
X101288345Y-70687285D01*
X101294326Y-70711629D01*
X101301935Y-70729923D01*
X101316995Y-70750326D01*
X101337197Y-70764652D01*
X101362542Y-70772900D01*
X101388359Y-70775132D01*
X101397163Y-70774915D01*
X101424783Y-70770737D01*
X101447436Y-70761241D01*
X101467242Y-70743877D01*
X101480561Y-70719567D01*
X101484053Y-70707554D01*
X101489110Y-70680450D01*
X101492468Y-70652391D01*
X101494586Y-70627627D01*
X101496361Y-70599676D01*
X101497792Y-70568536D01*
X101498879Y-70534209D01*
X101499414Y-70509554D01*
X101499795Y-70483481D01*
X101500024Y-70455992D01*
X101500100Y-70427086D01*
X101500100Y-69156413D01*
X101500071Y-69143410D01*
X101499633Y-69106371D01*
X101498669Y-69072284D01*
X101497179Y-69041149D01*
X101495163Y-69012965D01*
X101492621Y-68987732D01*
X101488413Y-68958681D01*
X101481839Y-68929746D01*
X101470181Y-68903011D01*
X101455805Y-68886356D01*
X101433544Y-68870954D01*
X101410189Y-68862940D01*
X101383475Y-68860268D01*
X101379321Y-68860320D01*
X101352753Y-68863588D01*
X101327757Y-68873549D01*
X101308484Y-68890150D01*
X101294936Y-68913391D01*
X101289928Y-68928675D01*
X101284606Y-68953845D01*
X101281099Y-68978832D01*
X101278261Y-69008132D01*
X101276571Y-69032936D01*
X101275256Y-69060167D01*
X101274317Y-69089823D01*
X101273753Y-69121905D01*
X101273565Y-69156413D01*
X101273565Y-70406936D01*
X100555766Y-70406936D01*
X100555034Y-70385711D01*
X100553932Y-70347348D01*
X100552987Y-70307105D01*
X100552200Y-70264983D01*
X100551571Y-70220981D01*
X100551098Y-70175100D01*
X100550784Y-70127339D01*
X100550685Y-70102753D01*
X100550626Y-70077698D01*
X100550606Y-70052173D01*
X100550606Y-69583227D01*
X100550627Y-69557066D01*
X100550688Y-69531399D01*
X100550789Y-69506228D01*
X100551113Y-69457370D01*
X100551600Y-69410491D01*
X100552249Y-69365593D01*
X100553060Y-69322674D01*
X100554033Y-69281734D01*
X100555168Y-69242775D01*
X100556466Y-69205795D01*
X100557925Y-69170795D01*
X100559547Y-69137774D01*
X100561331Y-69106733D01*
X100563278Y-69077672D01*
X100565386Y-69050591D01*
X100567657Y-69025489D01*
X100571367Y-68991549D01*
X100574232Y-68970507D01*
X100579826Y-68939319D01*
X100586976Y-68908582D01*
X100595682Y-68878297D01*
X100605945Y-68848462D01*
X100617764Y-68819077D01*
X100631140Y-68790144D01*
X100646072Y-68761661D01*
X100662560Y-68733629D01*
X100680604Y-68706048D01*
X100700205Y-68678918D01*
X100713987Y-68661189D01*
X100735679Y-68635660D01*
X100758594Y-68611408D01*
X100782734Y-68588433D01*
X100808097Y-68566735D01*
X100834683Y-68546315D01*
X100862493Y-68527172D01*
X100891527Y-68509307D01*
X100921784Y-68492718D01*
X100953265Y-68477407D01*
X100985969Y-68463374D01*
X101019683Y-68450497D01*
X101054190Y-68438887D01*
X101077637Y-68431851D01*
X101101436Y-68425378D01*
X101125588Y-68419467D01*
X101150094Y-68414119D01*
X101174952Y-68409335D01*
X101200164Y-68405113D01*
X101225728Y-68401454D01*
X101251645Y-68398358D01*
X101277916Y-68395825D01*
X101304539Y-68393855D01*
X101331516Y-68392448D01*
X101358845Y-68391603D01*
X101386528Y-68391322D01*
X101401201Y-68391396D01*
G37*
G36*
X98834190Y-68430401D02*
G01*
X98834190Y-68977505D01*
X99263447Y-68977505D01*
X99263447Y-71205000D01*
X99986405Y-71205000D01*
X99986405Y-68977505D01*
X100413830Y-68977505D01*
X100413830Y-68430401D01*
X98834190Y-68430401D01*
G37*
G36*
X97049996Y-68430401D02*
G01*
X97576950Y-70200551D01*
X97576950Y-71205000D01*
X98246786Y-71205000D01*
X98246786Y-70200551D01*
X98755421Y-68430401D01*
X98090470Y-68430401D01*
X98080835Y-68480822D01*
X98071468Y-68530192D01*
X98062369Y-68578510D01*
X98053538Y-68625776D01*
X98044976Y-68671990D01*
X98036682Y-68717152D01*
X98028656Y-68761263D01*
X98020899Y-68804321D01*
X98013410Y-68846328D01*
X98006190Y-68887283D01*
X97999238Y-68927186D01*
X97992554Y-68966037D01*
X97986138Y-69003836D01*
X97979991Y-69040583D01*
X97974112Y-69076279D01*
X97968502Y-69110922D01*
X97963159Y-69144514D01*
X97958085Y-69177054D01*
X97953280Y-69208542D01*
X97948743Y-69238978D01*
X97944474Y-69268362D01*
X97940473Y-69296695D01*
X97936741Y-69323975D01*
X97933277Y-69350204D01*
X97930082Y-69375381D01*
X97924496Y-69422579D01*
X97919983Y-69465569D01*
X97916543Y-69504353D01*
X97915226Y-69522166D01*
X97911407Y-69494444D01*
X97907429Y-69466310D01*
X97903292Y-69437763D01*
X97898997Y-69408803D01*
X97894544Y-69379431D01*
X97889931Y-69349646D01*
X97885160Y-69319448D01*
X97880231Y-69288838D01*
X97875142Y-69257815D01*
X97869896Y-69226380D01*
X97864490Y-69194531D01*
X97858926Y-69162271D01*
X97853204Y-69129597D01*
X97847322Y-69096511D01*
X97841282Y-69063012D01*
X97835084Y-69029101D01*
X97828727Y-68994777D01*
X97822211Y-68960040D01*
X97815537Y-68924891D01*
X97808704Y-68889329D01*
X97801712Y-68853355D01*
X97794562Y-68816968D01*
X97787253Y-68780168D01*
X97779786Y-68742955D01*
X97772160Y-68705330D01*
X97764375Y-68667292D01*
X97756432Y-68628842D01*
X97748330Y-68589979D01*
X97740069Y-68550703D01*
X97731650Y-68511015D01*
X97723073Y-68470914D01*
X97714336Y-68430401D01*
X97049996Y-68430401D01*
G37*
G36*
X96934591Y-71205000D02*
G01*
X96211632Y-71205000D01*
X96211632Y-70071713D01*
X96017459Y-70071713D01*
X95988198Y-70071462D01*
X95959642Y-70070711D01*
X95931793Y-70069459D01*
X95904649Y-70067706D01*
X95878212Y-70065452D01*
X95852481Y-70062697D01*
X95827455Y-70059441D01*
X95791241Y-70053618D01*
X95756615Y-70046668D01*
X95723578Y-70038591D01*
X95692130Y-70029388D01*
X95662269Y-70019057D01*
X95633998Y-70007599D01*
X95615964Y-69999291D01*
X95590263Y-69986016D01*
X95566182Y-69971764D01*
X95543723Y-69956535D01*
X95522884Y-69940330D01*
X95503666Y-69923147D01*
X95486069Y-69904988D01*
X95470092Y-69885853D01*
X95455736Y-69865740D01*
X95443001Y-69844651D01*
X95431887Y-69822585D01*
X95428506Y-69814890D01*
X95419007Y-69790137D01*
X95410474Y-69762883D01*
X95402907Y-69733129D01*
X95396306Y-69700873D01*
X95390671Y-69666117D01*
X95387451Y-69641557D01*
X95384660Y-69615885D01*
X95382299Y-69589102D01*
X95380367Y-69561207D01*
X95378864Y-69532201D01*
X95377791Y-69502083D01*
X95377147Y-69470854D01*
X95376932Y-69438513D01*
X95376932Y-69352418D01*
X95981433Y-69352418D01*
X95981586Y-69371167D01*
X95982387Y-69397763D01*
X95983876Y-69422523D01*
X95986929Y-69452681D01*
X95991203Y-69479576D01*
X95998263Y-69508607D01*
X96007231Y-69532539D01*
X96020512Y-69554528D01*
X96028262Y-69563149D01*
X96050518Y-69579966D01*
X96074246Y-69590707D01*
X96102267Y-69598056D01*
X96128897Y-69601589D01*
X96158509Y-69602766D01*
X96161293Y-69602759D01*
X96186137Y-69602187D01*
X96211632Y-69600935D01*
X96211632Y-68899347D01*
X96186033Y-68899723D01*
X96154539Y-68901392D01*
X96126060Y-68904398D01*
X96100596Y-68908739D01*
X96073005Y-68916043D01*
X96046115Y-68927564D01*
X96026008Y-68942090D01*
X96023265Y-68944820D01*
X96008639Y-68965285D01*
X95998845Y-68987685D01*
X95991228Y-69014944D01*
X95986700Y-69040251D01*
X95983566Y-69068668D01*
X95981825Y-69100196D01*
X95981433Y-69125882D01*
X95981433Y-69352418D01*
X95376932Y-69352418D01*
X95376932Y-69199155D01*
X95377044Y-69167473D01*
X95377381Y-69136845D01*
X95377941Y-69107271D01*
X95378726Y-69078751D01*
X95379735Y-69051286D01*
X95380968Y-69024874D01*
X95382425Y-68999518D01*
X95385032Y-68963459D01*
X95388143Y-68929772D01*
X95391758Y-68898458D01*
X95395878Y-68869516D01*
X95400502Y-68842945D01*
X95405631Y-68818747D01*
X95413464Y-68788484D01*
X95422919Y-68759365D01*
X95433995Y-68731392D01*
X95446694Y-68704563D01*
X95461015Y-68678880D01*
X95476957Y-68654341D01*
X95494522Y-68630947D01*
X95513708Y-68608698D01*
X95529295Y-68592800D01*
X95552264Y-68572722D01*
X95577733Y-68553922D01*
X95598475Y-68540661D01*
X95620624Y-68528119D01*
X95644178Y-68516296D01*
X95669138Y-68505192D01*
X95695505Y-68494808D01*
X95723277Y-68485143D01*
X95752456Y-68476196D01*
X95772832Y-68470651D01*
X95805392Y-68463003D01*
X95840345Y-68456161D01*
X95864977Y-68452046D01*
X95890672Y-68448290D01*
X95917432Y-68444891D01*
X95945255Y-68441850D01*
X95974142Y-68439166D01*
X96004093Y-68436841D01*
X96035107Y-68434873D01*
X96067185Y-68433263D01*
X96100328Y-68432011D01*
X96134534Y-68431116D01*
X96169803Y-68430580D01*
X96206137Y-68430401D01*
X96934591Y-68430401D01*
X96934591Y-71205000D01*
G37*
G36*
X95178485Y-68430401D02*
G01*
X93972536Y-68430401D01*
X93972536Y-68977505D01*
X94455526Y-68977505D01*
X94455526Y-69485530D01*
X94003677Y-69485530D01*
X94003677Y-70032634D01*
X94455526Y-70032634D01*
X94455526Y-70657896D01*
X93924909Y-70657896D01*
X93924909Y-71205000D01*
X95178485Y-71205000D01*
X95178485Y-68430401D01*
G37*
G36*
X93579305Y-68430401D02*
G01*
X93206224Y-68430401D01*
X93206224Y-71673946D01*
X93579305Y-71673946D01*
X93579305Y-68430401D01*
G37*
M02*
